<svg width="16" height="16" viewBox="0 0 16 16" fill="none" xmlns="http://www.w3.org/2000/svg">
<rect width="16" height="16" rx="8" fill="#010024"/>
<path d="M5.4 11.088C4.97333 11.088 4.57067 11.024 4.192 10.896C3.81867 10.768 3.45067 10.5813 3.088 10.336L3.76 9.304C4.11733 9.53867 4.424 9.70933 4.68 9.816C4.936 9.91733 5.18667 9.968 5.432 9.968C5.608 9.968 5.75733 9.944 5.88 9.896C6.008 9.848 6.10667 9.78133 6.176 9.696C6.24533 9.61067 6.28 9.512 6.28 9.4C6.28 9.24 6.224 9.11733 6.112 9.032C6 8.94667 5.85333 8.88 5.672 8.832C5.49067 8.77867 5.29067 8.73333 5.072 8.696C4.85333 8.65333 4.63467 8.60267 4.416 8.544C4.19733 8.48 3.99733 8.392 3.816 8.28C3.63467 8.168 3.488 8.01867 3.376 7.832C3.264 7.64 3.208 7.392 3.208 7.088C3.208 6.72 3.29333 6.40533 3.464 6.144C3.63467 5.87733 3.88 5.672 4.2 5.528C4.52533 5.384 4.91467 5.312 5.368 5.312C5.77867 5.312 6.17333 5.37333 6.552 5.496C6.936 5.61867 7.264 5.78933 7.536 6.008L6.84 7.008C6.58933 6.816 6.336 6.672 6.08 6.576C5.82933 6.48 5.568 6.432 5.296 6.432C5.04533 6.432 4.85067 6.48267 4.712 6.584C4.57333 6.68533 4.504 6.81333 4.504 6.968C4.504 7.112 4.56 7.224 4.672 7.304C4.784 7.37867 4.93333 7.44 5.12 7.488C5.30667 7.536 5.50933 7.58133 5.728 7.624C5.952 7.66133 6.17333 7.71467 6.392 7.784C6.616 7.848 6.82133 7.93867 7.008 8.056C7.19467 8.168 7.344 8.32267 7.456 8.52C7.568 8.71733 7.624 8.968 7.624 9.272C7.624 9.62933 7.53333 9.94667 7.352 10.224C7.17067 10.496 6.912 10.7093 6.576 10.864C6.24533 11.0133 5.85333 11.088 5.4 11.088ZM11.4369 11.328L11.0929 10.896C10.8209 11.024 10.5222 11.088 10.1969 11.088C9.77554 11.088 9.39421 10.976 9.05288 10.752C8.71154 10.528 8.43954 10.2027 8.23688 9.776C8.03954 9.344 7.94088 8.81867 7.94088 8.2C7.94088 7.58133 8.03954 7.05867 8.23688 6.632C8.43954 6.2 8.71154 5.872 9.05288 5.648C9.39421 5.424 9.77554 5.312 10.1969 5.312C10.6182 5.312 10.9995 5.424 11.3409 5.648C11.6822 5.872 11.9515 6.2 12.1489 6.632C12.3515 7.05867 12.4529 7.58133 12.4529 8.2C12.4529 8.62133 12.4022 9 12.3009 9.336C12.2049 9.672 12.0715 9.96267 11.9009 10.208L12.4449 10.896L11.4369 11.328ZM10.1969 9.864C10.2342 9.864 10.2635 9.86133 10.2849 9.856L9.70088 9.12L10.7089 8.688L10.9809 9.032C11.0075 8.92 11.0289 8.79467 11.0449 8.656C11.0609 8.51733 11.0689 8.36533 11.0689 8.2C11.0689 7.816 11.0289 7.50133 10.9489 7.256C10.8742 7.01067 10.7702 6.82933 10.6369 6.712C10.5089 6.59467 10.3622 6.536 10.1969 6.536C10.0315 6.536 9.88221 6.59467 9.74888 6.712C9.62088 6.82933 9.51688 7.01067 9.43688 7.256C9.36221 7.50133 9.32488 7.816 9.32488 8.2C9.32488 8.584 9.36221 8.89867 9.43688 9.144C9.51688 9.38933 9.62088 9.57067 9.74888 9.688C9.88221 9.80533 10.0315 9.864 10.1969 9.864Z" fill="white"/>
</svg>
