<svg width="389" height="740" viewBox="0 0 389 740" fill="none" xmlns="http://www.w3.org/2000/svg">
<path d="M278.858 597.518H110.128C100.35 597.518 90.9734 593.634 84.0598 586.721C77.1462 579.807 73.2622 570.43 73.2622 560.653V419.234C73.2622 409.457 77.1462 400.08 84.0598 393.166C90.9734 386.253 100.35 382.369 110.128 382.369H278.858C288.636 382.369 298.012 386.253 304.926 393.166C311.84 400.08 315.724 409.457 315.724 419.234V560.653C315.724 570.43 311.84 579.807 304.926 586.721C298.012 593.634 288.636 597.518 278.858 597.518Z" fill="white"/>
<g opacity="0.350006">
<path d="M308.485 558.316V518.035C305.209 523.228 300.671 527.507 295.293 530.472C289.916 533.436 283.875 534.989 277.734 534.987H111.252C105.112 534.989 99.0709 533.436 93.6937 530.472C88.3166 527.507 83.7783 523.228 80.5027 518.035V558.316C80.5065 567.009 83.9623 575.344 90.1101 581.489C96.258 587.634 104.595 591.086 113.287 591.086H275.703C284.395 591.085 292.731 587.632 298.878 581.487C305.025 575.342 308.481 567.008 308.485 558.316Z" fill="#02004E"/>
</g>
<path d="M278.856 601.441H110.128C87.6428 601.441 69.3394 583.142 69.3394 560.653V419.234C69.3394 396.749 87.6357 378.448 110.128 378.448H278.856C301.341 378.448 319.647 396.744 319.647 419.234V560.653C319.651 583.142 301.348 601.441 278.856 601.441ZM110.128 386.294C91.9628 386.294 77.1851 401.069 77.1851 419.234V560.653C77.1851 578.818 91.9628 593.595 110.128 593.595H278.856C297.035 593.595 311.801 578.818 311.801 560.653V419.234C311.801 401.069 297.023 386.294 278.856 386.294H110.128Z" fill="#02004E"/>
<path d="M112.125 373.104C31.0005 433.763 27.9267 482.784 33.5073 506.883C36.4422 519.595 45.9193 529.201 58.946 529.906C93.0821 531.765 111.35 478.663 111.35 478.663L123.25 386.947L112.125 373.104Z" fill="white"/>
<g opacity="0.350006">
<path d="M44.0154 488.312C44.0154 488.312 41.9248 435.16 106.097 395.962L118.949 407.322C118.949 407.322 54.1742 425.4 44.0154 488.312Z" fill="#02004E"/>
</g>
<path d="M60.721 533.877C60.0632 533.877 59.403 533.86 58.7332 533.825C44.5655 533.054 33.1629 522.821 29.6849 507.766C23.9442 482.952 26.7356 432.055 109.776 369.961C110.59 369.353 111.609 369.084 112.618 369.212C113.626 369.34 114.546 369.855 115.182 370.648L126.307 384.495C126.638 384.907 126.883 385.382 127.026 385.89C127.169 386.399 127.208 386.932 127.139 387.456L115.242 479.172C115.208 479.435 115.147 479.693 115.06 479.943C114.29 482.184 96.0865 533.877 60.721 533.877ZM111.45 378.527C34.9186 436.892 32.0937 483.342 37.3273 506.001C40.0399 517.748 48.4046 525.407 59.159 525.991C59.6661 526.017 60.1756 526.031 60.6755 526.031C89.2 526.031 105.908 482.16 107.515 477.744L119.145 388.105L111.45 378.527Z" fill="#02004E"/>
<path d="M312.186 712.611C311.92 723.064 306.428 728.932 301.025 732.18C296.655 734.811 291.608 736.065 286.515 736.065H227.041C222.214 736.066 217.573 734.205 214.085 730.869C210.596 727.534 208.53 722.98 208.316 718.158L203.054 600.044C203.054 600.044 199.425 600.343 194.5 600.343C189.575 600.343 185.946 600.044 185.946 600.044L180.684 718.158C180.469 722.98 178.402 727.533 174.913 730.869C171.425 734.205 166.784 736.066 161.957 736.065H102.471C97.3782 736.065 92.3287 734.811 87.9585 732.18C82.555 728.932 77.0654 723.064 76.7975 712.611C76.7076 709.696 77.1402 706.789 78.0748 704.026C82.9449 689.78 99.995 684.666 99.995 684.666C99.995 625.359 102.669 576.392 106.097 538.075C106.618 532.205 107.161 526.588 107.726 521.223C113.507 465.052 120.43 436.341 120.43 436.341C120.427 430.594 121.557 424.902 123.756 419.591C125.955 414.28 129.179 409.455 133.244 405.391C135.194 403.434 137.331 401.672 139.623 400.129C146.861 395.191 155.422 392.557 164.184 392.573H224.802C232.287 392.58 239.647 394.504 246.178 398.16C252.71 401.817 258.197 407.085 262.117 413.462C263.848 416.283 265.255 419.29 266.31 422.427C267.762 426.797 270.443 430.593 270.443 435.452C270.443 435.452 275.428 464.816 281.207 520.551C281.816 526.431 282.411 532.61 282.992 539.089C286.376 577.253 289.017 625.875 289.005 684.661C289.005 684.661 312.724 691.772 312.207 712.606" fill="white"/>
<g opacity="0.350006">
<path d="M310.911 704.026C310.911 704.026 301.18 723.416 264.985 722.031C228.789 720.646 221.499 718.271 219.324 695.937C218.255 684.948 217.088 663.865 216.179 645.274C215.318 627.633 223.417 610.662 237.896 600.544C243.249 596.801 247.831 592.062 251.394 586.587C253.57 583.262 250.53 578.983 246.681 579.961C234.815 582.975 213.825 587.486 194.486 587.486C175.147 587.486 154.157 582.975 142.29 579.961C138.439 578.983 135.401 583.262 137.576 586.587C141.139 592.062 145.723 596.8 151.076 600.544C165.552 610.662 173.654 627.633 172.79 645.274C171.882 663.865 170.717 684.948 169.647 695.937C167.471 718.271 160.161 720.643 123.984 722.031C87.8079 723.418 78.0582 704.026 78.0582 704.026C77.1237 706.789 76.6912 709.696 76.7809 712.611C77.0488 723.062 82.5384 728.932 87.9419 732.182C92.312 734.814 97.3615 736.065 102.454 736.065H161.943C166.771 736.068 171.414 734.207 174.904 730.871C178.394 727.535 180.462 722.981 180.677 718.158L185.939 600.042C185.939 600.042 189.568 600.341 194.493 600.341C199.418 600.341 203.044 600.042 203.044 600.042L208.307 718.158C208.521 722.98 210.587 727.533 214.075 730.869C217.563 734.205 222.205 736.066 227.031 736.065H286.506C291.598 736.065 296.645 734.811 301.018 732.182C306.419 728.932 311.911 723.062 312.176 712.611C312.266 709.696 311.834 706.789 310.902 704.026" fill="#02004E"/>
</g>
<g opacity="0.350006">
<path d="M282.975 539.094C281.558 540.205 279.808 540.807 278.007 540.802H254.876V550.709C254.876 553.202 254.385 555.671 253.431 557.974C252.477 560.277 251.079 562.369 249.316 564.132C247.553 565.894 245.461 567.292 243.158 568.246C240.855 569.2 238.386 569.69 235.893 569.69H153.647C151.155 569.69 148.686 569.2 146.383 568.246C144.08 567.292 141.987 565.894 140.225 564.132C138.462 562.369 137.063 560.277 136.109 557.974C135.155 555.671 134.664 553.202 134.664 550.709V540.802H112.165C111.018 540.804 109.884 540.562 108.838 540.092C107.791 539.622 106.857 538.934 106.097 538.075C106.618 532.202 107.162 526.584 107.728 521.221C109.045 520.354 110.589 519.894 112.165 519.901H134.662V509.983C134.662 507.491 135.153 505.022 136.107 502.719C137.061 500.416 138.46 498.323 140.223 496.561C141.986 494.798 144.079 493.4 146.382 492.447C148.686 491.493 151.154 491.002 153.647 491.003H235.893C238.386 491.003 240.855 491.493 243.158 492.447C245.461 493.401 247.553 494.799 249.316 496.561C251.079 498.324 252.477 500.416 253.431 502.719C254.385 505.022 254.876 507.491 254.876 509.983V519.901H278.007C279.102 519.9 280.185 520.123 281.19 520.556C281.8 526.436 282.394 532.615 282.975 539.094Z" fill="#02004E"/>
</g>
<path d="M98.7248 680.953C100.232 680.448 101.488 680.099 102.875 679.774C104.262 679.449 105.592 679.19 106.956 678.939C109.685 678.459 112.442 678.151 115.21 678.016C117.988 677.883 120.771 677.921 123.544 678.131C126.329 678.376 129.093 678.813 131.818 679.437C134.548 680.078 137.217 680.958 139.793 682.068C142.378 683.152 144.833 684.525 147.11 686.161C148.242 686.971 149.333 687.838 150.377 688.758C151.358 689.749 152.406 690.643 153.269 691.727C155.121 693.762 156.592 696.097 157.862 698.465C157.919 698.569 157.937 698.69 157.913 698.806C157.889 698.922 157.825 699.026 157.731 699.099C157.638 699.172 157.521 699.209 157.403 699.204C157.285 699.2 157.172 699.153 157.085 699.073H157.068C153.157 695.516 149.117 692.425 144.629 690.251C143.527 689.686 142.386 689.196 141.257 688.708C140.089 688.289 138.953 687.823 137.769 687.479C135.421 686.73 133.012 686.188 130.569 685.859C125.659 685.169 120.682 685.084 115.751 685.606C113.273 685.83 110.807 686.216 108.357 686.656C107.137 686.895 105.917 687.134 104.717 687.45C103.552 687.749 102.258 688.065 101.267 688.38L101.157 688.416C100.177 688.71 99.1199 688.609 98.2126 688.135C97.3054 687.66 96.6196 686.85 96.3018 685.877C95.9839 684.903 96.0591 683.844 96.5114 682.926C96.9637 682.007 97.7572 681.302 98.7224 680.96" fill="#02004E"/>
<path d="M287.716 688.373C286.723 688.06 285.431 687.742 284.264 687.44C283.097 687.139 281.843 686.89 280.623 686.649C278.174 686.208 275.71 685.823 273.232 685.598C268.297 685.076 263.316 685.161 258.402 685.852C255.959 686.181 253.55 686.723 251.202 687.471C250.006 687.816 248.882 688.282 247.717 688.701C246.586 689.179 245.447 689.677 244.344 690.246C239.859 692.418 235.819 695.508 231.906 699.065H231.892C231.843 699.111 231.785 699.146 231.722 699.169C231.659 699.192 231.593 699.203 231.526 699.2C231.459 699.196 231.393 699.18 231.333 699.151C231.272 699.122 231.218 699.082 231.174 699.032C231.104 698.955 231.06 698.859 231.047 698.756C231.035 698.653 231.055 698.549 231.105 698.458C232.372 696.09 233.843 693.755 235.697 691.722C236.558 690.636 237.611 689.741 238.589 688.749C239.634 687.829 240.724 686.963 241.857 686.153C244.133 684.517 246.588 683.144 249.174 682.061C251.749 680.951 254.418 680.07 257.149 679.43C259.873 678.803 262.638 678.366 265.422 678.121C270.964 677.698 276.537 677.968 282.011 678.927C283.372 679.178 284.733 679.441 286.092 679.764C287.45 680.087 288.723 680.439 290.239 680.944C291.228 681.266 292.048 681.968 292.519 682.895C292.991 683.822 293.074 684.898 292.752 685.887C292.43 686.875 291.728 687.696 290.801 688.167C289.874 688.638 288.798 688.722 287.809 688.399L287.716 688.373Z" fill="#02004E"/>
<path d="M202.731 596.133C204.24 596.035 205.963 595.88 207.592 595.705L212.564 595.09C215.882 594.629 219.193 594.052 222.496 593.399C225.799 592.746 229.074 591.928 232.344 591.062C235.635 590.242 238.886 589.273 242.232 588.41H242.259C242.469 588.356 242.691 588.379 242.886 588.474C243.081 588.569 243.236 588.729 243.324 588.927C243.412 589.126 243.427 589.348 243.366 589.557C243.306 589.765 243.173 589.945 242.993 590.065C240.07 592.004 236.997 593.705 233.803 595.153C230.619 596.624 227.325 597.824 224.01 598.98C220.695 600.135 217.313 601.118 213.892 601.958C210.428 602.84 206.913 603.511 203.367 603.967C202.852 604.04 202.327 604.01 201.823 603.878C201.319 603.746 200.847 603.516 200.433 603.2C200.019 602.883 199.673 602.488 199.413 602.037C199.154 601.585 198.987 601.087 198.922 600.57C198.857 600.053 198.895 599.529 199.035 599.027C199.175 598.526 199.413 598.057 199.736 597.648C200.058 597.24 200.459 596.899 200.915 596.647C201.37 596.395 201.871 596.235 202.389 596.179L202.609 596.155L202.731 596.133Z" fill="#02004E"/>
<path d="M185.619 603.953C182.073 603.498 178.558 602.827 175.094 601.944C171.671 601.104 168.289 600.133 164.976 598.966C161.663 597.798 158.367 596.609 155.169 595.138C151.98 593.693 148.911 591.995 145.993 590.06C145.81 589.941 145.676 589.761 145.615 589.552C145.553 589.343 145.567 589.119 145.656 588.919C145.744 588.72 145.9 588.559 146.096 588.464C146.293 588.369 146.516 588.348 146.727 588.403H146.754C150.102 589.264 153.351 590.235 156.642 591.053C159.914 591.921 163.182 592.746 166.49 593.39C169.798 594.033 173.106 594.619 176.424 595.081L181.394 595.698C183.026 595.873 184.743 596.028 186.255 596.129H186.367C187.406 596.197 188.376 596.674 189.063 597.457C189.75 598.24 190.097 599.264 190.029 600.303C189.961 601.342 189.484 602.311 188.701 602.998C187.918 603.685 186.895 604.033 185.855 603.965C185.781 603.965 185.695 603.95 185.616 603.941" fill="#02004E"/>
<path d="M183.569 656.99C182.943 656.99 182.327 656.839 181.772 656.55C145.529 637.833 102.004 651.86 101.569 652.005C100.592 652.294 99.5408 652.191 98.6382 651.719C97.7356 651.246 97.0522 650.441 96.7328 649.473C96.4133 648.506 96.4827 647.452 96.9264 646.535C97.3701 645.618 98.1532 644.909 99.11 644.559C101.024 643.928 146.151 629.32 185.382 649.582C186.167 649.984 186.794 650.639 187.161 651.441C187.529 652.243 187.615 653.145 187.407 654.002C187.198 654.859 186.707 655.621 186.013 656.164C185.318 656.708 184.46 657.001 183.578 656.998L183.569 656.99Z" fill="#02004E"/>
<path d="M205.417 656.99C204.535 656.994 203.677 656.7 202.983 656.157C202.288 655.613 201.797 654.852 201.588 653.995C201.38 653.137 201.466 652.235 201.834 651.433C202.201 650.631 202.828 649.977 203.613 649.575C242.842 629.313 287.984 643.92 289.885 644.552C290.866 644.885 291.675 645.592 292.136 646.52C292.597 647.447 292.673 648.519 292.347 649.502C292.02 650.485 291.319 651.299 290.395 651.766C289.471 652.234 288.399 652.317 287.414 651.998C286.917 651.833 243.43 637.84 207.213 656.543C206.659 656.834 206.043 656.988 205.417 656.99Z" fill="#02004E"/>
<path d="M269.46 436.121C272.96 446.067 275.321 456.262 277.354 466.5C278.44 471.616 279.186 476.785 280.066 481.928C280.856 487.087 281.535 492.261 282.274 497.428L284.24 512.954C284.881 518.133 285.403 523.321 285.986 528.502C286.57 533.683 287.008 538.881 287.486 544.076C287.965 549.272 288.467 554.46 288.826 559.663L289.974 575.263L290.854 590.878C291.498 601.286 291.811 611.71 292.241 622.125C292.672 632.539 292.706 642.966 292.923 653.388C292.992 663.807 292.987 674.228 292.909 684.649L290.115 680.893C291.072 681.192 291.749 681.451 292.528 681.762C293.308 682.073 294.023 682.381 294.753 682.719C296.216 683.391 297.644 684.137 299.032 684.953C301.861 686.597 304.487 688.569 306.854 690.827C309.303 693.166 311.363 695.882 312.954 698.872C314.547 701.938 315.558 705.273 315.936 708.707C316.281 712.093 316.083 715.512 315.35 718.835C314.57 722.25 313.105 725.472 311.045 728.305C306.852 733.993 300.63 737.595 294.076 739.122C292.441 739.496 290.781 739.747 289.108 739.873C288.273 739.94 287.434 739.964 286.606 739.973H231.112H226.598C224.808 739.946 223.028 739.705 221.295 739.256C216.933 738.117 213.01 735.703 210.028 732.323C207.045 728.942 205.138 724.75 204.551 720.28C204.499 719.835 204.441 719.39 204.42 718.948L204.377 718.287L204.353 717.735L204.252 715.515L203.879 706.646L202.298 671.168L199.136 600.219L203.372 603.953C201.82 604.07 200.394 604.137 198.911 604.192C197.428 604.247 195.971 604.266 194.498 604.268C193.024 604.271 191.556 604.242 190.084 604.192C188.613 604.142 187.176 604.075 185.621 603.953L189.86 600.219L186.695 671.168L185.116 706.643L184.719 715.51L184.621 717.73L184.597 718.283L184.554 718.943C184.53 719.385 184.475 719.83 184.42 720.275C184.19 722.053 183.747 723.796 183.102 725.468C181.805 728.82 179.732 731.817 177.053 734.213C174.373 736.609 171.164 738.335 167.688 739.251C165.956 739.702 164.175 739.943 162.385 739.968H157.872H102.377C101.545 739.968 100.703 739.935 99.8754 739.868C98.2012 739.755 96.5379 739.515 94.9001 739.15C88.346 737.627 82.1244 734.024 77.9313 728.339C75.8714 725.505 74.4067 722.284 73.6257 718.869C72.8922 715.545 72.6943 712.125 73.0397 708.739C73.4153 705.305 74.4251 701.97 76.0177 698.905C77.6093 695.915 79.6685 693.199 82.1173 690.858C84.4848 688.6 87.1102 686.628 89.9391 684.984C91.3272 684.168 92.7555 683.422 94.2183 682.75C94.9479 682.41 95.6894 682.094 96.4429 681.793C97.1964 681.491 97.9068 681.221 98.8516 680.925L96.0554 684.68C95.9454 674.262 95.9055 663.841 95.9358 653.417L96.1559 637.783C96.23 632.568 96.2898 627.358 96.5099 622.149C96.8974 611.729 97.1581 601.305 97.8207 590.895L98.7009 575.275L99.8395 559.672C100.194 554.47 100.698 549.274 101.16 544.079C101.622 538.883 102.064 533.686 102.643 528.5C103.222 523.314 103.743 518.123 104.382 512.952L106.341 497.418C107.776 487.078 109.137 476.721 111.268 466.478C113.337 456.233 115.773 446.043 119.463 436.136C119.546 435.914 119.706 435.729 119.914 435.616C120.121 435.503 120.363 435.469 120.594 435.521C120.825 435.573 121.03 435.706 121.17 435.897C121.31 436.088 121.376 436.323 121.355 436.559V436.59C120.475 446.974 119.332 457.283 118.143 467.574L114.364 498.411L112.744 513.842C112.206 518.994 111.787 524.163 111.309 529.32C110.831 534.477 110.414 539.644 109.998 544.808C109.582 549.973 109.147 555.139 108.85 560.316L107.826 575.83L106.982 591.359C106.377 601.709 106.042 612.078 105.578 622.436L104.564 653.531L104.284 669.079L103.93 684.644V684.68C103.91 685.514 103.629 686.321 103.128 686.988C102.627 687.655 101.929 688.148 101.134 688.399C100.667 688.548 99.9663 688.804 99.3707 689.043C98.7751 689.282 98.1316 689.555 97.5193 689.842C96.2946 690.406 95.0938 691.038 93.9313 691.715C91.6366 693.045 89.5059 694.64 87.583 696.468C83.8036 700.056 81.3638 704.6 80.8543 709.559C80.6079 712.072 80.754 714.609 81.2873 717.077C81.8263 719.452 82.8392 721.693 84.2653 723.667C85.7357 725.653 87.5752 727.336 89.6831 728.626C91.8326 729.965 94.191 730.935 96.6606 731.496C97.9116 731.781 99.182 731.973 100.461 732.07C101.102 732.123 101.748 732.139 102.394 732.147H157.867H162.23C163.402 732.128 164.567 731.967 165.701 731.668C167.973 731.067 170.071 729.935 171.822 728.367C173.573 726.799 174.928 724.838 175.776 722.646C176.198 721.555 176.487 720.417 176.637 719.256C176.67 718.964 176.711 718.672 176.723 718.381L176.754 717.931L176.78 717.376L176.878 715.159L177.273 706.292L178.854 670.816L182.016 599.865C182.063 598.826 182.521 597.848 183.289 597.146C184.057 596.444 185.072 596.075 186.111 596.121H186.212H186.255C187.547 596.219 188.975 596.289 190.345 596.334C191.716 596.38 193.11 596.404 194.493 596.404C195.875 596.404 197.258 596.382 198.641 596.334C200.023 596.286 201.437 596.219 202.728 596.121H202.755C203.269 596.083 203.785 596.146 204.274 596.307C204.764 596.468 205.216 596.724 205.607 597.06C205.997 597.396 206.318 597.806 206.55 598.266C206.782 598.726 206.921 599.227 206.96 599.74C206.96 599.774 206.96 599.827 206.96 599.858L210.122 670.809L211.706 706.287L212.1 715.154L212.198 717.371L212.225 717.926L212.253 718.373C212.268 718.668 212.306 718.957 212.342 719.249C212.49 720.412 212.78 721.553 213.208 722.646C214.057 724.836 215.412 726.795 217.163 728.362C218.914 729.928 221.011 731.058 223.283 731.659C224.416 731.958 225.582 732.118 226.754 732.137H231.117H286.594C287.24 732.137 287.883 732.113 288.527 732.06C289.805 731.963 291.075 731.771 292.325 731.486C294.796 730.926 297.155 729.955 299.305 728.616C301.413 727.332 303.254 725.654 304.728 723.674C306.153 721.7 307.166 719.459 307.703 717.084C308.239 714.616 308.385 712.079 308.136 709.566C307.617 704.61 305.187 700.068 301.408 696.475C299.483 694.648 297.352 693.053 295.057 691.722C293.897 691.04 292.696 690.413 291.469 689.849C290.857 689.562 290.237 689.301 289.617 689.05C288.998 688.799 288.319 688.555 287.857 688.407C287.064 688.18 286.364 687.705 285.861 687.052C285.358 686.398 285.079 685.6 285.063 684.776V684.651L284.537 653.524L283.628 622.428C283.214 612.066 282.927 601.697 282.305 591.333L281.458 575.801L280.447 560.28C280.155 555.104 279.712 549.939 279.313 544.773C278.913 539.606 278.535 534.432 278.019 529.275C277.502 524.118 277.129 518.946 276.583 513.792L274.943 498.332L271.154 467.475C269.931 457.19 268.711 446.883 267.642 436.537V436.506C267.619 436.279 267.68 436.051 267.813 435.866C267.947 435.68 268.144 435.55 268.367 435.5C268.59 435.45 268.823 435.484 269.023 435.595C269.223 435.706 269.375 435.886 269.451 436.102" fill="#02004E"/>
<path d="M278.009 530.808H112.163C110 530.808 107.925 529.948 106.395 528.418C104.866 526.888 104.006 524.813 104.006 522.649V518.066C104.007 515.903 104.867 513.829 106.396 512.3C107.926 510.771 110 509.912 112.163 509.912H278.009C280.172 509.912 282.246 510.771 283.775 512.3C285.304 513.829 286.163 515.903 286.163 518.066V522.649C286.164 523.72 285.953 524.781 285.543 525.771C285.134 526.76 284.533 527.66 283.776 528.417C283.019 529.175 282.12 529.776 281.13 530.186C280.141 530.597 279.08 530.808 278.009 530.808Z" fill="white"/>
<g opacity="0.350006">
<path d="M278.009 520.829H112.163C110.474 520.828 108.827 520.302 107.449 519.325C106.072 518.348 105.032 516.967 104.473 515.373C104.166 516.24 104.008 517.153 104.006 518.073V522.656C104.006 524.82 104.866 526.895 106.395 528.425C107.925 529.955 110 530.815 112.163 530.815H278.009C279.08 530.815 280.141 530.604 281.13 530.194C282.12 529.783 283.019 529.182 283.776 528.425C284.533 527.667 285.134 526.768 285.543 525.778C285.953 524.788 286.164 523.727 286.163 522.656V518.073C286.158 517.153 285.996 516.239 285.685 515.373C285.127 516.966 284.087 518.347 282.71 519.325C281.333 520.302 279.686 520.828 277.997 520.829" fill="#02004E"/>
</g>
<path d="M276.897 534.738H111.056C107.852 534.734 104.782 533.46 102.517 531.195C100.252 528.93 98.9774 525.859 98.9736 522.656V518.073C98.9781 514.871 100.253 511.801 102.518 509.537C104.783 507.272 107.853 505.999 111.056 505.996H276.897C280.099 505.999 283.17 507.272 285.435 509.537C287.7 511.801 288.974 514.871 288.979 518.073V522.656C288.975 525.859 287.701 528.93 285.436 531.195C283.171 533.46 280.1 534.734 276.897 534.738ZM111.056 513.842C109.933 513.842 108.856 514.287 108.062 515.081C107.267 515.874 106.821 516.951 106.819 518.073V522.656C106.82 523.78 107.267 524.857 108.061 525.651C108.855 526.445 109.932 526.892 111.056 526.892H276.897C278.02 526.892 279.097 526.445 279.892 525.651C280.686 524.857 281.132 523.78 281.133 522.656V518.073C281.132 516.951 280.685 515.874 279.891 515.081C279.096 514.287 278.02 513.842 276.897 513.842H111.056Z" fill="#02004E"/>
<path d="M235.891 559.711H153.647C148.613 559.711 143.786 557.711 140.226 554.151C136.667 550.592 134.667 545.764 134.667 540.73V500.002C134.667 494.968 136.667 490.14 140.226 486.581C143.786 483.021 148.613 481.021 153.647 481.021H235.891C240.925 481.021 245.753 483.021 249.312 486.581C252.872 490.14 254.872 494.968 254.872 500.002V540.73C254.872 545.764 252.872 550.592 249.312 554.151C245.753 557.711 240.925 559.711 235.891 559.711Z" fill="white"/>
<g opacity="0.350006">
<path d="M233.882 527.835H155.664C152.962 527.836 150.295 527.23 147.859 526.061C145.424 524.891 143.282 523.189 141.594 521.08V538.941C141.594 540.783 141.957 542.606 142.662 544.308C143.366 546.009 144.399 547.555 145.702 548.858C147.004 550.16 148.55 551.193 150.251 551.898C151.953 552.602 153.777 552.965 155.618 552.965H233.927C235.769 552.965 237.592 552.602 239.294 551.898C240.995 551.193 242.541 550.16 243.844 548.858C245.146 547.555 246.179 546.009 246.884 544.308C247.589 542.606 247.951 540.783 247.951 538.941V521.082C246.263 523.192 244.122 524.894 241.687 526.064C239.251 527.233 236.583 527.839 233.882 527.837" fill="#02004E"/>
</g>
<path d="M235.891 563.633H153.647C147.575 563.626 141.754 561.21 137.461 556.917C133.167 552.623 130.751 546.802 130.744 540.73V500.002C130.751 493.93 133.166 488.108 137.46 483.814C141.753 479.521 147.575 477.105 153.647 477.098H235.891C241.963 477.105 247.785 479.521 252.078 483.814C256.372 488.108 258.787 493.93 258.794 500.002V540.73C258.787 546.802 256.371 552.623 252.078 556.917C247.784 561.21 241.963 563.626 235.891 563.633ZM153.647 484.944C149.65 484.944 145.818 486.532 142.991 489.358C140.165 492.184 138.578 496.017 138.578 500.014V540.742C138.581 544.737 140.17 548.567 142.996 551.39C145.821 554.214 149.653 555.8 153.647 555.8H235.891C239.883 555.796 243.712 554.209 246.535 551.386C249.358 548.563 250.945 544.735 250.948 540.742V500.002C250.948 496.007 249.362 492.176 246.539 489.35C243.715 486.524 239.886 484.935 235.891 484.932L153.647 484.944Z" fill="#02004E"/>
<path d="M221.51 563.995L194.493 590.548L167.475 563.995L186.114 410.549H202.872L221.51 563.995Z" fill="#F42162"/>
<g opacity="0.350006">
<path d="M221.51 563.995L194.493 590.548L167.475 563.995L186.114 410.549H194.419V417.875H192.61L175.182 561.294L194.493 580.277L213.801 561.294L196.373 417.875H194.565V410.549H202.872L221.51 563.995Z" fill="#02004E"/>
</g>
<path d="M194.493 594.349C193.498 594.35 192.542 593.959 191.833 593.261L164.816 566.71C164.4 566.302 164.085 565.805 163.892 565.256C163.7 564.708 163.637 564.122 163.708 563.545L182.351 410.092C182.463 409.171 182.908 408.324 183.602 407.709C184.297 407.095 185.192 406.755 186.119 406.755H202.863C203.79 406.754 204.686 407.094 205.38 407.708C206.075 408.323 206.52 409.171 206.632 410.092L225.275 563.54C225.345 564.117 225.281 564.702 225.089 565.251C224.897 565.8 224.582 566.297 224.168 566.705L197.139 593.256C196.434 593.953 195.484 594.345 194.493 594.349ZM171.47 562.6L194.493 585.231L217.513 562.6L199.502 414.347H189.482L171.47 562.6Z" fill="#02004E"/>
<path d="M280.566 545.136C280.566 545.136 259.876 574.45 235.068 562.466C217.418 553.955 211.921 534.705 216.258 517.812C218.016 510.95 221.4 504.475 226.261 499.27C243.067 481.28 274.385 467.65 274.385 467.65C274.385 467.65 272.773 452.296 271.637 445.883C268.704 429.357 263.796 416.519 263.796 416.519L289.409 385.363C302.831 393.362 317.257 405.332 327.248 422.846C327.248 422.858 327.248 422.858 327.248 422.872C332.477 432.043 336.493 442.726 338.536 455.164C349.929 524.821 280.554 545.146 280.554 545.146" fill="white"/>
<g opacity="0.350006">
<path d="M280.566 545.136C280.566 545.136 259.876 574.45 235.068 562.466C217.418 553.955 211.921 534.705 216.258 517.812C216.442 517.958 216.552 518.033 216.552 518.033C216.552 518.033 226.876 577.569 273.185 536.001C274.694 534.637 276.416 533.528 278.282 532.717C291.84 526.881 350.498 496.873 327.26 422.86C332.489 432.031 336.505 442.714 338.548 455.152C349.941 524.809 280.566 545.134 280.566 545.134" fill="#02004E"/>
</g>
<g opacity="0.350006">
<path d="M274.873 466.224C274.873 466.224 273.438 459.18 268.805 433.801C268.805 433.801 270.465 438.205 282.661 436.313C285.116 435.932 287.524 437.284 288.228 439.661C289.842 445.151 289.761 455.19 274.873 466.213" fill="#02004E"/>
</g>
<path d="M334.826 500.317C334.064 500.316 333.33 500.031 332.768 499.516C332.206 499.002 331.857 498.297 331.788 497.538C328.037 456.047 288.091 458.584 286.395 458.716C285.995 458.746 285.593 458.698 285.212 458.572C284.831 458.447 284.478 458.248 284.174 457.987C283.869 457.726 283.62 457.407 283.439 457.049C283.257 456.691 283.149 456.301 283.118 455.901C283.088 455.501 283.137 455.099 283.262 454.717C283.387 454.336 283.586 453.983 283.847 453.679C284.109 453.375 284.428 453.125 284.786 452.944C285.144 452.763 285.534 452.654 285.934 452.624C286.412 452.593 333.582 449.571 337.871 496.988C337.907 497.387 337.865 497.79 337.746 498.173C337.626 498.555 337.433 498.911 337.176 499.219C336.919 499.527 336.604 499.781 336.249 499.967C335.894 500.153 335.505 500.267 335.106 500.303C335.013 500.313 334.919 500.317 334.826 500.317Z" fill="#02004E"/>
<path d="M272.484 464.363L273.964 463.292L275.519 462.096C276.536 461.266 277.545 460.421 278.48 459.513C280.372 457.77 282.038 455.797 283.439 453.64C284.813 451.514 285.801 449.162 286.357 446.691C286.993 444.178 287.101 441.463 287.106 438.415V438.401C287.106 438.274 287.156 438.152 287.246 438.063C287.336 437.973 287.457 437.922 287.584 437.922C287.655 437.923 287.724 437.939 287.788 437.97C287.852 438 287.908 438.045 287.952 438.099C289.964 440.652 291.134 443.765 291.301 447.01C291.425 448.68 291.299 450.359 290.926 451.992C290.576 453.628 290.061 455.224 289.388 456.755C288.698 458.256 287.89 459.701 286.972 461.075C286.048 462.415 285.028 463.686 283.92 464.878C282.818 466.051 281.636 467.147 280.382 468.155C279.758 468.66 279.114 469.143 278.447 469.59C277.745 470.074 277.019 470.52 276.27 470.927C275.425 471.405 274.43 471.54 273.488 471.305C272.547 471.07 271.732 470.483 271.21 469.665C270.689 468.846 270.501 467.859 270.686 466.907C270.871 465.954 271.414 465.109 272.204 464.545L272.484 464.363Z" fill="#02004E"/>
<path d="M291.347 382.093C298.896 386.662 306.105 391.901 312.499 398.07C318.893 404.238 324.646 411.132 329.243 418.779C333.846 426.431 337.387 434.672 339.768 443.278C342.124 451.856 343.499 460.682 343.557 469.647C343.614 478.613 342.315 487.659 339.265 496.182C338.474 498.301 337.699 500.425 336.699 502.458C335.809 504.539 334.673 506.494 333.589 508.484C331.304 512.37 328.7 516.06 325.803 519.516C322.896 522.932 319.741 526.13 316.365 529.084C312.981 531.988 309.412 534.668 305.68 537.106C301.96 539.536 298.093 541.734 294.102 543.687C292.115 544.675 290.081 545.572 288.024 546.433C285.967 547.294 283.941 548.057 281.611 548.782L283.647 547.325C282.956 548.282 282.355 549.028 281.688 549.834C281.021 550.64 280.363 551.389 279.681 552.145C278.308 553.647 276.875 555.096 275.375 556.477C272.347 559.282 269.025 561.753 265.468 563.849C263.643 564.906 261.747 565.834 259.794 566.628C257.794 567.418 255.731 568.04 253.628 568.487C249.382 569.334 244.861 569.391 240.586 568.398C239.52 568.164 238.467 567.87 237.434 567.516C236.922 567.336 236.398 567.171 235.893 566.977L234.405 566.336C232.46 565.471 230.586 564.453 228.801 563.294C225.219 560.948 222.054 558.022 219.434 554.635C216.848 551.242 214.827 547.455 213.447 543.419C212.095 539.424 211.307 535.26 211.108 531.047C210.744 522.653 212.565 514.308 216.394 506.828C218.322 503.09 220.755 499.633 223.622 496.555C226.403 493.655 229.363 490.934 232.487 488.408C238.64 483.465 245.158 478.993 251.984 475.032C258.745 471.036 265.717 467.411 272.871 464.172L270.639 468.262L269.632 446.67V446.608C269.621 446.345 269.706 446.087 269.871 445.883C270.036 445.678 270.27 445.54 270.529 445.495C270.788 445.45 271.055 445.501 271.279 445.638C271.504 445.775 271.671 445.988 271.749 446.239L278.138 467.05C278.339 467.7 278.318 468.399 278.079 469.036C277.841 469.673 277.398 470.214 276.82 470.573L275.906 471.138C269.036 474.254 262.338 477.739 255.842 481.576C249.347 485.342 243.146 489.593 237.29 494.292C234.426 496.607 231.71 499.099 229.157 501.753C226.773 504.316 224.75 507.193 223.144 510.304C219.921 516.605 218.387 523.634 218.69 530.705C218.855 534.193 219.505 537.64 220.62 540.948C221.74 544.206 223.377 547.262 225.469 549.999C227.569 552.713 230.106 555.057 232.977 556.936C235.891 558.811 239.039 560.258 242.254 560.983C245.503 561.701 248.868 561.722 252.125 561.043C253.788 560.687 255.418 560.195 257 559.572C258.611 558.915 260.175 558.147 261.681 557.275C264.76 555.456 267.635 553.312 270.257 550.879C271.589 549.659 272.866 548.365 274.084 547.028C274.689 546.354 275.28 545.677 275.861 544.983C276.442 544.289 277.024 543.548 277.461 542.945C277.959 542.256 278.666 541.748 279.478 541.496H279.494C281.257 540.945 283.276 540.192 285.149 539.415C287.022 538.637 288.933 537.786 290.782 536.865C294.494 535.052 298.089 533.01 301.546 530.751C304.989 528.499 308.283 526.027 311.406 523.35C314.484 520.655 317.362 517.741 320.017 514.629C322.629 511.513 324.978 508.186 327.04 504.683C327.997 502.894 329.025 501.147 329.815 499.279C330.716 497.461 331.401 495.557 332.113 493.661C334.847 486.03 335.998 477.873 335.972 469.695C335.945 461.517 334.647 453.26 332.46 445.323C330.267 437.382 327.004 429.776 322.761 422.714C314.229 408.623 301.73 397.12 287.465 388.616L287.441 388.602C286.582 388.084 285.964 387.247 285.72 386.274C285.477 385.301 285.628 384.272 286.141 383.41C286.654 382.548 287.487 381.925 288.459 381.676C289.43 381.426 290.461 381.571 291.325 382.079L291.347 382.093Z" fill="#02004E"/>
<path d="M298.257 539.922C296.892 539.919 295.567 539.46 294.493 538.617C293.419 537.774 292.658 536.595 292.332 535.269C282.764 496.383 255.333 483.007 254.17 482.457C252.707 481.769 251.576 480.53 251.025 479.01C250.474 477.491 250.548 475.814 251.231 474.349C251.914 472.884 253.15 471.749 254.668 471.194C256.186 470.638 257.863 470.708 259.33 471.386C260.708 472.023 293.174 487.537 304.194 532.353C304.58 533.926 304.326 535.588 303.487 536.974C302.649 538.359 301.294 539.355 299.721 539.742C299.242 539.86 298.751 539.921 298.257 539.922Z" fill="#02004E"/>
<path d="M294.162 488.312C294.162 500.511 283.295 510.414 269.893 510.414C256.491 510.414 245.624 500.518 245.624 488.312C245.624 476.106 256.503 466.224 269.898 466.224C283.293 466.224 294.167 476.12 294.167 488.324" fill="#02004E"/>
<path d="M274.457 486.626C274.457 489.058 272.304 491.032 269.62 491.032C266.936 491.032 264.784 489.058 264.784 486.626C264.784 484.193 266.951 482.222 269.62 482.222C272.29 482.222 274.457 484.196 274.457 486.626Z" fill="#FDFFFE"/>
<path d="M270.092 487.59L258.794 496.603C258.729 496.654 258.646 496.678 258.564 496.669C258.481 496.659 258.406 496.617 258.354 496.552C258.308 496.497 258.283 496.428 258.283 496.356C258.283 496.285 258.308 496.215 258.354 496.16L267.515 484.99C267.831 484.629 268.274 484.405 268.751 484.365C269.229 484.326 269.703 484.473 270.073 484.777C270.444 485.08 270.681 485.516 270.736 485.992C270.791 486.468 270.658 486.947 270.367 487.327C270.283 487.426 270.19 487.518 270.089 487.599" fill="#FDFFFE"/>
<path d="M269.331 484.817L288.819 483.102C288.876 483.096 288.934 483.101 288.989 483.117C289.045 483.133 289.096 483.161 289.141 483.197C289.185 483.234 289.222 483.279 289.249 483.33C289.276 483.381 289.292 483.437 289.297 483.495C289.307 483.598 289.279 483.701 289.218 483.786C289.158 483.87 289.068 483.929 288.967 483.952L269.924 488.437C269.452 488.541 268.958 488.456 268.549 488.199C268.14 487.942 267.848 487.535 267.737 487.064C267.627 486.594 267.706 486.099 267.957 485.686C268.209 485.274 268.613 484.977 269.082 484.861C269.168 484.839 269.255 484.825 269.343 484.817" fill="#FDFFFE"/>
<path d="M194.493 410.082C252.116 410.082 294.162 374.441 294.162 374.441C294.162 374.441 286.986 405.179 242.483 422.934C211.667 435.207 177.319 435.207 146.502 422.934C101.997 405.179 94.821 374.441 94.821 374.441C94.821 374.441 136.867 410.082 194.493 410.082Z" fill="#F42162"/>
<g opacity="0.350006">
<path d="M242.483 414.397C211.667 426.67 177.319 426.67 146.502 414.397C120.812 404.145 107.573 389.58 100.961 379.089C96.981 376.279 94.821 374.453 94.821 374.453C94.821 374.453 101.997 405.191 146.502 422.946C177.319 435.219 211.667 435.219 242.483 422.946C286.989 405.191 294.162 374.453 294.162 374.453C294.162 374.453 292.009 376.279 288.022 379.089C281.41 389.58 268.168 404.145 242.483 414.397Z" fill="#02004E"/>
</g>
<path d="M194.493 436.006C177.571 435.997 160.806 432.761 145.096 426.472C99.2775 408.192 91.4366 376.649 91.1256 375.315C90.9448 374.537 91.0135 373.723 91.3219 372.987C91.6303 372.251 92.1627 371.631 92.8436 371.215C93.5245 370.799 94.3192 370.608 95.1148 370.669C95.9104 370.731 96.6664 371.041 97.2754 371.557C97.6868 371.901 139.013 406.286 194.493 406.286C249.973 406.286 291.299 371.901 291.711 371.554C292.32 371.038 293.076 370.728 293.872 370.666C294.668 370.605 295.463 370.796 296.144 371.213C296.825 371.629 297.357 372.25 297.666 372.986C297.974 373.722 298.042 374.537 297.86 375.315C297.547 376.649 289.708 408.192 243.89 426.472C228.18 432.76 211.415 435.996 194.493 436.006ZM104.583 386.16C111.003 396.063 123.702 409.762 147.909 419.408C177.808 431.397 211.178 431.397 241.077 419.408C265.281 409.752 277.978 396.056 284.401 386.16C267.642 396.984 235.004 413.876 194.493 413.876C153.982 413.876 121.339 396.986 104.583 386.16Z" fill="#02004E"/>
<path d="M43.6469 200.214C45.7806 200.156 47.5554 201.754 47.6104 203.788L50.433 309.788C50.488 311.819 48.7993 313.515 46.6656 313.573C24.2742 314.18 5.65975 297.386 5.10481 276.061L4.14802 239.914C3.58112 218.589 21.2723 200.814 43.6637 200.207" fill="white"/>
<path d="M45.4863 314.388C34.8922 314.388 24.8769 310.592 17.1628 303.624C9.14723 296.393 4.57853 286.615 4.29867 276.083L3.34187 239.935C2.75823 218.211 20.8321 200.034 43.6158 199.417C44.8323 199.383 46.0167 199.81 46.9311 200.613C47.3787 201.01 47.7401 201.495 47.9927 202.037C48.2454 202.579 48.3839 203.168 48.3998 203.766L51.2223 309.772C51.2893 312.238 49.2513 314.302 46.6775 314.372C46.2876 314.381 45.8858 314.388 45.4863 314.388ZM43.6684 201.008C21.7506 201.599 4.37043 219.044 4.91819 239.895L5.87499 276.042C6.14289 286.134 10.525 295.515 18.2153 302.452C25.9055 309.389 36.014 313.073 46.6321 312.781C48.3256 312.735 49.6699 311.405 49.6245 309.815L46.8019 203.809C46.7915 203.429 46.7028 203.055 46.5415 202.71C46.3802 202.366 46.1496 202.058 45.8642 201.807C45.2627 201.267 44.476 200.981 43.6684 201.008Z" fill="#02004E"/>
<g opacity="0.350006">
<path d="M49.658 280.384L50.4378 309.805C50.4952 311.836 48.7969 313.53 46.6633 313.589C34.9091 313.903 24.1786 309.427 16.5745 302.01C9.70228 295.312 5.368 286.206 5.09292 276.081L4.68628 260.851C11.3982 274.04 25.8075 282.97 42.2261 282.529L46.2925 282.417C46.9812 282.403 47.6543 282.21 48.2448 281.855C48.8353 281.5 49.3226 280.997 49.658 280.396" fill="#02004E"/>
</g>
<path d="M45.4864 317.388C34.1483 317.388 23.4203 313.321 15.1512 305.861C6.52087 298.068 1.60055 287.526 1.29677 276.164L0.339973 240.017C-0.286728 216.635 19.0979 197.078 43.5441 196.408C45.5335 196.35 47.4693 197.059 48.95 198.389C49.6995 199.055 50.3042 199.868 50.7264 200.778C51.1485 201.688 51.3792 202.675 51.4041 203.677L54.2267 309.681C54.3391 313.802 50.9927 317.247 46.7685 317.362C46.3403 317.383 45.9121 317.388 45.4864 317.388ZM43.7498 204.008C23.4848 204.555 7.41547 220.618 7.92497 239.813L8.88176 275.961C9.12096 285.225 13.1586 293.841 20.2317 300.225C27.3575 306.653 36.7173 310.049 46.5556 309.793C46.5794 309.796 46.6035 309.796 46.6273 309.793L43.8167 204.015C43.7943 204.007 43.7699 204.007 43.7474 204.015L43.7498 204.008Z" fill="#02004E"/>
<path d="M345.336 200.214C343.203 200.156 341.428 201.754 341.375 203.787L338.548 309.788C338.493 311.819 340.179 313.515 342.313 313.573C364.704 314.175 383.319 297.381 383.886 276.059L384.842 239.911C385.409 218.587 367.718 200.812 345.324 200.204" fill="white"/>
<path d="M343.497 314.388C343.097 314.388 342.698 314.388 342.301 314.372C339.732 314.302 337.696 312.238 337.756 309.772L340.579 203.766C340.595 203.17 340.733 202.584 340.985 202.044C341.237 201.504 341.597 201.021 342.043 200.625C342.955 199.82 344.139 199.392 345.356 199.429C368.149 200.046 386.223 218.223 385.646 239.947L384.689 276.095C384.41 286.62 379.841 296.412 371.825 303.643C364.109 310.592 354.096 314.388 343.497 314.388ZM345.226 201.008C344.446 201.002 343.691 201.288 343.109 201.809C342.824 202.061 342.593 202.368 342.431 202.713C342.269 203.057 342.18 203.431 342.169 203.811L339.347 309.815C339.304 311.408 340.646 312.738 342.339 312.783C352.952 313.077 363.056 309.403 370.756 302.455C378.456 295.506 382.828 286.136 383.096 276.045L384.053 239.897C384.606 219.046 367.225 201.601 345.303 201.01L345.226 201.008Z" fill="#02004E"/>
<g opacity="0.350006">
<path d="M339.328 280.384L338.548 309.788C338.493 311.819 340.191 313.513 342.325 313.573C354.077 313.886 364.81 309.411 372.411 301.993C379.283 295.295 383.618 286.189 383.893 276.064L384.299 260.834C377.588 274.023 363.178 282.953 346.762 282.513L342.696 282.4C342.007 282.387 341.335 282.193 340.745 281.838C340.154 281.483 339.668 280.98 339.333 280.379" fill="#02004E"/>
</g>
<path d="M343.499 317.388C343.071 317.388 342.645 317.388 342.215 317.371C337.993 317.256 334.647 313.812 334.757 309.69L337.591 203.687C337.617 202.685 337.847 201.698 338.27 200.788C338.692 199.878 339.296 199.065 340.045 198.398C341.523 197.064 343.461 196.354 345.451 196.418C369.9 197.078 389.282 216.635 388.66 240.017L387.703 276.164C387.402 287.526 382.481 298.072 373.849 305.861C365.577 313.321 354.835 317.388 343.499 317.388ZM342.351 309.772C342.374 309.775 342.397 309.775 342.42 309.772C352.28 310.044 361.621 306.643 368.747 300.204C375.82 293.82 379.85 285.204 380.097 275.939L381.053 239.792C381.563 220.598 365.506 204.534 345.231 203.986C345.209 203.978 345.184 203.978 345.162 203.986L342.351 309.772Z" fill="#02004E"/>
<path d="M354.031 256.074C351.281 343.838 277.909 412.749 190.144 410.006C102.38 407.262 33.4691 333.881 36.2127 246.119C38.9563 158.356 112.338 89.4433 200.102 92.1869C287.867 94.9305 356.777 168.312 354.031 256.074Z" fill="white"/>
<path d="M195.189 410.766C193.515 410.766 191.819 410.74 190.123 410.687C147.495 409.35 107.939 391.494 78.7398 360.408C49.5408 329.321 34.1962 288.725 35.531 246.097C38.2889 158.098 112.12 88.7496 200.124 91.5052C242.751 92.8423 282.308 110.696 311.504 141.785C340.701 172.873 356.048 213.468 354.713 256.096C352.008 342.396 280.935 410.766 195.189 410.766ZM195.055 92.7921C110.037 92.7921 39.5758 160.571 36.8944 246.14C35.5716 288.404 50.7847 328.664 79.7349 359.475C108.685 390.286 147.907 407.999 190.166 409.324C277.375 412.063 350.616 343.305 353.35 256.052C354.672 213.788 339.459 173.529 310.509 142.718C281.559 111.906 242.337 94.1938 200.078 92.871C198.401 92.8184 196.722 92.7921 195.055 92.7921Z" fill="#02004E"/>
<g opacity="0.350006">
<path d="M353.197 234.029C353.989 241.35 354.269 248.717 354.034 256.076C351.273 343.836 277.902 412.752 190.142 410.01C102.382 407.269 33.4667 333.878 36.2079 246.119C36.2845 243.595 36.4232 241.071 36.6217 238.586C44.9124 316.278 109.42 377.912 189.709 380.431C274.945 383.093 346.597 318.168 353.187 234.027" fill="#02004E"/>
</g>
<path d="M195.191 413.881C193.471 413.881 191.756 413.854 190.024 413.799C146.567 412.438 106.238 394.233 76.4697 362.539C46.7014 330.845 31.0578 289.457 32.4188 245.999C35.2294 156.285 110.467 85.5683 200.219 88.3932C243.679 89.7543 284.008 107.96 313.774 139.651C343.54 171.343 359.186 212.734 357.825 256.194C355.069 344.178 282.609 413.881 195.191 413.881ZM195.057 95.9041C111.711 95.9041 42.6374 162.351 40.0086 246.238C38.7097 287.67 53.6238 327.128 82.0047 357.344C110.386 387.559 148.83 404.913 190.264 406.209C231.698 407.506 271.154 392.594 301.369 364.216C331.585 335.837 348.939 297.388 350.235 255.954C352.914 170.424 285.51 98.662 199.982 95.983C198.337 95.9304 196.703 95.9041 195.057 95.9041Z" fill="#02004E"/>
<path d="M353.395 260.14C352.89 291.236 342.325 319.964 324.667 343.578C311.43 361.278 257.692 391.771 191.969 391.295C131.021 390.855 76.1037 357.468 63.4477 339.344C46.5651 315.168 36.9373 286.124 37.4396 255.012C38.7744 172.694 110.053 139.718 197.306 141.129C284.558 142.541 354.73 177.815 353.395 260.136" fill="#02004E"/>
<g opacity="0.350006">
<path d="M323.914 182.846C342.928 201.587 353.924 227.071 353.393 260.136C352.89 291.248 342.318 319.962 324.672 343.578C311.43 361.278 257.696 391.769 191.965 391.303C168.762 391.14 146.428 386.193 126.967 379.123C207.776 377.974 273.232 340.547 289.649 318.589C312.061 288.617 325.469 252.165 326.102 212.693C326.303 202.697 325.57 192.705 323.914 182.846Z" fill="#111A28"/>
</g>
<path d="M340.964 191.524C340.036 191.527 339.139 191.186 338.447 190.567C338.216 190.359 338.009 190.126 337.83 189.871C311.614 151.822 260.146 129.409 196.624 128.378C132.758 127.352 80.6127 148.777 53.6047 187.182C53.5196 187.304 53.427 187.42 53.3273 187.529C52.6744 188.263 51.7626 188.715 50.7834 188.791C49.8041 188.866 48.8337 188.559 48.076 187.935C47.3182 187.31 46.8322 186.415 46.7199 185.44C46.6077 184.464 46.878 183.483 47.4741 182.702C75.9794 142.278 130.366 119.726 196.748 120.786C262.715 121.857 316.393 145.442 344.035 185.494C344.447 186.06 344.694 186.73 344.749 187.429C344.804 188.127 344.665 188.827 344.348 189.452C344.03 190.076 343.546 190.601 342.948 190.967C342.351 191.334 341.664 191.528 340.964 191.529V191.524Z" fill="#02004E"/>
<g opacity="0.5">
<path d="M72.5086 308.15C72.5086 308.15 48.969 228.69 92.087 197.879C135.205 167.068 196.5 168.183 195.005 172.091C195.005 172.091 126.876 187.422 99.4519 240.641C78.3068 281.678 72.5086 308.15 72.5086 308.15Z" fill="white"/>
</g>
<path d="M313.69 126.935C313.69 126.935 268.377 101.468 194.493 101.468C120.609 101.468 75.293 126.935 75.293 126.935C75.293 126.935 77.5175 113.633 82.5622 95.7629C82.563 95.7537 82.5673 95.7452 82.5742 95.739C94.5652 53.2214 122.563 -15.0435 174.632 8.92183C180.861 11.7801 187.633 13.2598 194.486 13.2598C201.339 13.2598 208.111 11.7801 214.339 8.92183C288.297 -25.1329 313.679 126.935 313.679 126.935" fill="#5E5D7F"/>
<path d="M306.424 95.7629C306.423 95.7582 306.422 95.7536 306.419 95.7494C306.417 95.7453 306.413 95.7418 306.409 95.739C305.885 94.9808 288.357 70.4079 194.493 70.4079C100.629 70.4079 83.0981 94.988 82.5742 95.739C82.5673 95.7452 82.563 95.7537 82.5623 95.7629C77.5176 113.645 75.2954 126.935 75.2954 126.935C75.2954 126.935 120.609 101.468 194.493 101.468C268.377 101.468 313.69 126.935 313.69 126.935C313.69 126.935 311.466 113.633 306.424 95.7629Z" fill="#F42162"/>
<g opacity="0.350006">
<path d="M301.951 112.191C283.238 104.74 248.82 94.1388 202.552 93.0289C227.667 76.9428 239.831 52.6713 219.468 16.0069C224.952 13.6627 230.253 12.4907 235.238 12.4907C270.95 12.4907 293.048 74.3666 301.951 112.182" fill="#02004E"/>
</g>
<g opacity="0.699997">
<path d="M83.7846 103.092C83.7853 103.083 83.7896 103.074 83.7965 103.068C95.79 60.5433 123.786 -7.72641 175.855 16.2485C182.083 19.1084 188.855 20.5891 195.708 20.5891C202.561 20.5891 209.334 19.1084 215.562 16.2485C279.586 -13.2232 307.213 96.7078 313.473 126.816L313.69 126.935C313.69 126.935 288.316 -25.1329 214.351 8.92183C208.123 11.7801 201.351 13.2598 194.498 13.2598C187.645 13.2598 180.873 11.7801 174.644 8.92183C122.563 -15.0435 94.5653 53.2214 82.5742 95.739C82.5673 95.7452 82.563 95.7537 82.5623 95.7629C77.5176 113.645 75.2954 126.935 75.2954 126.935C75.2954 126.935 76.3144 126.366 78.2495 125.412C79.4455 119.85 81.2562 112.045 83.7846 103.092Z" fill="white"/>
</g>
<path d="M313.695 130.868C313.025 130.866 312.366 130.693 311.782 130.363C311.339 130.124 266.36 105.398 194.5 105.398C122.48 105.398 77.6611 130.114 77.2162 130.363C76.5715 130.726 75.8372 130.899 75.0983 130.862C74.3593 130.826 73.6458 130.58 73.0405 130.155C72.4351 129.729 71.9626 129.141 71.6776 128.459C71.3926 127.776 71.3067 127.026 71.43 126.297C72.0902 122.333 88.1476 28.9428 132.603 5.40559C146.101 -1.75123 160.795 -1.76559 176.268 5.36015C181.982 7.99583 188.2 9.36074 194.492 9.36074C200.784 9.36074 207.001 7.99583 212.715 5.36015C228.191 -1.76319 242.885 -1.75123 256.39 5.39842C300.846 28.9356 316.908 122.326 317.563 126.289C317.659 126.852 317.63 127.429 317.479 127.979C317.329 128.53 317.06 129.041 316.692 129.477C316.324 129.912 315.865 130.263 315.347 130.503C314.83 130.743 314.266 130.868 313.695 130.868ZM194.493 97.545C252.365 97.545 292.605 112.76 308.328 119.915C303.515 97.1335 286.759 30.3445 252.716 12.3256C241.326 6.29541 229.316 6.34565 215.995 12.4835C209.252 15.5926 201.916 17.2026 194.492 17.2026C187.067 17.2026 179.731 15.5926 172.989 12.4835C159.668 6.34804 147.667 6.2978 136.27 12.3256C102.22 30.3445 85.4757 97.1407 80.6559 119.915C96.3784 112.76 136.621 97.545 194.493 97.545Z" fill="#02004E"/>
<path d="M328.959 169.317C324.72 162.894 316.169 153.123 316.169 153.123C316.169 153.123 263.306 123.099 194.493 123.099C146.27 123.099 105.879 137.843 86.0186 146.672C77.5414 150.434 72.8148 153.13 72.8148 153.13C72.8148 153.13 64.2635 162.901 60.0273 169.324C60.0273 169.324 29.1108 109.06 149.533 93.2585C179.378 89.3357 209.608 89.3357 239.453 93.2585C251.69 94.8588 262.366 96.9207 271.675 99.3414C353.912 120.678 328.959 169.314 328.959 169.314" fill="#5E5D7F"/>
<g opacity="0.350006">
<path d="M328.958 169.317C324.72 162.894 316.168 153.123 316.168 153.123C316.168 153.123 263.306 123.099 194.493 123.099C146.27 123.099 105.879 137.843 86.0186 146.672C111.632 129.134 156.994 108.223 225.711 110.792C255.587 111.916 268.692 107.103 271.687 99.3485C353.924 120.685 328.97 169.321 328.97 169.321" fill="#02004E"/>
</g>
<g opacity="0.699997">
<path d="M150.753 100.588C180.598 96.6671 210.828 96.6671 240.673 100.588C252.912 102.188 263.588 104.252 272.895 106.67C314.157 117.377 328.432 134.956 332.415 149.815C331.298 133.831 319.977 111.878 271.675 99.3437C262.368 96.923 251.693 94.8612 239.453 93.2609C209.608 89.3381 179.378 89.3381 149.533 93.2609C52.88 105.938 53.7196 147.253 57.8147 163.073C56.3675 144.339 66.6459 111.619 150.753 100.588Z" fill="white"/>
</g>
<path d="M60.0321 173.242C59.9604 173.242 59.891 173.242 59.8192 173.242C59.1349 173.205 58.4721 172.99 57.897 172.617C57.322 172.245 56.8548 171.728 56.5422 171.118C56.1547 170.359 47.1369 152.321 57.499 132.59C69.1671 110.344 99.9664 95.8108 149.026 89.3739C179.213 85.4152 209.787 85.4152 239.974 89.3739C289.036 95.8108 319.831 110.349 331.501 132.59C341.854 152.321 332.838 170.359 332.458 171.118C332.145 171.727 331.678 172.244 331.103 172.617C330.529 172.99 329.866 173.205 329.182 173.242C328.498 173.279 327.816 173.136 327.204 172.828C326.593 172.519 326.073 172.056 325.696 171.484C322.204 166.176 315.484 158.309 313.69 156.232C307.837 153.073 257.658 127.021 194.51 127.021C131.361 127.021 81.1701 153.065 75.3121 156.223C73.5182 158.301 66.7943 166.171 63.3044 171.474C62.9481 172.017 62.4625 172.462 61.8914 172.771C61.3202 173.08 60.6813 173.241 60.0321 173.242ZM194.493 119.183C263.533 119.183 315.915 148.48 318.111 149.729C318.493 149.945 318.836 150.224 319.125 150.554C319.364 150.843 323.67 155.754 327.688 160.93C329.033 155.015 329.621 145.813 324.488 136.116C314.164 116.602 284.585 103.121 238.946 97.1407C209.436 93.2705 179.547 93.2705 150.038 97.1407C104.399 103.121 74.8194 116.602 64.4956 136.106C59.3648 145.801 59.9508 155.003 61.2975 160.921C65.3184 155.744 69.6073 150.834 69.8608 150.544C70.1498 150.214 70.4927 149.935 70.875 149.719C73.0709 148.47 125.451 119.173 194.493 119.173V119.183Z" fill="#02004E"/>
<path d="M156.86 462.369C156.728 463.814 156.061 465.158 154.99 466.136C153.918 467.115 152.52 467.659 151.069 467.66C150.887 467.66 150.707 467.66 150.521 467.638C146.275 467.269 142.086 466.411 138.037 465.081C126.355 461.177 118.05 453.377 114.148 442.388C111.297 434.363 111.46 427.278 114.627 421.339C116.314 418.222 118.699 415.537 121.595 413.493C125.455 410.726 129.849 409.106 133.521 408.161C134.262 407.971 135.033 407.929 135.79 408.037C136.547 408.145 137.275 408.401 137.933 408.79C138.591 409.179 139.166 409.695 139.625 410.306C140.084 410.918 140.418 411.614 140.608 412.355C140.799 413.095 140.841 413.866 140.733 414.623C140.625 415.38 140.369 416.109 139.98 416.767C139.59 417.425 139.075 418 138.464 418.459C137.852 418.918 137.156 419.252 136.415 419.442C134.231 420.002 130.914 421.102 128.235 423.08C126.859 424.05 125.719 425.317 124.9 426.788C123.336 429.732 123.405 433.662 125.118 438.482C127.089 444.03 130.552 448.293 135.506 451.27C139.778 453.844 145.158 455.432 151.604 456.037C152.366 456.107 153.106 456.326 153.783 456.682C154.46 457.038 155.06 457.524 155.548 458.112C156.037 458.7 156.405 459.379 156.631 460.109C156.858 460.839 156.938 461.607 156.867 462.369" fill="#5EC0FC"/>
<g opacity="0.350006">
<path d="M136.411 419.442C134.229 420.002 130.909 421.102 128.235 423.08C126.777 419.422 124.507 416.144 121.595 413.493C125.455 410.723 129.849 409.106 133.521 408.161C135.017 407.778 136.604 408.004 137.933 408.791C139.262 409.578 140.224 410.86 140.607 412.356C140.991 413.852 140.764 415.439 139.978 416.768C139.191 418.096 137.909 419.058 136.413 419.442" fill="#02004E"/>
</g>
<g opacity="0.350006">
<path d="M156.86 462.369C156.728 463.814 156.061 465.158 154.99 466.136C153.918 467.115 152.52 467.659 151.069 467.66C150.887 467.66 150.708 467.66 150.521 467.638C146.275 467.269 142.086 466.411 138.037 465.081C138.147 460.565 136.97 455.614 135.504 451.282C139.776 453.856 145.156 455.444 151.602 456.049C152.364 456.119 153.104 456.338 153.781 456.694C154.457 457.05 155.057 457.536 155.546 458.124C156.035 458.712 156.403 459.39 156.629 460.121C156.855 460.851 156.935 461.619 156.865 462.381" fill="#02004E"/>
</g>
<path d="M151.071 470.095C150.815 470.095 150.557 470.095 150.299 470.059C131.017 468.26 117.361 458.721 111.845 443.197C108.754 434.495 108.975 426.747 112.467 420.167C117.126 411.424 126.159 407.528 132.916 405.798C135.039 405.254 137.291 405.576 139.177 406.693C141.062 407.81 142.427 409.63 142.971 411.753C143.514 413.876 143.192 416.128 142.076 418.014C140.959 419.899 139.139 421.264 137.016 421.808C134.686 422.406 129.046 424.2 127.056 427.938C125.824 430.249 125.948 433.521 127.419 437.662C130.749 447.038 138.963 452.401 151.832 453.602C153.978 453.761 155.977 454.751 157.405 456.361C158.833 457.971 159.576 460.075 159.477 462.224C159.378 464.374 158.444 466.4 156.875 467.872C155.305 469.344 153.223 470.146 151.071 470.107V470.095ZM134.966 410.424C134.683 410.425 134.402 410.461 134.129 410.532C128.323 412.017 120.6 415.294 116.78 422.463C113.95 427.78 113.837 434.205 116.449 441.561C121.291 455.195 133.473 463.581 150.751 465.194C151.639 465.272 152.522 464.997 153.21 464.429C153.897 463.861 154.334 463.045 154.425 462.158C154.467 461.716 154.421 461.271 154.29 460.847C154.16 460.423 153.947 460.028 153.664 459.687C153.381 459.345 153.033 459.063 152.641 458.855C152.248 458.648 151.819 458.52 151.377 458.479C136.447 457.087 126.838 450.638 122.815 439.31C120.865 433.823 120.839 429.228 122.743 425.654C125.544 420.392 132.129 418.028 135.803 417.086C136.6 416.882 137.296 416.394 137.759 415.714C138.222 415.034 138.42 414.208 138.318 413.392C138.215 412.575 137.817 411.825 137.2 411.28C136.583 410.736 135.789 410.436 134.966 410.436V410.424Z" fill="#02004E"/>
<path d="M255.5 412.941C254.206 431.304 247.789 470.442 216.989 483.475C210.531 486.217 202.98 487.798 194.184 487.798C143.493 487.798 134.425 435.157 132.858 412.929C132.641 409.897 133.354 406.872 134.902 404.257C136.45 401.641 138.758 399.561 141.52 398.292C165.246 387.411 194.184 388.758 194.184 388.758C194.184 388.758 223.127 387.411 246.849 398.292C249.611 399.56 251.92 401.641 253.467 404.256C255.015 406.872 255.728 409.897 255.51 412.929" fill="#39A1FF"/>
<g opacity="0.350006">
<path d="M164.995 433.454C165.002 432.274 164.612 431.126 163.888 430.194C163.164 429.262 162.148 428.601 161.003 428.316C145.06 424.25 139.752 418.782 139.752 418.782C138.81 417.985 137.996 417.225 137.291 416.507C139.683 439.862 150.26 484.884 196.447 484.884C204.982 484.884 218.606 479.842 224.883 477.18C169.195 485.468 164.89 446.536 164.995 433.454Z" fill="#02004E"/>
</g>
<g opacity="0.350006">
<path d="M237.288 402.942C237.288 402.942 224.61 395.962 194.175 395.962C163.739 395.962 151.061 402.942 151.061 402.942C140.515 404.872 142.689 410.553 142.689 410.553C164.303 399.904 194.163 400.285 194.163 400.285C194.163 400.285 224.022 399.904 245.638 410.553C245.638 410.553 247.822 404.872 237.266 402.942" fill="#02004E"/>
</g>
<g opacity="0.699997">
<path d="M246.839 398.292C223.113 387.416 194.175 388.758 194.175 388.758C194.175 388.758 165.232 387.416 141.51 398.292C139.371 399.273 137.494 400.747 136.034 402.593C134.573 404.439 133.57 406.605 133.107 408.912C134.61 405.762 137.172 403.239 140.346 401.784C164.072 390.908 193.012 392.252 193.012 392.252C193.012 392.252 221.955 390.908 245.674 401.784C248.437 403.053 250.747 405.134 252.295 407.751C253.842 410.367 254.555 413.394 254.336 416.426C253.812 423.865 252.446 434.717 248.956 445.864C253.314 433.528 254.922 421.15 255.501 412.931C255.718 409.899 255.006 406.874 253.458 404.258C251.91 401.642 249.601 399.561 246.839 398.292Z" fill="white"/>
</g>
<path d="M194.175 490.242C141.551 490.242 132.05 436.303 130.411 413.113C130.172 409.588 131.007 406.073 132.806 403.033C134.606 399.993 137.286 397.57 140.491 396.084C163.966 385.32 191.864 386.229 194.17 386.325C196.476 386.229 224.373 385.318 247.851 396.084C251.059 397.569 253.742 399.993 255.543 403.035C257.344 406.078 258.179 409.595 257.938 413.122C256.302 436.303 246.813 490.242 194.175 490.242ZM191.213 391.166C183.435 391.166 161.168 391.98 142.532 400.526C140.227 401.594 138.3 403.335 137.007 405.521C135.713 407.707 135.113 410.234 135.286 412.768C136.827 434.593 145.648 485.358 194.175 485.358C242.701 485.358 251.523 434.593 253.063 412.768C253.236 410.234 252.636 407.707 251.343 405.521C250.049 403.335 248.122 401.594 245.818 400.526C222.933 390.03 194.569 391.197 194.287 391.212H194.072C194.01 391.209 192.988 391.166 191.213 391.166Z" fill="#02004E"/>
<path d="M244.861 410.556C244.861 410.556 235.659 420.545 205.408 422.59C201.944 422.829 198.21 422.958 194.165 422.958C154.913 422.958 143.481 410.556 143.481 410.556C143.481 410.556 161.342 400.287 194.165 400.287H194.766C227.203 400.409 244.852 410.556 244.852 410.556" fill="#CC814E"/>
<g opacity="0.350006">
<path d="M205.408 422.592C201.944 422.831 198.208 422.958 194.165 422.958C154.913 422.958 143.481 410.556 143.481 410.556C143.481 410.556 161.345 400.287 194.165 400.287H194.766C191.745 400.306 163.742 400.708 165.344 411.812C166.521 420.021 191.178 422.097 205.408 422.592Z" fill="#02004E"/>
</g>
<path d="M194.175 424.788C154.575 424.788 142.632 412.328 142.142 411.797C141.955 411.595 141.817 411.353 141.736 411.09C141.656 410.827 141.636 410.549 141.678 410.277C141.719 410.005 141.822 409.746 141.978 409.52C142.134 409.293 142.338 409.104 142.577 408.967C143.324 408.537 161.235 398.443 194.175 398.443C227.115 398.443 245.026 408.527 245.772 408.967C246.011 409.104 246.216 409.293 246.372 409.52C246.528 409.746 246.63 410.005 246.672 410.277C246.714 410.549 246.694 410.827 246.613 411.09C246.533 411.353 246.394 411.595 246.208 411.797C245.717 412.328 233.779 424.788 194.175 424.788ZM146.878 410.931C151.583 414.165 165.091 421.124 194.175 421.124C223.259 421.124 236.752 414.17 241.472 410.929C235.561 408.259 219.24 402.117 194.175 402.117C169.109 402.117 152.786 408.259 146.878 410.931Z" fill="#02004E"/>
<path d="M142.233 411.886C141.914 411.552 141.653 411.167 141.46 410.747C141.272 410.351 141.142 409.929 141.073 409.496C140.94 408.626 141.092 407.736 141.508 406.961C142.281 405.545 143.453 404.808 144.486 404.274C146.51 403.291 148.69 402.665 150.928 402.425C151.055 402.409 151.184 402.439 151.291 402.509C151.399 402.579 151.477 402.686 151.513 402.809C151.549 402.932 151.54 403.064 151.487 403.181C151.434 403.298 151.341 403.392 151.224 403.447H151.198C149.306 404.337 147.371 405.281 145.837 406.434C145.079 407.006 144.51 407.69 144.386 408.231C144.331 408.424 144.347 408.63 144.431 408.812C144.473 408.897 144.524 408.978 144.584 409.051C144.627 409.113 144.792 409.274 144.749 409.2C145.102 409.533 145.309 409.994 145.323 410.479C145.337 410.965 145.157 411.437 144.823 411.79C144.49 412.143 144.029 412.35 143.543 412.364C143.058 412.378 142.586 412.198 142.233 411.864" fill="#02004E"/>
<path d="M243.603 409.223C243.557 409.295 243.725 409.135 243.765 409.073C243.826 408.999 243.878 408.919 243.921 408.833C244.002 408.65 244.017 408.445 243.964 408.252C243.84 407.712 243.27 407.028 242.512 406.456C240.974 405.301 239.044 404.358 237.152 403.468H237.125C237.009 403.414 236.916 403.32 236.863 403.203C236.81 403.086 236.8 402.954 236.836 402.831C236.872 402.707 236.951 402.601 237.058 402.53C237.166 402.46 237.295 402.43 237.422 402.447C239.66 402.688 241.84 403.313 243.866 404.296C244.897 404.836 246.071 405.566 246.842 406.98C247.257 407.757 247.411 408.648 247.279 409.52C247.209 409.953 247.078 410.373 246.889 410.769C246.696 411.188 246.435 411.573 246.117 411.907C245.942 412.072 245.736 412.201 245.512 412.287C245.287 412.373 245.048 412.413 244.807 412.406C244.567 412.399 244.33 412.345 244.111 412.247C243.892 412.148 243.694 412.008 243.529 411.833C243.364 411.658 243.235 411.453 243.149 411.228C243.063 411.003 243.023 410.764 243.03 410.524C243.037 410.283 243.091 410.047 243.189 409.827C243.287 409.608 243.428 409.41 243.603 409.245" fill="#02004E"/>
<g opacity="0.300003">
<path d="M236.486 410.917C236.486 411.635 235.255 412.201 233.738 412.201C232.222 412.201 230.987 411.627 230.987 410.917C230.987 410.207 232.219 409.632 233.738 409.632C235.257 409.632 236.486 410.209 236.486 410.917Z" fill="#FDFFFE"/>
</g>
<g opacity="0.300003">
<path d="M230.382 413.433C230.382 413.79 229.767 414.077 229.009 414.077C228.251 414.077 227.634 413.79 227.634 413.433C227.634 413.077 228.249 412.79 229.009 412.79C229.77 412.79 230.382 413.077 230.382 413.433Z" fill="#FDFFFE"/>
</g>
<g opacity="0.300003">
<path d="M227.634 409.144C227.634 409.501 227.019 409.788 226.261 409.788C225.503 409.788 224.885 409.501 224.885 409.144C224.885 408.788 225.5 408.503 226.261 408.503C227.022 408.503 227.634 408.79 227.634 409.144Z" fill="#FDFFFE"/>
</g>
<g opacity="0.300003">
<path d="M152.69 410.917C152.69 411.635 153.92 412.201 155.439 412.201C156.958 412.201 158.187 411.627 158.187 410.917C158.187 410.207 156.958 409.632 155.439 409.632C153.92 409.632 152.69 410.209 152.69 410.917Z" fill="#FDFFFE"/>
</g>
<g opacity="0.300003">
<path d="M158.79 413.433C158.79 413.79 159.407 414.077 160.165 414.077C160.924 414.077 161.538 413.79 161.538 413.433C161.538 413.077 160.924 412.79 160.165 412.79C159.407 412.79 158.79 413.077 158.79 413.433Z" fill="#FDFFFE"/>
</g>
<g opacity="0.300003">
<path d="M161.541 409.144C161.541 409.501 162.158 409.788 162.916 409.788C163.674 409.788 164.292 409.501 164.292 409.144C164.292 408.788 163.674 408.503 162.916 408.503C162.158 408.503 161.541 408.79 161.541 409.144Z" fill="#FDFFFE"/>
</g>
<g opacity="0.5">
<path d="M200.557 417.579C197.382 417.918 195.055 419.22 194.419 420.688C193.787 419.208 191.455 417.906 188.281 417.579C179.313 416.206 171.583 414.871 172.336 409.415C174.728 402.693 191.754 402.495 194.419 408.75C197.084 402.495 214.11 402.693 216.502 409.415C217.255 414.871 209.524 416.206 200.557 417.579Z" fill="#FDFFFE"/>
</g>
<path d="M194.419 419.82C195.973 416.294 206.517 415.605 212.208 412.723C213.717 411.96 214.578 410.685 214.246 409.408C213.086 404.949 198.873 404.054 194.419 408.755C189.967 404.054 175.761 404.949 174.592 409.408C174.259 410.685 175.12 411.96 176.632 412.723C182.322 415.593 192.864 416.294 194.419 419.82Z" fill="#FDFFFE"/>
<path d="M194.254 410.551C193.089 409.754 191.794 409.167 190.426 408.817C189.077 408.468 187.687 408.294 186.293 408.3C184.914 408.298 183.539 408.469 182.203 408.81C181.56 408.967 180.941 409.209 180.361 409.527C180.113 409.658 179.891 409.833 179.706 410.044C179.65 410.108 179.609 410.184 179.588 410.266C179.577 410.318 179.585 410.371 179.61 410.417C179.656 410.507 179.717 410.588 179.792 410.656C179.902 410.756 180.019 410.848 180.141 410.934C180.407 411.12 180.688 411.284 180.981 411.424C181.603 411.725 182.242 411.992 182.894 412.223C184.214 412.701 185.573 413.139 186.922 413.62C188.286 414.082 189.624 414.615 190.931 415.218C191.586 415.529 192.219 415.884 192.826 416.28C193.436 416.671 193.978 417.161 194.428 417.729C193.895 417.263 193.299 416.874 192.658 416.574C192.023 416.266 191.37 415.997 190.702 415.77C189.372 415.292 188.006 414.914 186.635 414.524C185.265 414.134 183.884 413.763 182.509 413.309C181.809 413.08 181.123 412.81 180.454 412.5C180.102 412.336 179.764 412.142 179.445 411.919C179.277 411.801 179.117 411.671 178.966 411.532C178.776 411.358 178.622 411.15 178.512 410.917C178.386 410.637 178.352 410.323 178.414 410.022C178.474 409.758 178.597 409.513 178.77 409.305C178.909 409.126 179.07 408.965 179.249 408.826C179.413 408.701 179.586 408.588 179.768 408.489C180.446 408.129 181.17 407.863 181.921 407.697C183.363 407.371 184.846 407.257 186.322 407.36C187.786 407.444 189.23 407.746 190.606 408.255C191.973 408.755 193.219 409.539 194.263 410.553" fill="#FCC59C"/>
<path d="M194.414 410.551C195.458 409.536 196.704 408.753 198.071 408.252C199.447 407.743 200.891 407.442 202.355 407.358C203.831 407.255 205.314 407.369 206.757 407.695C207.507 407.861 208.231 408.127 208.909 408.487C209.09 408.587 209.264 408.699 209.428 408.824C209.608 408.962 209.768 409.123 209.907 409.302C210.081 409.51 210.204 409.756 210.266 410.02C210.329 410.321 210.294 410.635 210.165 410.915C210.055 411.147 209.902 411.355 209.713 411.529C209.562 411.668 209.402 411.798 209.235 411.917C208.915 412.138 208.577 412.333 208.225 412.498C207.556 412.808 206.869 413.077 206.168 413.307C204.793 413.761 203.417 414.141 202.044 414.522C200.671 414.902 199.308 415.292 197.978 415.768C197.311 415.995 196.658 416.264 196.024 416.572C195.382 416.872 194.785 417.261 194.251 417.727C194.703 417.159 195.246 416.67 195.856 416.277C196.462 415.881 197.094 415.526 197.748 415.215C199.056 414.612 200.395 414.079 201.76 413.617C203.106 413.139 204.467 412.706 205.788 412.221C206.44 411.989 207.079 411.723 207.701 411.422C207.995 411.281 208.276 411.117 208.543 410.931C208.664 410.845 208.781 410.752 208.893 410.654C208.966 410.585 209.028 410.504 209.074 410.415C209.098 410.368 209.105 410.315 209.096 410.264C209.073 410.182 209.033 410.107 208.979 410.041C208.793 409.831 208.571 409.656 208.323 409.525C207.743 409.207 207.124 408.965 206.481 408.807C205.144 408.466 203.769 408.295 202.389 408.298C200.995 408.292 199.607 408.465 198.258 408.814C196.886 409.163 195.587 409.75 194.419 410.549" fill="#FCC59C"/>
<path d="M194.333 411.757C193.631 411.346 192.881 411.025 192.101 410.8C191.33 410.571 190.537 410.426 189.735 410.369C188.948 410.298 188.154 410.361 187.389 410.558C187.21 410.608 187.038 410.678 186.877 410.769C186.743 410.839 186.634 410.949 186.563 411.082C186.465 411.29 186.695 411.606 186.98 411.84L186.963 411.826C187.564 412.209 188.19 412.553 188.836 412.854C189.482 413.17 190.139 413.469 190.795 413.783C191.45 414.096 192.106 414.414 192.737 414.775C193.055 414.956 193.362 415.157 193.656 415.376C193.805 415.489 193.945 415.615 194.072 415.754C194.203 415.885 194.295 416.051 194.337 416.232C194.273 416.064 194.164 415.917 194.022 415.806C193.887 415.688 193.743 415.582 193.591 415.488C193.282 415.302 192.963 415.134 192.634 414.986C191.981 414.68 191.314 414.407 190.646 414.127C189.979 413.847 189.309 413.572 188.644 413.271C187.969 412.977 187.317 412.632 186.695 412.237C186.512 412.094 186.355 411.921 186.231 411.725C186.195 411.672 186.166 411.614 186.145 411.553C186.117 411.491 186.099 411.425 186.092 411.357C186.079 411.287 186.079 411.215 186.092 411.144C186.097 411.071 186.115 410.999 186.145 410.931C186.255 410.698 186.438 410.507 186.666 410.386C186.863 410.284 187.071 410.204 187.286 410.147C188.108 409.952 188.959 409.908 189.797 410.018C190.622 410.109 191.431 410.305 192.206 410.601C192.977 410.896 193.702 411.299 194.359 411.797" fill="#FCC59C"/>
<path d="M194.333 411.757C194.99 411.258 195.715 410.855 196.485 410.561C197.26 410.265 198.07 410.068 198.894 409.977C199.732 409.867 200.583 409.911 201.406 410.106C201.62 410.163 201.828 410.243 202.025 410.345C202.253 410.466 202.436 410.657 202.547 410.891C202.577 410.958 202.595 411.03 202.599 411.104C202.611 411.174 202.611 411.246 202.599 411.316C202.591 411.384 202.572 411.45 202.544 411.513C202.523 411.574 202.494 411.632 202.458 411.685C202.334 411.88 202.177 412.054 201.994 412.197H201.982C201.36 412.591 200.708 412.936 200.033 413.23C199.37 413.531 198.7 413.811 198.031 414.086C197.361 414.361 196.696 414.639 196.045 414.945C195.717 415.093 195.397 415.261 195.088 415.447C194.936 415.541 194.792 415.647 194.658 415.766C194.515 415.875 194.405 416.022 194.342 416.191C194.387 416.011 194.479 415.845 194.61 415.713C194.735 415.578 194.872 415.454 195.019 415.342C195.313 415.123 195.619 414.923 195.938 414.742C196.571 414.381 197.224 414.058 197.88 413.749C198.535 413.441 199.193 413.137 199.841 412.821C200.486 412.519 201.111 412.175 201.712 411.792L201.695 411.807C201.98 411.568 202.209 411.257 202.111 411.049C202.041 410.915 201.931 410.806 201.798 410.735C201.636 410.645 201.464 410.574 201.286 410.525C200.52 410.328 199.727 410.264 198.939 410.336C198.138 410.394 197.345 410.538 196.574 410.766C195.793 410.992 195.044 411.313 194.342 411.723" fill="#FCC59C"/>
<path d="M184.341 409.415C184.065 409.569 183.809 409.757 183.578 409.974C183.535 410.008 183.499 410.051 183.473 410.1C183.447 410.149 183.432 410.203 183.429 410.258C183.425 410.313 183.434 410.369 183.453 410.42C183.473 410.472 183.503 410.519 183.542 410.558C183.73 410.791 183.945 411 184.183 411.18C184.423 411.379 184.698 411.577 184.946 411.812C184.614 411.756 184.291 411.651 183.99 411.501C183.661 411.35 183.373 411.123 183.15 410.838C183.016 410.656 182.956 410.431 182.983 410.207C183.004 410.1 183.047 409.999 183.108 409.909C183.17 409.819 183.249 409.743 183.341 409.685C183.64 409.491 183.993 409.397 184.348 409.415" fill="#FCC59C"/>
<g opacity="0.5">
<path d="M217.729 407.322C218.222 407.457 218.69 407.67 219.116 407.953C219.563 408.243 219.955 408.611 220.271 409.039C220.616 409.511 220.823 410.069 220.869 410.651C220.894 411.247 220.752 411.838 220.458 412.357C219.889 413.357 219.023 414.007 218.147 414.51C217.267 415.002 216.313 415.35 215.322 415.541C216.095 414.895 216.884 414.33 217.607 413.723C218.329 413.115 218.996 412.481 219.396 411.771C219.589 411.437 219.7 411.063 219.721 410.678C219.722 410.278 219.631 409.884 219.456 409.525C219.085 408.747 218.441 408.018 217.729 407.319" fill="#FDFFFE"/>
</g>
<g opacity="0.5">
<path d="M170.63 407.322C169.913 408.02 169.274 408.757 168.903 409.527C168.728 409.886 168.637 410.281 168.638 410.68C168.659 411.065 168.77 411.44 168.963 411.773C169.365 412.491 170.037 413.125 170.755 413.725C171.472 414.326 172.264 414.897 173.037 415.543C172.046 415.352 171.092 415.004 170.212 414.512C169.334 414.007 168.47 413.357 167.901 412.359C167.607 411.84 167.465 411.25 167.49 410.654C167.536 410.071 167.743 409.513 168.088 409.042C168.404 408.612 168.795 408.245 169.243 407.956C169.669 407.673 170.137 407.46 170.63 407.324" fill="#FDFFFE"/>
</g>
<path d="M119.057 471.544C117.077 472.308 115.287 473.491 113.807 475.011C112.326 476.531 111.192 478.353 110.482 480.352C108.503 485.932 104.951 494.433 99.342 503.023C99.3207 503.046 99.3007 503.069 99.2822 503.095C98.5084 504.283 97.5756 505.36 96.5099 506.295C94.5861 507.993 92.2924 509.218 89.8116 509.873C87.3307 510.528 84.7313 510.594 82.2202 510.067L76.0512 508.802L67.33 507.008C62.345 505.978 57.6578 503.833 53.6197 500.734C49.5815 497.635 46.2972 493.662 44.0129 489.113C44.0129 489.113 46.9192 448.794 94.8259 417.722C106.661 410.039 115.875 407.413 123.209 408.011C135.339 409.001 142.326 418.808 147.553 429.252C153.305 440.757 153.439 458.273 119.057 471.549" fill="white"/>
<g opacity="0.350006">
<path d="M119.057 471.544C117.077 472.308 115.286 473.491 113.806 475.011C112.326 476.531 111.192 478.353 110.481 480.352C108.503 485.932 104.951 494.433 99.3419 503.023C99.3205 503.046 99.3006 503.07 99.2821 503.095C99.0429 503.398 98.0622 504.585 96.5098 506.295C85.6765 518.229 46.7851 555.907 32.2131 499.358C32.2131 499.358 47.7754 534.403 76.0511 508.788C83.6313 501.925 92.1205 490.692 101.48 473.259C104.299 467.971 108.902 463.854 114.471 461.639C128.617 456.08 152.951 440.901 123.209 407.996C135.339 408.987 142.326 418.794 147.552 429.237C153.305 440.743 153.439 458.259 119.057 471.535" fill="#02004E"/>
</g>
<path d="M94.8234 510.651C94.5618 510.651 94.3013 510.618 94.0484 510.55C45.2447 497.799 49.7775 462.204 49.8349 461.845C49.9661 461.059 50.3994 460.355 51.0424 459.884C51.6853 459.413 52.4869 459.211 53.2761 459.323C54.0653 459.435 54.7796 459.851 55.2664 460.482C55.7533 461.113 55.9741 461.909 55.8819 462.701C55.712 463.95 52.2532 493.307 95.6008 504.645C96.3197 504.831 96.9458 505.274 97.3618 505.889C97.7778 506.504 97.9552 507.25 97.8607 507.987C97.7663 508.724 97.4064 509.401 96.8486 509.891C96.2908 510.381 95.5733 510.652 94.8306 510.651H94.8234Z" fill="#02004E"/>
<path d="M43.4221 489.073C43.2403 486.244 43.3655 483.404 43.7953 480.603L44.0919 478.5C44.1995 477.799 44.3741 477.122 44.5153 476.429C44.8095 475.049 45.0941 473.654 45.4936 472.3C45.893 470.946 46.2375 469.559 46.7302 468.234L48.2061 464.246C48.718 462.921 49.3375 461.649 49.9259 460.357C50.5144 459.065 51.0884 457.762 51.818 456.544L53.9014 452.829C54.5712 451.574 55.4323 450.437 56.1953 449.241L58.5873 445.72L61.2042 442.372C62.0868 441.264 62.936 440.125 63.8497 439.044L66.6962 435.889C67.653 434.844 68.5834 433.775 69.5666 432.749L72.6259 429.809L75.702 426.883C76.7425 425.927 77.8691 425.075 78.9503 424.164L82.2178 421.494L83.8611 420.16L85.5857 418.937L92.4938 414.06C94.9121 412.541 97.3495 411.041 99.9376 409.721C102.53 408.345 105.218 407.157 107.979 406.164C110.836 405.117 113.794 404.373 116.806 403.944C119.972 403.5 123.188 403.564 126.333 404.136C129.55 404.727 132.627 405.923 135.399 407.659C140.922 411.12 144.742 416.098 147.763 421.054C148.507 422.308 149.227 423.566 149.892 424.838C150.557 426.111 151.188 427.309 151.827 428.79C153.047 431.634 154.032 434.677 154.3 437.913C154.568 441.149 154.37 444.45 153.399 447.567C153.238 448.371 152.86 449.088 152.585 449.849C152.26 450.583 152.033 451.38 151.607 452.047C150.825 453.427 150.093 454.863 149.105 456.056C145.39 461.079 140.594 464.761 135.669 467.794C130.737 470.903 125.474 473.056 120.246 475.194C118.357 475.916 116.722 477.175 115.541 478.816C114.941 479.641 114.459 480.545 114.105 481.502C113.649 482.753 113.149 484.133 112.622 485.439C108.429 495.931 102.839 505.955 95.357 514.681C95.0353 515.069 94.6397 515.389 94.1933 515.622C93.7468 515.855 93.2584 515.997 92.7566 516.04C92.2547 516.082 91.7494 516.024 91.27 515.87C90.7907 515.715 90.3469 515.466 89.9646 515.139C89.5822 514.811 89.269 514.41 89.0431 513.96C88.8171 513.51 88.683 513.019 88.6486 512.517C88.6142 512.014 88.6801 511.51 88.8425 511.033C89.005 510.556 89.2606 510.116 89.5947 509.739C96.3903 501.824 101.636 492.469 105.554 482.65C106.054 481.406 106.485 480.222 106.968 478.902C107.558 477.283 108.371 475.753 109.381 474.357C111.424 471.527 114.238 469.343 117.488 468.066L121.143 466.523C122.363 466.014 123.59 465.512 124.731 464.897L128.242 463.148C129.369 462.51 130.467 461.833 131.591 461.18C135.939 458.47 139.934 455.267 142.697 451.437C143.469 450.516 143.943 449.473 144.522 448.483C144.85 448.005 144.962 447.443 145.192 446.928C145.371 446.4 145.67 445.9 145.749 445.347C146.402 443.216 146.467 440.982 146.27 438.755C146.074 436.528 145.314 434.287 144.357 432.129C143.905 431.098 143.249 429.857 142.632 428.732C142.015 427.608 141.357 426.477 140.69 425.384C137.992 421.078 134.787 417.227 130.923 414.912C127.096 412.546 122.635 411.802 117.942 412.462C115.532 412.82 113.166 413.431 110.883 414.285C108.499 415.152 106.18 416.191 103.947 417.394C101.657 418.569 99.4329 419.951 97.2203 421.353L90.6711 425.898L89.0302 427.029L87.4754 428.266L84.3658 430.754C83.3444 431.598 82.2704 432.383 81.2873 433.27L78.3786 435.966L75.4485 438.642C74.518 439.582 73.6281 440.556 72.7144 441.513L69.9875 444.383C69.1121 445.373 68.3132 446.416 67.4568 447.428L64.9428 450.49L62.6441 453.707C61.0319 455.805 59.6733 458.061 58.219 460.266C57.4727 461.362 56.822 462.507 56.1619 463.653C55.5017 464.799 54.7769 465.911 54.1669 467.086C53.557 468.26 52.9255 469.423 52.3012 470.597C51.6769 471.771 51.1363 472.989 50.5431 474.185C48.2515 478.986 46.1681 483.992 44.599 489.18L44.587 489.226C44.547 489.361 44.4608 489.477 44.3437 489.555C44.2265 489.633 44.0857 489.667 43.9459 489.652C43.806 489.636 43.676 489.572 43.5786 489.471C43.4811 489.369 43.4223 489.237 43.4126 489.097" fill="#02004E"/>
<g opacity="0.5">
<path d="M279.844 247.75C276.823 262.994 283.331 277.123 294.378 279.31C305.424 281.496 316.824 270.911 319.84 255.67C322.857 240.428 316.353 226.308 305.299 224.112C294.246 221.916 282.855 232.508 279.837 247.75" fill="white"/>
</g>
<g opacity="0.5">
<path d="M253.604 295.484C251.264 302.225 254.056 309.312 259.837 311.319C265.619 313.326 272.204 309.492 274.541 302.754C276.878 296.015 274.089 288.926 268.307 286.919C262.526 284.912 255.941 288.749 253.604 295.484Z" fill="white"/>
</g>
</svg>
