<svg width="202" height="170" viewBox="0 0 202 170" fill="none" xmlns="http://www.w3.org/2000/svg">
<path d="M36.2662 61.372C33.7737 57.0997 38.0173 42.8204 37.9671 35.8616C37.9638 35.3936 37.9083 34.5913 37.7325 34.0825C35.3175 27.109 22.9097 16.3098 11.1403 17.163C-1.7402 18.099 -1.6807 34.017 10.9257 42.6519C10.9257 42.6519 5.89785 54.813 7.34537 65.5895C8.83768 76.7076 15.6514 85.4783 30.0697 94.0912L36.2662 61.372Z" fill="white"/>
<path d="M10.9243 42.6526C10.9243 42.6526 5.8978 54.8137 7.34532 65.5915C7.67826 68.1542 8.33634 70.664 9.30365 73.0604C12.4568 80.8161 19.0364 87.5021 30.0703 94.0918L36.2655 61.3753C36.0337 60.9589 35.8645 60.5106 35.7634 60.0448C34.4777 54.678 38.0152 42.2173 37.9698 35.8636C37.9638 35.3956 37.9076 34.5933 37.7351 34.0845C35.3181 27.111 22.9103 16.3125 11.143 17.1636C-1.73758 18.0997 -1.67941 34.0197 10.9257 42.6546" fill="white"/>
<g opacity="0.15">
<path d="M9.30362 73.0584C12.4567 80.8141 19.0364 87.5001 30.0703 94.0898L36.2655 61.3733C36.0337 60.9569 35.8645 60.5086 35.7634 60.0428C30.5316 66.0916 27.1224 78.1057 16.6141 76.624C13.8661 76.2369 11.4378 74.9418 9.30362 73.0597" fill="#02004E"/>
</g>
<path d="M30.0696 95.5594C30.4114 95.5588 30.7422 95.4392 31.0054 95.2212C31.2686 95.0032 31.4476 94.7003 31.5118 94.3646L37.7083 61.6468C37.7744 61.2991 37.7124 60.9393 37.5338 60.6339C36.2488 58.4275 37.3466 51.6432 38.2285 46.1921C38.859 42.2922 39.4547 38.6082 39.4353 35.855C39.4353 35.5347 39.4032 34.4255 39.1198 33.6058C37.7672 29.7005 33.8111 25.0598 28.7946 21.4948C22.9657 17.3495 16.6595 15.2942 11.034 15.7021C5.57218 16.0979 1.70902 19.0243 0.43668 23.7299C-1.30167 30.1572 2.26129 38.0165 9.14718 43.1861C7.93501 46.473 4.64551 56.5186 5.89044 65.7887C7.46231 77.4972 14.6872 86.6162 29.3168 95.3548C29.5447 95.4895 29.8048 95.5602 30.0696 95.5594ZM34.7317 61.5853L29.0226 91.7297C16.4396 83.8402 10.1775 75.6546 8.80018 65.3943C7.4242 55.148 12.2334 43.3305 12.2822 43.2122C12.4102 42.9012 12.4277 42.5556 12.3319 42.2332C12.236 41.9108 12.0325 41.631 11.7554 41.4404C4.18016 36.2521 2.04733 29.0185 3.27086 24.4935C4.21158 21.0168 7.04376 18.9314 11.2466 18.6272C22.4676 17.8202 34.2383 28.479 36.3451 34.5632C36.428 34.8026 36.4955 35.3776 36.4995 35.8723C36.5169 38.3789 35.9406 41.9445 35.3301 45.7194C34.2844 52.1848 33.2943 58.3105 34.7317 61.5853Z" fill="#02004E"/>
<path d="M27.8365 39.5516C36.1726 40.2089 37.3774 35.2265 36.7476 31.945C32.9012 25.1113 21.7597 16.3928 11.1403 17.163C8.99144 17.3201 7.20093 17.8917 5.77013 18.7803C-0.854336 25.6174 16.0953 38.6243 27.8339 39.5516" fill="#AFAFB2"/>
<path d="M29.2854 41.0787C32.5394 41.0787 34.9852 40.1855 36.5731 38.4137C38.0975 36.7101 38.6879 34.2517 38.1918 31.6675C38.1618 31.512 38.107 31.3623 38.0293 31.2242C34.0659 24.1819 22.4784 14.869 11.0367 15.6987C8.71664 15.8679 6.68543 16.4857 4.99789 17.5334C4.8958 17.5969 4.80194 17.6728 4.71842 17.7594C2.75809 19.7819 2.29744 22.376 3.38659 25.2597C6.05429 32.3228 18.3364 40.2737 27.7235 41.0152C28.2624 41.0575 28.783 41.0787 29.2854 41.0787ZM35.3456 32.4505C35.484 33.3524 35.5622 35.1375 34.3828 36.456C33.2134 37.7631 30.989 38.3281 27.9522 38.0881C19.6449 37.4322 8.42913 30.3049 6.13049 24.222C5.47727 22.4937 5.66248 21.0883 6.70349 19.9316C7.95443 19.1962 9.48218 18.7562 11.25 18.6272C21.2308 17.8978 31.7331 26.2673 35.3456 32.4505Z" fill="#02004E"/>
<path d="M15.414 71.2391C19.2758 71.2391 23.3502 69.9561 27.4935 67.4021C32.8129 64.1206 36.3411 59.9519 36.4882 59.7747C36.6588 59.5495 36.7364 59.2673 36.7048 58.9865C36.6732 58.7057 36.5349 58.4478 36.3185 58.2661C36.102 58.0845 35.824 57.993 35.542 58.0105C35.26 58.0281 34.9955 58.1535 34.8033 58.3606C34.6696 58.5204 21.2154 74.2652 8.32683 67.2075C8.20004 67.1381 8.06081 67.0943 7.9171 67.0786C7.77339 67.063 7.62801 67.0758 7.48925 67.1163C7.35049 67.1569 7.22107 67.2243 7.10838 67.3149C6.9957 67.4055 6.90196 67.5173 6.83251 67.6441C6.76305 67.7709 6.71926 67.9101 6.70362 68.0538C6.68797 68.1975 6.70078 68.3429 6.74133 68.4817C6.78187 68.6204 6.84934 68.7499 6.9399 68.8625C7.03045 68.9752 7.14232 69.069 7.2691 69.1384C9.76123 70.5199 12.5645 71.243 15.414 71.2391Z" fill="#02004E"/>
<path d="M35.621 60.7382C46.7511 53.423 61.8146 51.9287 69.0315 55.1942C83.1302 61.5773 85.9263 76.3071 100.672 78.0081L101.771 132.541C101.771 132.541 76.4021 138.163 54.0422 127.361C40.6268 120.879 24.3731 106.225 23.1744 85.4161" fill="#E8E8E8"/>
<path d="M36.2662 61.7197C38.8086 60.068 41.5247 58.7003 44.3656 57.6412C47.2113 56.5704 50.1555 55.7823 53.1556 55.2884C56.1503 54.8003 59.1984 54.6024 62.1884 54.8204C63.6666 54.9267 65.1314 55.1729 66.563 55.5559C67.2554 55.7504 67.9331 55.994 68.5909 56.2846C69.2709 56.5942 69.9381 56.9332 70.5927 57.2949C73.2136 58.7431 75.5824 60.6272 77.7621 62.7513C79.9517 64.8714 81.9615 67.2216 84.0977 69.5356C86.2339 71.8496 88.5332 74.1342 91.3052 75.9066C92.6924 76.7993 94.1783 77.5282 95.7333 78.0789C97.2889 78.6207 98.8998 78.9882 100.537 79.1748L99.4968 78.0321L100.597 132.564L101.517 131.394C100.528 131.602 99.4601 131.778 98.4197 131.929C97.3794 132.08 96.3183 132.214 95.2626 132.326C93.1507 132.548 91.0313 132.697 88.9042 132.771C84.6571 132.924 80.4045 132.768 76.1801 132.303C67.7558 131.357 59.4451 129.069 52.0438 125.008C44.6638 120.935 38.0139 115.359 33.0924 108.532C30.6332 105.122 28.5539 101.46 26.968 97.5799C26.5602 96.6145 26.2004 95.6289 25.8595 94.6381C25.5185 93.6472 25.2116 92.6383 24.9134 91.6247C24.3344 89.5928 23.8858 87.5175 23.4699 85.4007C23.4558 85.3306 23.4167 85.268 23.36 85.2244C23.3033 85.1808 23.2327 85.1592 23.1613 85.1636C23.0899 85.168 23.0225 85.1981 22.9716 85.2483C22.9207 85.2986 22.8896 85.3655 22.8842 85.4368C22.7362 87.6286 22.8331 89.8301 23.173 92.0005C23.5052 94.1856 24.0424 96.3346 24.7777 98.419C25.1488 99.46 25.5626 100.486 26.0092 101.495C26.4558 102.503 26.956 103.493 27.4801 104.466C28.5438 106.402 29.7445 108.26 31.0732 110.025C33.7255 113.548 36.7857 116.735 40.1166 119.585C43.4482 122.446 47.0668 124.954 50.9145 127.069C54.7744 129.168 58.848 130.847 63.0656 132.078C67.2684 133.318 71.5795 134.15 75.9187 134.638C80.2573 135.117 84.6251 135.278 88.9871 135.12C91.1654 135.044 93.3402 134.892 95.5113 134.663C96.5958 134.548 97.6789 134.413 98.7607 134.255C99.8498 134.093 100.908 133.921 102.025 133.688L102.966 133.482L102.946 132.517L101.845 77.984L101.825 76.961L100.805 76.8413C99.3432 76.6749 97.9041 76.3471 96.5142 75.8639C95.1288 75.3722 93.805 74.7215 92.5695 73.9249C90.0763 72.3337 87.91 70.1961 85.8213 67.937C83.7326 65.6778 81.6861 63.2815 79.3974 61.0631C77.1189 58.842 74.5708 56.8061 71.7313 55.2383C71.0226 54.8465 70.2998 54.4794 69.5624 54.1438C68.7952 53.8035 68.0047 53.5186 67.1969 53.2913C65.6168 52.8672 64 52.5945 62.3683 52.477C59.1409 52.2403 55.9277 52.4542 52.7752 52.9677C49.6221 53.4868 46.5278 54.3154 43.5372 55.4415C40.5486 56.5688 37.6629 57.9949 34.9751 59.756C34.7176 59.9281 34.5385 60.1949 34.4767 60.4984C34.4149 60.8019 34.4755 61.1175 34.6453 61.3766C34.815 61.6356 35.0802 61.8172 35.3832 61.8817C35.6861 61.9462 36.0023 61.8884 36.2629 61.721L36.2662 61.7197Z" fill="#02004E"/>
<path d="M43.1782 96.9361C43.1782 96.9361 33.7596 108.588 39.9355 117.868L43.1782 120.575C43.1782 120.575 37.475 122.887 32.4732 117.834C26.5227 111.828 30.0054 99.555 33.8887 90.6218" fill="white"/>
<g opacity="0.15">
<path d="M30.3109 100.969C32.4077 104.757 36.0248 106.456 38.2472 107.179C39.4948 101.491 43.1768 96.9347 43.1768 96.9347L33.8899 90.6252C32.51 93.7963 31.1828 97.3867 30.3109 100.969Z" fill="#02004E"/>
</g>
<path d="M29.3715 110.543C29.6504 113.4 30.5871 115.934 32.4718 117.836C37.4749 122.887 43.1768 120.578 43.1768 120.578L39.9354 117.871C39.235 116.822 38.6993 115.672 38.3468 114.461C35.9479 114.651 31.8614 114.327 29.3715 110.547" fill="#E8E8E8"/>
<path d="M39.9395 122.579C42.0923 122.579 43.6014 121.988 43.7297 121.936L45.9969 121.018L41.0447 116.884C35.7627 108.62 44.2332 97.9684 44.3208 97.8607C44.457 97.7128 44.5615 97.5384 44.6276 97.3485C44.6938 97.1585 44.7204 96.9571 44.7056 96.7565C44.6908 96.5559 44.6351 96.3604 44.5418 96.1822C44.4485 96.004 44.3197 95.8469 44.1632 95.7204C44.0068 95.594 43.8261 95.501 43.6323 95.4472C43.4385 95.3934 43.2357 95.3798 43.0365 95.4075C42.8372 95.4351 42.6458 95.5033 42.474 95.6079C42.3022 95.7125 42.1536 95.8512 42.0375 96.0154C41.6257 96.5249 32.0186 108.621 38.7146 118.681L38.8323 118.858L39.7683 119.64C38.0179 119.597 35.7019 119.01 33.5169 116.803C27.8285 111.06 32.1523 98.3027 35.2359 91.2102C35.363 90.8585 35.3514 90.4715 35.2034 90.128C35.0554 89.7845 34.7821 89.5103 34.4391 89.3611C34.0961 89.212 33.7092 89.1991 33.357 89.3251C33.0049 89.4511 32.7139 89.7066 32.5434 90.0395C28.4148 99.5336 24.8713 112.245 31.4309 118.869C34.3854 121.854 37.5566 122.579 39.9395 122.579Z" fill="#02004E"/>
<path d="M123.568 123.189C123.568 123.189 143.116 124.723 154.246 126.717C159.083 127.587 171.417 132.451 178.768 134.173C182.987 135.161 186.755 138.349 190.706 138.087C193.226 137.92 194.898 136.349 195.78 135.306C200.182 132.364 198.183 128.091 194.722 123.814C199.619 124.581 200.441 120.612 198.927 119.017C197.227 117.227 188.504 115.762 186.978 115.283C183.193 114.094 160.806 99.1999 133.716 100.173" fill="white"/>
<path d="M123.569 123.189C123.569 123.189 143.116 124.722 154.246 126.719C159.084 127.588 171.416 132.449 178.767 134.173C182.987 135.162 186.754 138.348 190.706 138.087C193.225 137.92 194.898 136.349 195.779 135.306C200.183 132.364 198.186 128.092 194.722 123.814C194.834 123.832 194.943 123.846 195.048 123.859C199.429 124.375 200.324 120.943 199.123 119.264C199.066 119.175 199 119.092 198.927 119.017C197.227 117.226 188.503 115.764 186.977 115.282C183.192 114.094 160.805 99.1986 133.717 100.172L123.569 123.189Z" fill="white"/>
<path d="M188.83 118.682C189.062 118.855 192.685 121.51 195.048 123.859C199.428 124.375 200.323 120.943 199.123 119.264C199.07 119.857 198.691 120.711 197.009 120.913C194.017 121.272 189.114 118.826 188.829 118.682" fill="#E8E8E8"/>
<path d="M141.189 124.896C145.784 125.425 150.493 126.047 154.246 126.719C156.814 127.181 161.495 128.766 166.419 130.413C165.483 128.452 164.78 126.975 164.78 126.975C164.78 126.975 146.145 118.004 145.109 118.004C144.588 118.004 142.821 121.451 141.189 124.895" fill="#E8E8E8"/>
<g opacity="0.15">
<path d="M175.97 133.439C176.959 133.721 177.899 133.967 178.767 134.174C182.987 135.164 186.754 138.35 190.706 138.088C193.225 137.921 194.898 136.35 195.779 135.308C197.949 133.857 198.566 132.087 198.216 130.149C197.65 131.412 196.607 132.783 194.722 133.024C194.722 133.024 193.71 135.657 191.36 135.727C189.011 135.798 183.917 133.23 181.172 132.102C178.627 131.057 175.523 129.553 175.97 133.444" fill="#02004E"/>
</g>
<path d="M190.243 139.57C190.429 139.57 190.616 139.564 190.803 139.552C193.04 139.403 195.099 138.318 196.768 136.409C198.458 135.23 199.446 133.764 199.71 132.049C200.068 129.689 198.935 127.244 197.57 125.188C199.395 124.72 200.244 123.531 200.579 122.892C201.428 121.275 201.187 119.267 199.992 118.011C198.515 116.455 194.167 115.398 189.46 114.364C188.567 114.168 187.722 113.983 187.417 113.886C186.84 113.705 185.478 113.004 183.753 112.115C175.492 107.862 156.146 97.9069 133.663 98.7058C133.462 98.7008 133.263 98.7368 133.076 98.8118C132.89 98.8867 132.721 98.999 132.58 99.1417C132.439 99.2843 132.328 99.4544 132.255 99.6414C132.182 99.8283 132.149 100.028 132.156 100.229C132.163 100.429 132.211 100.626 132.297 100.808C132.383 100.989 132.506 101.151 132.657 101.283C132.808 101.415 132.984 101.515 133.175 101.577C133.366 101.638 133.568 101.66 133.768 101.64C155.485 100.859 174.352 110.577 182.409 114.725C184.403 115.752 185.72 116.431 186.538 116.688C186.968 116.822 187.749 116.995 188.83 117.232C191.033 117.715 196.883 119 197.862 120.032C198.142 120.327 198.263 120.984 197.979 121.53C197.578 122.301 196.468 122.607 194.949 122.368C194.656 122.323 194.357 122.368 194.09 122.496C193.823 122.625 193.601 122.831 193.453 123.087C193.305 123.344 193.238 123.639 193.261 123.934C193.284 124.229 193.395 124.511 193.58 124.742C195.998 127.729 197.052 129.977 196.803 131.612C196.661 132.548 196.06 133.357 194.964 134.085C194.849 134.162 194.746 134.255 194.657 134.36C193.475 135.764 192.112 136.523 190.609 136.623C188.635 136.756 186.547 135.782 184.337 134.751C182.677 133.978 180.96 133.178 179.103 132.745C175.512 131.903 170.728 130.304 166.101 128.757C161.442 127.199 157.04 125.727 154.504 125.273C143.432 123.288 123.879 121.742 123.681 121.73C123.482 121.701 123.279 121.713 123.085 121.766C122.89 121.818 122.709 121.911 122.552 122.036C122.394 122.162 122.265 122.319 122.17 122.496C122.076 122.674 122.019 122.87 122.004 123.07C121.988 123.271 122.013 123.473 122.079 123.663C122.144 123.854 122.248 124.029 122.384 124.177C122.52 124.326 122.685 124.445 122.868 124.528C123.052 124.61 123.251 124.654 123.452 124.656C123.647 124.672 143.056 126.207 153.985 128.166C156.311 128.583 160.614 130.021 165.169 131.544C169.859 133.112 174.709 134.733 178.431 135.606C179.994 135.971 181.574 136.706 183.096 137.416C185.378 138.475 187.73 139.57 190.243 139.57Z" fill="#02004E"/>
<path d="M176.164 132.364C175.671 134.345 179.106 139.941 175.672 141.55C171.554 143.478 165.12 135.369 164.917 126.975" fill="white"/>
<path d="M175.595 132.222C175.484 132.599 175.439 132.993 175.461 133.386C175.473 133.727 175.504 134.066 175.554 134.404C175.641 135.058 175.766 135.674 175.864 136.284C175.962 136.895 176.057 137.48 176.081 138.037C176.118 138.59 176.085 139.115 175.956 139.499C175.908 139.666 175.828 139.823 175.72 139.96C175.627 140.082 175.508 140.182 175.371 140.252C175.295 140.296 175.216 140.334 175.135 140.367L174.879 140.45C174.702 140.489 174.52 140.508 174.338 140.505C173.896 140.491 173.461 140.396 173.053 140.225C172.566 140.02 172.105 139.756 171.682 139.439C170.793 138.77 169.988 137.91 169.275 136.972C168.559 136.015 167.937 134.991 167.418 133.915C166.371 131.75 165.693 129.381 165.509 126.961V126.954C165.497 126.804 165.428 126.664 165.316 126.563C165.203 126.463 165.056 126.409 164.906 126.414C164.755 126.419 164.612 126.481 164.506 126.588C164.4 126.695 164.339 126.839 164.336 126.99C164.321 128.294 164.435 129.595 164.677 130.876C164.927 132.16 165.295 133.419 165.776 134.636C166.258 135.865 166.858 137.046 167.567 138.16C168.285 139.275 169.125 140.341 170.178 141.277C170.723 141.762 171.324 142.181 171.967 142.524C172.687 142.916 173.489 143.134 174.308 143.16C175.213 143.178 176.098 142.896 176.825 142.357C177.213 142.079 177.541 141.725 177.788 141.316C178.027 140.927 178.192 140.498 178.277 140.05C178.431 139.206 178.353 138.455 178.232 137.766C178.099 137.109 177.925 136.461 177.709 135.827L177.092 134.055C176.999 133.77 176.906 133.488 176.84 133.222C176.777 132.99 176.742 132.751 176.737 132.511V132.421C176.741 132.279 176.694 132.141 176.604 132.032C176.515 131.923 176.389 131.85 176.25 131.826C176.11 131.802 175.967 131.83 175.847 131.904C175.726 131.977 175.636 132.092 175.594 132.227" fill="#02004E"/>
<path d="M76.8274 55.7571L70.2597 48.7188C70.2597 48.7188 81.5691 36.8879 82.6335 30.4901C84.1532 21.3457 71.5762 5.24387 61.9671 2.288C51.9241 -0.800257 45.7997 5.37291 46.6883 12.8231C47.3469 18.347 52.1521 25.5706 52.1521 25.5706C52.1521 25.5706 40.7191 36.1097 40.9277 47.3094C41.1363 58.5091 46.2765 69.7281 46.2765 69.7281" fill="white"/>
<g opacity="0.15">
<path d="M40.9277 47.3094C41.1336 58.5077 46.2764 69.7295 46.2764 69.7295L76.8314 55.7558L70.2631 48.7181C70.2631 48.7181 70.3393 48.6386 70.4803 48.4888C64.2122 49.7163 53.8918 51.2106 47.7052 49.3319C42.8245 47.8489 41.7193 44.3669 41.8978 41.1282C41.2666 43.1219 40.8949 45.2066 40.9317 47.3087" fill="#02004E"/>
</g>
<path d="M46.2738 71.1964C46.5197 71.1961 46.7616 71.1341 46.9774 71.0161C47.1932 70.8981 47.3759 70.728 47.509 70.5211C47.642 70.3143 47.721 70.0774 47.7388 69.8321C47.7567 69.5868 47.7127 69.341 47.611 69.1171C47.5608 69.0074 42.5965 58.0317 42.3959 47.2827C42.2054 36.8853 53.0393 26.7507 53.1483 26.6497C53.4044 26.4127 53.5679 26.0923 53.6095 25.7458C53.6512 25.3993 53.5683 25.0493 53.3756 24.7583C53.3288 24.6914 48.7556 17.7554 48.1465 12.6493C47.7741 9.52761 48.7911 6.71014 50.9359 4.91896C53.4699 2.80419 57.2341 2.36826 61.5365 3.69142C70.9511 6.58578 82.5205 22.2209 81.186 30.2461C80.3743 35.1269 72.2582 44.504 69.1993 47.7052C68.941 47.9765 68.7959 48.3361 68.7937 48.7107C68.7915 49.0853 68.9322 49.4467 69.1873 49.721L75.7543 56.7594C75.8827 56.9125 76.0409 57.0378 76.2194 57.1277C76.3978 57.2177 76.5927 57.2703 76.7921 57.2824C76.9916 57.2945 77.1914 57.2659 77.3794 57.1982C77.5675 57.1306 77.7397 57.0253 77.8857 56.8889C78.0317 56.7524 78.1483 56.5877 78.2286 56.4047C78.3088 56.2217 78.3508 56.0242 78.3522 55.8244C78.3536 55.6246 78.3143 55.4266 78.2366 55.2425C78.1589 55.0584 78.0446 54.892 77.9005 54.7536L72.2669 48.7161C75.075 45.6453 83.1343 36.4246 84.0817 30.7262C85.7812 20.5033 72.4079 3.96019 62.399 0.882637C57.1171 -0.742056 52.3761 -0.109563 49.0538 2.66311C46.132 5.10216 44.7387 8.86837 45.2308 12.995C45.7777 17.5842 48.894 23.0908 50.2767 25.35C47.5067 28.1641 39.2769 37.37 39.4594 47.3388C39.668 58.7143 44.724 69.8706 44.9419 70.3426C45.0595 70.597 45.2474 70.8125 45.4833 70.9638C45.7193 71.1151 45.9935 71.1958 46.2738 71.1964Z" fill="#02004E"/>
<path d="M54.3364 54.0248C56.1394 54.0161 57.9379 53.8424 59.7093 53.5059C65.8403 52.3693 70.5894 49.7932 70.7886 49.6842C71.0448 49.5441 71.2349 49.3078 71.317 49.0275C71.399 48.7472 71.3664 48.4458 71.2262 48.1896C71.086 47.9333 70.8498 47.7433 70.5695 47.6612C70.2892 47.5792 69.9878 47.6118 69.7316 47.752C69.5497 47.8509 51.4788 57.5362 41.7507 46.5779C41.6558 46.4661 41.5396 46.3743 41.4087 46.308C41.2779 46.2416 41.1351 46.2021 40.9888 46.1918C40.8425 46.1814 40.6955 46.2004 40.5566 46.2476C40.4178 46.2948 40.2897 46.3692 40.18 46.4666C40.0703 46.564 39.9811 46.6823 39.9178 46.8146C39.8544 46.9469 39.8181 47.0905 39.811 47.2371C39.804 47.3836 39.8262 47.53 39.8765 47.6678C39.9268 47.8056 40.0042 47.932 40.104 48.0395C43.6181 51.9982 48.4755 54.0248 54.3364 54.0248Z" fill="#02004E"/>
<path d="M81.6239 24.7061C81.7933 24.7061 81.9614 24.6765 82.1207 24.6185C82.4683 24.4928 82.7559 24.2407 82.9262 23.9125C83.0964 23.5843 83.1368 23.204 83.0393 22.8474C83.0279 22.8053 83.0146 22.7645 82.9999 22.7237C79.6081 13.4202 69.9809 3.21536 62.3977 0.88463C58.356 -0.360299 54.5998 -0.281404 51.535 1.11062C51.4544 1.14815 51.3775 1.19291 51.305 1.24434C51.2542 1.27927 51.2055 1.31723 51.1592 1.358C50.8969 1.5972 50.7299 1.92323 50.6891 2.2759C50.6483 2.62858 50.7364 2.98412 50.9373 3.2769C51.1381 3.56968 51.438 3.77996 51.7817 3.86892C52.1254 3.95788 52.4897 3.91953 52.8073 3.76094C55.1996 2.69118 58.2149 2.67046 61.5345 3.69408C68.2446 5.75202 77.1429 15.2775 80.2265 23.6892L80.2426 23.7346C80.3452 24.0188 80.5328 24.2645 80.7799 24.4383C81.0271 24.6122 81.3217 24.7057 81.6239 24.7061Z" fill="#02004E"/>
<path d="M71.6919 31.4603C83.8383 34.2583 81.7035 23.6143 81.6232 23.2365C81.6228 23.233 81.6228 23.2294 81.6232 23.2258C78.4655 14.5628 69.3451 4.55387 61.9665 2.28732C58.0271 1.07382 54.6901 1.28844 52.1428 2.44645C52.1394 2.44645 52.1367 2.44645 52.1347 2.4518C44.3924 7.07114 58.9023 28.5131 71.6919 31.4596" fill="#AFAFB2"/>
<path d="M75.3691 33.3952C77.8008 33.3952 79.715 32.7172 81.095 31.364C84.1117 28.4008 83.1763 23.4839 83.06 22.933C83.0533 22.9036 83.0459 22.8748 83.0386 22.8461C83.0272 22.8046 83.0145 22.7638 82.9998 22.7237C79.608 13.4202 69.9809 3.21535 62.3976 0.884622C58.356 -0.360308 54.5991 -0.282082 51.5349 1.11061C51.4719 1.13956 51.4109 1.17285 51.3524 1.21023C49.0792 2.58487 48.115 5.18905 48.6419 8.54809C49.3105 12.801 52.3038 18.2321 56.6504 23.0761C61.2697 28.2243 66.6319 31.8013 71.3595 32.8911C72.8215 33.2276 74.158 33.3956 75.3691 33.3952ZM80.2011 23.6256C80.3034 24.198 80.8075 27.5282 79.035 29.2693C77.4157 30.8612 74.3254 30.561 72.0194 30.0301C63.0849 27.9715 52.7417 15.7282 51.543 8.09211C51.2087 5.95259 51.6406 4.49238 52.8313 3.74622C55.2189 2.6905 58.2256 2.67045 61.5345 3.69073C68.2278 5.748 77.0981 15.2287 80.2011 23.6256Z" fill="#02004E"/>
<path d="M88.2062 134.779C88.2062 134.779 62.3496 139.36 52.4543 144.596C50.4525 145.655 43.013 150.725 36.2074 161.283C35.7654 161.969 30.88 158.592 30.1586 158.943C26.5595 160.681 25.3447 166.952 22.6034 168.347C19.0017 170.18 15.9689 166.441 15.6065 165.004C10.6622 163.022 12.0122 156.863 13.8595 151.498C16.6796 143.314 27.9321 129.795 35.6337 123.918C42.4942 118.683 53.4953 116.434 53.4953 116.434L88.2062 134.779Z" fill="white"/>
<g opacity="0.15">
<path d="M12.1867 159.303C12.1867 161.857 13.0645 163.983 15.6105 165.005C15.9743 166.437 19.007 170.178 22.6068 168.348C25.348 166.953 26.5615 160.684 30.1619 158.943C30.2956 158.876 30.5818 158.943 30.9549 159.09C31.1193 157.686 31.0779 155.723 29.4987 155.939C27.3899 156.233 25.3794 159.806 24.3164 162.372C23.1891 165.1 22.6342 166.744 19.9919 166.563C17.3496 166.381 16.6736 162.675 16.6736 162.675C16.6736 162.675 14.0434 163.151 12.1873 159.304" fill="#02004E"/>
</g>
<g opacity="0.15">
<path d="M51.9234 116.806C57.8512 118.785 63.7576 126.229 63.7576 126.229C64.5559 132.027 66.9963 136.124 69.3979 138.862C78.9522 136.423 88.2062 134.783 88.2062 134.783L53.4987 116.438C53.4987 116.438 52.9116 116.559 51.9221 116.805" fill="#02004E"/>
</g>
<path d="M88.0016 133.623C84.3544 134.286 80.748 135.023 77.1396 135.817C73.5312 136.611 69.9415 137.473 66.3678 138.439C62.7955 139.416 59.2385 140.473 55.7411 141.836C54.8666 142.175 53.9974 142.546 53.1336 142.95C52.701 143.15 52.2771 143.37 51.8439 143.591C51.3919 143.84 50.9794 144.092 50.5775 144.358C48.9729 145.413 47.502 146.597 46.0892 147.84C44.6808 149.084 43.3386 150.401 42.0683 151.785C40.7979 153.167 39.5798 154.593 38.4478 156.084C37.8655 156.819 37.3286 157.584 36.781 158.343C36.5015 158.719 36.2501 159.113 35.9887 159.501L35.5983 160.084L35.4024 160.375L35.3054 160.521L35.2566 160.594L35.2325 160.631L35.2239 160.643C35.247 160.606 35.2731 160.57 35.3021 160.537C35.4009 160.421 35.5248 160.33 35.6644 160.27C35.7374 160.239 35.814 160.217 35.8924 160.206C35.9341 160.199 35.9768 160.197 36.0188 160.203C35.9749 160.194 35.9315 160.182 35.8891 160.168C35.7125 160.109 35.5391 160.041 35.3696 159.963C34.9925 159.795 34.594 159.593 34.1942 159.386C33.3839 158.971 32.5896 158.525 31.6596 158.111C31.3911 157.99 31.1134 157.89 30.8292 157.813C30.723 157.786 30.6151 157.767 30.5062 157.754C30.3114 157.729 30.1135 157.74 29.9225 157.786C29.8369 157.807 29.7534 157.836 29.6731 157.873C29.6243 157.895 29.6457 157.886 29.629 157.893L29.605 157.906L29.5107 157.956L29.3208 158.059C28.8403 158.333 28.3942 158.664 27.9916 159.043C27.2054 159.779 26.6136 160.601 26.0868 161.419C25.5599 162.237 25.1113 163.066 24.6654 163.865C24.2194 164.663 23.7848 165.439 23.3054 166.099C23.0886 166.407 22.8416 166.692 22.568 166.951C22.3045 167.186 22.1046 167.299 21.7516 167.444C21.1318 167.696 20.4449 167.733 19.802 167.547C19.1494 167.357 18.5002 166.954 17.9479 166.421C17.6703 166.157 17.4193 165.866 17.1984 165.552C17.0945 165.404 16.9989 165.25 16.9123 165.091C16.8471 164.971 16.7936 164.846 16.7525 164.716L16.6128 164.169L16.0511 163.914C15.5193 163.697 15.0349 163.379 14.625 162.977C14.2404 162.577 13.9467 162.098 13.7639 161.573C13.3734 160.485 13.3687 159.148 13.5385 157.816C13.7084 156.483 14.0621 155.115 14.4746 153.764C14.6805 153.091 14.9038 152.4 15.1432 151.742C15.3712 151.101 15.6426 150.462 15.9361 149.828C17.1209 147.287 18.658 144.852 20.2934 142.496C21.9426 140.144 23.6977 137.861 25.5586 135.646C27.418 133.44 29.3629 131.304 31.4015 129.275C32.4218 128.263 33.4681 127.279 34.5439 126.344C35.0788 125.876 35.6317 125.423 36.1866 124.985C36.7416 124.547 37.2938 124.141 37.8815 123.755C40.2216 122.202 42.8058 120.953 45.4547 119.849C48.1231 118.756 50.8487 117.809 53.6196 117.011L53.635 117.006C53.7776 116.964 53.899 116.87 53.9747 116.742C54.0504 116.614 54.0748 116.462 54.043 116.317C54.0112 116.171 53.9256 116.044 53.8034 115.959C53.6812 115.874 53.5314 115.839 53.3843 115.861C51.9013 116.084 50.4679 116.399 49.0297 116.761C47.5916 117.124 46.1728 117.546 44.7688 118.032C43.3568 118.513 41.9699 119.065 40.6134 119.686C39.9314 119.995 39.2575 120.33 38.5916 120.681C37.931 121.043 37.2718 121.416 36.6313 121.823C35.9907 122.23 35.3542 122.664 34.7498 123.122C34.1454 123.58 33.5657 124.048 32.9974 124.532C31.8555 125.495 30.7583 126.499 29.6912 127.529C27.5579 129.59 25.5345 131.749 23.621 134.006C21.7061 136.26 19.8682 138.582 18.1759 141.022C16.4837 143.462 14.8938 145.989 13.6081 148.75C13.2885 149.442 12.9896 150.148 12.7289 150.884C12.4721 151.601 12.2475 152.301 12.0275 153.023C11.603 154.468 11.2386 155.952 11.0554 157.513C10.9592 158.31 10.9317 159.114 10.9731 159.916C11.0139 160.769 11.182 161.611 11.4719 162.415C11.7844 163.27 12.2845 164.045 12.9355 164.682C13.5824 165.294 14.3438 165.773 15.1759 166.092L14.4739 165.289C14.5597 165.602 14.6811 165.904 14.8356 166.189C14.9677 166.434 15.1141 166.671 15.2742 166.899C15.5834 167.338 15.935 167.746 16.3239 168.116C17.0942 168.852 18.0375 169.474 19.1548 169.801C19.8654 169.998 20.6084 170.049 21.3393 169.952C22.0702 169.856 22.7742 169.612 23.4091 169.238C23.6675 169.078 23.9112 168.897 24.1372 168.694C24.5344 168.325 24.8929 167.917 25.2069 167.475C25.8087 166.645 26.264 165.812 26.7186 165.001C27.1733 164.19 27.6012 163.406 28.0672 162.677C28.5332 161.949 29.0333 161.273 29.5956 160.754C29.8617 160.502 30.1565 160.282 30.4741 160.099L30.5898 160.037L30.6466 160.006L30.6613 159.999C30.6567 159.999 30.6908 159.984 30.6553 159.999C30.6014 160.024 30.5452 160.044 30.4875 160.059C30.4092 160.081 30.3277 160.088 30.2468 160.081C30.2268 160.081 30.2421 160.081 30.2615 160.085C30.4214 160.132 30.5778 160.19 30.7295 160.258C31.479 160.593 32.2941 161.041 33.1191 161.465C33.5356 161.68 33.9582 161.896 34.4202 162.102C34.6693 162.216 34.9244 162.315 35.1844 162.4C35.3602 162.458 35.5408 162.5 35.724 162.526C35.8792 162.547 36.0365 162.548 36.192 162.529C36.328 162.513 36.461 162.477 36.5871 162.424C36.7799 162.342 36.9512 162.217 37.0879 162.058C37.1258 162.014 37.1611 161.967 37.1935 161.919L37.2089 161.895L37.2323 161.86L37.2798 161.79L37.3734 161.649L37.5619 161.368L37.939 160.805C38.1924 160.431 38.4345 160.049 38.7039 159.687C39.2328 158.955 39.7496 158.216 40.3085 157.508C41.3997 156.07 42.5757 154.7 43.7926 153.372C45.0095 152.046 46.295 150.785 47.6437 149.594C48.9889 148.411 50.395 147.28 51.8639 146.318C52.2276 146.076 52.5994 145.85 52.9544 145.655C53.3402 145.46 53.732 145.254 54.1331 145.068C54.9355 144.695 55.7592 144.341 56.5996 144.016C59.956 142.708 63.4601 141.663 66.9802 140.7C70.5004 139.738 74.0674 138.895 77.6451 138.104C81.2227 137.313 84.8204 136.583 88.4095 135.929H88.4195C88.7221 135.87 88.9889 135.693 89.1626 135.438C89.3362 135.183 89.4026 134.87 89.3475 134.567C89.2924 134.264 89.1201 133.994 88.8679 133.816C88.6158 133.639 88.3039 133.568 87.9996 133.618" fill="#02004E"/>
<path d="M30.9502 158.307C31.2905 165.535 35.524 167.113 37.6569 165.682C40.0364 164.085 38.7721 159.085 39.4768 157.419C40.5245 154.945 43.8621 151.654 43.8621 151.654" fill="white"/>
<path d="M36.0389 167.634C36.9062 167.637 37.7547 167.381 38.4752 166.898C40.6642 165.427 40.6783 162.362 40.6876 160.123C40.6916 159.355 40.6963 158.303 40.8294 157.988C41.5949 156.178 44.0219 153.555 44.8924 152.697C45.1418 152.418 45.2756 152.055 45.2666 151.681C45.2576 151.307 45.1064 150.951 44.8439 150.684C44.5813 150.418 44.2272 150.261 43.8534 150.247C43.4796 150.232 43.1143 150.361 42.8318 150.606C42.6874 150.748 39.2729 154.131 38.1249 156.844C37.7625 157.701 37.7578 158.817 37.7518 160.11C37.7451 161.692 37.7351 163.859 36.8385 164.46C36.3752 164.771 35.7226 164.769 35.0942 164.452C33.5644 163.682 32.5635 161.358 32.4198 158.234C32.4225 158.034 32.3841 157.835 32.307 157.649C32.2299 157.464 32.1157 157.297 31.9715 157.157C31.8272 157.018 31.6559 156.909 31.4682 156.838C31.2804 156.767 31.0801 156.736 30.8797 156.745C30.6792 156.755 30.4828 156.805 30.3025 156.893C30.1222 156.981 29.9619 157.106 29.8314 157.258C29.701 157.41 29.603 157.588 29.5437 157.78C29.4844 157.972 29.465 158.173 29.4866 158.373C29.6872 162.631 31.251 165.803 33.7777 167.075C34.4774 167.435 35.2518 167.626 36.0389 167.634Z" fill="#02004E"/>
<path d="M194.722 123.814C194.722 123.814 191.319 120.155 188.817 118.676L194.722 123.814Z" fill="white"/>
<path d="M195.582 123.014C195.074 122.546 194.579 122.115 194.065 121.681C193.552 121.246 193.037 120.826 192.505 120.417C191.974 120.007 191.436 119.605 190.875 119.227C190.311 118.839 189.723 118.487 189.116 118.171C188.983 118.104 188.831 118.089 188.688 118.129C188.545 118.17 188.423 118.263 188.346 118.39C188.269 118.517 188.243 118.668 188.273 118.813C188.302 118.959 188.386 119.087 188.507 119.174L188.518 119.181C189.024 119.551 189.508 119.951 189.966 120.379C190.434 120.806 190.884 121.265 191.328 121.726C191.772 122.186 192.203 122.666 192.627 123.149C193.051 123.632 193.474 124.129 193.862 124.613C194.061 124.845 194.342 124.99 194.646 125.018C194.95 125.046 195.253 124.955 195.491 124.765C195.729 124.574 195.884 124.298 195.923 123.996C195.962 123.693 195.883 123.387 195.701 123.142C195.664 123.097 195.623 123.054 195.58 123.013" fill="#02004E"/>
<path d="M101.771 74.762C101.771 74.762 80.0875 52.8113 72.8579 51.0936C64.6228 49.1313 34.2417 53.5193 29.5662 57.1003C24.8907 60.6813 23.1744 71.5193 23.942 76.2115C24.7008 80.8509 45.4902 114.194 61.8742 116.468C78.9829 118.844 103.751 90.4754 103.751 90.4754L101.771 74.762Z" fill="white"/>
<g opacity="0.15">
<path d="M23.9426 76.2089C24.7001 80.8509 45.4909 114.193 61.8742 116.468C71.1256 117.754 82.6201 110.05 91.2223 102.695L83.7621 100.382C83.7621 100.382 71.0754 104.838 61.2129 105.529C54.6767 105.99 46.3881 99.7977 48.4875 91.2302L37.8475 80.5193C37.8475 80.5193 26.2707 74.1864 24.767 66.0241C23.8042 69.8351 23.5482 73.8193 23.942 76.2089" fill="#02004E"/>
</g>
<path d="M63.9542 118.076C81.3939 118.076 103.869 92.5741 104.859 91.4415L105.292 90.9448L103.165 74.0827L102.816 73.7284C100.566 71.4511 80.6223 51.4273 73.1969 49.6588C64.6482 47.6256 33.8552 51.9622 28.6723 55.931C23.4151 59.9566 21.6834 71.4999 22.4917 76.4442C22.9671 79.3473 28.8019 89.2412 35.8998 98.1382C42.5316 106.45 52.3861 116.63 61.6709 117.919C62.4275 118.024 63.1904 118.076 63.9542 118.076ZM102.211 89.9953C98.8683 93.6887 77.0052 117.092 62.0761 115.014C55.58 114.112 47.0995 107.47 38.1964 96.3109C30.7997 87.0408 25.7017 77.875 25.3908 75.9742C24.6847 71.6577 26.2994 61.4509 30.4587 58.2657C32.3669 56.8048 40.4369 54.8338 50.0828 53.4725C60.1639 52.0491 68.9706 51.6753 72.5182 52.5198C78.0074 53.8255 94.1494 69.1732 100.377 75.4413L102.211 89.9953Z" fill="#02004E"/>
<path d="M52.4543 145.698C52.6824 145.698 52.9049 145.627 53.0911 145.495C53.2773 145.363 53.4181 145.177 53.494 144.962C54.6601 141.628 53.0414 134.856 48.7724 130.088C45.8586 126.835 40.677 123.35 32.5402 125.226C32.3993 125.258 32.2662 125.318 32.1484 125.402C32.0307 125.486 31.9306 125.592 31.854 125.715C31.7773 125.837 31.7255 125.974 31.7016 126.116C31.6776 126.259 31.682 126.405 31.7144 126.546C31.7469 126.686 31.8068 126.82 31.8906 126.937C31.9745 127.055 32.0808 127.155 32.2033 127.232C32.3259 127.308 32.4624 127.36 32.6049 127.384C32.7475 127.408 32.8934 127.404 33.0343 127.371C40.1214 125.74 44.6144 128.746 47.1316 131.557C51.0162 135.895 52.2444 141.864 51.4153 144.235C51.3574 144.401 51.3401 144.578 51.3647 144.752C51.3893 144.926 51.4552 145.092 51.5569 145.235C51.6586 145.379 51.7931 145.496 51.9493 145.576C52.1054 145.657 52.2786 145.699 52.4543 145.7V145.698Z" fill="#02004E"/>
<path d="M77.76 92.9425C76.6435 93.2895 75.4754 93.5964 74.3214 93.8685C73.1674 94.1407 72.0007 94.3834 70.838 94.5518C69.6754 94.7203 68.5107 94.84 67.3974 94.7885C66.8693 94.7719 66.3454 94.6884 65.8383 94.5398C65.7269 94.5041 65.6175 94.4623 65.5107 94.4148C65.4024 94.364 65.2969 94.3078 65.1944 94.2463C64.9691 94.1126 64.7324 93.9528 64.4997 93.787C63.5637 93.1117 62.6437 92.3348 61.7424 91.5492C60.8412 90.7636 59.9519 89.9445 59.0734 89.1221C57.3157 87.4727 55.5933 85.7792 53.8971 84.0575C50.5047 80.6147 47.2105 77.0754 44.0146 73.4395C40.8314 69.8003 37.7124 66.097 34.8401 62.2071C34.7949 62.1437 34.7263 62.1008 34.6495 62.088C34.5727 62.0751 34.4939 62.0933 34.4306 62.1385C34.3672 62.1838 34.3243 62.2523 34.3115 62.3291C34.2986 62.4059 34.3168 62.4847 34.362 62.5481C37.1327 66.5423 40.122 70.3787 43.2376 74.1054C46.3533 77.8322 49.5786 81.4674 52.9056 85.0123C54.5704 86.7827 56.2613 88.5311 57.9976 90.2414C58.8668 91.0965 59.746 91.9416 60.6479 92.77C61.5499 93.5984 62.4659 94.4128 63.4775 95.177C63.7335 95.3682 63.9923 95.5567 64.2858 95.7386C64.441 95.8361 64.6013 95.9253 64.7658 96.006C64.9342 96.0848 65.107 96.1538 65.2833 96.2126C65.9727 96.4406 66.6433 96.5282 67.2978 96.5703C68.6076 96.6439 69.8652 96.5322 71.1021 96.3597C73.576 95.99 75.9475 95.3862 78.313 94.61C78.4232 94.5749 78.5254 94.5184 78.6137 94.4438C78.7021 94.3692 78.7749 94.2779 78.828 94.1751C78.8811 94.0724 78.9134 93.9602 78.9231 93.8449C78.9328 93.7297 78.9197 93.6137 78.8846 93.5035C78.8495 93.3933 78.793 93.2911 78.7184 93.2027C78.6438 93.1144 78.5525 93.0416 78.4498 92.9885C78.347 92.9354 78.2348 92.9031 78.1196 92.8934C78.0043 92.8836 77.8883 92.8967 77.7781 92.9318L77.76 92.9425Z" fill="#02004E"/>
<path d="M163.335 112.29C162.702 120.231 160.023 127.874 155.559 134.473C154.618 135.867 153.603 137.21 152.519 138.496C151.988 139.129 151.43 139.753 150.858 140.368C145.981 145.578 139.994 149.623 133.341 152.202C132.494 152.527 131.642 152.829 130.785 153.108C115.073 158.181 97.1735 154.973 84.2348 143.173C65.1703 125.795 64.0946 96.3611 81.8238 77.4324C85.1515 73.8748 89.0078 70.8515 93.2568 68.4692C93.7395 68.193 94.2323 67.9296 94.7277 67.6769C96.0542 66.9922 97.4041 66.3738 98.7774 65.8215C105.091 63.2921 111.869 62.13 118.664 62.4117C119.734 62.4562 120.804 62.5369 121.873 62.6537C131.771 63.7388 141.072 67.928 148.444 74.6216C159.409 84.6178 164.423 98.6015 163.333 112.281" fill="white"/>
<g opacity="0.15">
<path d="M69.2214 110.604C69.5844 122.596 74.6223 134.417 84.2314 143.177C97.1728 154.976 115.068 158.184 130.783 153.111C131.642 152.831 132.494 152.529 133.339 152.204C139.99 149.62 145.976 145.576 150.856 140.37C151.428 139.75 151.986 139.129 152.517 138.493C153.601 137.208 154.616 135.865 155.557 134.471C160.022 127.873 162.701 120.231 163.335 112.289C163.379 111.727 163.414 111.164 163.436 110.603L69.2214 110.604Z" fill="#02004E"/>
</g>
<path d="M116.076 156.897C121.222 156.897 126.337 156.092 131.234 154.51C132.119 154.222 133.004 153.909 133.865 153.578C140.725 150.915 146.898 146.744 151.929 141.375C152.581 140.67 153.141 140.038 153.644 139.436C154.76 138.111 155.806 136.727 156.776 135.291C161.374 128.479 164.138 120.595 164.799 112.403C165.973 97.6742 160.373 83.5099 149.435 73.5418C141.835 66.6376 132.245 62.3168 122.038 61.1988C120.953 61.0791 119.84 60.9949 118.727 60.9488C111.724 60.6578 104.739 61.8544 98.2318 64.4596C96.8278 65.0252 95.4197 65.6691 94.0564 66.3731C93.5069 66.6526 93.0047 66.9227 92.5274 67.1955C88.151 69.65 84.1788 72.7641 80.7507 76.4281C71.8704 85.9169 67.2597 98.2191 67.7652 111.079C68.2693 123.84 73.7652 135.625 83.2412 144.263C92.284 152.509 104.061 156.897 116.076 156.897ZM161.872 112.173C161.252 119.862 158.659 127.261 154.343 133.655C153.43 135.005 152.447 136.306 151.396 137.553C150.922 138.119 150.393 138.714 149.781 139.377C145.055 144.423 139.254 148.34 132.808 150.838C131.998 151.149 131.162 151.445 130.329 151.716C114.588 156.798 97.2998 153.11 85.2216 142.088C76.3292 133.984 71.1743 122.929 70.7017 110.959C70.2249 98.8897 74.5548 87.339 82.8929 78.4359C86.1185 74.9901 89.8562 72.0622 93.9742 69.7555C94.4208 69.4995 94.8822 69.2514 95.3956 68.99C96.6854 68.3214 98.0032 67.7197 99.3277 67.1881C105.448 64.7371 112.018 63.6118 118.605 63.8866C119.652 63.93 120.699 64.0089 121.716 64.1206C123.272 64.2919 124.817 64.5422 126.347 64.8708C134.221 66.5504 141.507 70.2928 147.458 75.7148C157.719 85.0684 162.974 98.3568 161.872 112.173Z" fill="#02004E"/>
<path d="M93.9074 151.453C94.2319 151.451 94.5466 151.342 94.8026 151.142C95.0585 150.943 95.2413 150.664 95.3225 150.35C95.4037 150.036 95.3787 149.704 95.2514 149.405C95.1241 149.107 94.9017 148.859 94.6188 148.7C84.6787 143.208 81.5096 133.939 79.1153 124.915L79.0752 124.787C78.4314 123.024 77.2032 117.967 79.7358 109.075C84.4675 92.4471 102.044 79.0905 122.478 76.5933C131.571 75.4808 144.862 76.3994 156.548 87.0836C156.839 87.3182 157.209 87.4329 157.582 87.4044C157.955 87.3759 158.303 87.2064 158.556 86.9302C158.808 86.6541 158.946 86.2922 158.941 85.9182C158.936 85.5441 158.788 85.186 158.529 84.9167C146.019 73.481 131.825 72.4928 122.122 73.6816C100.55 76.3185 81.9589 90.5436 76.9123 108.274C74.1764 117.889 75.5464 123.645 76.2952 125.733C78.7389 134.932 82.2731 145.236 93.1994 151.273C93.4164 151.392 93.66 151.454 93.9074 151.453Z" fill="#02004E"/>
<path d="M82.9377 123.588C88.5057 148.452 108.808 157.347 130.784 153.114C131.642 152.835 132.491 152.531 133.339 152.206C137.643 150.539 141.68 148.252 145.323 145.417C147.298 143.884 149.149 142.197 150.859 140.372C151.431 139.754 151.987 139.129 152.519 138.495C153.602 137.209 154.617 135.867 155.559 134.474C159.115 129.215 161.549 123.278 162.707 117.036C163.865 110.793 163.722 104.379 162.288 98.1944C142.976 66.3397 91.941 80.9285 83.6156 110.18C80.9833 119.437 82.9377 123.588 82.9377 123.588Z" fill="#02004E"/>
<path d="M82.9377 123.588C88.5057 148.452 108.808 157.347 130.784 153.114C131.642 152.835 132.491 152.531 133.339 152.206C137.643 150.539 141.68 148.252 145.323 145.417C147.298 143.884 149.149 142.197 150.859 140.372C151.431 139.754 151.987 139.129 152.519 138.495C153.602 137.209 154.617 135.867 155.559 134.474C159.115 129.215 161.549 123.278 162.707 117.036C163.865 110.793 163.722 104.379 162.288 98.1944C142.976 66.3397 91.941 80.9285 83.6156 110.18C80.9833 119.437 82.9377 123.588 82.9377 123.588Z" fill="#02004E"/>
<g opacity="0.5">
<path d="M152.518 97.3613C150.236 94.2189 138.695 82.5739 117.399 88.3426C103.652 92.068 96.3812 105.761 96.3812 105.761C96.3812 105.761 108.378 92.9606 130.46 92.9606C139.47 92.9606 144.515 94.0417 152.519 97.3613" fill="white"/>
</g>
<path d="M82.9384 123.589C88.5065 148.451 108.807 157.345 130.783 153.114C131.641 152.834 132.491 152.531 133.339 152.206C135.672 151.303 137.93 150.216 140.091 148.954C141.913 147.895 143.661 146.713 145.323 145.417C147.298 143.884 149.149 142.196 150.858 140.371C151.432 139.755 151.986 139.127 152.519 138.495C153.603 137.208 154.617 135.866 155.559 134.472C157.633 131.406 159.33 128.101 160.613 124.629C157.133 128.1 153.223 131.112 148.979 133.592C146.369 135.115 143.641 136.426 140.822 137.515C139.802 137.909 138.774 138.275 137.738 138.613C114.274 143.13 92.3917 135.257 82.9972 112.615C81.3257 120.17 82.9364 123.592 82.9364 123.592" fill="#22132C"/>
<path d="M62.7414 110.412C62.9834 119.582 68.6778 127.145 75.4621 127.302C82.2464 127.46 87.5483 120.154 87.3063 110.984C87.3063 110.926 87.3023 110.866 87.2989 110.807C86.9907 101.715 81.3217 94.2496 74.5856 94.0925C69.3444 93.9702 64.9878 98.3047 63.3886 104.507C62.9 106.436 62.6822 108.423 62.7414 110.411" fill="white"/>
<path d="M62.7414 110.412C62.9834 119.582 68.6778 127.145 75.4621 127.302C82.2464 127.46 87.5483 120.154 87.3063 110.984C87.3063 110.926 87.3023 110.866 87.2989 110.807C86.5782 111.731 85.4416 112.631 83.861 112.282C81.0917 111.67 75.9923 105.659 75.9923 105.659C75.9923 105.659 70.5298 105.124 63.3886 104.509C62.9 106.437 62.6822 108.424 62.7414 110.412Z" fill="#E8E8E8"/>
<path d="M75.6827 128.774C78.648 128.774 81.4193 127.564 83.7126 125.263C87.0796 121.885 88.9276 116.666 88.7732 110.945C88.5111 101.02 82.1608 92.8021 74.6177 92.6256C71.5535 92.5547 68.6919 93.7676 66.3331 96.1338C62.966 99.5115 61.1213 104.73 61.2724 110.451C61.5345 120.376 67.8849 128.594 75.428 128.771C75.5129 128.774 75.5978 128.774 75.6827 128.774ZM74.3689 95.5601C74.4291 95.5601 74.4893 95.5601 74.5495 95.5601C80.5528 95.6992 85.6168 102.635 85.8387 111.02C85.9664 115.869 84.3946 120.418 81.6333 123.189C79.8561 124.971 77.7373 125.89 75.4962 125.834C69.4928 125.694 64.4289 118.758 64.2069 110.373C64.0792 105.524 65.6511 100.976 68.4124 98.2044C70.1414 96.4721 72.198 95.5588 74.3689 95.5588V95.5601Z" fill="#02004E"/>
<path d="M61.7746 111.543C62.0012 119.019 66.3384 125.208 71.4606 125.367C76.5827 125.525 80.5535 119.595 80.3242 112.119C80.0948 104.642 75.7603 98.4538 70.6375 98.2947C65.5147 98.1355 61.5446 104.067 61.7746 111.543Z" fill="white"/>
<g opacity="0.15">
<path d="M71.4619 125.364C66.3378 125.206 62.0019 119.017 61.7752 111.539C61.7499 110.747 61.7733 109.954 61.8454 109.165C63.3464 114.279 66.8599 117.981 70.8421 118.101C75.3404 118.234 78.9656 113.755 79.6789 107.658C80.0633 109.114 80.2802 110.61 80.3255 112.115C80.5528 119.593 76.5813 125.523 71.4619 125.364Z" fill="#02004E"/>
</g>
<path d="M71.6651 126.838C73.8675 126.838 75.9362 125.932 77.6625 124.206C80.3957 121.475 81.9415 116.939 81.7917 112.074C81.537 103.71 76.6576 97.0129 70.683 96.8297C68.3897 96.7549 66.2274 97.6675 64.4356 99.458C61.7024 102.189 60.1566 106.725 60.307 111.59C60.5611 119.955 65.4405 126.652 71.4151 126.834C71.4987 126.835 71.5822 126.838 71.6651 126.838ZM70.4396 99.7569C70.4904 99.7569 70.5412 99.7569 70.5934 99.7569C74.8724 99.8906 78.6573 105.568 78.8579 112.158C78.9816 116.229 77.7594 119.955 75.5885 122.124C74.7487 122.963 73.358 123.959 71.51 123.895C67.231 123.761 63.4461 118.082 63.2455 111.493C63.1218 107.422 64.344 103.697 66.5149 101.527C67.3273 100.716 68.6638 99.7569 70.4396 99.7569Z" fill="#02004E"/>
<g opacity="0.5">
<path d="M97.9551 122.536C97.808 126.104 95.51 128.919 92.8229 128.821C90.1358 128.723 88.0758 125.755 88.2229 122.187C88.37 118.619 90.668 115.804 93.3551 115.902C96.0422 116 98.1021 118.968 97.9551 122.536Z" fill="white"/>
</g>
<path d="M49.015 87.6807C49.4035 90.6893 45.2655 102.228 42.5965 103.053C41.835 103.289 38.8604 103.596 37.3533 102.568C33.2261 99.7522 26.5608 88.0711 25.9925 86.4979C25.453 85.0036 27.206 74.762 28.6629 72.9046C29.8116 71.4397 33.5056 71.9405 34.003 72.0789C35.8577 72.5951 48.6272 84.6706 49.0157 87.6807" fill="white"/>
<g opacity="0.15">
<path d="M25.9919 86.4972C26.5588 88.0705 33.2268 99.7535 37.352 102.569C38.861 103.597 41.8356 103.288 42.5958 103.054C44.1931 102.557 46.3186 98.2238 47.6838 94.1808C46.2744 95.4959 42.9448 97.939 42.7576 91.9316C42.7576 91.9316 39.8298 97.1467 35.2994 94.85C32.9152 93.6466 27.6981 87.2454 26.2653 81.6994C25.9217 83.9599 25.7779 85.9069 25.9919 86.4972Z" fill="#02004E"/>
</g>
<path d="M40.475 104.757C41.6016 104.757 42.5818 104.594 43.0291 104.456C44.7327 103.929 46.5125 101.327 48.319 96.7228C49.479 93.7649 50.7393 89.5728 50.4712 87.4961C50.2513 85.7912 47.7694 82.5646 43.0946 77.9084C42.4073 77.2238 36.3264 71.2051 34.3955 70.6682C34.3487 70.6555 29.4117 69.5724 27.5089 72.0054C25.7779 74.2118 23.8985 85.0257 24.6132 87.0027C25.2818 88.848 32.0754 100.749 36.527 103.785C37.6275 104.533 39.1492 104.757 40.475 104.757ZM47.5622 87.8726C47.9105 90.6098 43.8668 100.91 42.1465 101.656C41.5348 101.844 39.1144 101.99 38.1797 101.355C34.473 98.8262 28.017 87.692 27.3845 86.0319C27.0609 84.4273 28.7498 75.1725 29.8176 73.8106C30.2415 73.269 32.5949 73.263 33.5791 73.487C34.3092 73.8253 37.3734 76.3366 41.147 80.1061C45.6272 84.5884 47.4358 87.204 47.5595 87.8726H47.5622Z" fill="#02004E"/>
<path d="M43.5238 88.1279C43.0284 89.7607 42.4674 91.3833 41.8523 92.9699C41.2372 94.5565 40.5526 96.1184 39.7402 97.5632C39.3304 98.2732 38.8851 98.9739 38.3816 99.5122C37.83 100.106 37.5359 100.219 37.0511 100.119C36.5557 100.008 35.9406 99.571 35.4131 99.0435C35.1401 98.7711 34.8831 98.4831 34.6435 98.181C34.5218 98.0285 34.4035 97.8714 34.2885 97.713C34.1735 97.5545 34.0565 97.3787 33.9749 97.249C33.8117 96.983 33.5495 96.7927 33.246 96.7201C32.9425 96.6474 32.6226 96.6983 32.3566 96.8615C32.0906 97.0247 31.9003 97.2869 31.8277 97.5904C31.755 97.8939 31.8059 98.2139 31.9691 98.4798C31.9832 98.5019 31.9992 98.5266 32.0139 98.5467C32.1737 98.77 32.3074 98.9372 32.4585 99.1237C32.6096 99.3102 32.7594 99.4814 32.9165 99.6586C33.2339 100.01 33.5716 100.343 33.9281 100.655C34.3006 100.985 34.7036 101.279 35.1316 101.533C35.612 101.824 36.1427 102.022 36.6961 102.118C37.0097 102.167 37.3289 102.168 37.6428 102.122C37.9643 102.071 38.2751 101.967 38.5628 101.815C38.8296 101.671 39.0753 101.491 39.2929 101.28C39.474 101.097 39.6422 100.902 39.7964 100.696C40.0813 100.317 40.3361 99.9174 40.5586 99.4995C40.7832 99.0983 40.9731 98.6904 41.1603 98.2833C41.8777 96.6499 42.4099 94.9898 42.882 93.3196C43.354 91.6494 43.7511 89.9699 44.0921 88.2704C44.1055 88.197 44.0906 88.1213 44.0503 88.0585C44.01 87.9958 43.9474 87.9506 43.8751 87.9323C43.8028 87.9139 43.7263 87.9237 43.6609 87.9597C43.5956 87.9956 43.5463 88.0551 43.5231 88.1259L43.5238 88.1279Z" fill="#02004E"/>
<path d="M18.2529 45.3256C17.3529 44.9365 16.459 44.5066 15.5825 44.0607C14.7059 43.6147 13.8441 43.1453 13.0077 42.6412C12.1764 42.1494 11.3708 41.6154 10.5941 41.0413C9.83587 40.4689 9.11714 39.8599 8.52944 39.2066C8.42686 39.0885 8.30177 38.9919 8.16147 38.9226C8.02117 38.8534 7.86847 38.8127 7.71229 38.8031C7.55611 38.7935 7.39956 38.8151 7.25181 38.8666C7.10406 38.9181 6.96807 38.9986 6.85176 39.1033C6.73545 39.2079 6.64115 39.3347 6.57438 39.4763C6.50761 39.6178 6.46971 39.7712 6.46288 39.9275C6.45605 40.0838 6.48043 40.24 6.5346 40.3868C6.58877 40.5336 6.67165 40.6681 6.77839 40.7825C6.81795 40.8261 6.86062 40.8668 6.90609 40.9042C7.76456 41.6109 8.66516 42.1592 9.57579 42.6559C10.4864 43.1527 11.4191 43.5632 12.3531 43.9564C13.2872 44.3495 14.2359 44.6918 15.1873 45.0107C16.1388 45.3297 17.0935 45.6252 18.0677 45.8839C18.1394 45.903 18.2158 45.8943 18.2814 45.8595C18.347 45.8247 18.397 45.7664 18.4213 45.6962C18.4457 45.6261 18.4426 45.5493 18.4128 45.4813C18.3829 45.4133 18.3284 45.3591 18.2602 45.3297L18.2529 45.3256Z" fill="#02004E"/>
<path d="M59.0641 31.6796C58.471 31.2069 57.8913 30.6887 57.3398 30.1585C56.7882 29.6283 56.2573 29.074 55.7532 28.5051C55.2491 27.9361 54.7717 27.3477 54.3264 26.746C53.8868 26.1487 53.4793 25.5285 53.1055 24.8879L53.0908 24.8639C53.0144 24.7246 52.9106 24.6023 52.7858 24.504C52.6609 24.4058 52.5176 24.3338 52.3642 24.2923C52.2109 24.2509 52.0508 24.2407 51.8935 24.2626C51.7361 24.2844 51.5848 24.3377 51.4486 24.4194C51.3124 24.5011 51.194 24.6094 51.1006 24.7379C51.0072 24.8664 50.9408 25.0124 50.9051 25.1672C50.8695 25.322 50.8655 25.4824 50.8933 25.6388C50.9211 25.7952 50.9802 25.9444 51.067 26.0774C51.1051 26.1402 51.1488 26.1995 51.1973 26.2546C51.7356 26.8732 52.3067 27.4624 52.9083 28.0197C53.5029 28.5719 54.118 29.0919 54.7536 29.5795C55.3892 30.0671 56.0387 30.5287 56.7019 30.9642C57.3705 31.3981 58.0391 31.8026 58.7518 32.177C58.8167 32.2122 58.8925 32.2217 58.9641 32.2036C59.0357 32.1855 59.0978 32.1412 59.1382 32.0794C59.1787 32.0176 59.1944 31.9429 59.1822 31.87C59.1701 31.7972 59.131 31.7316 59.0728 31.6862L59.0641 31.6796Z" fill="#02004E"/>
<path d="M4.52319 25.1286C4.67051 25.1288 4.81635 25.0993 4.95201 25.0419C5.08768 24.9844 5.21038 24.9003 5.31279 24.7943C9.36249 20.629 18.2609 19.0163 18.3504 19.0003C18.4928 18.9752 18.6289 18.9223 18.7508 18.8447C18.8727 18.7671 18.9782 18.6662 19.0611 18.5478C19.1441 18.4294 19.2029 18.2958 19.2342 18.1547C19.2655 18.0135 19.2688 17.8676 19.2437 17.7253C19.2186 17.5829 19.1658 17.4469 19.0881 17.3249C19.0105 17.203 18.9096 17.0975 18.7912 17.0146C18.6728 16.9316 18.5392 16.8728 18.3981 16.8415C18.257 16.8102 18.1111 16.8069 17.9687 16.832C17.5749 16.8989 8.28204 18.5811 3.73357 23.2599C3.583 23.4152 3.48149 23.6115 3.44169 23.8241C3.4019 24.0367 3.42558 24.2564 3.50978 24.4557C3.59398 24.6549 3.73497 24.825 3.91518 24.9447C4.09539 25.0644 4.30686 25.1283 4.52319 25.1286Z" fill="#02004E"/>
<path d="M6.94688 29.4638C7.18453 29.4638 7.41578 29.3868 7.60611 29.2445C14.2065 24.3022 26.1597 22.5846 26.2794 22.5679C26.5656 22.5241 26.823 22.3693 26.996 22.137C27.1689 21.9048 27.2433 21.6137 27.2033 21.327C27.1632 21.0402 27.0117 20.7808 26.7818 20.6048C26.5518 20.4289 26.2618 20.3506 25.9745 20.3869C25.4624 20.4585 13.338 22.2035 6.28563 27.4814C6.10059 27.6201 5.96389 27.8135 5.89492 28.0342C5.82595 28.2549 5.82821 28.4917 5.90138 28.7111C5.97455 28.9304 6.1149 29.1212 6.30256 29.2563C6.49021 29.3914 6.71565 29.464 6.94688 29.4638Z" fill="#02004E"/>
<path d="M12.2455 34.3192C12.5123 34.3194 12.77 34.2221 12.9702 34.0457C18.3331 29.3455 32.2312 27.3598 32.371 27.339C32.6572 27.2952 32.9146 27.1404 33.0875 26.9081C33.2604 26.6759 33.3349 26.3849 33.2948 26.0981C33.2547 25.8113 33.1033 25.5519 32.8733 25.3759C32.6434 25.2 32.3533 25.1217 32.0661 25.1581C31.469 25.241 17.3716 27.2601 11.5194 32.3896C11.3508 32.5372 11.2313 32.7327 11.1768 32.9501C11.1223 33.1674 11.1354 33.3961 11.2143 33.6058C11.2932 33.8155 11.4342 33.9962 11.6184 34.1236C11.8027 34.2511 12.0214 34.3193 12.2455 34.3192Z" fill="#02004E"/>
<path d="M19.7693 38.5367C20.0351 38.5368 20.292 38.4404 20.492 38.2653C25.5874 33.8244 36.3572 32.3295 36.4655 32.3147C36.755 32.2758 37.0171 32.1235 37.1943 31.8913C37.3715 31.6591 37.4491 31.366 37.4102 31.0765C37.3713 30.787 37.219 30.5249 36.9868 30.3477C36.7545 30.1705 36.4615 30.0929 36.172 30.1318C35.704 30.1953 24.6413 31.7277 19.0452 36.6058C18.8763 36.7532 18.7563 36.9486 18.7015 37.166C18.6466 37.3833 18.6594 37.6123 18.7381 37.8222C18.8168 38.0321 18.9577 38.213 19.142 38.3407C19.3262 38.4683 19.5451 38.5367 19.7693 38.5367Z" fill="#02004E"/>
<path d="M50.1189 9.58106C50.4038 9.58123 50.6777 9.47044 50.8824 9.27216C55.015 5.28999 66.5356 5.69851 66.6513 5.70519C66.9404 5.71255 67.2209 5.60583 67.432 5.40811C67.6431 5.21038 67.768 4.93753 67.7796 4.6485C67.7912 4.35948 67.6886 4.0775 67.494 3.8635C67.2993 3.6495 67.0284 3.52067 66.7395 3.50484C66.2274 3.48478 54.1625 3.05287 49.356 7.68692C49.1979 7.83925 49.0889 8.03537 49.0431 8.25008C48.9973 8.46479 49.0167 8.68829 49.0989 8.89189C49.181 9.09549 49.3221 9.26988 49.5041 9.39268C49.6861 9.51548 49.9007 9.58108 50.1202 9.58106H50.1189Z" fill="#02004E"/>
<path d="M51.8318 14.5875C51.9784 14.5874 52.1235 14.5579 52.2584 14.5006C59.3181 11.5287 72.1552 10.2256 72.2836 10.2129C72.43 10.2019 72.5727 10.1617 72.7033 10.0947C72.8339 10.0277 72.9499 9.93529 73.0443 9.82286C73.1386 9.71043 73.2096 9.58025 73.253 9.44C73.2963 9.29974 73.3112 9.15223 73.2967 9.00615C73.2822 8.86006 73.2386 8.71834 73.1686 8.58933C73.0985 8.46032 73.0034 8.34662 72.8888 8.25492C72.7741 8.16322 72.6423 8.09536 72.5011 8.05534C72.3598 8.01533 72.212 8.00395 72.0663 8.0219C71.5267 8.07539 58.7665 9.37113 51.4066 12.4714C51.1723 12.5701 50.9793 12.7468 50.8604 12.9716C50.7415 13.1964 50.7041 13.4554 50.7545 13.7046C50.8049 13.9538 50.94 14.178 51.1369 14.3389C51.3337 14.4998 51.5802 14.5877 51.8345 14.5875H51.8318Z" fill="#02004E"/>
<path d="M56.3429 21.553C56.5526 21.5529 56.7579 21.4928 56.9346 21.3798C64.0993 16.8013 77.155 16.225 77.286 16.2196C77.5749 16.2038 77.8459 16.0749 78.0405 15.8609C78.2351 15.6469 78.3377 15.365 78.3261 15.0759C78.3145 14.7869 78.1896 14.5141 77.9785 14.3163C77.7674 14.1186 77.4869 14.0119 77.1978 14.0192C76.6388 14.042 63.4193 14.621 55.7485 19.5245C55.548 19.6529 55.3945 19.8429 55.311 20.0659C55.2275 20.2889 55.2186 20.533 55.2856 20.7615C55.3525 20.99 55.4918 21.1906 55.6824 21.3333C55.873 21.4761 56.1047 21.5531 56.3429 21.553Z" fill="#02004E"/>
<path d="M63.0182 28.1253C63.2783 28.1255 63.53 28.033 63.7282 27.8645C66.9047 25.1781 77.4445 23.4685 81.2374 23.0366C81.5276 23.0036 81.7928 22.8567 81.9747 22.6282C82.1566 22.3997 82.2402 22.1083 82.2072 21.8181C82.1743 21.5279 82.0274 21.2627 81.7988 21.0808C81.5703 20.8989 81.2789 20.8153 80.9887 20.8483C80.405 20.9151 66.6413 22.5198 62.3061 26.1837C62.1349 26.3297 62.0126 26.5247 61.9556 26.7423C61.8985 26.9599 61.9095 27.1898 61.9871 27.401C62.0647 27.6122 62.205 27.7946 62.3894 27.9236C62.5737 28.0526 62.7932 28.1221 63.0182 28.1226V28.1253Z" fill="#02004E"/>
</svg>
