<svg width="219" height="313" viewBox="0 0 219 313" fill="none" xmlns="http://www.w3.org/2000/svg">
<path d="M84.9519 175.681C84.9519 175.681 100.646 186.34 115.649 190.727C119.977 191.992 124.253 192.736 128.075 192.55C147.115 191.626 172.256 171.605 176.818 144.955C177.798 139.221 178.226 127.165 176.595 116.737C175.211 107.91 179.026 93.8041 173.369 93.6564C166.145 93.4646 165.534 115.345 165.534 115.345C165.534 115.345 159.941 120.38 157.503 120.502C155.117 120.617 152.236 117.749 150.711 120.369C145.946 128.574 148.106 136.076 148.106 136.076C148.106 136.076 131.986 152.964 124.342 154.355C122.323 154.722 119.522 154.296 116.314 153.449C113.589 152.724 110.566 151.699 107.477 150.593C99.7236 147.822 91.526 144.563 86.4387 144.419L85.1336 171.83L84.9519 175.681Z" fill="white"/>
<path d="M22.7095 235.131C31.6946 246.456 54.5373 242.106 54.5373 242.106L53.726 183.016L53.469 164.595L53.447 162.904L53.2533 148.937C53.2533 148.937 44.7179 149.304 36.2293 151.701C34.8187 152.097 33.4035 152.552 32.0323 153.077C31.455 153.294 30.8878 153.524 30.328 153.763C25.5766 155.819 21.5687 158.736 20.1176 162.856C15.068 177.181 15.325 225.821 22.7095 235.131Z" fill="white"/>
<g opacity="0.25">
<path d="M16.6925 195.259C16.664 212.26 18.562 229.902 22.7076 235.13C31.6936 246.456 54.54 242.105 54.54 242.105L53.5663 221.621C53.5663 221.621 30.7199 225.973 21.7348 214.646C19.3017 211.577 17.6424 204.235 16.6925 195.259Z" fill="#02004E"/>
</g>
<path d="M53.2461 148.934L64.7946 171.153C64.7946 171.153 61.5209 211.448 61.5759 211.909C61.631 212.37 54.5393 242.104 54.5393 242.104C54.5393 242.104 50.2257 242.926 44.6116 242.926C37.3033 242.926 27.7904 241.534 22.7087 235.129C15.3242 225.822 15.0709 177.179 20.1141 162.854C24.5791 150.17 53.2461 148.933 53.2461 148.933M55.0027 145.895L53.1185 145.976C52.8138 145.989 45.5679 146.321 37.6493 148.263C26.366 151.03 19.5267 155.605 17.3222 161.871C14.7882 169.069 13.4023 184.406 13.7924 200.943C13.9943 209.529 15.0424 230.228 20.3904 236.968C26.2366 244.338 36.7893 245.885 44.6116 245.885C50.4377 245.885 54.9055 245.047 55.0927 245.012L56.9732 244.653L57.4174 242.791C57.4358 242.716 59.2117 235.265 60.9592 227.857C64.0374 214.798 64.5137 212.68 64.5385 211.907C64.6129 210.238 66.4916 186.839 67.7508 171.391L67.8196 170.542L67.4268 169.786L55.8719 147.57L55.0027 145.897V145.895Z" fill="#02004E"/>
<path d="M18.4905 202.377L34.1231 203.295C34.8015 203.334 35.4477 203.596 35.9604 204.042C36.4731 204.488 36.8231 205.092 36.9554 205.758C37.9494 210.78 39.6436 222.499 34.8078 226.456C30.7943 229.742 24.1854 229.473 20.2628 226.262C15.8748 222.669 15.2627 211.159 15.2388 205.457C15.2367 205.037 15.3207 204.622 15.4856 204.236C15.6505 203.85 15.8928 203.502 16.1976 203.213C16.5023 202.924 16.863 202.701 17.2574 202.557C17.6518 202.414 18.0715 202.352 18.4905 202.377Z" fill="white"/>
<g opacity="0.35">
<path d="M36.9546 205.758C37.9513 210.779 39.6428 222.497 34.807 226.453C30.7926 229.74 24.1855 229.471 20.2601 226.259C17.5636 224.048 16.2934 218.843 15.7097 213.838C16.454 216.332 17.5921 218.347 18.9871 219.659C26.9829 227.176 32.7089 218.066 32.7089 218.066C32.7089 218.066 33.7644 220.238 34.5794 220.348C37.9853 220.807 37.1079 210.187 36.526 204.699C36.7362 205.021 36.8818 205.381 36.9546 205.758Z" fill="#02004E"/>
</g>
<path d="M27.7529 230.064C24.7747 230.064 21.7653 229.118 19.4635 227.233C14.7534 223.379 14.0054 211.938 13.9788 205.46C13.9763 204.869 14.095 204.283 14.3276 203.739C14.5602 203.195 14.9018 202.705 15.3313 202.298C15.7608 201.892 16.2691 201.577 16.8248 201.375C17.3805 201.172 17.9718 201.086 18.5622 201.121L34.1948 202.038C35.1515 202.094 36.0628 202.465 36.7857 203.094C37.5086 203.723 38.0022 204.574 38.189 205.514C39.4482 211.878 40.7873 223.187 35.6036 227.431C33.456 229.188 30.6191 230.064 27.7529 230.064ZM18.3052 203.632C18.0669 203.632 17.8309 203.679 17.6109 203.771C17.3909 203.863 17.1911 203.997 17.0231 204.166C16.855 204.335 16.722 204.535 16.6316 204.756C16.5412 204.976 16.4952 205.212 16.4963 205.451C16.5385 215.568 18.2401 222.98 21.0586 225.287C24.6324 228.213 30.5632 228.302 34.0085 225.481C37.0078 223.026 37.6475 215.745 35.7193 206.001C35.6405 205.609 35.4337 205.253 35.1313 204.991C34.8288 204.728 34.4478 204.573 34.048 204.55L18.4154 203.633C18.3799 203.631 18.3438 203.631 18.3071 203.631L18.3052 203.632Z" fill="#02004E"/>
<path d="M26.5495 161.125C26.9992 160.559 27.6324 160.184 28.2712 159.875C30.015 159.075 31.8873 158.676 33.7559 158.399C41.1101 157.462 50.4596 158.357 54.7117 165.345C54.8117 165.517 54.8762 165.706 54.9015 165.903C54.9268 166.1 54.9122 166.3 54.8588 166.491C54.8053 166.682 54.7139 166.86 54.5902 167.015C54.4665 167.17 54.3128 167.299 54.1384 167.393C53.964 167.488 53.7723 167.546 53.5749 167.565C53.3774 167.584 53.1781 167.563 52.9889 167.504C52.7997 167.444 52.6243 167.347 52.4733 167.219C52.3223 167.09 52.1987 166.932 52.1098 166.755C51.181 164.896 49.5308 163.399 47.553 162.35C43.4762 160.232 38.5321 159.741 33.9477 160.08C32.2039 160.236 30.451 160.504 28.832 161.132C28.2685 161.359 27.7811 161.632 27.4865 161.979C26.9212 162.583 25.9915 161.746 26.5495 161.122V161.125Z" fill="#02004E"/>
<g opacity="0.25">
<path d="M84.9519 175.681C84.9519 175.681 111.017 193.379 128.075 192.55C147.115 191.626 172.256 171.605 176.818 144.955C177.368 141.736 177.742 136.528 177.679 130.735C177.331 131.704 177.076 132.57 176.951 133.305C172.389 159.955 147.248 179.976 128.208 180.901C112.401 181.67 88.8699 166.536 85.4961 164.306L84.9519 175.681Z" fill="#02004E"/>
</g>
<path d="M126.889 194.058C109.581 194.058 85.1737 177.622 84.1201 176.905C83.9112 176.762 83.7425 176.568 83.6301 176.341C83.5176 176.114 83.4651 175.863 83.4776 175.61L84.969 144.347C84.9848 143.959 85.1537 143.593 85.4387 143.329C85.7237 143.066 86.1017 142.925 86.4898 142.94C91.0989 143.073 97.7006 145.471 104.69 148.009C112.282 150.763 120.134 153.617 124.086 152.898C129.738 151.87 141.675 140.584 146.495 135.624C146.048 133.316 145.313 126.733 149.442 119.628C151.041 116.874 153.733 117.877 155.341 118.477C156.097 118.759 156.885 119.051 157.437 119.028C158.509 118.975 161.627 116.799 164.086 114.659C164.16 113.032 164.43 108.616 165.295 104.15C166.856 96.1059 169.581 92.0842 173.413 92.1796C174.548 92.209 175.54 92.6459 176.279 93.4407C178.39 95.7094 178.174 100.544 177.92 106.142C177.757 109.753 177.588 113.484 178.062 116.513C179.653 126.678 179.362 138.885 178.281 145.208C176.118 157.849 169.228 170.025 158.881 179.495C149.455 188.122 137.968 193.555 128.153 194.033C127.732 194.048 127.312 194.058 126.889 194.058ZM86.4678 174.911C90.6685 177.649 113.141 191.789 128.003 191.072C146.769 190.16 171.008 170.136 175.361 144.704C176.403 138.612 176.679 126.82 175.135 116.965C174.615 113.648 174.791 109.763 174.961 106.005C175.155 101.692 175.376 96.8126 174.111 95.4506C173.969 95.2992 173.767 95.1432 173.333 95.1312H173.283C169.393 95.1312 167.245 107.189 167.016 115.383C167.011 115.583 166.964 115.781 166.88 115.962C166.796 116.144 166.676 116.307 166.527 116.441C165.124 117.706 160.328 121.842 157.58 121.976C156.415 122.033 155.292 121.616 154.303 121.242C152.344 120.508 152.25 120.673 151.998 121.107C147.6 128.677 149.513 135.59 149.533 135.659C149.605 135.907 149.61 136.17 149.548 136.421C149.487 136.672 149.36 136.903 149.182 137.09C148.51 137.793 132.639 154.344 124.613 155.802C119.868 156.665 112.004 153.808 103.677 150.784C97.9245 148.694 91.9965 146.541 87.85 146.011L86.4678 174.911Z" fill="#02004E"/>
<path d="M80.717 305.047C84.5717 307.617 91.0879 309.843 100.317 309.835C113.221 309.826 123.754 309.172 123.644 298.928C123.559 290.796 110.85 287.131 110.85 287.131C116.512 264.303 117.825 244.539 117.385 226.618C117.233 220.602 116.887 214.792 116.439 209.141L73.3206 217.959C76.1363 230.757 77.1753 243.189 77.4763 254.487C78.1857 280.938 74.8349 301.125 80.717 305.047Z" fill="white"/>
<g opacity="0.25">
<path d="M73.3206 217.959C73.5078 218.805 73.6855 219.649 73.8538 220.49C73.9284 220.843 73.9988 221.195 74.0649 221.548C74.1573 222.016 74.2466 222.484 74.3329 222.953C74.4504 223.571 74.5632 224.186 74.6679 224.797C74.7037 224.994 74.7385 225.191 74.7697 225.39C74.8395 225.802 74.9102 226.21 74.9762 226.618C75.068 227.19 75.1598 227.761 75.2516 228.333C75.3091 228.7 75.3648 229.07 75.4186 229.442C75.6487 231.019 75.8576 232.588 76.0455 234.148C76.1629 235.11 76.2676 236.069 76.3694 237.022C76.4236 237.534 76.4741 238.041 76.5245 238.548C76.5677 238.987 76.6108 239.425 76.6457 239.863C76.7118 240.581 76.7742 241.294 76.8292 242.008C76.8678 242.493 76.9063 242.979 76.9421 243.46C76.9926 244.144 77.0339 244.826 77.0816 245.506C77.1092 245.94 77.1367 246.369 77.156 246.8C77.1835 247.207 77.2028 247.612 77.2257 248.016C77.2652 248.721 77.2964 249.425 77.3276 250.121C77.3276 250.169 77.3276 250.213 77.3349 250.263C77.3937 251.686 77.4442 253.095 77.479 254.485C78.1885 280.94 74.8386 301.13 80.7197 305.049C84.5744 307.618 91.0907 309.845 100.32 309.837C110.63 309.828 119.429 309.411 122.486 304.017C118.209 305.75 112.001 305.939 105.114 305.944C95.887 305.949 89.3634 303.722 85.5106 301.157C81.4429 298.445 81.789 287.974 82.1561 273.041C82.4066 262.874 88.0115 253.713 96.5653 249.919C106.866 245.349 114.975 237.496 117.386 226.623C117.234 220.607 116.888 214.796 116.44 209.146L78.7043 216.863L73.3206 217.959Z" fill="#02004E"/>
</g>
<path d="M100.284 311.312C89.1203 311.312 82.7188 308.159 79.8957 306.278C75.2352 303.172 75.4839 293.069 75.862 277.776C76.2493 262.082 76.7798 240.576 71.877 218.275C71.8353 218.085 71.8314 217.889 71.8655 217.698C71.8996 217.506 71.971 217.324 72.0757 217.16C72.1804 216.996 72.3163 216.855 72.4757 216.744C72.635 216.633 72.8147 216.554 73.0045 216.512C73.1943 216.471 73.3904 216.467 73.5817 216.501C73.773 216.535 73.9556 216.606 74.1193 216.711C74.283 216.816 74.4244 216.952 74.5356 217.111C74.6467 217.27 74.7254 217.45 74.7671 217.64C79.7479 240.291 79.2119 261.998 78.82 277.846C78.4924 291.124 78.2336 301.611 81.5367 303.811C84.0817 305.507 89.9005 308.35 100.283 308.351H100.318C108.846 308.345 116.783 308.054 120.201 304.598C121.549 303.234 122.191 301.386 122.164 298.938C122.09 291.987 110.558 288.583 110.441 288.549L109.072 288.154L109.414 286.771C117.228 255.267 116.604 229.906 114.963 209.253C114.943 209.057 114.962 208.858 115.02 208.67C115.077 208.481 115.172 208.305 115.298 208.154C115.425 208.002 115.58 207.877 115.755 207.786C115.93 207.696 116.122 207.641 116.319 207.625C116.516 207.61 116.713 207.634 116.901 207.696C117.088 207.758 117.261 207.856 117.41 207.986C117.558 208.116 117.68 208.274 117.766 208.452C117.853 208.629 117.903 208.822 117.914 209.019C119.55 229.619 120.185 254.854 112.613 286.155C116.1 287.421 125.043 291.398 125.124 298.906C125.159 302.136 124.206 304.751 122.306 306.678C118.084 310.952 109.849 311.304 100.32 311.31L100.284 311.312Z" fill="#02004E"/>
<path d="M91.625 268.387C82.8831 268.387 77.3994 265.667 77.0047 265.466C76.7069 265.315 76.4816 265.051 76.3783 264.733C76.275 264.415 76.3023 264.069 76.4541 263.771C76.6058 263.473 76.8697 263.248 77.1876 263.145C77.5055 263.042 77.8514 263.069 78.1492 263.221C78.3071 263.301 94.1976 271.095 115.212 259.143C115.502 258.985 115.842 258.947 116.159 259.038C116.477 259.128 116.746 259.34 116.909 259.627C117.072 259.913 117.116 260.253 117.031 260.572C116.947 260.891 116.74 261.163 116.457 261.332C106.835 266.807 98.2845 268.387 91.625 268.387Z" fill="#02004E"/>
<path d="M110.345 288.523C104.711 286.356 98.3146 286.428 92.5546 288.151C91.7883 288.355 90.787 288.772 90.0298 289.025L91.2174 288.404C95.6886 286.082 100.671 284.92 105.708 285.024C107.615 285.071 109.536 285.25 111.391 285.752C113.364 286.437 112.285 289.315 110.345 288.523Z" fill="#02004E"/>
<g opacity="0.35">
<path d="M82.4637 246.543C82.3977 245.253 82.3145 243.919 82.2141 242.542C82.3114 243.921 82.3977 245.253 82.4637 246.543Z" fill="#02004E"/>
</g>
<g opacity="0.35">
<path d="M82.1286 241.42C82.0675 240.669 82.0038 239.904 81.9377 239.126C82.0038 239.902 82.0699 240.669 82.1286 241.42Z" fill="#02004E"/>
</g>
<g opacity="0.35">
<path d="M81.5871 235.519C81.5127 234.802 81.4311 234.07 81.3457 233.33C81.4311 234.07 81.5091 234.802 81.5871 235.519Z" fill="#02004E"/>
</g>
<g opacity="0.35">
<path d="M81.3062 232.988C81.209 232.146 81.1043 231.297 80.9951 230.428C81.1046 231.298 81.2084 232.151 81.3062 232.988Z" fill="#02004E"/>
</g>
<path d="M40.6382 225.345C38.9128 222.101 37.8206 218.391 37.5242 214.204C37.1176 208.55 37.191 201.814 37.6453 194.693C37.8289 191.765 38.0794 188.771 38.3896 185.755C39.2221 177.505 40.495 169.117 42.0608 161.585C42.1342 161.229 42.2085 160.878 42.2875 160.525C43.2539 155.982 44.3277 151.772 45.4841 148.117C46.0853 146.211 46.7103 144.453 47.3491 142.875C49.7959 136.846 98.778 129.319 106.889 148.006C107.097 148.88 107.293 149.742 107.477 150.592C107.629 151.277 107.772 151.952 107.912 152.628C108.448 155.197 108.911 157.708 109.359 160.253C110.114 164.453 110.828 168.748 111.793 173.592C112.936 179.343 114.352 185.064 115.648 190.729C116.944 196.393 118.132 202.004 118.817 207.524C123.547 245.813 56.2488 254.742 40.6382 225.345Z" fill="white"/>
<g opacity="0.25">
<path d="M37.5226 208.195C37.798 212.106 38.7736 215.601 40.3044 218.686C44.3886 219.471 52.9084 220.284 69.1522 218.952L69.2523 220.632C69.4854 224.568 72.9032 227.594 76.8322 227.361L92.9485 226.403C97.7788 226.116 99.2978 232.819 94.8125 234.635C75.6116 242.413 50.8057 241.053 41.9317 224.342C41.8169 224.128 40.4118 218.905 40.3044 218.686C39.5523 218.548 38.8079 218.37 38.0742 218.154C37.9411 217.521 37.8264 216.873 37.7337 216.215C38.1517 219.407 39.1351 222.498 40.6376 225.345C56.1481 254.555 122.681 245.928 118.901 208.262C118.611 211.045 117.869 213.763 116.704 216.307L116.574 214.125L115.734 200.119C115.618 198.223 114.755 196.451 113.334 195.19C111.913 193.93 110.051 193.284 108.154 193.394L74.9306 195.37C74.4502 195.396 73.974 195.473 73.5099 195.599C71.9156 196.029 70.5178 196.994 69.5511 198.332C68.5845 199.671 68.1079 201.301 68.2014 202.95L68.3785 205.978C63.9566 206.529 48.2791 208.155 37.3574 205.145C37.3972 206.193 37.4523 207.21 37.5226 208.195Z" fill="#02004E"/>
</g>
<g opacity="0.35">
<path d="M37.2746 208.28C37.2893 209.071 37.3076 209.849 37.3379 210.611C37.3489 211.044 37.3673 211.469 37.3893 211.891C37.4223 212.678 37.4667 213.448 37.5224 214.199C37.5224 214.217 37.5224 214.236 37.5224 214.254C37.5407 214.495 37.56 214.735 37.5857 214.976V214.991C37.6004 215.143 37.6151 215.29 37.6334 215.442C37.6628 215.704 37.6968 215.96 37.7298 216.215C37.8216 216.873 37.9372 217.521 38.0703 218.154C38.8039 218.37 39.5484 218.548 40.3005 218.686C38.7696 215.601 37.7968 212.106 37.5187 208.195C37.449 207.211 37.3936 206.198 37.3526 205.154C37.3269 204.466 37.3039 203.767 37.2893 203.053C37.2746 203.752 37.2636 204.448 37.2599 205.132C37.255 206.202 37.2599 207.251 37.2746 208.28Z" fill="#02004E"/>
</g>
<path d="M106.439 148.203C98.6057 135.365 70.2461 136.658 57.3476 139.836C55.2367 140.35 53.1524 140.945 51.1883 141.814C50.2926 142.228 49.3766 142.661 48.7828 143.35L48.748 143.391C48.7474 143.399 48.7452 143.406 48.7415 143.413C48.7386 143.42 48.7338 143.425 48.7278 143.43C48.7111 143.464 48.697 143.499 48.6855 143.535L48.5892 143.793C45.6578 151.401 43.9232 159.401 42.44 167.429C40.1401 180.625 38.6964 194.044 38.7597 207.444C38.8414 211.023 38.824 214.832 39.627 218.329C41.592 227.69 49.0325 234.554 57.7395 237.929C73.4152 243.999 94.282 242.017 107.622 231.441C114.385 226.117 118.37 217.643 117.465 208.987C117.05 204.582 116.192 200.197 115.236 195.873C113.567 188.587 111.496 181.218 111.311 173.69C111.283 173.148 112.092 172.988 112.279 173.498C115.543 181.962 117.389 190.807 119.07 199.693C121.035 209.6 121.75 217.951 115.866 226.814C102.46 246.349 67.1036 249.52 48.4258 236.246C42.6355 232.158 38.2219 225.967 36.7424 218.98C36.0302 216.013 35.9541 212.79 35.8357 209.751C35.5667 195.385 37.0701 181.044 39.5288 166.909C41.0321 158.747 42.8328 150.488 45.8423 142.699C47.2685 137.953 61.1986 135.953 65.6829 135.362C77.6068 133.949 96.8261 133.501 105.148 143.61C106.143 144.858 106.891 146.284 107.35 147.813C107.384 147.929 107.374 148.053 107.322 148.163C107.271 148.272 107.181 148.359 107.07 148.407C106.959 148.455 106.835 148.461 106.72 148.424C106.605 148.387 106.507 148.309 106.445 148.206L106.439 148.203Z" fill="#02004E"/>
<path d="M125.038 205.72C125.595 202.288 123.264 199.053 119.832 198.496C116.399 197.939 113.164 200.27 112.607 203.702C112.05 207.135 114.381 210.37 117.814 210.927C121.246 211.484 124.481 209.153 125.038 205.72Z" fill="white"/>
<g opacity="0.25">
<path d="M125.115 204.7C125.125 205.533 124.97 206.36 124.658 207.133C124.346 207.906 123.883 208.609 123.298 209.202C122.712 209.795 122.014 210.266 121.245 210.587C120.476 210.908 119.651 211.074 118.818 211.074C117.984 211.074 117.159 210.908 116.39 210.587C115.621 210.266 114.923 209.795 114.338 209.202C113.752 208.609 113.29 207.906 112.978 207.133C112.666 206.36 112.51 205.533 112.52 204.7C112.519 203.769 112.725 202.849 113.126 202.008C113.636 203.085 114.442 203.995 115.449 204.633C116.457 205.27 117.624 205.608 118.816 205.608C120.008 205.608 121.176 205.27 122.183 204.633C123.19 203.995 123.996 203.085 124.506 202.008C124.908 202.849 125.116 203.769 125.115 204.7Z" fill="#02004E"/>
</g>
<path d="M118.819 212.257C117.324 212.257 115.863 211.814 114.621 210.984C113.378 210.153 112.41 208.973 111.838 207.592C111.266 206.212 111.116 204.693 111.408 203.227C111.699 201.761 112.419 200.415 113.476 199.358C114.533 198.301 115.879 197.582 117.345 197.29C118.81 196.998 120.33 197.148 121.71 197.72C123.091 198.292 124.271 199.26 125.102 200.503C125.932 201.746 126.375 203.206 126.375 204.701C126.373 206.704 125.576 208.625 124.159 210.041C122.743 211.458 120.822 212.255 118.819 212.257ZM118.819 199.663C117.822 199.663 116.848 199.959 116.019 200.512C115.191 201.066 114.545 201.853 114.164 202.774C113.782 203.695 113.683 204.708 113.877 205.685C114.072 206.663 114.552 207.56 115.256 208.265C115.961 208.97 116.859 209.449 117.836 209.644C118.814 209.838 119.827 209.738 120.748 209.357C121.668 208.975 122.455 208.329 123.009 207.5C123.562 206.672 123.858 205.697 123.857 204.701C123.855 203.365 123.323 202.086 122.379 201.141C121.434 200.197 120.154 199.666 118.819 199.663Z" fill="#02004E"/>
<g opacity="0.35">
<path d="M37.2748 208.28C37.2895 209.071 37.3078 209.849 37.3381 210.61C37.3491 211.044 37.3675 211.469 37.3895 211.891C37.4225 212.678 37.4669 213.448 37.5226 214.199C37.5226 214.217 37.5226 214.236 37.5226 214.254C37.5409 214.495 37.5602 214.735 37.5859 214.975V214.991C37.6006 215.142 37.6153 215.29 37.6336 215.442C37.663 215.704 37.697 215.96 37.73 216.215C37.8218 216.873 37.9374 217.521 38.0705 218.154C38.8042 218.37 39.5486 218.547 40.3007 218.686C38.7699 215.601 37.797 212.106 37.5189 208.195C37.4492 207.211 37.3938 206.197 37.3528 205.154L37.261 205.132C37.2528 206.201 37.2601 207.251 37.2748 208.28Z" fill="#02004E"/>
</g>
<path d="M112.255 220.322L79.0257 222.298C77.1293 222.406 75.2675 221.758 73.8471 220.497C72.4266 219.236 71.563 217.464 71.4448 215.568L70.3939 197.885C70.3003 196.237 70.7769 194.606 71.7437 193.267C72.7105 191.928 74.1087 190.962 75.7033 190.532C76.1677 190.407 76.6438 190.33 77.124 190.302L110.353 188.329C112.25 188.22 114.113 188.867 115.533 190.129C116.954 191.39 117.817 193.162 117.934 195.059L118.769 209.064L118.99 212.742C119.097 214.639 118.448 216.501 117.186 217.922C115.924 219.342 114.151 220.205 112.255 220.322Z" fill="white"/>
<g opacity="0.25">
<path d="M112.255 220.322L79.0257 222.298C77.1293 222.406 75.2675 221.758 73.8471 220.497C72.4266 219.236 71.563 217.464 71.4448 215.568L70.3939 197.885C70.3003 196.236 70.7769 194.606 71.7437 193.267C72.7105 191.928 74.1087 190.962 75.7033 190.532C77.6646 191.673 78.91 192.403 78.91 192.403C81.3724 206.502 85.8356 213.339 103.479 212.578C111.097 212.248 115.828 210.802 118.765 209.06L118.985 212.739C119.093 214.636 118.446 216.498 117.185 217.919C115.923 219.34 114.151 220.204 112.255 220.322Z" fill="#02004E"/>
</g>
<path d="M78.5979 223.572C76.4526 223.565 74.3904 222.742 72.8297 221.27C71.2689 219.798 70.3266 217.788 70.1938 215.646L69.1411 197.961C69.0108 195.73 69.7706 193.539 71.2538 191.868C72.7369 190.198 74.8223 189.183 77.0524 189.048L110.276 187.071C112.506 186.943 114.696 187.704 116.366 189.186C118.036 190.669 119.051 192.753 119.188 194.982L120.241 212.668C120.371 214.899 119.611 217.09 118.128 218.76C116.645 220.431 114.559 221.446 112.329 221.581L79.1055 223.558C78.9329 223.567 78.7631 223.572 78.5979 223.572ZM110.784 189.574C110.666 189.574 110.548 189.574 110.429 189.584L77.2056 191.561C75.6417 191.656 74.1793 192.367 73.1392 193.539C72.0991 194.711 71.5663 196.247 71.6576 197.811L72.703 215.496C72.8016 217.058 73.5139 218.518 74.6845 219.557C75.8552 220.596 77.3893 221.13 78.9522 221.043L112.176 219.066C113.74 218.971 115.202 218.26 116.242 217.089C117.282 215.917 117.815 214.381 117.724 212.817L116.671 195.131C116.577 193.63 115.915 192.221 114.821 191.189C113.726 190.157 112.281 189.579 110.776 189.573L110.784 189.574Z" fill="#02004E"/>
<path d="M113.581 220.111C113.148 220.228 112.703 220.299 112.255 220.322L79.0258 222.299C77.6516 222.377 76.2838 222.059 75.0853 221.382C73.8868 220.705 72.908 219.698 72.2654 218.481C71.7861 217.58 71.508 216.587 71.4504 215.568L70.9796 207.712L70.8245 205.125L70.394 197.89C70.2868 195.994 70.9345 194.132 72.1955 192.711C73.4565 191.291 75.2284 190.427 77.1242 190.309L84.3049 189.884C82.687 190.293 81.2618 191.252 80.2738 192.597C79.2858 193.941 78.7965 195.588 78.89 197.254L79.4553 206.806L79.9408 214.942C80.1758 218.875 83.5881 221.908 87.5208 221.673L113.581 220.111Z" fill="white"/>
<g opacity="0.35">
<path d="M113.581 220.111C113.148 220.228 112.703 220.299 112.255 220.322L79.0255 222.298C77.1295 222.406 75.268 221.759 73.8482 220.498C72.4285 219.236 71.5663 217.464 71.4501 215.568L70.8242 205.125C71.7695 206.922 73.4059 209.098 75.8234 209.193C77.1487 209.248 78.3932 208.222 79.456 206.807L79.9415 214.943C80.1764 218.876 83.5888 221.908 87.5215 221.673L113.581 220.111Z" fill="#02004E"/>
</g>
<path d="M78.5896 223.572C76.4449 223.564 74.3839 222.74 72.8243 221.267C71.2647 219.795 70.3233 217.785 70.191 215.645L69.1392 197.961C69.0121 195.731 69.7729 193.542 71.2552 191.872C72.7375 190.201 74.8207 189.186 77.0496 189.047L84.2276 188.621L84.6094 191.099C83.2744 191.435 82.0983 192.226 81.2838 193.336C80.4693 194.445 80.0673 195.804 80.1471 197.179L81.1998 214.864C81.297 216.426 82.0077 217.885 83.1769 218.924C84.3461 219.964 85.8788 220.498 87.4407 220.411L113.506 218.859L113.9 221.337C113.384 221.472 112.854 221.555 112.321 221.584L79.0971 223.561C78.9292 223.567 78.7594 223.572 78.5896 223.572ZM79.59 191.418L77.2038 191.56C75.6415 191.659 74.1818 192.372 73.1427 193.542C72.1037 194.713 71.5695 196.247 71.6567 197.81L72.7039 215.496C72.802 217.058 73.5136 218.517 74.6836 219.556C75.8536 220.595 77.387 221.13 78.9494 221.043L81.5981 220.886L81.5063 220.808C80.6768 220.076 80.0007 219.187 79.5172 218.192C79.0337 217.197 78.7524 216.116 78.6896 215.011L77.6342 197.324C77.5072 195.177 78.2071 193.063 79.59 191.417V191.418Z" fill="#02004E"/>
<path d="M92.5273 205.458C92.5621 206.112 91.9261 211.442 91.9261 211.442L88.199 211.641C85.6292 211.78 83.41 209.234 83.2338 205.956C83.0576 202.679 84.995 199.91 87.5611 199.772L91.2883 199.571C91.2883 199.571 92.4694 204.391 92.5273 205.458Z" fill="#22A7F0"/>
<g opacity="0.25">
<path d="M92.5273 205.458C92.5621 206.112 91.9261 211.442 91.9261 211.442L88.199 211.641C85.6292 211.78 83.41 209.234 83.2338 205.956C83.0576 202.679 84.995 199.91 87.5611 199.772L91.2883 199.571C91.2883 199.571 92.4694 204.391 92.5273 205.458Z" fill="#02004E"/>
</g>
<path d="M87.9952 212.655C86.5322 212.655 85.1445 211.983 84.0615 210.744C82.9786 209.505 82.3251 207.82 82.226 206.012C82.1269 204.203 82.5931 202.462 83.5421 201.111C84.5406 199.683 85.9485 198.851 87.5051 198.767L92.0655 198.522L92.2647 199.333C92.3877 199.836 93.4698 204.277 93.5303 205.404C93.567 206.092 93.0714 210.291 92.9246 211.561L92.8236 212.402L88.2531 212.651C88.1668 212.651 88.0814 212.655 87.9952 212.655ZM90.5062 200.628L87.6152 200.783C86.6901 200.832 85.8301 201.361 85.1941 202.27C84.5048 203.254 84.1662 204.547 84.2387 205.908C84.3112 207.269 84.7893 208.518 85.5786 209.423C86.3129 210.259 87.2178 210.693 88.1484 210.642L91.0284 210.487C91.2955 208.192 91.536 205.882 91.525 205.514C91.4873 204.895 90.9422 202.454 90.5062 200.628Z" fill="#02004E"/>
<path d="M91.9416 211.436C94.5078 211.298 96.4451 208.528 96.2687 205.251C96.0924 201.973 93.8691 199.428 91.3029 199.566C88.7368 199.704 86.7995 202.473 86.9758 205.751C87.1522 209.028 89.3755 211.574 91.9416 211.436Z" fill="#22A7F0"/>
<g opacity="0.25">
<path d="M91.924 211.441C89.3607 211.58 87.1378 209.034 86.9607 205.757C86.9194 205.034 86.9853 204.309 87.1562 203.606C87.7738 206.208 89.7259 208.062 91.9286 207.944C93.9065 207.838 95.508 206.169 96.0587 203.911C96.1644 204.352 96.2298 204.803 96.2541 205.256C96.4294 208.537 94.4911 211.303 91.924 211.441Z" fill="#02004E"/>
</g>
<g opacity="0.7">
<path d="M96.1773 206.804C95.7451 203.882 93.6644 201.713 91.2892 201.841C89.1407 201.955 87.4345 203.918 87.0353 206.481C86.9995 206.247 86.9747 206.002 86.9609 205.757C86.7838 202.48 88.7222 199.711 91.2892 199.572C93.8563 199.434 96.0782 201.98 96.2526 205.256C96.282 205.773 96.2568 206.292 96.1773 206.804Z" fill="white"/>
</g>
<path d="M91.7222 212.454C90.2593 212.454 88.8707 211.783 87.7886 210.543C86.7065 209.303 86.0522 207.62 85.953 205.811C85.8539 204.002 86.3201 202.261 87.2691 200.91C88.2677 199.482 89.6756 198.651 91.2321 198.567C92.7887 198.484 94.2783 199.16 95.4236 200.472C96.5094 201.714 97.1601 203.395 97.2592 205.204C97.3583 207.013 96.8921 208.753 95.9431 210.105C94.9446 211.532 93.5367 212.364 91.9801 212.448C91.8938 212.452 91.8076 212.454 91.7222 212.454ZM91.4854 200.575C91.4377 200.575 91.3937 200.575 91.3423 200.575C90.4171 200.624 89.5572 201.152 88.9211 202.061C88.2319 203.045 87.8923 204.337 87.9657 205.699C88.0392 207.061 88.5164 208.31 89.3057 209.215C90.0399 210.05 90.9439 210.488 91.8755 210.433C92.807 210.379 93.6606 209.855 94.2966 208.947C94.9859 207.962 95.3254 206.67 95.252 205.308C95.1786 203.947 94.7013 202.698 93.913 201.793C93.2164 201.004 92.3647 200.575 91.4854 200.575Z" fill="#02004E"/>
<path d="M101.917 221.816C101.656 221.816 101.405 221.715 101.216 221.534C101.028 221.353 100.917 221.106 100.907 220.845L100.6 212.262C100.501 209.628 101.431 207.058 103.194 205.098L103.628 204.614C104.351 203.803 104.907 202.856 105.262 201.829C105.617 200.802 105.765 199.714 105.697 198.63L105.055 188.659C105.035 188.521 105.044 188.381 105.082 188.247C105.119 188.113 105.183 187.988 105.271 187.88C105.359 187.772 105.468 187.684 105.591 187.62C105.715 187.556 105.85 187.519 105.989 187.51C106.128 187.501 106.267 187.52 106.398 187.568C106.528 187.615 106.648 187.689 106.749 187.784C106.85 187.88 106.93 187.996 106.984 188.124C107.038 188.252 107.065 188.39 107.064 188.529L107.706 198.499C107.791 199.851 107.607 201.207 107.164 202.487C106.721 203.767 106.029 204.947 105.127 205.957L104.694 206.442C103.28 208.014 102.534 210.076 102.614 212.189L102.921 220.772C102.93 221.039 102.833 221.299 102.651 221.494C102.469 221.689 102.217 221.805 101.95 221.815L101.917 221.816Z" fill="#02004E"/>
<path d="M34.2259 205.951C34.3884 210.847 39.2416 212.716 39.2416 212.716C39.2416 212.716 45.9561 216.198 73.6585 213.692C73.6585 213.692 81.4909 205.675 71.7798 200.759C71.7798 200.759 52.488 203.609 39.651 200.117C37.3317 199.482 34.08 201.576 34.2259 205.951Z" fill="white"/>
<g opacity="0.25">
<path d="M34.2277 205.951C34.3874 210.846 39.2407 212.717 39.2407 212.717C39.2407 212.717 45.9552 216.199 73.6576 213.691C73.6576 213.691 78.0905 209.152 76.1503 204.814C76.142 204.837 76.1338 204.86 76.1246 204.883C75.2316 207.257 73.0041 208.876 70.4756 209.075C45.4403 211.041 39.2453 207.828 39.2453 207.828C39.2453 207.828 35.8495 206.519 34.6453 203.228C34.3267 204.099 34.1847 205.024 34.2277 205.951Z" fill="#02004E"/>
</g>
<path d="M55.8599 215.854C43.5139 215.854 39.3517 214.157 38.7359 213.87C38.1274 213.621 33.1494 211.425 32.9676 205.993C32.8841 203.485 33.8046 201.28 35.4934 199.945C36.8297 198.889 38.5055 198.498 39.9767 198.898C52.4072 202.283 71.4008 199.54 71.5917 199.515L71.9872 199.456L72.3433 199.639C75.5363 201.255 77.3728 203.388 77.8023 205.981C78.5365 210.433 74.7167 214.406 74.5543 214.573L74.2294 214.906L73.7705 214.948C66.4429 215.608 60.5581 215.854 55.8599 215.854ZM38.8075 201.261C38.2284 201.261 37.5933 201.493 37.0554 201.919C36.435 202.409 35.4034 203.579 35.4842 205.908C35.6173 209.925 39.6528 211.525 39.6941 211.54L39.8207 211.597C39.874 211.623 46.7876 214.809 73.0445 212.481C73.8044 211.581 75.752 208.972 75.3169 206.38C75.0416 204.711 73.7705 203.26 71.554 202.061C68.6171 202.464 51.3784 204.61 39.3178 201.327C39.1514 201.283 38.9797 201.261 38.8075 201.262V201.261Z" fill="#02004E"/>
<path d="M75.3667 240.408C75.4502 239.105 73.0548 273.704 70.2978 294.873C68.32 310.066 55.705 311.645 35.5395 310.069C28.1201 309.489 22.4299 307.047 23.0035 300.574C23.7744 291.878 35.3119 288.584 35.3119 288.584C35.3119 288.584 38.1827 252.818 40.4515 215.688L77.5804 231.71L75.3667 240.408Z" fill="white"/>
<path d="M46.4368 312.063C42.9171 312.063 39.2074 311.839 35.4234 311.544C29.5496 311.085 25.6242 309.594 23.4169 306.985C21.9338 305.233 21.2987 303.031 21.5281 300.441C22.2468 292.337 30.9198 288.553 33.9127 287.483C34.3881 281.482 36.9414 248.898 38.9706 215.595C38.9827 215.401 39.0328 215.211 39.1182 215.037C39.2035 214.862 39.3224 214.706 39.468 214.578C39.6137 214.449 39.7832 214.35 39.967 214.287C40.1508 214.224 40.3452 214.198 40.5391 214.21C40.733 214.222 40.9227 214.272 41.0972 214.358C41.2718 214.443 41.4278 214.562 41.5564 214.707C41.685 214.853 41.7837 215.023 41.8468 215.206C41.9098 215.39 41.9361 215.585 41.9241 215.779C39.6837 252.499 36.8138 288.345 36.7845 288.703L36.7019 289.725L35.7152 290.007C35.6115 290.037 25.146 293.138 24.4751 300.707C24.3164 302.505 24.7083 303.934 25.6756 305.077C27.323 307.025 30.6794 308.209 35.6528 308.597C55.789 310.17 67.0411 308.42 68.828 294.686C71.1647 276.745 73.2682 248.841 73.8574 240.716C73.8629 240.64 73.8703 240.54 73.8841 240.427C73.8841 240.39 73.8841 240.353 73.8841 240.316H73.896C73.8964 240.31 73.8964 240.303 73.896 240.296C73.9942 239.688 74.3081 238.819 75.4562 238.898L76.9247 238.999L76.8329 240.505C76.8329 240.525 76.8329 240.544 76.8329 240.563L76.8054 240.93C76.2152 249.075 74.1062 277.05 71.7575 295.07C69.9532 308.98 59.5079 312.063 46.4368 312.063Z" fill="#02004E"/>
<path d="M60.8572 271.35C47.7568 271.35 37.1426 266.394 36.5681 266.125C36.274 265.977 36.0495 265.72 35.9426 265.408C35.8356 265.097 35.8548 264.756 35.9961 264.459C36.1373 264.162 36.3892 263.932 36.698 263.818C37.0069 263.704 37.3479 263.716 37.6483 263.85C37.8236 263.934 55.3037 272.071 72.4745 267.318C72.7939 267.236 73.1325 267.283 73.4177 267.448C73.7029 267.613 73.9119 267.884 73.9999 268.202C74.0878 268.519 74.0477 268.859 73.8881 269.147C73.7285 269.436 73.4622 269.65 73.1463 269.744C68.9613 270.903 64.7964 271.35 60.8572 271.35Z" fill="#02004E"/>
<path d="M34.8242 287.183C41.5974 285.647 48.8938 286.704 55.0815 289.762L56.2856 290.366C52.966 289.138 49.4188 288.402 45.8853 288.356C42.4601 288.306 38.9927 288.763 35.7979 289.979C33.8339 290.745 32.8023 287.808 34.8242 287.183Z" fill="#02004E"/>
<g opacity="0.25">
<path d="M74.3902 241.469C74.3902 242.046 72.9786 274.287 70.2969 294.87C68.3181 310.065 55.7096 311.642 35.5404 310.065C28.1201 309.491 22.4299 307.049 23.0035 300.574C23.0182 300.423 23.0328 300.276 23.0539 300.128C25.3392 301.78 28.758 302.598 32.6604 302.9C52.8287 304.478 65.4418 302.9 67.4196 287.706C69.47 271.974 72.8015 250.793 74.3471 241.486L74.3865 241.501C74.3848 241.49 74.3861 241.479 74.3902 241.469Z" fill="#02004E"/>
</g>
<path d="M56.4794 220.131C52.0612 221.754 45.5045 220.131 45.5045 220.131C45.5045 220.131 43.6634 223.277 40.6403 225.345C38.8864 226.543 36.7305 227.385 34.3158 227.033C24.7709 225.65 4.61723 206.528 3.45623 190.797C2.63757 179.784 21.4677 164.549 34.9307 155.117H34.9353C39.3031 152.059 43.1036 149.61 45.4898 148.117C47.1556 147.076 48.1275 146.498 48.1275 146.498L45.108 162.094L44.8208 163.562L41.0918 182.823L38.3899 185.76L34.7995 189.646L37.6446 194.698L38.3431 195.938C38.3431 195.938 40.8917 193.846 43.0761 193.703C45.2604 193.56 55.6497 193.282 58.806 197.293C61.9622 201.305 60.8985 218.512 56.4794 220.131Z" fill="white"/>
<g opacity="0.25">
<path d="M4.20337 195.095C8.14984 209.816 25.6263 225.774 34.3122 227.034C40.8964 227.989 45.5092 220.135 45.5092 220.135C45.5092 220.135 52.064 221.76 56.4813 220.135C60.8986 218.511 61.9705 201.31 58.8115 197.292C58.5766 196.997 58.3111 196.726 58.0195 196.486C58.7225 203.086 57.2853 212.639 54.0464 213.832C49.6264 215.455 44.9787 212.589 43.0706 213.832C41.1625 215.075 38.4615 221.685 31.8736 220.731C24.424 219.648 10.4985 207.751 4.20337 195.095Z" fill="#02004E"/>
</g>
<path d="M48.3762 146.922C42.3188 152.195 35.5447 156.451 29.1339 161.247C22.7966 165.955 16.6291 171.159 11.4849 177.097C8.32685 180.898 4.45013 185.999 4.97785 191.125C6.29396 203.065 17.836 216.159 27.6334 222.553C30.183 224.077 32.9703 225.778 36.0091 225.605C39.9161 225.135 42.9007 221.702 44.7923 218.447C48.3239 219.285 52.3438 219.878 55.8589 218.774C56.0856 218.712 56.1434 218.637 56.3233 218.505C59.4768 214.971 59.8623 203.387 58.1157 199.059C56.6262 195.356 48.4992 195.113 44.9556 195.107C43.8937 195.15 42.9861 195.05 41.96 195.474C40.5099 196.029 39.1084 197.232 37.9401 198.223L37.0296 196.67C35.6117 194.268 34.1652 191.862 32.8923 189.378C35.2895 186.854 37.7804 184.378 40.7256 182.486C41.1468 182.211 41.6975 182.714 41.4506 183.154C39.9821 185.925 37.9988 188.352 35.9439 190.701L36.1568 188.874C37.3967 190.937 38.5054 193.075 39.6508 195.192L37.3839 194.766C38.5128 193.918 39.559 193.269 40.8641 192.733C42.0508 192.198 43.5964 192.158 44.9171 192.153C49.6216 192.205 56.0324 192.42 59.6136 195.967C63.5747 200.173 62.5174 216.072 58.727 220.28C58.2148 220.826 57.5632 221.35 56.8345 221.571C54.2243 222.444 51.5361 222.44 48.881 222.183C47.6237 222.057 46.3755 221.853 45.1438 221.571L46.7756 220.883C44.3949 224.593 40.8935 228.042 36.2798 228.551C31.8267 228.837 27.8417 226.257 24.3174 223.886C14.3273 216.711 3.08538 203.534 1.97578 190.873C1.50404 180.712 13.8519 169.974 20.9611 163.872C29.3074 157.065 37.7822 150.172 47.8696 146.074C47.9798 146.032 48.1013 146.03 48.2128 146.069C48.3242 146.107 48.4183 146.184 48.4785 146.286C48.5387 146.387 48.561 146.507 48.5416 146.623C48.5223 146.74 48.4624 146.845 48.3725 146.922H48.3762Z" fill="#02004E"/>
<path d="M168.602 143.293C166.361 142.283 167.581 144.007 162.596 142.894C156.46 141.522 156.134 129.01 157.09 122.323C158.045 115.636 162.031 114.493 164.662 113.168C167.294 111.844 175.552 114.213 176.594 116.737C177.635 119.261 179.374 137.671 175.848 141.588" fill="white"/>
<g opacity="0.25">
<path d="M162.597 142.899C167.58 144.012 166.36 142.289 168.602 143.298C168.602 143.298 169.795 138.985 164.817 137.875C158.679 136.499 158.354 123.992 159.31 117.303C159.347 117.052 159.388 116.807 159.432 116.569C158.352 117.838 157.475 119.636 157.091 122.325C156.134 129.011 156.46 141.522 162.597 142.899Z" fill="#02004E"/>
</g>
<path d="M168.4 143.743C167.968 143.773 167.546 143.797 167.424 143.926C167.235 144.154 166.754 144.374 166.392 144.477C164.924 144.882 163.777 144.683 162.454 144.471C156.884 143.352 155.691 136.006 155.308 131.347C155.094 127.879 155.194 124.405 155.828 120.985C156.538 117.097 158.963 114.082 162.626 112.5L163.746 111.965C166.629 110.54 170.617 111.672 173.437 112.699C175.141 113.419 177.161 114.351 177.977 116.204C178.353 117.244 178.501 118.31 178.658 119.279C179.255 123.49 179.506 127.743 179.409 131.995C179.208 134.612 179.447 137.324 178.344 139.796C178.111 140.519 176.134 142.834 175.508 141.552C175.481 141.453 175.472 141.349 175.482 141.247C175.505 140.361 175.507 139.681 175.6 138.933C175.927 136.625 176.491 134.284 176.45 131.913C176.486 127.094 176.351 122.001 175.231 117.306C173.91 115.361 167.116 113.458 165.044 114.618C161.52 116.153 159.512 117.688 158.723 121.585C157.934 126.251 157.908 131.207 158.952 135.818C159.487 137.904 160.275 139.987 162.095 140.995C163.215 141.545 164.849 141.767 165.986 141.963C166.445 142.028 166.806 141.91 167.39 141.985C168.145 142.119 169.395 142.951 168.777 143.586C168.674 143.681 168.539 143.733 168.399 143.732L168.4 143.743Z" fill="#02004E"/>
<path d="M158.092 117.695C158.092 117.695 166.545 129.374 157.72 131.317C154.348 132.058 149.475 123.309 150.716 120.371C151.956 117.433 154.763 116.389 158.092 117.695Z" fill="white"/>
<path d="M157.293 132.843C155.791 132.843 154.204 131.881 152.659 130.024C150.619 127.571 148.162 122.625 149.355 119.796C150.921 116.086 154.564 114.72 158.634 116.316C158.898 116.42 159.127 116.597 159.293 116.827C159.844 117.586 164.61 124.38 162.82 129.08C162.322 130.389 161.089 132.09 158.04 132.761C157.794 132.816 157.544 132.843 157.293 132.843ZM155.407 118.617C153.892 118.617 152.725 119.412 152.079 120.943C151.666 121.922 152.705 125.448 154.934 128.126C156.035 129.455 156.992 129.962 157.402 129.87C159.528 129.402 159.923 128.368 160.052 128.027C161.021 125.492 158.431 120.829 157.147 118.925C156.586 118.732 155.999 118.629 155.407 118.621V118.617Z" fill="#02004E"/>
<path d="M139.814 191.138C139.613 191.138 139.415 191.09 139.237 190.997C126.743 184.537 127.613 153.694 127.657 152.384C127.668 152.051 127.811 151.735 128.055 151.507C128.299 151.279 128.623 151.157 128.956 151.168C129.29 151.179 129.606 151.322 129.834 151.566C130.062 151.809 130.184 152.133 130.173 152.467C130.163 152.773 129.304 183.029 140.393 188.761C140.644 188.891 140.843 189.101 140.96 189.357C141.077 189.614 141.104 189.903 141.037 190.177C140.97 190.451 140.814 190.694 140.592 190.869C140.37 191.043 140.096 191.138 139.814 191.138Z" fill="#02004E"/>
<path d="M3.56009 193.102C3.33832 193.102 3.12052 193.043 2.92873 192.932C2.73693 192.82 2.57795 192.66 2.46786 192.468C2.35777 192.275 2.30048 192.057 2.30178 191.835C2.30308 191.614 2.36293 191.396 2.47527 191.205C8.69509 180.613 34.0856 188.11 35.1631 188.434C35.4755 188.536 35.7356 188.757 35.8878 189.048C36.04 189.339 36.0722 189.679 35.9776 189.994C35.8829 190.308 35.6688 190.574 35.3812 190.733C35.0935 190.892 34.755 190.932 34.438 190.845C27.6216 188.797 8.98236 185.097 4.64675 192.481C4.53538 192.67 4.37654 192.827 4.18596 192.936C3.99537 193.045 3.77963 193.102 3.56009 193.102Z" fill="#02004E"/>
<path d="M39.4461 196.919C37.2012 199.468 36.1641 202.918 35.529 206.21C35.3455 207.1 34.0129 206.925 34.0606 206.017L34.1524 204.618C34.4892 201.247 35.2482 197.764 37.2416 194.943L37.6785 194.401C37.8104 194.237 37.9732 194.101 38.1577 194C38.3423 193.899 38.5449 193.835 38.7539 193.813C38.963 193.79 39.1745 193.809 39.3762 193.869C39.578 193.928 39.7661 194.026 39.9298 194.158C40.9118 194.904 40.6071 196.554 39.4452 196.919H39.4461Z" fill="#02004E"/>
<path d="M164.888 66.7983L164.945 77.5474C164.949 78.1495 165.071 78.745 165.304 79.3C165.538 79.8549 165.878 80.3584 166.306 80.7817L168.426 82.8761C169.033 83.4765 169.855 83.8112 170.709 83.8067L174.013 83.7893C174.436 83.7871 174.854 83.7016 175.244 83.5377C175.634 83.3737 175.988 83.1346 176.285 82.8339L178.651 80.4476C179.506 79.5827 179.982 78.4139 179.976 77.1978L179.922 66.7176L164.888 66.7983Z" fill="white"/>
<path d="M170.691 85.1944C170.09 85.1959 169.495 85.0791 168.94 84.8506C168.384 84.6221 167.879 84.2864 167.453 83.8627L165.333 81.7655C164.774 81.2155 164.33 80.5602 164.026 79.8375C163.722 79.1147 163.564 78.3388 163.562 77.5547L163.504 66.8057C163.503 66.6239 163.538 66.4438 163.606 66.2756C163.675 66.1074 163.776 65.9543 163.904 65.8252C164.032 65.696 164.184 65.5934 164.352 65.523C164.519 65.4527 164.699 65.416 164.881 65.4152L179.917 65.3344H179.924C180.29 65.3344 180.641 65.4793 180.9 65.7373C181.159 65.9953 181.305 66.3454 181.307 66.7111L181.363 77.1913C181.369 77.9754 181.22 78.753 180.924 79.4791C180.628 80.2052 180.191 80.8654 179.638 81.4214L177.273 83.8076C176.848 84.2389 176.343 84.5816 175.785 84.816C175.227 85.0505 174.629 85.1719 174.024 85.1733L170.72 85.1916L170.691 85.1944ZM166.278 68.1741L166.329 77.5401C166.33 77.9607 166.414 78.377 166.577 78.7647C166.74 79.1525 166.979 79.5039 167.279 79.7987L169.398 81.8959C169.568 82.065 169.77 82.199 169.992 82.2902C170.214 82.3814 170.451 82.4279 170.691 82.4273H170.701L174.005 82.4098C174.247 82.4088 174.486 82.3601 174.708 82.2666C174.931 82.173 175.133 82.0364 175.303 81.8647L177.668 79.4784C177.965 79.18 178.199 78.8257 178.358 78.4362C178.517 78.0466 178.597 77.6294 178.593 77.2087L178.545 68.1117L166.278 68.1741Z" fill="#02004E"/>
<path d="M192.354 46.6667C192.295 35.6652 183.329 26.7939 172.327 26.8527C161.325 26.9114 152.454 35.8782 152.513 46.8796C152.531 50.3761 153.469 53.8062 155.234 56.8248C156.998 59.8434 159.527 62.3441 162.565 64.0752C162.806 68.5311 167.496 71.0376 173.237 71.0064C179.117 70.9751 183.868 68.2457 183.843 63.6375C183.843 63.4631 183.833 63.2896 183.819 63.118C186.47 61.2744 188.632 58.8132 190.119 55.947C191.606 53.0808 192.373 49.8957 192.354 46.6667Z" fill="#FFF031"/>
<path d="M173.13 72.3904C166.605 72.3904 161.958 69.4241 161.262 64.9095C158.187 63.007 155.645 60.3558 153.873 57.204C152.102 54.0522 151.158 50.5026 151.13 46.887C151.111 43.2513 152.021 39.671 153.776 36.4869C155.531 33.3027 158.072 30.6208 161.157 28.6962C164.241 26.7716 167.767 25.6685 171.398 25.4918C175.03 25.3151 178.646 26.0707 181.903 27.6868C185.16 29.3029 187.949 31.7255 190.005 34.7243C192.061 37.723 193.315 41.1979 193.648 44.8184C193.981 48.4389 193.382 52.0843 191.908 55.4078C190.434 58.7313 188.133 61.6222 185.226 63.8054C185.183 66.3826 183.87 68.6458 181.516 70.1941C179.388 71.5928 176.45 72.3729 173.244 72.3895L173.13 72.3904ZM172.437 28.2358H172.336C167.419 28.2622 162.715 30.2405 159.257 33.7355C155.799 37.2304 153.871 41.9558 153.897 46.8723C153.921 50.1245 154.798 53.3134 156.439 56.1211C158.081 58.9287 160.43 61.257 163.252 62.8739C163.452 62.9885 163.621 63.1517 163.742 63.3485C163.863 63.5452 163.933 63.7692 163.945 64C164.157 67.8914 168.7 69.6242 173.139 69.6242H173.231C175.907 69.6104 178.31 68.9918 179.995 67.8804C181.641 66.7983 182.473 65.373 182.461 63.643C182.461 63.5053 182.453 63.3676 182.441 63.2346C182.42 62.9926 182.463 62.7495 182.566 62.5296C182.669 62.3098 182.828 62.1208 183.027 61.9818C186.263 59.7257 188.696 56.4961 189.97 52.7626C191.245 49.0291 191.295 44.9864 190.114 41.2223C188.933 37.4582 186.582 34.1691 183.402 31.8332C180.223 29.4973 176.382 28.2364 172.437 28.2339V28.2358Z" fill="#02004E"/>
<path d="M169.184 71.6865C169.096 71.6863 169.01 71.6761 168.925 71.6562C168.639 71.5878 168.393 71.4089 168.239 71.1589C168.086 70.9088 168.038 70.608 168.106 70.3226C168.576 68.3531 169.207 64.346 168.988 60.6207C163.256 59.8663 161.856 56.8257 161.543 55.7785C160.992 53.9273 161.635 52 163.109 51.0914C164.609 50.1672 166.476 50.5315 168.104 52.0679C169.782 53.6511 170.634 56.0291 171.007 58.5649C171.471 58.5814 171.958 58.5823 172.476 58.5649C172.621 58.5608 172.765 58.5854 172.901 58.6371C173.037 58.6889 173.161 58.767 173.267 58.8668C173.372 58.9665 173.457 59.0862 173.517 59.2188C173.576 59.3514 173.609 59.4944 173.613 59.6396C173.617 59.7849 173.592 59.9295 173.541 60.0652C173.489 60.201 173.411 60.3252 173.311 60.4308C173.211 60.5364 173.091 60.6213 172.959 60.6806C172.826 60.74 172.683 60.7727 172.538 60.7768C172.082 60.7896 171.644 60.7914 171.224 60.7823C171.466 65.6869 170.342 70.5007 170.262 70.8338C170.205 71.0767 170.067 71.2931 169.871 71.4479C169.675 71.6026 169.433 71.6867 169.184 71.6865ZM164.875 52.8086C164.662 52.8063 164.452 52.8642 164.27 52.9756C163.744 53.3005 163.367 54.1494 163.664 55.1452C164.057 56.4595 165.6 57.8068 168.726 58.3419C168.385 56.4347 167.726 54.7543 166.584 53.6768C165.979 53.105 165.384 52.8086 164.875 52.8086H164.875Z" fill="#02004E"/>
<path d="M175.938 71.6506C175.691 71.6512 175.452 71.5689 175.257 71.417C175.063 71.2651 174.925 71.0522 174.866 70.8127C174.783 70.4814 173.606 65.6786 173.797 60.7721C173.377 60.7862 172.939 60.7893 172.483 60.7813C172.194 60.7696 171.921 60.6453 171.722 60.4349C171.524 60.2245 171.416 59.9448 171.421 59.6556C171.426 59.3665 171.544 59.0908 171.75 58.8876C171.956 58.6844 172.233 58.5699 172.522 58.5685C173.036 58.5777 173.523 58.5685 173.986 58.5493C174.333 56.0098 175.159 53.6226 176.82 52.0211C178.431 50.4673 180.294 50.0827 181.805 50.9913C183.289 51.8843 183.953 53.8052 183.42 55.6619C183.118 56.7119 181.751 59.7672 176.027 60.5831C175.844 64.3102 176.522 68.3108 177.013 70.2749C177.084 70.5595 177.039 70.8608 176.888 71.1124C176.737 71.364 176.493 71.5454 176.208 71.6167C176.12 71.6392 176.029 71.6506 175.938 71.6506ZM180.068 52.7268C179.556 52.7268 178.96 53.0306 178.355 53.6134C177.225 54.7037 176.583 56.3906 176.263 58.3024C179.384 57.7361 180.913 56.3695 181.291 55.0507C181.578 54.0521 181.192 53.2068 180.662 52.8884C180.483 52.781 180.279 52.7251 180.07 52.7268H180.068Z" fill="#02004E"/>
<path d="M172.406 80.0823C167.88 80.0823 164.683 78.6442 164.482 78.5524C164.227 78.4223 164.033 78.1989 163.94 77.929C163.846 77.6591 163.861 77.3635 163.98 77.1041C164.1 76.8446 164.315 76.6414 164.581 76.5369C164.847 76.4324 165.143 76.4347 165.407 76.5434C165.499 76.5865 172.155 79.5317 179.541 76.447C179.812 76.3339 180.116 76.3331 180.388 76.4447C180.659 76.5564 180.875 76.7713 180.988 77.0422C181.101 77.3131 181.102 77.6178 180.991 77.8894C180.879 78.1609 180.664 78.3769 180.393 78.49C177.863 79.5458 175.148 80.0871 172.406 80.0823Z" fill="#02004E"/>
<path d="M172.385 76.1037C167.859 76.1037 164.661 74.6656 164.46 74.5738C164.198 74.4485 163.995 74.2249 163.897 73.9514C163.798 73.678 163.81 73.3766 163.932 73.1124C164.053 72.8482 164.274 72.6425 164.546 72.5396C164.818 72.4368 165.12 72.4452 165.386 72.5629C165.453 72.5932 172.118 75.5577 179.519 72.4711C179.654 72.4152 179.797 72.3863 179.943 72.3859C180.088 72.3855 180.232 72.4138 180.366 72.4691C180.5 72.5243 180.623 72.6055 180.726 72.708C180.829 72.8105 180.91 72.9322 180.966 73.0663C181.022 73.2004 181.051 73.3442 181.052 73.4895C181.052 73.6348 181.024 73.7787 180.968 73.913C180.913 74.0474 180.832 74.1695 180.729 74.2725C180.627 74.3755 180.505 74.4573 180.371 74.5132C177.841 75.5687 175.126 76.1094 172.385 76.1037Z" fill="#02004E"/>
<path d="M154.706 78.9773C154.373 78.7213 155.482 76.7187 157.184 74.5041C158.887 72.2894 160.535 70.7008 160.868 70.9568C161.201 71.2129 160.092 73.2155 158.39 75.4301C156.689 77.6447 155.039 79.2334 154.706 78.9773Z" fill="white"/>
<path d="M137.007 76.8811C136.745 76.5525 138.899 74.4031 141.818 72.0774C144.736 69.7517 147.314 68.1364 147.576 68.465C147.838 68.7936 145.685 70.943 142.766 73.2678C139.847 75.5925 137.268 77.2096 137.007 76.8811Z" fill="white"/>
<path d="M137.461 65.9108C137.203 65.5786 137.939 64.5782 139.105 63.6769C140.271 62.7757 141.422 62.314 141.675 62.6463C141.927 62.9785 141.196 63.9789 140.031 64.8801C138.866 65.7814 137.718 66.243 137.461 65.9108Z" fill="white"/>
<path d="M128.908 61.5835C128.768 61.1879 131.483 59.859 134.974 58.6163C138.464 57.3736 141.409 56.6889 141.551 57.0827C141.692 57.4764 138.975 58.8072 135.484 60.0499C131.993 61.2925 129.049 61.9763 128.908 61.5835Z" fill="white"/>
<path d="M133.72 47.6093C133.71 47.1889 135.364 46.8099 137.413 46.7622C139.463 46.7144 141.131 47.0173 141.141 47.4367C141.152 47.8562 139.498 48.2361 137.448 48.2839C135.399 48.3316 133.729 48.0287 133.72 47.6093Z" fill="white"/>
<path d="M126.731 34.406C126.873 34.0104 129.634 34.6364 132.899 35.8038C136.163 36.9712 138.695 38.2378 138.554 38.6333C138.413 39.0289 135.651 38.403 132.387 37.2365C129.122 36.07 126.59 34.8016 126.731 34.406Z" fill="white"/>
<path d="M139.708 27.5337C139.998 27.229 141.275 27.9705 142.563 29.1912C143.85 30.4118 144.66 31.6472 144.371 31.9528C144.082 32.2584 142.804 31.515 141.517 30.2953C140.229 29.0756 139.419 27.8411 139.708 27.5337Z" fill="white"/>
<path d="M143.955 11.3605C144.286 11.1008 146.61 13.5173 149.145 16.7561C151.681 19.995 153.467 22.831 153.137 23.0889C152.806 23.3468 150.483 20.9321 147.947 17.6932C145.411 14.4543 143.624 11.6193 143.955 11.3605Z" fill="white"/>
<path d="M160.55 12.1232C160.952 11.9984 161.743 13.4035 162.316 15.2602C162.89 17.1168 163.031 18.723 162.629 18.8469C162.227 18.9708 161.436 17.5666 160.863 15.7099C160.289 13.8532 160.149 12.2471 160.55 12.1232Z" fill="white"/>
<path d="M169.556 0.000144224C169.975 -0.0255537 170.535 3.47946 170.807 7.83068C171.078 12.1819 170.959 15.7291 170.54 15.7557C170.12 15.7824 169.56 12.2764 169.288 7.92521C169.015 3.574 169.136 0.0258422 169.556 0.000144224Z" fill="white"/>
<path d="M181.657 12.2186C182.071 12.2893 182.176 13.6963 181.889 15.3602C181.603 17.0241 181.036 18.3155 180.622 18.2448C180.208 18.1741 180.103 16.7662 180.39 15.1023C180.676 13.4384 181.243 12.147 181.657 12.2186Z" fill="white"/>
<path d="M199.203 8.40887C199.564 8.62547 198.215 11.5293 196.191 14.8875C194.167 18.2457 192.235 20.799 191.877 20.5778C191.52 20.3566 192.866 17.4573 194.89 14.0982C196.913 10.7391 198.843 8.19136 199.203 8.40887Z" fill="white"/>
<path d="M202.92 24.5968C203.239 24.8721 202.498 26.2488 201.268 27.6814C200.038 29.1141 198.781 30.0475 198.462 29.774C198.144 29.5005 198.884 28.122 200.114 26.6884C201.345 25.2548 202.602 24.3214 202.92 24.5968Z" fill="white"/>
<path d="M218.934 29.4215C219.099 29.8079 215.857 31.5572 211.695 33.3285C207.533 35.0999 204.026 36.2214 203.862 35.835C203.698 35.4486 206.937 33.6993 211.1 31.928C215.262 30.1567 218.77 29.0352 218.934 29.4215Z" fill="white"/>
<path d="M212.396 43.6811C212.439 44.0987 210.582 44.6338 208.246 44.8743C205.91 45.1147 203.983 44.9734 203.94 44.5558C203.897 44.1382 205.754 43.6031 208.09 43.3627C210.426 43.1222 212.353 43.2626 212.396 43.6811Z" fill="white"/>
<path d="M217.313 57.7003C217.207 58.1069 214.233 57.6801 210.671 56.7476C207.109 55.8152 204.307 54.7285 204.414 54.3229C204.522 53.9172 207.494 54.343 211.056 55.2755C214.618 56.208 217.419 57.2937 217.313 57.7003Z" fill="white"/>
<path d="M208.297 61.6578C208.113 62.0359 207.019 61.8817 205.855 61.3145C204.69 60.7474 203.895 59.981 204.079 59.6029C204.262 59.2248 205.356 59.3789 206.521 59.947C207.686 60.5152 208.48 61.2806 208.297 61.6578Z" fill="white"/>
<path d="M209.216 71.97C208.993 72.3261 206.719 71.3065 204.135 69.6912C201.552 68.0759 199.638 66.4789 199.861 66.1228C200.084 65.7667 202.358 66.7864 204.942 68.4017C207.526 70.017 209.439 71.6139 209.216 71.97Z" fill="white"/>
<path d="M191.535 74.9345C191.222 75.2098 189.938 74.292 188.668 72.8695C187.398 71.4469 186.622 70.0711 186.935 69.7912C187.249 69.5113 188.532 70.4337 189.803 71.8553C191.073 73.277 191.853 74.6536 191.535 74.9345Z" fill="white"/>
<g opacity="0.25">
<path d="M107.915 152.628C98.9204 162.052 85.3371 168.053 70.1377 168.053C60.9957 168.053 52.4364 165.879 45.1079 162.094C44.1452 161.604 43.2063 161.076 42.2903 160.525C39.6693 158.964 37.2055 157.153 34.9333 155.117C39.3011 152.059 43.1016 149.61 45.4879 148.117C46.089 146.211 46.714 144.453 47.3528 142.875C49.7996 136.846 98.7818 129.319 106.893 148.006C107.101 148.88 107.296 149.742 107.481 150.592C107.632 151.277 107.775 151.952 107.915 152.628Z" fill="#02004E"/>
</g>
<path d="M136.969 111.291C134.86 121.767 130.074 131.518 123.077 139.595C121.602 141.301 120.036 142.928 118.387 144.468C117.579 145.227 116.735 145.969 115.876 146.701C108.551 152.862 99.9322 157.294 90.6594 159.667C89.481 159.966 88.2982 160.232 87.1112 160.466C65.3763 164.717 42.0526 157.591 26.7027 139.816C4.08483 113.634 7.34388 74.2654 33.9715 51.8834C38.9711 47.6761 44.5893 44.2647 50.6284 41.7694C51.3161 41.4788 52.0121 41.2056 52.7164 40.9499C54.5911 40.2487 56.4879 39.6399 58.4066 39.1235C67.2182 36.7639 76.4299 36.2984 85.4344 37.7578C86.8533 37.9879 88.2655 38.266 89.6709 38.5921C102.679 41.6144 114.398 48.6762 123.147 58.7659C136.157 73.8249 140.602 93.247 136.969 111.291Z" fill="white"/>
<g opacity="0.25">
<path d="M26.7027 139.813C42.0517 157.593 65.3781 164.719 87.1122 160.463C88.2992 160.23 89.481 159.964 90.6576 159.665C99.9295 157.285 108.548 152.854 115.878 146.697C116.736 145.963 117.578 145.223 118.388 144.465C120.036 142.923 121.601 141.296 123.077 139.59C128.448 133.388 132.533 126.181 135.095 118.387C137.656 110.593 138.644 102.368 138 94.1896C135.755 104.136 131.086 113.374 124.409 121.081C122.935 122.789 121.369 124.416 119.72 125.956C118.913 126.715 118.068 127.454 117.21 128.188C109.887 134.352 101.27 138.785 91.9975 141.16C90.8173 141.459 89.6339 141.724 88.4475 141.957C66.7144 146.211 43.3917 139.086 28.039 121.307C19.0796 110.936 14.185 98.4995 13.1901 85.8699C9.0179 104.31 13.3508 124.36 26.7027 139.813Z" fill="#02004E"/>
</g>
<path d="M74.7856 162.821C56.1316 162.821 38.1375 154.836 25.8245 140.573C14.7258 127.724 9.354 111.364 10.6995 94.5071C12.0587 77.5162 20.0554 62.0635 33.2256 50.9931C38.3163 46.7086 44.0374 43.235 50.1871 40.6947C50.8498 40.4193 51.55 40.144 52.3173 39.8586C54.2107 39.151 56.1601 38.526 58.0993 38.0019C67.0696 35.5982 76.4476 35.1243 85.6145 36.6115C87.0756 36.8483 88.5266 37.1337 89.9281 37.4604C103.176 40.5386 115.111 47.7297 124.023 58.0041C136.834 72.8327 141.967 92.3393 138.107 111.517C135.949 122.185 131.074 132.116 123.955 140.35C122.453 142.087 120.86 143.743 119.182 145.311C118.423 146.025 117.587 146.768 116.631 147.58C109.171 153.858 100.392 158.376 90.9468 160.796C89.7537 161.098 88.5395 161.37 87.3363 161.609C83.2015 162.416 78.9984 162.822 74.7856 162.821ZM75.1105 38.0827C74.0556 38.0827 73.0023 38.1093 71.9505 38.1625C67.4739 38.382 63.0336 39.0792 58.7051 40.2422C56.8328 40.747 54.9541 41.35 53.1213 42.0346C52.3871 42.3045 51.7171 42.566 51.0801 42.8359C45.1476 45.2877 39.6284 48.6393 34.717 52.7727C22.0268 63.4365 14.3183 78.3248 13.0123 94.6916C11.7164 110.925 16.8899 126.681 27.5803 139.056C42.1033 155.875 64.8313 163.641 86.8884 159.327C88.0494 159.098 89.2232 158.834 90.376 158.543C99.4774 156.206 107.938 151.855 115.131 145.809C116.049 145.027 116.86 144.309 117.595 143.62C119.214 142.106 120.752 140.509 122.202 138.833C129.059 130.903 133.754 121.337 135.833 111.061C139.552 92.5899 134.609 73.8047 122.268 59.5221C115.114 51.2462 105.888 45.021 95.5358 41.484C93.5234 40.7931 91.4772 40.2052 89.405 39.7228C88.0549 39.4089 86.6516 39.1335 85.2465 38.905C81.8954 38.359 78.5058 38.084 75.1105 38.0827Z" fill="#02004E"/>
<path d="M74.7856 163.048C56.0628 163.048 38.01 155.033 25.652 140.721C14.5129 127.826 9.1218 111.407 10.4719 94.4888C11.8329 77.4373 19.8599 61.9276 33.076 50.8188C38.1843 46.5188 43.9256 43.0331 50.0972 40.4845C50.7644 40.1991 51.4684 39.9237 52.2393 39.6484C54.1382 38.9399 56.094 38.3121 58.0443 37.7862C67.0457 35.3746 76.4562 34.8988 85.6549 36.3903C87.1234 36.628 88.5771 36.9153 89.9841 37.2429C92.1405 37.7456 94.2698 38.3582 96.3636 39.0785C107.141 42.7604 116.747 49.2413 124.195 57.8573C137.054 72.74 142.206 92.3154 138.329 111.564C136.163 122.271 131.271 132.237 124.127 140.5C122.618 142.243 121.018 143.906 119.334 145.48C118.571 146.196 117.733 146.941 116.774 147.755C109.289 154.054 100.48 158.585 91.0028 161.012C89.8042 161.315 88.5863 161.589 87.3794 161.827C83.2306 162.639 79.0131 163.048 74.7856 163.048ZM75.1105 38.3112C74.0605 38.3112 73.0112 38.3375 71.9625 38.3901C67.502 38.6089 63.0776 39.3036 58.7647 40.4625C56.8989 40.9654 55.0266 41.5638 53.2011 42.2476C52.4669 42.5174 51.8024 42.7781 51.1692 43.046C45.2574 45.4874 39.7576 48.8261 34.8638 52.9444C22.2213 63.5714 14.5413 78.4046 13.239 94.7099C11.9486 110.882 17.1065 126.578 27.7528 138.907C42.2226 155.664 64.8662 163.402 86.8444 159.104C88.0017 158.875 89.1719 158.612 90.3191 158.322C99.3868 155.993 107.816 151.657 114.984 145.635C115.901 144.855 116.706 144.14 117.438 143.453C119.05 141.945 120.582 140.352 122.027 138.681C128.859 130.781 133.538 121.251 135.61 111.013C139.315 92.6119 134.389 73.8974 122.096 59.669C113.536 49.8026 102.076 42.8958 89.3545 39.9366C88.009 39.6236 86.6149 39.3492 85.2116 39.1216C81.8718 38.5805 78.4938 38.3094 75.1105 38.3112Z" fill="#02004E"/>
<path d="M131.798 126.454C104.056 161.743 50.4322 159.231 34.6656 117.959C23.9394 89.8806 43.5791 57.7582 71.6284 49.2402C92.0427 43.0442 114.695 45.7829 133.013 74.3563C133.013 74.3563 139.136 88.247 138.188 99.0447C137.24 109.842 134.471 120.192 134.471 120.192L131.798 126.454Z" fill="#02004E"/>
<path d="M34.6674 117.959C50.4331 159.23 104.057 161.738 131.799 126.456L132.34 125.186C95.5367 144.053 49.4951 133.06 32.7657 91.6262C30.9366 100.245 31.3588 109.294 34.6674 117.959Z" fill="#220F2D"/>
<path d="M82.5721 158.982C74.0477 158.982 65.6848 157.324 58.0672 154.006C43.6681 147.739 32.9392 136.265 27.0397 120.827C21.6202 106.647 22.6132 90.7121 29.8454 75.956C37.8741 59.5644 52.7166 46.7282 69.545 41.618C78.8973 38.7775 87.831 37.8624 96.0975 38.8977L96.2498 38.917L96.3948 38.9665C107.193 42.6577 116.816 49.1524 124.278 57.7857C137.158 72.6942 142.319 92.3036 138.437 111.585C136.267 122.31 131.367 132.294 124.211 140.572C122.699 142.317 121.097 143.982 119.41 145.559C118.647 146.276 117.807 147.022 116.847 147.838C114.217 150.049 111.417 152.05 108.472 153.821L108.263 153.925C99.9301 157.296 91.1717 158.982 82.5721 158.982ZM89.3637 41.4785C83.343 41.4785 76.9947 42.4826 70.4123 44.4815C54.3686 49.3558 40.2035 61.6138 32.5326 77.2776C25.674 91.2793 24.715 106.371 29.8334 119.764C35.4393 134.434 45.6193 145.327 59.2594 151.267C73.8017 157.599 91.2066 157.571 107.031 151.197C109.801 149.524 112.437 147.638 114.914 145.556C115.832 144.778 116.633 144.065 117.363 143.379C118.974 141.874 120.504 140.285 121.946 138.618C128.766 130.73 133.434 121.216 135.501 110.995C139.199 92.6266 134.283 73.946 122.009 59.7424C114.931 51.5517 105.812 45.3792 95.5771 41.8511C93.5164 41.6009 91.4423 41.4764 89.3664 41.4785H89.3637Z" fill="#02004E"/>
<path d="M7.04398 123.609C10.0002 135.557 19.636 143.817 28.5688 142.073C37.5016 140.329 42.3456 129.232 39.3885 117.293C39.372 117.218 39.35 117.139 39.3289 117.064C36.3094 105.244 26.7341 97.0925 17.8647 98.8262C10.9638 100.172 6.5034 107.106 6.19319 115.689C6.1086 118.355 6.39493 121.021 7.04398 123.609Z" fill="white"/>
<g opacity="0.25">
<path d="M7.0439 123.609C10.0001 135.557 19.6359 143.817 28.5687 142.073C37.5015 140.329 42.3456 129.232 39.3885 117.293C39.3719 117.218 39.3499 117.139 39.3288 117.064C38.6496 118.482 37.4207 119.987 35.2492 119.985C31.445 119.979 23.0354 113.571 23.0354 113.571C23.0354 113.571 15.7252 114.443 6.19312 115.691C6.10877 118.357 6.39511 121.022 7.0439 123.609Z" fill="#02004E"/>
</g>
<path d="M26.1924 143.922C17.2697 143.922 8.34061 135.582 5.47345 123.998C3.65165 116.64 4.55016 109.373 7.93862 104.059C10.2946 100.364 13.6197 98.0021 17.5542 97.2348C27.3048 95.3295 37.807 104.15 40.9623 116.899C42.7814 124.258 41.8865 131.526 38.4907 136.842C36.1348 140.538 32.8097 142.899 28.8751 143.666C27.9912 143.838 27.0928 143.924 26.1924 143.922ZM8.61411 123.221C11.361 134.32 20.1718 142.066 28.2547 140.485C31.2981 139.891 33.8936 138.028 35.7612 135.098C38.6321 130.601 39.3993 124.085 37.8134 117.678C35.0665 106.578 26.2493 98.8318 18.1728 100.413C15.1295 101.008 12.534 102.871 10.6663 105.8C7.79544 110.302 7.02818 116.813 8.61411 123.221Z" fill="#02004E"/>
<path d="M24.3931 140.215C31.3671 137.759 34.3869 128.289 31.1379 119.063C27.889 109.837 19.6016 104.349 12.6276 106.805C5.65357 109.261 2.63379 118.731 5.88273 127.957C9.13168 137.183 17.419 142.671 24.3931 140.215Z" fill="white"/>
<g opacity="0.25">
<path d="M32.6087 127.792C32.6335 124.439 31.7248 121.07 30.1609 118.079C29.4524 125.723 23.6575 130.183 16.6585 128.164C12.1347 126.862 8.15064 123.148 5.73687 118.519C5.68914 119.001 5.66711 119.501 5.66252 120.01C5.6047 128.55 11.5905 137.215 19.0337 139.364C26.477 141.512 32.5508 136.328 32.6087 127.792Z" fill="#02004E"/>
</g>
<path d="M21.1796 142.334C14.2164 142.334 7.06869 135.338 4.65125 125.734C3.09101 119.527 3.78302 113.28 6.50884 109.023C8.26915 106.269 10.7306 104.535 13.6263 103.992C21.1347 102.584 29.3855 109.958 32.0196 120.421C33.5798 126.628 32.8878 132.875 30.162 137.132C28.4026 139.881 25.9402 141.621 23.0455 142.163C22.4301 142.277 21.8055 142.335 21.1796 142.334ZM15.5637 106.806C15.0985 106.806 14.6342 106.848 14.1769 106.934C12.1128 107.32 10.3332 108.601 9.02908 110.637C6.74104 114.217 6.18945 119.582 7.5542 125.003C9.80919 133.964 16.5173 140.34 22.4939 139.221C24.558 138.833 26.3385 137.553 27.6417 135.517C29.9307 131.938 30.4823 126.572 29.1175 121.15C27.0351 112.878 21.1613 106.806 15.5637 106.806Z" fill="#02004E"/>
<g opacity="0.5">
<path d="M61.1234 66.6377C61.1234 66.6377 87.6547 60.3692 106.536 70.7778L106.596 70.8099C110.554 72.9991 113.855 76.2056 116.158 80.0979C119.193 85.2237 120.522 89.1968 121.556 92.7395C124.692 103.516 124.115 109.15 124.115 109.15C128.681 101.678 130.306 94.2116 127.786 85.21C127.535 84.3234 127.244 83.4197 126.913 82.4988C126.838 82.2859 126.759 82.0776 126.675 81.8683C126.675 81.8683 126.675 81.861 126.669 81.8564C125.653 79.5553 124.498 77.3179 123.211 75.1566C118.647 67.4922 110.729 58.0573 98.7287 56.0593C76.2833 52.3203 59.8945 65.7695 61.1234 66.6377Z" fill="white"/>
</g>
<g opacity="0.5">
<path d="M49.1016 109.517C53.7718 109.473 57.5167 105.089 57.4661 99.724C57.4156 94.3594 53.5887 90.0462 48.9185 90.0903C44.2483 90.1343 40.5034 94.5188 40.554 99.8834C40.6045 105.248 44.4314 109.561 49.1016 109.517Z" fill="white"/>
</g>
<g opacity="0.5">
<path d="M52.8165 117.744C53.0015 115.536 51.5943 113.615 49.6734 113.454C47.7525 113.293 46.0453 114.953 45.8602 117.161C45.6752 119.37 47.0824 121.29 49.0033 121.451C50.9242 121.612 52.6314 119.952 52.8165 117.744Z" fill="white"/>
</g>
</svg>
