<svg width="508" height="608" viewBox="0 0 508 608" fill="none" xmlns="http://www.w3.org/2000/svg">
<mask id="mask0_9_1532" style="mask-type:luminance" maskUnits="userSpaceOnUse" x="5" y="484" width="147" height="90">
<path d="M5.75073 570.63C65.5576 544.682 84.7278 586.075 122.656 569.616C160.583 553.156 150.835 509.197 150.835 509.197C150.835 509.197 125.384 472.044 87.4583 488.513C49.5326 504.983 65.5576 544.682 5.75073 570.63Z" fill="white"/>
</mask>
<g mask="url(#mask0_9_1532)">
<path d="M5.75098 570.638L13.962 586.083H5.75098V570.638Z" fill="#EC1C24"/>
<path d="M5.75098 568.717L14.9842 586.083H13.962L5.75098 570.638V568.717Z" fill="#EC1C24"/>
<path d="M5.75098 566.797L16.0064 586.083H14.9842L5.75098 568.717V566.797Z" fill="#EC1C24"/>
<path d="M5.75098 564.876L17.0267 586.083H16.0064L5.75098 566.797V564.876Z" fill="#EC1C24"/>
<path d="M5.75098 562.954L18.0489 586.083H17.0267L5.75098 564.876V562.954Z" fill="#EC1C24"/>
<path d="M5.75098 561.033L19.0711 586.083H18.0489L5.75098 562.953V561.033Z" fill="#EC1C24"/>
<path d="M5.75098 559.112L20.0913 586.083H19.0711L5.75098 561.033V559.112Z" fill="#EC1C24"/>
<path d="M5.75098 557.192L21.1135 586.083H20.0913L5.75098 559.112V557.192Z" fill="#EC1D24"/>
<path d="M5.75098 555.269L22.1357 586.083H21.1135L5.75098 557.192V555.269Z" fill="#EC1D24"/>
<path d="M5.75098 553.349L23.156 586.083H22.1357L5.75098 555.269V553.349Z" fill="#EC1D24"/>
<path d="M5.75098 551.428L24.1782 586.083H23.156L5.75098 553.349V551.428Z" fill="#EC1D24"/>
<path d="M5.75098 549.506L25.2004 586.083H24.1782L5.75098 551.428V549.506Z" fill="#EC1D24"/>
<path d="M5.75098 547.585L26.2206 586.083H25.2004L5.75098 549.506V547.585Z" fill="#EC1E24"/>
<path d="M5.75098 545.664L27.2428 586.083H26.2206L5.75098 547.585V545.664Z" fill="#EC1E24"/>
<path d="M5.75098 543.744L28.265 586.083H27.2428L5.75098 545.665V543.744Z" fill="#EC1E24"/>
<path d="M5.75098 541.821L29.2853 586.083H28.265L5.75098 543.744V541.821Z" fill="#EC1F24"/>
<path d="M5.75098 539.901L30.3075 586.083H29.2853L5.75098 541.821V539.901Z" fill="#EC1F24"/>
<path d="M5.75098 537.98L31.3297 586.083H30.3075L5.75098 539.901V537.98Z" fill="#EC1F24"/>
<path d="M5.75098 536.06L32.3499 586.083H31.3297L5.75098 537.98V536.06Z" fill="#EC2024"/>
<path d="M5.75098 534.137L33.3721 586.083H32.3499L5.75098 536.06V534.137Z" fill="#EC2024"/>
<path d="M5.75098 532.217L34.3943 586.083H33.3721L5.75098 534.137V532.217Z" fill="#EC2024"/>
<path d="M5.75098 530.296L35.4146 586.083H34.3943L5.75098 532.217V530.296Z" fill="#ED2124"/>
<path d="M5.75098 528.374L36.4368 586.083H35.4146L5.75098 530.296V528.374Z" fill="#ED2124"/>
<path d="M5.75098 526.453L37.459 586.083H36.4368L5.75098 528.374V526.453Z" fill="#ED2124"/>
<path d="M5.75098 526.034L6.37216 525.704L38.4792 586.083H37.459L5.75098 526.453V526.034Z" fill="#ED2224"/>
<path d="M6.37207 525.704L7.17018 525.279L39.5013 586.083H38.4791L6.37207 525.704Z" fill="#ED2224"/>
<path d="M7.17017 525.279L7.96631 524.857L40.5235 586.083H39.5013L7.17017 525.279Z" fill="#ED2324"/>
<path d="M7.96631 524.857L8.76245 524.434L41.5438 586.083H40.5235L7.96631 524.857Z" fill="#ED2324"/>
<path d="M8.76221 524.434L9.55835 524.01L42.5657 586.083H41.5435L8.76221 524.434Z" fill="#ED2424"/>
<path d="M9.55859 524.01L10.3547 523.587L43.5882 586.083H42.566L9.55859 524.01Z" fill="#ED2424"/>
<path d="M10.3545 523.587L11.1506 523.162L44.6082 586.083H43.5879L10.3545 523.587Z" fill="#ED2524"/>
<path d="M11.1506 523.162L11.9468 522.74L45.6304 586.083H44.6082L11.1506 523.162Z" fill="#ED2524"/>
<path d="M11.947 522.74L12.7432 522.315L46.6528 586.083H45.6306L11.947 522.74Z" fill="#ED2624"/>
<path d="M12.7429 522.315L13.541 521.892L47.6728 586.083H46.6526L12.7429 522.315Z" fill="#ED2624"/>
<path d="M13.5413 521.892L14.3374 521.47L48.6953 586.083H47.6731L13.5413 521.892Z" fill="#ED2724"/>
<path d="M14.3372 521.47L15.1333 521.045L49.7172 586.083H48.695L14.3372 521.47Z" fill="#ED2724"/>
<path d="M15.1335 521.045L15.9297 520.622L50.7397 586.083H49.7175L15.1335 521.045Z" fill="#ED2824"/>
<path d="M15.9297 520.623L16.7258 520.198L51.7599 586.083H50.7397L15.9297 520.623Z" fill="#ED2824"/>
<path d="M16.7256 520.198L17.5217 519.775L52.7819 586.083H51.7597L16.7256 520.198Z" fill="#ED2924"/>
<path d="M17.522 519.775L18.3181 519.35L53.8024 586.083H52.7821L17.522 519.775Z" fill="#ED2A24"/>
<path d="M18.3179 519.351L19.114 518.928L54.8243 586.083H53.8021L18.3179 519.351Z" fill="#EE2A24"/>
<path d="M19.1143 518.928L19.9124 518.505L55.8468 586.083H54.8246L19.1143 518.928Z" fill="#EE2B24"/>
<path d="M19.9121 518.505L20.7083 518.081L56.8687 586.083H55.8465L19.9121 518.505Z" fill="#EE2B24"/>
<path d="M20.7085 518.081L21.5046 517.658L57.8892 586.083H56.869L20.7085 518.081Z" fill="#EE2C24"/>
<path d="M21.5044 517.658L22.3005 517.233L58.9112 586.083H57.889L21.5044 517.658Z" fill="#EE2D24"/>
<path d="M22.3005 517.233L23.0967 516.811L59.9314 586.083H58.9112L22.3005 517.233Z" fill="#EE2D24"/>
<path d="M23.0969 516.811L23.8931 516.388L60.9539 586.083H59.9317L23.0969 516.811Z" fill="#EE2E24"/>
<path d="M23.8928 516.388L24.689 515.964L61.9758 586.083H60.9536L23.8928 516.388Z" fill="#EE2F24"/>
<path d="M24.6892 515.964L25.4853 515.541L62.9983 586.083H61.9761L24.6892 515.964Z" fill="#EE2F24"/>
<path d="M25.4851 515.541L26.2832 515.116L64.0183 586.083H62.9981L25.4851 515.541Z" fill="#EE3024"/>
<path d="M26.2834 515.116L27.0796 514.694L65.0407 586.083H64.0185L26.2834 515.116Z" fill="#EE3124"/>
<path d="M27.0796 514.694L27.8757 514.269L66.0629 586.083H65.0407L27.0796 514.694Z" fill="#EE3224"/>
<path d="M27.8755 514.269L28.6716 513.846L67.0829 586.083H66.0627L27.8755 514.269Z" fill="#EE3225"/>
<path d="M28.6719 513.846L29.468 513.424L68.1054 586.083H67.0832L28.6719 513.846Z" fill="#EF3325"/>
<path d="M29.4678 513.424L30.2639 512.999L69.1273 586.083H68.1051L29.4678 513.424Z" fill="#EF3425"/>
<path d="M30.2642 512.999L31.0603 512.577L70.1478 586.083H69.1276L30.2642 512.999Z" fill="#EF3525"/>
<path d="M31.0603 512.576L31.8564 512.152L71.17 586.083H70.1478L31.0603 512.576Z" fill="#EF3525"/>
<path d="M31.8562 512.152L32.6543 511.729L72.192 586.083H71.1698L31.8562 512.152Z" fill="#EF3625"/>
<path d="M32.6543 511.729L33.4504 511.305L73.2122 586.083H72.192L32.6543 511.729Z" fill="#EF3725"/>
<path d="M33.4504 511.305L34.2466 510.882L74.2344 586.083H73.2122L33.4504 511.305Z" fill="#EF3825"/>
<path d="M34.2468 510.882L35.043 510.459L75.2569 586.083H74.2347L34.2468 510.882Z" fill="#EF3925"/>
<path d="M35.0427 510.459L35.8389 510.035L76.2769 586.083H75.2566L35.0427 510.459Z" fill="#EF3925"/>
<path d="M35.8391 510.035L36.6353 509.612L77.2993 586.083H76.2771L35.8391 510.035Z" fill="#EF3A25"/>
<path d="M36.635 509.612L37.4311 509.188L78.3213 586.083H77.2991L36.635 509.612Z" fill="#EF3B25"/>
<path d="M37.4312 509.187L38.2273 508.765L79.3415 586.083H78.3213L37.4312 509.187Z" fill="#EF3C25"/>
<path d="M38.2275 508.765L39.0237 508.34L80.364 586.083H79.3418L38.2275 508.765Z" fill="#F03D25"/>
<path d="M39.0234 508.34L39.8215 507.918L81.386 586.083H80.3638L39.0234 508.34Z" fill="#F03E25"/>
<path d="M39.8218 507.918L40.6179 507.495L82.4064 586.083H81.3862L39.8218 507.918Z" fill="#F03E25"/>
<path d="M40.6177 507.495L41.4138 507.07L83.4284 586.083H82.4062L40.6177 507.495Z" fill="#F03F25"/>
<path d="M41.4141 507.07L42.2102 506.648L84.4508 586.083H83.4286L41.4141 507.07Z" fill="#F04025"/>
<path d="M42.21 506.648L43.0061 506.223L85.4708 586.083H84.4506L42.21 506.648Z" fill="#F04125"/>
<path d="M43.0061 506.223L43.8022 505.8L86.4931 586.083H85.4708L43.0061 506.223Z" fill="#F04225"/>
<path d="M43.802 505.801L44.5981 505.376L87.515 586.083H86.4928L43.802 505.801Z" fill="#F04325"/>
<path d="M44.5984 505.376L45.3945 504.953L88.5355 586.083H87.5153L44.5984 505.376Z" fill="#F04425"/>
<path d="M45.3945 504.953L46.1926 504.531L89.5577 586.083H88.5355L45.3945 504.953Z" fill="#F04525"/>
<path d="M46.1926 504.53L46.9888 504.106L90.5799 586.083H89.5577L46.1926 504.53Z" fill="#F14625"/>
<path d="M46.989 504.106L47.7852 503.683L91.6024 586.083H90.5801L46.989 504.106Z" fill="#F14725"/>
<path d="M47.7849 503.683L48.581 503.259L92.6223 586.083H91.6021L47.7849 503.683Z" fill="#F14825"/>
<path d="M48.5811 503.259L49.3772 502.836L93.6446 586.083H92.6224L48.5811 503.259Z" fill="#F14925"/>
<path d="M49.3774 502.836L50.1736 502.411L94.665 586.083H93.6448L49.3774 502.836Z" fill="#F14A25"/>
<path d="M50.1733 502.412L50.9695 501.989L95.687 586.083H94.6648L50.1733 502.412Z" fill="#F14B25"/>
<path d="M50.9695 501.989L51.7656 501.566L96.7092 586.083H95.687L50.9695 501.989Z" fill="#F14C25"/>
<path d="M51.7659 501.566L52.562 501.142L97.7317 586.083H96.7095L51.7659 501.566Z" fill="#F14D25"/>
<path d="M52.5618 501.142L53.3599 500.719L98.7517 586.083H97.7314L52.5618 501.142Z" fill="#F14E25"/>
<path d="M53.3601 500.719L54.1563 500.294L99.7741 586.083H98.7519L53.3601 500.719Z" fill="#F24F25"/>
<path d="M54.156 500.294L54.9521 499.872L100.794 586.083H99.7739L54.156 500.294Z" fill="#F25025"/>
<path d="M54.9524 499.872L55.7485 499.447L101.817 586.083H100.794L54.9524 499.872Z" fill="#F25125"/>
<path d="M55.7483 499.447L56.5444 499.025L102.839 586.083H101.816L55.7483 499.447Z" fill="#F25225"/>
<path d="M56.5444 499.024L57.3406 498.602L103.641 585.668L102.862 586.083H102.839L56.5444 499.024Z" fill="#F25325"/>
<path d="M58.129 498.185L57.3323 498.609L103.627 585.677L104.424 585.254L58.129 498.185Z" fill="#F25425"/>
<path d="M58.9175 497.767L58.1208 498.19L104.416 585.259L105.213 584.835L58.9175 497.767Z" fill="#F25525"/>
<path d="M59.7229 497.338L58.9263 497.762L105.221 584.831L106.018 584.407L59.7229 497.338Z" fill="#F25625"/>
<path d="M60.5118 496.92L59.7151 497.343L106.01 584.412L106.807 583.988L60.5118 496.92Z" fill="#F25725"/>
<path d="M61.305 496.497L60.5083 496.921L106.803 583.99L107.6 583.566L61.305 496.497Z" fill="#F35825"/>
<path d="M62.1055 496.071L61.3088 496.495L107.604 583.563L108.401 583.14L62.1055 496.071Z" fill="#F35925"/>
<path d="M62.8992 495.65L62.1025 496.074L108.398 583.143L109.194 582.719L62.8992 495.65Z" fill="#F35A25"/>
<path d="M63.7022 495.222L62.9055 495.645L109.201 582.714L109.997 582.29L63.7022 495.222Z" fill="#F35C25"/>
<path d="M64.4927 494.803L63.696 495.226L109.991 582.295L110.788 581.871L64.4927 494.803Z" fill="#F35D25"/>
<path d="M65.2901 494.38L64.4934 494.804L110.789 581.872L111.585 581.449L65.2901 494.38Z" fill="#F35E26"/>
<path d="M66.0923 493.95L65.2957 494.373L111.591 581.442L112.388 581.018L66.0923 493.95Z" fill="#F35F26"/>
<path d="M66.8819 493.533L66.0852 493.957L112.38 581.025L113.177 580.602L66.8819 493.533Z" fill="#F36026"/>
<path d="M67.6863 493.101L66.8896 493.525L113.185 580.593L113.982 580.17L67.6863 493.101Z" fill="#F46126"/>
<path d="M68.4742 492.686L67.6775 493.11L113.973 580.178L114.769 579.755L68.4742 492.686Z" fill="#F46226"/>
<path d="M69.2698 492.264L68.4731 492.687L114.768 579.756L115.565 579.332L69.2698 492.264Z" fill="#F46426"/>
<path d="M70.0738 491.833L69.2771 492.257L115.572 579.326L116.369 578.902L70.0738 491.833Z" fill="#F46526"/>
<path d="M70.8633 491.417L70.0667 491.84L116.362 578.909L117.159 578.485L70.8633 491.417Z" fill="#F46626"/>
<path d="M71.6678 490.986L70.8711 491.409L117.166 578.478L117.963 578.054L71.6678 490.986Z" fill="#F46726"/>
<path d="M72.4571 490.569L71.6604 490.992L117.956 578.061L118.752 577.637L72.4571 490.569Z" fill="#F46826"/>
<path d="M73.2518 490.145L72.4551 490.568L118.75 577.637L119.547 577.213L73.2518 490.145Z" fill="#F46A26"/>
<path d="M74.0572 489.716L73.2605 490.14L119.556 577.208L120.352 576.785L74.0572 489.716Z" fill="#F56B26"/>
<path d="M74.8445 489.299L74.0479 489.723L120.343 576.792L121.14 576.368L74.8445 489.299Z" fill="#F56C26"/>
<path d="M75.649 488.869L74.8523 489.293L121.147 576.361L121.944 575.938L75.649 488.869Z" fill="#F56D26"/>
<path d="M76.4385 488.452L75.6418 488.876L121.937 575.945L122.734 575.521L76.4385 488.452Z" fill="#F56F26"/>
<path d="M77.2332 488.028L76.4365 488.452L122.732 575.52L123.528 575.097L77.2332 488.028Z" fill="#F57026"/>
<path d="M78.0403 487.599L77.2437 488.022L123.539 575.091L124.336 574.667L78.0403 487.599Z" fill="#F57126"/>
<path d="M78.8267 487.18L78.03 487.604L124.325 574.673L125.122 574.249L78.8267 487.18Z" fill="#F57226"/>
<path d="M79.6321 486.752L78.8354 487.175L125.131 574.244L125.927 573.821L79.6321 486.752Z" fill="#F67426"/>
<path d="M80.4195 486.335L79.6228 486.759L125.918 573.827L126.715 573.404L80.4195 486.335Z" fill="#F67526"/>
<path d="M81.2161 485.911L80.4194 486.334L126.715 573.403L127.511 572.979L81.2161 485.911Z" fill="#F67626"/>
<path d="M82.0196 485.48L81.2229 485.904L127.518 572.973L128.315 572.549L82.0196 485.48Z" fill="#F67726"/>
<path d="M82.8082 485.064L82.0115 485.488L128.307 572.556L129.103 572.133L82.8082 485.064Z" fill="#F67926"/>
<path d="M83.6136 484.634L82.8169 485.057L129.112 572.126L129.909 571.702L83.6136 484.634Z" fill="#F67A26"/>
<path d="M84.4019 484.216L83.6052 484.64L129.9 571.708L130.697 571.285L84.4019 484.216Z" fill="#F67B26"/>
<path d="M85.1993 483.794L84.4026 484.217L130.698 571.286L131.494 570.862L85.1993 483.794Z" fill="#F77D26"/>
<path d="M86.0027 483.363L85.2061 483.787L131.501 570.855L132.298 570.432L86.0027 483.363Z" fill="#F77E26"/>
<path d="M86.7911 482.947L85.9944 483.37L132.29 570.439L133.086 570.015L86.7911 482.947Z" fill="#F77F26"/>
<path d="M87.5945 482.516L86.7979 482.94L133.093 570.008L133.89 569.585L87.5945 482.516Z" fill="#F78126"/>
<path d="M88.3833 482.1L87.5867 482.523L133.882 569.592L134.679 569.168L88.3833 482.1Z" fill="#F78226"/>
<path d="M89.1807 481.677L88.384 482.101L134.679 569.169L135.476 568.746L89.1807 481.677Z" fill="#F78426"/>
<path d="M89.9842 481.247L89.1875 481.67L135.483 568.739L136.279 568.315L89.9842 481.247Z" fill="#F78526"/>
<path d="M90.7725 480.83L89.9758 481.254L136.271 568.323L137.068 567.899L90.7725 480.83Z" fill="#F88626"/>
<path d="M91.5777 480.399L90.781 480.823L137.076 567.891L137.873 567.468L91.5777 480.399Z" fill="#F88826"/>
<path d="M92.3665 479.98L91.5698 480.404L137.865 567.473L138.662 567.049L92.3665 479.98Z" fill="#F88927"/>
<path d="M93.1636 479.558L92.3669 479.982L138.662 567.05L139.459 566.627L93.1636 479.558Z" fill="#F88A27"/>
<path d="M93.9661 479.128L93.1694 479.551L139.465 566.62L140.261 566.196L93.9661 479.128Z" fill="#F88C27"/>
<path d="M94.7559 478.711L93.9592 479.135L140.254 566.203L141.051 565.78L94.7559 478.711Z" fill="#F88D27"/>
<path d="M95.5594 478.283L94.7627 478.706L141.058 565.775L141.855 565.351L95.5594 478.283Z" fill="#F98F27"/>
<path d="M96.3477 477.864L95.551 478.288L141.846 565.356L142.643 564.933L96.3477 477.864Z" fill="#F99027"/>
<path d="M97.1455 477.441L96.3489 477.865L142.644 564.934L143.441 564.51L97.1455 477.441Z" fill="#F99227"/>
<path d="M97.9495 477.01L97.1528 477.434L143.448 564.503L144.245 564.079L97.9495 477.01Z" fill="#F99327"/>
<path d="M98.7391 476.594L97.9424 477.017L144.238 564.086L145.034 563.662L98.7391 476.594Z" fill="#F99427"/>
<path d="M99.5413 476.163L98.7446 476.587L145.04 563.656L145.836 563.232L99.5413 476.163Z" fill="#F99627"/>
<path d="M100.331 475.747L99.5342 476.17L145.829 563.239L146.626 562.815L100.331 475.747Z" fill="#F99727"/>
<path d="M101.134 475.318L100.338 475.742L146.633 562.811L147.43 562.387L101.134 475.318Z" fill="#FA9927"/>
<path d="M101.923 474.9L101.126 475.323L147.422 562.392L148.218 561.968L101.923 474.9Z" fill="#FA9A27"/>
<path d="M102.72 474.477L101.924 474.901L148.219 561.969L149.016 561.546L102.72 474.477Z" fill="#FA9C27"/>
<path d="M103.523 474.047L102.726 474.471L149.021 561.539L149.818 561.116L103.523 474.047Z" fill="#FA9D27"/>
<path d="M104.314 473.629L103.517 474.053L149.813 561.122L150.609 560.698L104.314 473.629Z" fill="#FA9F27"/>
<path d="M105.116 473.199L104.32 473.623L150.615 560.691L151.411 560.268L105.116 473.199Z" fill="#FAA027"/>
<path d="M105.906 472.783L105.109 473.206L151.405 560.275L152.201 559.851L105.906 472.783Z" fill="#FBA227"/>
<path d="M106.701 472.36L105.905 472.784L152.2 559.852L152.997 559.429L106.701 472.36Z" fill="#FBA327"/>
<path d="M106.717 472.345L107.252 472.062H107.586L153.811 558.989L153.015 559.413L106.717 472.345Z" fill="#FBA527"/>
<path d="M108.608 472.062L154.608 558.566L153.811 558.989L107.586 472.062H108.608Z" fill="#FBA627"/>
<path d="M109.63 472.062L155.403 558.141L154.607 558.566L108.608 472.062H109.63Z" fill="#FBA827"/>
<path d="M110.651 472.062L156.202 557.719L155.404 558.141L109.63 472.062H110.651Z" fill="#FBAA27"/>
<path d="M111.673 472.062L156.998 557.296L156.202 557.719L110.651 472.062H111.673Z" fill="#FCAB27"/>
<path d="M112.695 472.062L157.794 556.871L156.998 557.296L111.673 472.062H112.695Z" fill="#FCAD27"/>
<path d="M113.717 472.062L158.59 556.449L157.794 556.871L112.695 472.062H113.717Z" fill="#FCAE27"/>
<path d="M114.737 472.062L159.386 556.024L158.59 556.449L113.717 472.062H114.737Z" fill="#FCB027"/>
<path d="M115.76 472.062L160.182 555.602L159.386 556.024L114.738 472.062H115.76Z" fill="#FCB127"/>
<path d="M116.782 472.062L160.581 554.432V555.389L160.182 555.602L115.76 472.062H116.782Z" fill="#FCB327"/>
<path d="M117.802 472.062L160.581 552.509V554.432L116.782 472.062H117.802Z" fill="#FDB528"/>
<path d="M118.824 472.062L160.582 550.589V552.509L117.802 472.062H118.824Z" fill="#FDB628"/>
<path d="M119.845 472.062L160.582 548.668V550.589L118.824 472.062H119.845Z" fill="#FDB828"/>
<path d="M120.867 472.062L160.581 546.748V548.668L119.844 472.062H120.867Z" fill="#FDB928"/>
<path d="M121.889 472.062L160.581 544.825V546.748L120.867 472.062H121.889Z" fill="#FDBB28"/>
<path d="M122.909 472.062L160.582 542.905V544.825L121.889 472.062H122.909Z" fill="#FEBD28"/>
<path d="M123.931 472.062L160.581 540.984V542.905L122.909 472.062H123.931Z" fill="#FEBE28"/>
<path d="M124.954 472.062L160.581 539.061V540.984L123.931 472.062H124.954Z" fill="#FEC028"/>
<path d="M125.976 472.062L160.581 537.141V539.061L124.953 472.062H125.976Z" fill="#FEC228"/>
<path d="M126.996 472.062L160.581 535.22V537.141L125.976 472.062H126.996Z" fill="#FEC328"/>
<path d="M128.018 472.062L160.581 533.3V535.22L126.996 472.062H128.018Z" fill="#FEC528"/>
<path d="M129.04 472.062L160.581 531.377V533.3L128.018 472.062H129.04Z" fill="#FFC728"/>
<path d="M130.061 472.062L160.581 529.457V531.377L129.04 472.062H130.061Z" fill="#FFC828"/>
<path d="M131.083 472.062L160.581 527.536V529.457L130.061 472.062H131.083Z" fill="#FFCA28"/>
<path d="M160.581 527.536L131.083 472.062H160.581V527.536Z" fill="#FFCA28"/>
</g>
<g opacity="0.5">
<path d="M33.3935 562.57C61.0186 538.609 56.8806 510.617 87.1851 497.464C125.113 481.004 150.562 518.148 150.562 518.148C150.562 518.148 151.448 522.158 151.647 528.202C152.669 517.483 150.835 509.199 150.835 509.199C150.835 509.199 125.384 472.046 87.4583 488.515C49.5326 504.985 65.5576 544.682 5.75073 570.63C16.073 566.158 25.1864 563.687 33.3935 562.57Z" fill="white"/>
</g>
<g opacity="0.3">
<path d="M150.131 537.182C145.71 544.206 138.96 550.632 128.748 555.071C97.3796 568.684 78.8403 542.72 39.5287 548.019C31.931 556.063 21.4593 563.828 5.75073 570.646C65.5576 544.697 84.7278 586.091 122.656 569.629C139.734 562.21 147.143 549.221 150.131 537.182Z" fill="#02004E"/>
</g>
<path d="M53.1064 550.996C87.9243 535.885 111.49 559.975 133.566 550.392C155.641 540.809 147.666 509.909 147.666 509.909C147.666 509.909 130.546 482.978 108.465 492.557C86.3831 502.136 87.9243 535.885 53.1064 550.996Z" fill="#FFD553"/>
<path d="M103.574 576.92C94.2324 576.92 85.5063 574.398 76.4814 571.79C58.2213 566.511 37.5256 560.534 5.29666 574.52C4.90633 574.699 4.48428 574.798 4.05521 574.811C3.62614 574.825 3.19868 574.753 2.79783 574.599C2.39699 574.445 2.03082 574.213 1.72077 573.917C1.41071 573.62 1.16299 573.264 0.992102 572.87C0.821218 572.476 0.730604 572.052 0.725564 571.623C0.720524 571.194 0.801159 570.768 0.96275 570.37C1.12434 569.972 1.36364 569.611 1.66664 569.307C1.96964 569.003 2.33026 568.762 2.72738 568.599C35.0015 554.591 45.0742 536.071 53.9634 519.73C61.3567 506.137 68.3411 493.296 86.1727 485.557C102.721 478.374 119.652 479.903 135.121 489.982C146.63 497.475 153.206 506.976 153.489 507.377C153.722 507.717 153.887 508.099 153.976 508.501C154.082 508.977 156.532 520.274 154.138 533.799C150.925 551.986 140.481 565.397 123.931 572.578C116.67 575.741 109.976 576.92 103.574 576.92ZM43.2735 559.366C56.7214 559.366 67.8693 562.588 78.2644 565.593C92.9389 569.834 105.614 573.496 121.362 566.663C154.106 552.452 148.73 515.678 147.792 510.508C144.533 506.044 121.771 477.141 88.7341 491.482C72.941 498.334 66.7705 509.681 59.6249 522.818C52.9864 535.022 45.7229 548.373 29.8984 560.422C34.3224 559.722 38.7944 559.369 43.2735 559.366Z" fill="#02004E"/>
<path d="M346.222 315.507C346.222 315.507 388.146 333.125 395.252 344.011C402.358 354.897 376.304 355.169 376.304 355.169" fill="white"/>
<path d="M376.304 358.896C375.729 358.896 375.162 358.763 374.648 358.507C374.133 358.251 373.685 357.88 373.338 357.422L343.261 317.756C342.767 317.103 342.502 316.306 342.507 315.487C342.512 314.668 342.786 313.874 343.288 313.227C343.79 312.58 344.491 312.116 345.283 311.908C346.075 311.7 346.913 311.759 347.668 312.075C352.068 313.925 390.861 330.467 398.374 341.982C401.012 346.024 400.34 349.177 399.302 351.107C395.531 358.155 380.778 358.851 376.347 358.896H376.304ZM357.993 324.87L378.11 351.396C385.077 351.068 391.782 349.372 392.732 347.597C392.822 347.427 392.643 346.828 392.142 346.049C388.578 340.6 372.477 331.746 357.993 324.87Z" fill="#02004E"/>
<path d="M170.233 223.137C153.949 235.343 139.024 293.459 142.797 328.11C146.569 362.761 207.807 365.348 242.829 364.225C277.852 363.103 277.73 283.915 277.272 262.703C276.55 229.567 194.361 205.05 170.233 223.137Z" fill="white"/>
<g opacity="0.25">
<path d="M242.827 364.223C207.805 365.348 146.569 362.749 142.789 328.106C142.291 323.237 142.106 318.34 142.236 313.447C151.908 321.051 165.383 314.283 167.005 304.994C177.031 247.594 198.412 225.577 208.75 218.034C240.258 222.451 276.79 240.672 277.26 262.71C277.728 283.909 277.847 363.095 242.827 364.223Z" fill="#02004E"/>
</g>
<path d="M230.618 368.141C188.299 368.141 142.584 360.579 139.093 328.507C135.443 294.99 149.329 234.15 167.99 220.157C184.542 207.753 222.725 213.67 248.611 226.273C269.194 236.298 280.69 249.2 280.981 262.616C281.821 301.468 277.995 366.814 242.937 367.938C238.898 368.068 234.774 368.141 230.618 368.141ZM195.079 220.68C185.446 220.68 177.365 222.449 172.472 226.115C157.434 237.385 142.871 294.35 146.502 327.701C149.889 358.815 208.228 361.605 242.715 360.5C273.271 359.517 274.046 285.454 273.556 262.777C273.332 252.441 263.059 241.576 245.371 232.966C228.931 224.967 210.111 220.68 195.079 220.68Z" fill="#02004E"/>
<path d="M173.669 281.267L158.126 275.071C157.298 274.741 156.409 274.591 155.518 274.63C154.628 274.669 153.756 274.897 152.96 275.299C152.164 275.701 151.463 276.267 150.903 276.961C150.342 277.654 149.936 278.459 149.71 279.321C146.447 291.912 141.417 318.027 154.09 323.364C169.451 329.84 174.896 312.122 177.595 287.784C177.742 286.418 177.438 285.042 176.729 283.865C176.02 282.688 174.945 281.776 173.669 281.267Z" fill="white"/>
<g opacity="0.25">
<path d="M177.563 287.739C174.921 312.089 169.515 329.824 154.141 323.378C147.827 320.74 145.885 312.934 145.938 304.214C147.218 306.708 149.056 308.643 151.625 309.718C165.385 315.482 171.171 301.871 174.113 281.468C175.264 282.031 176.213 282.935 176.83 284.058C177.448 285.18 177.704 286.465 177.563 287.739Z" fill="#02004E"/>
</g>
<path d="M160.066 328.157C157.79 328.157 155.372 327.622 152.814 326.553C138.765 320.665 141.535 297.167 146.327 278.488C146.672 277.152 147.297 275.905 148.161 274.829C149.025 273.753 150.107 272.873 151.337 272.248C152.567 271.623 153.916 271.266 155.294 271.202C156.672 271.138 158.048 271.368 159.331 271.877L174.888 278.038C176.864 278.822 178.529 280.231 179.629 282.05C180.73 283.869 181.205 285.998 180.982 288.112C178.552 310.483 174.33 321.906 166.866 326.309C164.809 327.531 162.458 328.17 160.066 328.157ZM155.741 278.069C155.291 278.07 154.848 278.178 154.448 278.383C154.089 278.564 153.773 278.82 153.522 279.133C153.271 279.447 153.09 279.81 152.991 280.2C148.623 297.208 146.98 316.649 155.468 320.207C158.696 321.558 161.281 321.617 163.372 320.384C171.039 315.863 173.378 294.414 174.143 287.359C174.206 286.742 174.066 286.121 173.743 285.591C173.421 285.061 172.933 284.652 172.356 284.424L156.799 278.264C156.463 278.134 156.105 278.068 155.745 278.069H155.741Z" fill="#02004E"/>
<path d="M167.953 223.214L186.266 231.667C192.36 234.531 198.436 237.368 204.489 240.438C204.911 240.657 205.233 241.03 205.39 241.479C205.546 241.929 205.525 242.421 205.33 242.855C205.135 243.289 204.782 243.632 204.342 243.814C203.902 243.996 203.41 244.003 202.965 243.833L202.934 243.819C196.765 241.37 190.433 239.101 184.137 236.827L165.179 230.116L165.146 230.104C164.28 229.726 163.59 229.034 163.214 228.168C162.838 227.302 162.804 226.325 163.119 225.435C163.434 224.544 164.075 223.806 164.913 223.37C165.75 222.933 166.722 222.829 167.632 223.08C167.74 223.122 167.85 223.167 167.953 223.214Z" fill="#02004E"/>
<path d="M449.307 212.009C443.268 232.61 397.41 270.76 331.61 272.667C325.062 272.863 318.507 272.696 311.978 272.166L306.106 247.088L301.408 227.012C301.408 227.012 311.63 225.15 325.587 221.439C336.623 218.518 349.994 214.441 362.528 209.231C374.344 204.317 385.425 198.39 393.074 191.459C393.074 191.459 393.493 170.818 399.347 168.717C406.492 166.149 411.786 180.665 411.786 180.665C411.786 180.665 428.033 163.944 437.514 165.564C451.615 167.97 455.941 189.416 449.307 212.009Z" fill="white"/>
<g opacity="0.35">
<path d="M452.267 195.166C451.933 200.875 450.939 206.526 449.307 212.007C442.682 234.6 388.171 278.305 311.978 272.16L301.408 227.012C301.408 227.012 304.58 226.436 309.8 225.282L322.153 249.225C385.093 268.177 441.929 218.412 452.267 195.166Z" fill="#02004E"/>
</g>
<path d="M326.43 276.473C321.605 276.473 316.69 276.276 311.687 275.883C311.197 275.848 310.719 275.716 310.281 275.495C309.842 275.274 309.452 274.968 309.132 274.596C308.812 274.224 308.569 273.792 308.417 273.325C308.265 272.858 308.207 272.366 308.246 271.877C308.285 271.387 308.42 270.91 308.644 270.474C308.868 270.037 309.176 269.649 309.551 269.331C309.925 269.014 310.359 268.774 310.827 268.625C311.295 268.477 311.787 268.422 312.276 268.464C387.418 274.517 439.881 230.904 445.733 210.963C449.91 196.731 449.501 182.558 444.693 174.858C442.704 171.675 440.079 169.786 436.893 169.243C431.695 168.357 420.644 176.91 414.457 183.275L410.329 187.523L408.289 181.95C406.651 177.494 402.891 171.532 400.662 172.206C398.816 173.523 396.976 182.691 396.791 191.537L396.758 193.141L395.578 194.219C369.068 218.229 304.804 230.192 302.082 230.68C301.601 230.768 301.108 230.76 300.63 230.657C300.152 230.554 299.699 230.358 299.297 230.08C298.485 229.519 297.929 228.658 297.752 227.687C297.575 226.716 297.791 225.714 298.352 224.902C298.913 224.09 299.774 223.535 300.745 223.357C301.382 223.241 363.687 211.651 389.402 189.743C389.695 182.109 391.171 167.726 398.09 165.231C405.11 162.701 410.219 169.302 412.985 174.372C418.941 168.968 429.822 160.494 438.147 161.909C443.443 162.811 447.891 165.927 451.009 170.918C456.985 180.484 457.693 196.635 452.881 213.063C446.126 236.068 396.343 276.469 326.43 276.473Z" fill="#02004E"/>
<path d="M381 361.361C381 361.361 288.874 396.989 256.549 394.439C224.223 391.889 189.423 386.773 187.516 325.464C186.337 287.351 205.187 249.852 219.627 226.943C228.42 212.986 235.576 204.435 235.576 204.435L324.529 208.976C324.529 208.976 324.873 213.666 325.591 221.445C326.037 226.302 326.633 232.359 327.385 239.225C328.467 249.089 329.862 260.619 331.61 272.667C334.291 291.128 337.798 310.803 342.225 327.528C344.126 334.768 374.497 336.749 381 361.361Z" fill="white"/>
<path d="M329.609 247.849C332.937 258.7 334.844 269.669 336.77 280.628C338.736 291.58 340.472 302.553 342.736 313.398C343.31 316.109 343.916 318.804 344.559 321.495L345.541 325.517L345.793 326.52L345.809 326.58V326.569V326.543C345.808 326.527 345.803 326.512 345.795 326.498C345.786 326.485 345.775 326.474 345.762 326.466C345.772 326.47 345.781 326.475 345.789 326.482C345.809 326.496 345.789 326.508 345.817 326.539C345.866 326.583 345.913 326.629 345.956 326.679C346.001 326.771 346.235 326.921 346.363 327.05C347.061 327.614 348.164 328.23 349.298 328.819C350.432 329.409 351.679 329.971 352.939 330.543C355.457 331.688 358.075 332.855 360.666 334.168C365.842 336.779 371.028 339.969 375.368 344.39C377.563 346.603 379.466 349.088 381.03 351.784C382.587 354.496 383.784 357.401 384.59 360.423L385.457 363.659L382.333 364.838C367.684 370.417 352.982 375.587 338.103 380.447C323.224 385.306 308.241 389.782 292.923 393.401C285.257 395.17 277.522 396.788 269.531 397.687C265.54 398.141 261.495 398.443 257.254 398.202C256.165 398.172 255.236 398.07 254.249 398.005L251.312 397.749C249.346 397.571 247.38 397.38 245.415 397.144C237.551 396.22 229.539 394.824 221.798 391.974C217.887 390.553 214.141 388.714 210.624 386.49C207.069 384.225 203.816 381.516 200.945 378.43C198.108 375.342 195.654 371.923 193.638 368.247C191.631 364.639 189.985 360.842 188.723 356.91L188.232 355.456L187.819 353.985L187.007 351.037L186.341 348.07L186.013 346.588L185.751 345.098L185.23 342.118C185.077 341.123 184.965 340.127 184.837 339.132C184.548 337.141 184.381 335.149 184.214 333.156C183.527 325.167 183.596 317.131 184.422 309.156C185.286 301.215 186.786 293.356 188.908 285.655C193.066 270.279 199.35 255.641 206.744 241.698C210.443 234.728 214.139 227.723 218.627 221.219C223.115 214.714 228.084 208.522 234.624 203.643C234.851 203.474 235.127 203.386 235.41 203.391C235.692 203.397 235.964 203.496 236.185 203.672C236.405 203.849 236.56 204.094 236.626 204.369C236.692 204.643 236.665 204.932 236.549 205.19L236.527 205.235C233.258 212.445 229.268 218.995 225.216 225.514C221.232 232.066 216.93 238.435 213.327 245.211C206.115 258.734 200.072 272.907 196.091 287.603C194.085 294.919 192.669 302.385 191.857 309.928C191.076 317.446 191.01 325.021 191.66 332.551C191.82 334.436 191.975 336.321 192.25 338.182C192.376 339.116 192.478 340.054 192.624 340.982L193.107 343.753L193.349 345.13L193.654 346.496L194.267 349.226L195.002 351.917L195.376 353.256L195.82 354.567C196.934 358.053 198.391 361.419 200.168 364.618C201.896 367.775 203.998 370.712 206.431 373.364C211.289 378.619 217.524 382.462 224.406 384.978C231.288 387.494 238.737 388.852 246.301 389.735C248.194 389.961 250.101 390.146 252.016 390.325L254.894 390.574C255.847 390.647 256.859 390.753 257.71 390.771C258.609 390.787 259.48 390.885 260.4 390.842L263.152 390.777C265.009 390.635 266.861 390.535 268.738 390.291C276.226 389.452 283.769 387.895 291.255 386.163C306.24 382.625 321.091 378.168 335.827 373.386C350.562 368.603 365.223 363.411 379.663 357.913L377.409 362.336C376.129 357.529 373.603 353.145 370.086 349.627C366.565 346.038 362.115 343.238 357.328 340.828C354.932 339.616 352.441 338.501 349.858 337.335C348.575 336.745 347.265 336.156 345.927 335.464C344.588 334.772 343.206 334.05 341.714 332.873C341.31 332.552 340.929 332.204 340.574 331.829L340.006 331.196C339.809 330.948 339.626 330.659 339.45 330.384C339.096 329.918 338.777 328.989 338.602 328.44L338.335 327.412L337.266 323.303C336.579 320.559 335.924 317.811 335.3 315.059C334.044 309.555 332.839 304.051 331.783 298.515C330.727 292.979 329.833 287.428 329.047 281.861C327.509 270.723 326.452 259.518 327.146 248.16C327.165 247.865 327.286 247.587 327.49 247.373C327.693 247.159 327.964 247.023 328.257 246.988C328.55 246.954 328.846 247.023 329.093 247.184C329.341 247.345 329.524 247.587 329.611 247.869L329.609 247.849Z" fill="#02004E"/>
<path d="M196.447 548.676L180.503 551.157C176.962 551.709 173.337 551.291 170.014 549.949C166.692 548.606 163.795 546.389 161.631 543.532C148.508 526.204 140.377 505.616 138.118 483.998C137.747 480.435 138.347 476.838 139.854 473.588C141.361 470.338 143.72 467.556 146.679 465.537L160.011 456.452" fill="#00AAFF"/>
<g opacity="0.6">
<path d="M162.848 465.592L149.644 474.592C146.37 476.822 143.761 479.897 142.095 483.491C140.429 487.085 139.768 491.063 140.182 495.002C140.505 498.1 140.937 501.18 141.48 504.242C139.882 498.245 138.758 492.132 138.116 485.96C137.745 482.397 138.345 478.799 139.852 475.549C141.359 472.299 143.718 469.518 146.677 467.499L160.011 458.417L162.848 465.592Z" fill="white"/>
</g>
<g opacity="0.35">
<path d="M148.161 517.171C151.424 523.675 155.275 529.868 159.667 535.67C161.83 538.527 164.728 540.745 168.051 542.087C171.373 543.429 174.998 543.845 178.539 543.292L193.406 540.978L160.011 456.452L157.167 458.384L181.924 521.053L165.975 523.536C162.711 524.043 159.371 523.726 156.26 522.615C153.149 521.503 150.365 519.632 148.161 517.171ZM178.883 513.357L157.167 458.384L158.065 457.771L179.958 513.19L178.883 513.357Z" fill="#02004E"/>
</g>
<path d="M199.264 431.958C190.976 415.726 162.577 394.233 106.713 429.683C106.551 429.787 106.425 429.937 106.349 430.113C106.274 430.29 106.253 430.485 106.29 430.674C106.327 430.862 106.419 431.035 106.556 431.17C106.692 431.305 106.866 431.396 107.055 431.431C116.351 433.088 160.082 440.538 168.089 463.277" fill="#EC1C24"/>
<g opacity="0.6">
<path d="M116.119 432.192C112.111 431.333 108.901 430.775 107.057 430.446C106.867 430.413 106.692 430.322 106.555 430.187C106.418 430.052 106.324 429.879 106.287 429.69C106.25 429.501 106.271 429.305 106.347 429.129C106.423 428.952 106.55 428.802 106.713 428.699C162.578 393.25 190.976 414.742 199.266 430.975L195.889 434.366C185.173 420.533 159.988 407.913 116.119 432.192Z" fill="white"/>
</g>
<path d="M168.089 467.002C167.318 467.002 166.566 466.763 165.937 466.317C165.309 465.872 164.833 465.242 164.578 464.515C161.902 456.913 150.843 442.992 106.843 435.172L106.403 435.093C105.475 434.927 104.619 434.485 103.947 433.824C103.275 433.164 102.819 432.316 102.637 431.391C102.455 430.466 102.556 429.509 102.928 428.643C103.3 427.777 103.924 427.043 104.72 426.538C131.877 409.306 155.555 403.275 175.095 408.616C192.335 413.334 200.06 425.325 202.582 430.265C203.006 431.142 203.07 432.15 202.76 433.073C202.45 433.996 201.791 434.76 200.924 435.203C200.056 435.646 199.05 435.731 198.121 435.441C197.191 435.151 196.413 434.508 195.952 433.65C193.88 429.591 187.499 419.723 173.133 415.795C157.355 411.484 137.293 416.092 114.808 429.121C154.9 437.411 167.874 451.455 171.609 462.044C171.807 462.605 171.867 463.206 171.784 463.795C171.702 464.384 171.479 464.945 171.135 465.43C170.791 465.916 170.336 466.312 169.808 466.585C169.28 466.859 168.693 467.002 168.098 467.002H168.089Z" fill="#02004E"/>
<path d="M241.141 537.959C246.187 555.478 240.514 591.516 175.506 603.812C175.317 603.847 175.121 603.825 174.945 603.747C174.769 603.67 174.621 603.541 174.519 603.378C174.417 603.215 174.367 603.025 174.374 602.832C174.382 602.64 174.447 602.455 174.562 602.3C180.216 594.738 206.649 558.409 196.952 536.335" fill="#D25658"/>
<path d="M175.507 603.822C175.318 603.857 175.123 603.833 174.947 603.756C174.772 603.678 174.623 603.549 174.521 603.386C174.42 603.223 174.369 603.033 174.377 602.841C174.385 602.649 174.45 602.463 174.564 602.308C177.457 598.434 185.806 587.013 191.955 573.822C197.772 561.361 201.619 547.316 197.048 536.581C197.019 536.502 196.98 536.421 196.948 536.343H197.216L241.137 537.949C242.552 542.863 243.126 549.244 241.772 556.146C238.33 573.84 222.271 594.966 175.507 603.822Z" fill="#EC1C24"/>
<g opacity="0.35">
<path d="M191.955 573.822C197.772 561.361 201.619 547.316 197.048 536.581C197.105 536.506 197.158 536.425 197.216 536.351L241.137 537.957C242.552 542.871 243.126 549.252 241.772 556.154C231.294 565.047 215.407 572.031 191.955 573.822Z" fill="#02004E"/>
</g>
<path d="M175.313 607.559C174.448 607.555 173.6 607.312 172.865 606.855C172.129 606.399 171.535 605.747 171.148 604.973C170.761 604.199 170.596 603.332 170.672 602.47C170.748 601.608 171.062 600.784 171.578 600.089C178.863 590.343 201.977 557.038 193.54 537.847C193.143 536.943 193.121 535.918 193.479 534.999C193.838 534.079 194.547 533.339 195.45 532.942C196.354 532.545 197.379 532.523 198.298 532.882C199.218 533.24 199.958 533.949 200.355 534.853C208.94 554.391 192.689 582.883 181.731 598.715C206.71 592.914 224.342 582.564 232.946 568.58C241.249 555.086 238.576 542.525 237.559 538.997C237.424 538.527 237.383 538.035 237.437 537.549C237.492 537.064 237.642 536.593 237.879 536.166C238.115 535.738 238.434 535.361 238.816 535.056C239.198 534.751 239.636 534.525 240.106 534.39C240.576 534.254 241.068 534.213 241.553 534.268C242.039 534.323 242.509 534.472 242.937 534.709C243.801 535.187 244.44 535.988 244.713 536.936C246.285 542.409 248.918 556.828 239.285 572.482C228.629 589.802 207.4 601.575 176.194 607.484C175.903 607.537 175.608 607.562 175.313 607.559Z" fill="#02004E"/>
<path d="M503.759 373.541C503.759 373.541 489.151 466.469 368.793 523.87C266.254 572.767 195.36 548.676 195.36 548.676C172.588 523.273 159.666 490.555 158.932 456.448C158.932 456.448 174.676 426.961 217.422 397.158C218.892 396.134 220.4 395.102 221.943 394.077C238.635 382.929 259.153 371.864 284.089 362.428C289.971 360.2 296.103 358.07 302.485 356.038C302.737 355.953 302.988 355.878 303.238 355.804C328.99 347.681 352.563 343.616 373.77 342.24C374.448 342.193 375.119 342.155 375.789 342.118C457.63 337.549 503.759 373.541 503.759 373.541Z" fill="white"/>
<path d="M442.389 475.551C434.389 427.723 416.376 382.125 389.53 341.742C463.443 341.249 504.836 373.541 504.836 373.541C504.836 373.541 496.686 425.394 442.389 475.551Z" fill="#EC1C24"/>
<g opacity="0.6">
<path d="M503.303 379.307C504.453 374.982 504.836 372.558 504.836 372.558C504.836 372.558 463.445 340.266 389.53 340.76C391.263 343.367 392.959 345.996 394.617 348.646C457.272 349.505 495.418 373.781 503.303 379.307Z" fill="white"/>
</g>
<path d="M439.856 482.956L438.719 476.162C430.756 428.545 413.164 384.013 386.43 343.803L382.616 338.078L389.496 338.031C448.077 337.626 486.781 357.661 500.704 366.287C503.248 367.846 505.217 370.19 506.313 372.965C507.409 375.74 507.573 378.797 506.781 381.673C502.511 397.484 487.935 438.547 444.908 478.295L439.856 482.956ZM396.426 345.513C420.286 382.882 436.728 424.497 444.853 468.083C482.611 431.187 495.678 394.288 499.611 379.723C499.977 378.392 499.901 376.979 499.394 375.695C498.887 374.411 497.977 373.327 496.8 372.605C483.972 364.66 449.203 346.647 396.426 345.515V345.513Z" fill="#02004E"/>
<path d="M244.036 558.334C213.643 558.334 195.985 552.45 195.244 552.199L194.32 551.884L193.669 551.159C170.299 525.098 157.038 491.528 156.288 456.532L156.266 455.549L156.726 454.69C157.1 453.994 166.101 437.391 188.651 416.407C209.327 397.164 245.855 370.455 302.432 352.487C332.099 343.067 361.393 338.196 389.504 338.013L391.515 338.002L392.628 339.675C419.881 380.667 437.841 426.057 446.002 474.584L446.742 476.589L444.919 478.285C424.279 497.354 399.557 513.831 371.464 527.233C317.879 552.788 272.961 558.249 244.715 558.33L244.036 558.334ZM198.54 545.425C202.472 546.588 219.181 551.035 245.1 550.888C272.503 550.76 316.116 545.383 368.268 520.516C395.012 507.762 418.592 492.18 438.391 474.187C430.388 427.975 413.292 384.699 387.55 345.487C360.8 345.88 332.937 350.62 304.692 359.59C205.535 391.074 168.226 449.807 163.756 457.401C164.695 489.908 177.004 521.057 198.54 545.425Z" fill="#02004E"/>
<path d="M177.438 555.116C173.801 555.116 170.213 554.273 166.957 552.653C163.7 551.033 160.864 548.68 158.671 545.778C145.135 527.911 136.748 506.679 134.417 484.385C133.971 480.153 134.681 475.879 136.472 472.019C138.262 468.158 141.065 464.855 144.584 462.461L157.918 453.377C158.733 452.821 159.736 452.612 160.706 452.796C161.676 452.98 162.533 453.541 163.089 454.357C163.644 455.173 163.853 456.176 163.67 457.145C163.486 458.115 162.924 458.972 162.109 459.528L148.775 468.606C146.368 470.243 144.45 472.503 143.226 475.144C142.001 477.784 141.515 480.708 141.82 483.603C144.01 504.546 151.889 524.491 164.603 541.277C166.36 543.599 168.714 545.402 171.414 546.493C174.114 547.583 177.059 547.922 179.936 547.471L195.881 544.99C196.364 544.915 196.857 544.936 197.332 545.051C197.807 545.167 198.254 545.375 198.649 545.663C199.044 545.951 199.378 546.315 199.632 546.732C199.886 547.15 200.056 547.613 200.131 548.096C200.206 548.579 200.185 549.072 200.07 549.547C199.954 550.022 199.746 550.47 199.458 550.864C199.17 551.259 198.806 551.593 198.389 551.847C197.971 552.102 197.508 552.271 197.025 552.346L181.08 554.827C179.875 555.017 178.658 555.114 177.438 555.116Z" fill="#02004E"/>
<g opacity="0.35">
<path d="M390.112 475.242C410.106 455.249 410.106 422.833 390.112 402.839C370.119 382.845 337.703 382.845 317.709 402.839C297.716 422.833 297.716 455.249 317.709 475.242C337.703 495.236 370.119 495.236 390.112 475.242Z" fill="#02004E"/>
</g>
<path d="M355.044 478.753C380.47 478.753 401.082 458.141 401.082 432.715C401.082 407.288 380.47 386.676 355.044 386.676C329.618 386.676 309.005 407.288 309.005 432.715C309.005 458.141 329.618 478.753 355.044 478.753Z" fill="#EC1C24"/>
<g opacity="0.6">
<path d="M400.326 425.339C400.013 424.341 399.663 423.354 399.274 422.369C389.936 398.723 363.188 387.128 339.542 396.466C318.705 404.699 307.215 426.456 311.185 447.696C303.851 424.802 315.451 399.837 338.117 390.885C361.771 381.544 388.511 393.14 397.859 416.792C398.952 419.556 399.778 422.418 400.326 425.339Z" fill="white"/>
</g>
<g opacity="0.35">
<path d="M371.956 475.531C348.313 484.869 321.567 473.284 312.223 449.632C309.379 442.458 308.393 434.683 309.355 427.026C309.88 430.458 310.789 433.821 312.064 437.051C321.406 460.702 348.148 472.3 371.8 462.958C379.491 459.921 386.221 454.868 391.284 448.33C396.346 441.792 399.553 434.011 400.567 425.805C403.74 446.556 392.311 467.487 371.956 475.531Z" fill="#02004E"/>
</g>
<path d="M355.032 482.502C342.613 482.521 330.634 477.907 321.438 469.562C312.241 461.217 306.488 449.741 305.305 437.379C304.121 425.017 307.591 412.658 315.037 402.719C322.483 392.78 333.369 385.976 345.565 383.639C357.762 381.301 370.392 383.597 380.985 390.078C391.579 396.559 399.373 406.758 402.845 418.682C406.316 430.605 405.214 443.395 399.756 454.55C394.297 465.704 384.873 474.421 373.328 478.995C367.504 481.306 361.297 482.496 355.032 482.502ZM355.054 390.374C348.823 390.371 342.669 391.743 337.03 394.392C331.391 397.042 326.406 400.904 322.432 405.702C318.458 410.501 315.592 416.117 314.039 422.151C312.485 428.185 312.283 434.487 313.447 440.608C314.61 446.729 317.111 452.517 320.77 457.56C324.428 462.603 329.155 466.776 334.613 469.782C340.07 472.787 346.124 474.551 352.342 474.947C358.56 475.342 364.789 474.361 370.583 472.072C379.735 468.444 387.336 461.74 392.08 453.114C396.823 444.487 398.413 434.478 396.574 424.806C394.736 415.135 389.585 406.407 382.007 400.122C374.429 393.838 364.898 390.391 355.054 390.374Z" fill="#02004E"/>
<path d="M376.064 452.715C387.503 441.276 387.503 422.731 376.064 411.292C364.626 399.854 346.081 399.854 334.642 411.292C323.204 422.731 323.204 441.276 334.642 452.715C346.081 464.153 364.626 464.153 376.064 452.715Z" fill="#6BD6F0"/>
<g opacity="0.3">
<path d="M366.113 459.249C358.888 462.102 350.825 461.968 343.699 458.876C336.572 455.785 330.966 449.989 328.113 442.764C326.855 439.602 326.164 436.242 326.072 432.841C326.178 433.147 326.294 433.452 326.414 433.762C328.943 440.175 333.652 445.49 339.712 448.773C345.773 452.056 352.798 453.096 359.55 451.711C366.302 450.325 372.349 446.603 376.627 441.199C380.906 435.794 383.141 429.054 382.94 422.164C385.494 429.321 385.166 437.19 382.026 444.109C378.886 451.029 373.18 456.457 366.113 459.249Z" fill="white"/>
</g>
<g opacity="0.35">
<path d="M384.959 433.515C384.792 433.041 384.627 432.567 384.438 432.094C381.952 425.797 377.362 420.556 371.448 417.262C365.534 413.968 358.661 412.824 351.999 414.025C345.337 415.226 339.297 418.697 334.905 423.849C330.513 429 328.042 435.514 327.91 442.282C326.55 438.235 326.091 433.938 326.566 429.695C327.041 425.451 328.438 421.363 330.659 417.716C332.88 414.069 335.872 410.952 339.424 408.583C342.977 406.214 347.005 404.65 351.225 404.001C355.446 403.353 359.757 403.635 363.857 404.828C367.957 406.021 371.747 408.096 374.961 410.907C378.174 413.719 380.735 417.199 382.462 421.105C384.189 425.01 385.041 429.246 384.959 433.515Z" fill="#02004E"/>
</g>
<path d="M355.345 465.032C348.724 465.02 342.26 463.021 336.788 459.295C331.316 455.569 327.087 450.287 324.649 444.132C317.965 427.203 326.294 407.989 343.224 401.302C360.153 394.614 379.366 402.945 386.056 419.874C392.746 436.804 384.411 456.025 367.481 462.709C363.618 464.241 359.501 465.029 355.345 465.032ZM355.321 406.434C352.115 406.436 348.938 407.043 345.958 408.225C332.846 413.405 326.393 428.286 331.573 441.398C332.806 444.52 334.643 447.37 336.978 449.783C339.313 452.195 342.1 454.125 345.181 455.46C348.261 456.796 351.575 457.512 354.932 457.567C358.289 457.622 361.624 457.015 364.747 455.781C377.859 450.601 384.31 435.72 379.133 422.609C377.241 417.837 373.96 413.744 369.714 410.86C365.468 407.976 360.454 406.434 355.321 406.434Z" fill="#02004E"/>
<g opacity="0.2">
<path d="M450.946 369.206C450.724 362.214 436.203 356.734 427.978 356.798C419.464 356.865 414.344 358.332 414.306 362.452C414.255 368.206 420.886 370.235 428.767 370.533C434.334 370.746 451.212 377.836 450.946 369.206Z" fill="white"/>
</g>
<g opacity="0.2">
<path d="M472.273 378.039C471.817 371.978 464.491 366.332 460.502 365.874C456.374 365.401 453.958 366.35 454.145 369.91C454.408 374.884 457.728 377.052 461.57 377.803C464.286 378.333 472.837 385.518 472.273 378.039Z" fill="white"/>
</g>
<g opacity="0.35">
<path d="M194.477 541.794C194.477 541.794 265.369 565.884 367.902 516.994C472.031 467.336 497.003 391.099 501.844 371.432C502.338 371.76 502.77 372.057 503.142 372.316C501.632 371.265 499.126 369.603 495.642 367.581C481.504 399.709 447.852 451.403 370.338 488.37C321.921 511.458 280.563 518.271 250.392 519.036C211.863 520.009 177.21 495.28 166.294 458.309C166.235 458.113 166.174 457.902 166.115 457.698C165.69 456.231 165.293 454.749 164.914 453.269C164.717 452.656 164.521 452.05 164.324 451.429C164.265 451.232 164.204 451.022 164.145 450.818C164.086 450.613 164.027 450.377 163.964 450.159L164.102 449.963C161.289 454.065 160.009 456.45 160.009 456.45C160.245 467.438 161.752 478.363 164.499 489.005C170.588 508.549 180.812 526.553 194.477 541.794Z" fill="#02004E"/>
</g>
<path d="M189.449 516.524C168.34 524.857 140.957 516.359 140.957 516.359C140.957 516.359 141.01 516.262 141.114 516.095C142.705 513.394 156.42 490.933 176.237 483.094C195.256 475.577 215.971 483.29 219.661 484.796C220.038 484.951 220.237 485.04 220.237 485.04C220.237 485.04 210.418 508.252 189.449 516.524Z" fill="#EC1C24"/>
<g opacity="0.6">
<path d="M221.224 486.021C221.224 486.021 220.624 487.434 219.411 489.681C212.354 487.238 194.884 482.551 178.643 488.973C162.706 495.264 150.717 511.035 145.801 518.362C143.359 517.772 141.936 517.343 141.936 517.343C141.936 517.343 141.995 517.247 142.095 517.076C143.69 514.379 157.405 491.914 177.222 484.079C196.241 476.559 216.95 484.275 220.64 485.779C221.025 485.936 221.224 486.021 221.224 486.021Z" fill="white"/>
</g>
<g opacity="0.35">
<path d="M189.449 516.524C168.34 524.857 140.957 516.359 140.957 516.359C140.957 516.359 141.01 516.262 141.114 516.095L219.661 484.796C220.038 484.951 220.237 485.04 220.237 485.04C220.237 485.04 210.418 508.252 189.449 516.524Z" fill="#02004E"/>
</g>
<path d="M167.715 523.923C153.021 523.923 140.625 520.155 139.852 519.915L135.439 518.537L137.729 514.513C138.335 513.449 152.813 488.354 174.882 479.63C197.044 470.867 220.758 481.189 221.756 481.633L225.098 483.117L223.663 486.495C223.237 487.501 212.983 511.242 190.813 519.993C183.345 522.936 175.228 523.923 167.715 523.923ZM146.856 514.025C155.356 515.926 173.524 518.812 188.081 513.064C202.637 507.316 211.538 493.571 215.063 487.084C208.047 484.767 192.122 480.813 177.609 486.552C163.021 492.325 151.755 506.831 146.856 514.025Z" fill="#02004E"/>
<g opacity="0.25">
<path d="M294.335 440.592C297.266 444.798 317.513 478.956 301.215 492.531C286.951 504.422 260.628 502.468 246.763 483.776C237.599 471.409 235.737 457.155 236.258 446.249C236.873 433.511 239.154 421.358 232.798 411.821C229.411 406.723 223.828 402.188 217.426 397.158C218.896 396.134 220.404 395.102 221.947 394.077C238.638 382.929 259.157 371.864 284.093 362.428C288.96 364.774 293.621 367.789 297.539 371.668C312.984 387.001 313.413 417.755 302.927 430.222C298.783 435.131 294.335 440.592 294.335 440.592Z" fill="#02004E"/>
</g>
<path d="M303.641 431.288C306.572 435.492 326.819 469.652 310.521 483.227C296.257 495.118 269.934 493.164 256.069 474.472C246.903 462.105 245.043 447.849 245.564 436.945C246.177 424.207 248.457 412.054 242.102 402.516C234.872 391.648 206.659 387.592 192.627 371.504C184.355 362.031 179.926 344.827 180.681 323.752C180.941 316.983 181.663 310.239 182.844 303.569C188.053 273.776 202.625 239.504 229.46 209.162C229.46 209.162 240.125 251.82 251.298 289.714C259.086 316.13 267.126 340.235 271.956 345.935C272.597 346.698 273.183 347.127 273.704 347.201C280.097 348.08 286.329 349.886 292.202 352.56C297.488 354.98 302.597 358.163 306.829 362.35C322.276 377.683 322.705 408.435 312.217 420.904C308.087 425.825 303.641 431.288 303.641 431.288Z" fill="white"/>
<g opacity="0.25">
<path d="M315.727 475.439C314.786 478.485 312.979 481.192 310.525 483.227C296.261 495.118 269.938 493.164 256.073 474.472C246.907 462.115 245.047 447.849 245.568 436.945C246.181 424.207 248.452 412.054 242.106 402.526C234.876 391.658 206.663 387.586 192.624 371.512C184.367 362.041 179.931 344.817 180.685 323.744C180.685 323.649 180.685 323.547 180.685 323.455C180.715 322.747 180.752 322.04 180.79 321.324C180.825 320.673 180.862 320.013 180.909 319.342C180.929 319.044 180.947 318.737 180.974 318.43C181.096 316.858 181.236 315.267 181.413 313.657C181.495 312.895 181.59 312.122 181.682 311.34C181.747 310.799 181.822 310.251 181.896 309.702C181.951 309.246 182.016 308.79 182.081 308.326C182.185 307.611 182.295 306.893 182.407 306.164C182.537 305.344 182.677 304.517 182.816 303.689L182.846 303.549C183.291 303.041 183.763 302.557 184.259 302.099C184.259 302.099 187.07 303.372 193.072 304.925C202.608 307.402 220.2 310.603 247.384 310.565L246.956 296.469C246.912 295.033 247.304 293.618 248.079 292.409C248.855 291.2 249.977 290.254 251.3 289.695C251.943 289.419 252.623 289.244 253.319 289.174L270.209 287.369L294.624 346.482L271.958 345.924L254.911 345.505C253.14 345.392 251.475 344.622 250.242 343.347C249.008 342.072 248.294 340.383 248.239 338.609L248.025 331.532C233.111 334.874 208.424 335.749 192.449 330.481C193.628 345.202 197.742 357.093 204.106 364.388C218.137 380.476 239.177 371.841 253.413 388.442C262.308 398.825 257.655 417.091 257.042 429.829C256.521 440.735 252.305 456.729 261.461 469.086C273.576 485.441 299.778 483.99 315.727 475.439Z" fill="#02004E"/>
</g>
<g opacity="0.25">
<path d="M362.532 209.237C353.345 221.865 341.302 232.14 327.385 239.225C314.027 245.984 299.307 249.618 284.339 249.852C269.37 250.087 254.543 246.916 240.98 240.58C228.525 234.731 213.63 240.308 207.955 252.844C199.793 270.882 195.002 288.745 193.072 304.937C187.07 303.384 184.259 302.11 184.259 302.11C183.763 302.569 183.291 303.053 182.846 303.561C188.055 273.768 202.627 239.496 229.462 209.155L229.741 212.011C233.305 207.144 235.576 204.427 235.576 204.427L324.529 208.968C324.529 208.968 324.873 213.658 325.591 221.437C336.627 218.524 349.998 214.447 362.532 209.237Z" fill="#02004E"/>
</g>
<path d="M275.491 346.224C280.323 346.16 285.177 346.944 289.861 348.363C294.545 349.782 299.1 351.793 303.291 354.589C305.406 355.998 307.404 357.576 309.265 359.307C311.142 361.099 312.839 363.069 314.333 365.19C317.301 369.415 319.367 374.121 320.798 378.929C322.176 383.734 322.956 388.69 323.118 393.686C323.345 398.692 322.906 403.705 321.813 408.595C320.673 413.509 318.882 418.457 315.465 422.807L306.523 433.643L306.69 429.161C307.439 430.259 308.017 431.221 308.624 432.239C309.232 433.257 309.786 434.252 310.335 435.27C311.439 437.303 312.479 439.367 313.452 441.462C315.44 445.683 317.098 450.052 318.41 454.529C319.682 459.068 320.616 463.819 320.498 468.854C320.429 471.36 320.124 473.945 319.295 476.489C318.474 479.092 317.147 481.508 315.391 483.597L314.722 484.383C314.49 484.635 314.233 484.859 313.987 485.097C313.49 485.543 312.988 486.08 312.481 486.416C311.463 487.151 310.474 487.947 309.415 488.616C308.326 489.233 307.252 489.876 306.142 490.452L302.713 491.924C298.079 493.591 293.184 494.416 288.259 494.362C283.376 494.323 278.53 493.499 273.909 491.922C269.277 490.385 264.97 487.922 261.131 484.918C260.17 484.161 259.193 483.424 258.35 482.535C257.506 481.647 256.565 480.861 255.765 479.941L253.429 477.12C252.663 476.174 252.032 475.166 251.33 474.191C248.719 470.172 246.618 465.843 245.077 461.305C243.58 456.796 242.591 452.135 242.128 447.407C241.887 445.061 241.768 442.704 241.772 440.346C241.762 439.166 241.808 437.987 241.849 436.807L242.045 433.399C242.334 428.878 242.729 424.486 242.737 420.25C242.745 416.013 242.344 411.948 240.968 408.422C240.816 407.974 240.631 407.539 240.416 407.118C240.2 406.704 240.034 406.257 239.783 405.862L239.063 404.661C238.835 404.32 238.588 403.992 238.324 403.678C237.231 402.406 235.718 401.197 234.025 400.104C230.605 397.913 226.622 396.079 222.598 394.248C214.538 390.588 206.017 386.989 198.258 381.471C194.403 378.687 190.744 375.452 187.796 371.369C184.89 367.345 182.866 362.916 181.336 358.444C179.857 353.988 178.761 349.415 178.059 344.774C177.41 340.191 177.031 335.574 176.923 330.946C176.752 321.733 177.578 312.57 179.085 303.557C182.215 285.539 188.163 268.124 196.257 251.824C200.375 243.717 204.591 235.61 209.795 228.12C215.034 220.684 220.972 213.652 228.546 208.331C228.78 208.167 229.062 208.087 229.347 208.102C229.633 208.118 229.904 208.229 230.119 208.417C230.334 208.605 230.479 208.86 230.532 209.14C230.584 209.421 230.542 209.711 230.41 209.965C226.178 218.062 221.147 225.186 216.384 232.557C211.586 239.876 206.766 247.23 202.928 255.126C195.132 270.823 189.418 287.587 186.43 304.802C184.977 313.425 184.191 322.14 184.354 330.805C184.454 335.114 184.807 339.413 185.409 343.681C186.042 347.877 187.028 352.013 188.358 356.043C189.705 360.008 191.472 363.798 193.811 367.026C196.097 370.211 199.195 373.006 202.575 375.438C209.415 380.319 217.471 383.794 225.651 387.486C229.747 389.361 233.927 391.245 238.047 393.871C240.095 395.206 242.152 396.761 243.98 398.88C244.438 399.42 244.866 399.987 245.259 400.576L246.264 402.245C246.606 402.8 246.854 403.401 247.141 403.981C247.43 404.554 247.682 405.145 247.896 405.75C248.8 408.105 249.415 410.56 249.728 413.063C250.043 415.448 250.19 417.852 250.17 420.258C250.156 424.962 249.739 429.475 249.462 433.876L249.266 437.159C249.23 438.215 249.189 439.273 249.199 440.33C249.195 442.44 249.301 444.549 249.517 446.648C249.925 450.822 250.797 454.937 252.118 458.917C254.825 466.754 259.321 474.151 265.725 479.062C268.906 481.545 272.468 483.607 276.34 484.879C280.19 486.188 284.224 486.874 288.29 486.909C292.323 486.957 296.332 486.287 300.13 484.932L302.861 483.752C303.732 483.292 304.569 482.783 305.43 482.309C306.258 481.788 307.003 481.165 307.805 480.607C308.237 480.328 308.479 480.017 308.817 479.722C308.972 479.571 309.143 479.435 309.289 479.276L309.7 478.779C311.939 476.182 312.992 472.581 313.041 468.655C313.146 464.737 312.381 460.607 311.237 456.56C310.032 452.459 308.512 448.457 306.69 444.59C305.779 442.636 304.809 440.71 303.781 438.813C303.27 437.863 302.737 436.931 302.208 436.007C301.679 435.083 301.091 434.158 300.58 433.409L298.982 431.067L300.751 428.929L309.647 418.154C312.031 415.139 313.621 411.119 314.528 406.949C316.334 398.555 315.738 389.436 313.181 381.198C311.878 377.089 310.112 373.152 307.759 369.688C306.597 367.964 305.281 366.349 303.828 364.862C302.335 363.338 300.721 361.937 299.002 360.673C295.449 358.066 291.667 355.786 287.703 353.863C283.684 351.898 279.474 350.219 275.086 348.65C274.809 348.55 274.575 348.356 274.426 348.102C274.277 347.847 274.222 347.549 274.27 347.258C274.319 346.967 274.467 346.702 274.691 346.51C274.914 346.317 275.198 346.209 275.493 346.205L275.491 346.224Z" fill="#02004E"/>
<path d="M245.896 415.292C245.221 415.291 244.569 415.046 244.061 414.601C243.553 414.157 243.223 413.543 243.132 412.874C238.79 380.753 257.813 365.568 266.193 360.531C280.085 352.179 296.825 351.398 306.904 358.634C307.206 358.846 307.464 359.116 307.661 359.428C307.858 359.74 307.992 360.088 308.054 360.452C308.116 360.816 308.105 361.189 308.021 361.549C307.938 361.908 307.785 362.248 307.569 362.548C307.354 362.848 307.081 363.102 306.767 363.296C306.453 363.49 306.103 363.619 305.739 363.677C305.374 363.735 305.002 363.72 304.643 363.633C304.284 363.546 303.946 363.388 303.649 363.169C295.459 357.29 280.916 358.194 269.069 365.316C261.642 369.784 244.768 383.291 248.668 412.127C248.718 412.491 248.695 412.861 248.602 413.216C248.509 413.571 248.346 413.904 248.124 414.196C247.902 414.488 247.624 414.734 247.307 414.918C246.99 415.103 246.639 415.223 246.275 415.272C246.15 415.288 246.023 415.294 245.896 415.292Z" fill="#02004E"/>
<path d="M308.762 430.82C308.369 431.193 308.103 431.409 307.779 431.693C307.455 431.976 307.148 432.2 306.831 432.443C306.198 432.933 305.538 433.373 304.866 433.804C303.526 434.655 302.129 435.412 300.684 436.07C297.758 437.408 294.641 438.283 291.445 438.663C288.235 439.015 284.891 438.877 281.827 437.818C278.768 436.794 276.035 434.983 274.125 432.565C277.176 433.096 279.902 433.505 282.578 433.375C283.879 433.351 285.177 433.237 286.462 433.035C287.734 432.865 288.989 432.589 290.215 432.21C292.69 431.462 295.082 430.459 297.35 429.218C298.51 428.628 299.627 427.938 300.747 427.264L302.389 426.208L303.896 425.192L304.126 425.036C304.9 424.515 305.842 424.303 306.765 424.443C307.687 424.583 308.524 425.065 309.108 425.792C309.692 426.52 309.982 427.441 309.919 428.372C309.857 429.303 309.446 430.177 308.77 430.82H308.762Z" fill="#02004E"/>
<path d="M379.999 164.935C379.736 164.951 379.472 164.916 379.223 164.831C378.974 164.746 378.743 164.612 378.545 164.438C378.348 164.264 378.186 164.053 378.07 163.816C377.954 163.579 377.885 163.322 377.868 163.059L374.179 105.352C374.162 105.089 374.197 104.825 374.282 104.575C374.367 104.326 374.501 104.096 374.675 103.898C374.849 103.7 375.061 103.538 375.297 103.422C375.534 103.306 375.791 103.238 376.054 103.221C381.628 102.864 387.116 104.737 391.31 108.426C395.504 112.116 398.06 117.32 398.417 122.894L399.673 142.572C400.029 148.146 398.157 153.634 394.467 157.828C390.778 162.021 385.574 164.578 379.999 164.935Z" fill="white"/>
<path d="M379.872 165.337C379.26 165.336 378.672 165.103 378.226 164.685C377.78 164.267 377.51 163.695 377.469 163.085L373.782 105.377C373.742 104.741 373.956 104.114 374.377 103.635C374.798 103.156 375.392 102.864 376.029 102.822C381.707 102.466 387.296 104.377 391.567 108.136C395.839 111.895 398.445 117.195 398.814 122.873L400.072 142.55C400.252 145.363 399.877 148.184 398.966 150.851C398.056 153.519 396.629 155.981 394.767 158.097C392.905 160.213 390.644 161.941 388.114 163.183C385.584 164.425 382.834 165.157 380.021 165.335L379.872 165.337ZM377.426 103.575C376.978 103.575 376.53 103.588 376.078 103.618C375.867 103.631 375.661 103.686 375.471 103.779C375.282 103.873 375.112 104.002 374.973 104.161C374.833 104.32 374.727 104.504 374.658 104.704C374.59 104.904 374.562 105.115 374.576 105.326L378.264 163.034C378.277 163.244 378.332 163.451 378.425 163.64C378.518 163.83 378.647 163.999 378.806 164.139C378.965 164.279 379.149 164.385 379.35 164.453C379.55 164.521 379.761 164.549 379.972 164.535C382.68 164.363 385.327 163.658 387.763 162.462C390.198 161.266 392.375 159.602 394.167 157.564C395.959 155.527 397.333 153.157 398.209 150.589C399.085 148.021 399.447 145.305 399.274 142.597L398.016 122.92C397.681 117.684 395.368 112.771 391.544 109.179C387.72 105.586 382.673 103.582 377.426 103.575Z" fill="#02004E"/>
<g opacity="0.35">
<path d="M399.083 133.344L399.673 142.584C400.028 148.158 398.155 153.645 394.465 157.839C390.776 162.033 385.572 164.59 379.998 164.948C379.466 164.981 378.943 164.801 378.543 164.449C378.144 164.097 377.9 163.601 377.865 163.069L376.882 147.736C377.061 148.079 377.336 148.362 377.673 148.552C378.01 148.742 378.395 148.831 378.781 148.807L380.157 148.717C384.517 148.438 388.683 146.808 392.075 144.053C395.467 141.298 397.916 137.555 399.083 133.344Z" fill="#02004E"/>
</g>
<path d="M379.868 168.66C378.413 168.656 377.014 168.101 375.953 167.105C374.892 166.11 374.249 164.749 374.153 163.297L370.465 105.59C370.37 104.074 370.88 102.582 371.883 101.441C372.886 100.301 374.301 99.6045 375.816 99.5055C379.064 99.2978 382.321 99.7318 385.401 100.783C388.482 101.834 391.325 103.481 393.768 105.631C396.212 107.781 398.208 110.391 399.642 113.312C401.077 116.233 401.923 119.409 402.13 122.656L403.388 142.336C403.807 148.895 401.604 155.352 397.262 160.286C392.92 165.221 386.796 168.228 380.237 168.648C380.113 168.656 379.982 168.66 379.868 168.66ZM378.016 106.903L381.476 161.021C385.718 160.318 389.549 158.066 392.226 154.7C394.903 151.335 396.237 147.096 395.967 142.804L394.709 123.126C394.435 118.833 392.575 114.795 389.49 111.797C386.405 108.799 382.315 107.054 378.016 106.903Z" fill="#02004E"/>
<path d="M185.576 115.397C186.108 115.363 186.631 115.541 187.031 115.893C187.431 116.245 187.675 116.741 187.709 117.272L191.397 174.98C191.414 175.243 191.378 175.506 191.293 175.756C191.208 176.005 191.075 176.236 190.901 176.434C190.726 176.631 190.515 176.793 190.278 176.909C190.042 177.025 189.785 177.094 189.522 177.111C183.947 177.467 178.46 175.594 174.266 171.904C170.073 168.214 167.517 163.009 167.161 157.435L165.909 137.765C165.731 135.005 166.099 132.237 166.992 129.619C167.884 127.001 169.283 124.585 171.11 122.508C172.936 120.431 175.154 118.734 177.636 117.514C180.118 116.293 182.816 115.574 185.576 115.397Z" fill="white"/>
<path d="M188.149 177.553C182.7 177.545 177.457 175.464 173.485 171.733C169.513 168.002 167.11 162.899 166.762 157.461L165.504 137.783C165.324 134.97 165.7 132.15 166.61 129.483C167.521 126.815 168.948 124.353 170.81 122.237C172.672 120.122 174.932 118.393 177.462 117.151C179.992 115.909 182.742 115.177 185.555 114.998C186.191 114.958 186.818 115.173 187.297 115.595C187.776 116.016 188.068 116.61 188.11 117.247L191.8 174.954C191.84 175.591 191.626 176.218 191.204 176.697C190.783 177.176 190.188 177.469 189.551 177.51C189.079 177.539 188.613 177.553 188.149 177.553ZM185.594 115.794C180.127 116.147 175.024 118.656 171.406 122.769C167.789 126.883 165.953 132.265 166.302 137.732L167.56 157.411C167.733 160.119 168.438 162.766 169.634 165.202C170.83 167.637 172.494 169.813 174.531 171.605C176.569 173.397 178.939 174.771 181.507 175.647C184.075 176.523 186.79 176.885 189.498 176.711C189.709 176.698 189.915 176.643 190.104 176.55C190.294 176.457 190.463 176.327 190.603 176.168C190.742 176.01 190.849 175.825 190.917 175.625C190.985 175.425 191.013 175.214 191 175.003L187.31 117.298C187.297 117.087 187.242 116.881 187.149 116.691C187.056 116.501 186.926 116.331 186.768 116.192C186.609 116.052 186.424 115.945 186.224 115.877C186.024 115.808 185.813 115.78 185.602 115.794H185.594Z" fill="#02004E"/>
<g opacity="0.35">
<path d="M190.378 158.968L191.401 174.978C191.433 175.509 191.253 176.032 190.901 176.432C190.549 176.832 190.053 177.076 189.521 177.111C186.761 177.288 183.993 176.92 181.376 176.027C178.758 175.135 176.342 173.735 174.266 171.908C172.189 170.081 170.493 167.863 169.274 165.38C168.056 162.898 167.338 160.199 167.163 157.439L166.632 149.147C168.535 152.72 171.428 155.67 174.964 157.642C178.499 159.614 182.528 160.526 186.569 160.268L188.674 160.134C189.036 160.11 189.386 159.989 189.685 159.784C189.985 159.579 190.224 159.297 190.378 158.968Z" fill="#02004E"/>
</g>
<path d="M188.161 180.875C181.869 180.863 175.815 178.46 171.227 174.154C166.639 169.847 163.858 163.958 163.448 157.679L162.19 138.001C161.981 134.753 162.414 131.495 163.465 128.414C164.516 125.334 166.163 122.49 168.313 120.046C170.463 117.602 173.073 115.605 175.995 114.17C178.916 112.735 182.092 111.889 185.341 111.682C186.857 111.585 188.349 112.095 189.489 113.098C190.63 114.101 191.325 115.516 191.423 117.032L195.112 174.742C195.207 176.257 194.696 177.747 193.692 178.886C192.689 180.025 191.274 180.719 189.76 180.816C189.225 180.859 188.692 180.875 188.161 180.875ZM184.11 119.305C179.867 120.007 176.036 122.258 173.358 125.623C170.681 128.989 169.347 133.228 169.616 137.52L170.874 157.199C171.15 161.492 173.011 165.53 176.096 168.528C179.181 171.526 183.27 173.271 187.57 173.423L184.11 119.305Z" fill="#02004E"/>
<path d="M352.477 209.841C390.959 171.359 390.959 108.968 352.477 70.4865C313.996 32.0048 251.605 32.0048 213.123 70.4865C174.641 108.968 174.641 171.359 213.123 209.841C251.605 248.323 313.996 248.323 352.477 209.841Z" fill="white"/>
<path d="M282.811 239.101H282.086C227.531 238.708 183.469 194.012 183.858 139.458C184.251 85.1494 228.56 41.228 282.782 41.228H283.499C309.925 41.4246 334.698 51.8845 353.249 70.7147C371.8 89.5449 381.916 114.453 381.727 140.879C381.346 195.182 337.033 239.101 282.811 239.101ZM282.78 42.032C256.831 42.032 232.401 52.0457 213.903 70.2803C195.228 88.6839 184.85 113.254 184.664 139.476C184.477 165.697 194.508 190.407 212.91 209.064C231.312 227.721 255.884 238.116 282.105 238.305C308.327 238.494 333.037 228.461 351.694 210.057C370.351 191.653 380.748 167.083 380.935 140.862C381.122 114.64 371.09 89.9321 352.687 71.273C334.283 52.6138 309.715 42.2148 283.501 42.032H282.78Z" fill="#02004E"/>
<g opacity="0.35">
<path d="M380.489 127.223C381.089 131.746 381.373 136.306 381.338 140.869C380.945 195.288 336.518 239.088 282.094 238.704C227.669 238.321 183.877 193.884 184.261 139.46C184.261 137.887 184.318 136.328 184.404 134.787C190.695 182.801 231.597 220.025 281.39 220.383C334.242 220.757 377.664 179.456 380.489 127.223Z" fill="#02004E"/>
</g>
<path d="M282.821 242.425H282.071C254.746 242.229 229.152 231.417 209.976 211.956C190.799 192.495 180.347 166.743 180.544 139.436C180.741 112.13 191.552 86.5176 211.014 67.3414C230.475 48.1653 256.236 37.7073 283.531 37.9039C310.826 38.1005 336.448 48.9123 355.624 68.3735C374.8 87.8347 385.254 113.586 385.058 140.895C384.861 168.204 374.049 193.812 354.588 212.988C335.318 231.987 309.855 242.425 282.821 242.425ZM282.782 45.3483C257.711 45.3483 234.108 55.0239 216.233 72.6412C198.197 90.4217 188.163 114.16 187.982 139.478C187.802 164.795 197.495 188.685 215.273 206.721C233.052 224.757 256.793 234.788 282.11 234.971C307.468 235.119 331.317 225.459 349.353 207.678C367.389 189.898 377.426 166.169 377.623 140.842C377.82 115.515 368.111 91.6365 350.332 73.6005C332.554 55.5645 308.805 45.5311 283.478 45.3503L282.782 45.3483Z" fill="#02004E"/>
<path d="M381.002 143.397C381.155 162.68 375.04 180.631 364.452 195.526C356.516 206.695 323.68 226.389 282.945 227.081C245.176 227.721 210.649 207.855 202.544 196.808C191.733 182.082 185.32 164.229 185.167 144.948C184.752 93.9286 228.42 72.4289 282.506 71.9984C336.593 71.5679 380.597 92.3717 381.002 143.397Z" fill="#02004E"/>
<path d="M281.119 229.318C242.861 229.318 209.095 209.489 200.746 198.131C189.248 182.483 183.09 164.103 182.938 144.974C182.742 120.064 192.571 100.781 212.163 87.6597C229.283 76.1914 253.602 70.007 282.489 69.7711C311.376 69.5352 335.789 75.3382 353.09 86.5314C372.887 99.3404 383.025 118.465 383.223 143.374C383.375 162.505 377.511 180.981 366.263 196.808C358.468 207.777 326.037 228.565 282.983 229.296C282.361 229.312 281.738 229.318 281.119 229.318ZM283.979 74.2177H282.525C253.749 74.4477 186.876 81.7978 187.381 144.939C187.532 163.124 193.382 180.619 204.324 195.5C211.977 205.919 244.88 224.873 281.156 224.875C281.746 224.875 282.322 224.875 282.908 224.861C323.869 224.167 355.53 204.248 362.644 194.24C373.345 179.18 378.928 161.608 378.783 143.415C378.289 81.3181 313.493 74.2138 283.979 74.2138V74.2177Z" fill="#02004E"/>
<g opacity="0.7">
<path d="M361.547 138.858C363.188 129.368 358.943 120.711 352.066 119.522C345.19 118.333 338.285 125.062 336.644 134.552C335.003 144.043 339.247 152.7 346.124 153.889C353.001 155.078 359.906 148.348 361.547 138.858Z" fill="white"/>
</g>
<g opacity="0.7">
<path d="M340.474 173.492C341.822 169.282 339.987 164.931 336.374 163.774C332.762 162.617 328.74 165.092 327.392 169.302C326.043 173.512 327.879 177.863 331.491 179.02C335.104 180.177 339.125 177.702 340.474 173.492Z" fill="white"/>
</g>
<g opacity="0.35">
<path d="M361.578 95.9475C373.64 107.274 380.843 122.9 381.002 143.395C381.155 162.68 375.034 180.631 364.456 195.528C356.516 206.695 323.678 226.391 282.943 227.085C268.562 227.332 254.654 224.602 242.488 220.511C292.54 218.59 332.538 194.419 342.381 180.568C355.819 161.661 363.581 138.876 363.383 114.408C363.357 108.212 362.752 102.032 361.578 95.9475Z" fill="#111A28"/>
</g>
<path d="M195.126 103.673L189.282 99.0612L192.034 101.259L189.105 99.305C206.404 73.4039 240.215 58.3578 281.844 58.0237C323.222 57.7131 357.179 71.7153 375.177 96.4546C375.737 97.1848 376.006 98.0961 375.933 99.0129C375.86 99.9297 375.45 100.787 374.782 101.419C374.114 102.052 373.236 102.414 372.316 102.437C371.397 102.46 370.502 102.142 369.803 101.544C369.578 101.351 369.375 101.133 369.2 100.893C352.648 78.0726 320.822 65.1417 281.905 65.47C242.77 65.7826 211.204 79.6236 195.295 103.439C195.242 103.52 195.185 103.598 195.126 103.673Z" fill="#02004E"/>
<g opacity="0.7">
<path d="M207.387 175.135C207.387 175.135 191.183 124.925 218.151 104.65C245.12 84.3749 284.154 84.1449 283.266 86.6552C283.266 86.6552 240.141 97.467 223.506 131.752C210.674 158.198 207.387 175.135 207.387 175.135Z" fill="white"/>
</g>
<path d="M344.977 284.58L347.643 305.155L349.721 321.161C349.993 323.257 349.461 325.378 348.232 327.097C347.002 328.816 345.167 330.005 343.096 330.425C340.326 330.992 336.888 331.654 332.931 332.336C318.846 334.768 298.123 337.485 277.299 337.164C275.143 337.127 273.085 336.258 271.555 334.739C270.025 333.219 269.141 331.168 269.088 329.012L268.013 286.528C267.984 285.394 268.186 284.267 268.606 283.214C269.026 282.161 269.656 281.204 270.458 280.402C271.259 279.6 272.215 278.97 273.268 278.549C274.321 278.128 275.448 277.926 276.582 277.955C291.052 278.328 319.886 278.804 335.948 277.326C338.099 277.131 340.242 277.779 341.926 279.131C343.61 280.484 344.704 282.437 344.977 284.58Z" fill="white"/>
<path d="M275.937 277.965L259.047 279.767C257.262 279.958 255.615 280.815 254.436 282.169C253.256 283.522 252.631 285.27 252.686 287.064L253.975 329.213C254.031 330.984 254.746 332.671 255.98 333.944C257.214 335.216 258.878 335.983 260.647 336.093L276.254 337.076" fill="white"/>
<g opacity="0.25">
<path d="M275.937 277.965L259.047 279.767C257.262 279.958 255.615 280.815 254.436 282.169C253.256 283.522 252.631 285.27 252.686 287.064L253.975 329.213C254.031 330.984 254.746 332.671 255.98 333.944C257.214 335.216 258.878 335.983 260.647 336.093L276.254 337.076" fill="#02004E"/>
</g>
<path d="M280.722 340.48C279.562 340.48 278.402 340.471 277.24 340.453C274.234 340.41 271.361 339.203 269.227 337.085C267.092 334.967 265.863 332.103 265.798 329.097L264.724 286.61C264.684 285.032 264.965 283.461 265.551 281.994C266.137 280.528 267.015 279.195 268.131 278.079C269.248 276.962 270.58 276.084 272.047 275.498C273.513 274.912 275.084 274.63 276.663 274.67C291.948 275.063 319.937 275.498 335.636 274.053C338.636 273.771 341.629 274.668 343.979 276.554C346.33 278.44 347.854 281.167 348.229 284.157L352.972 320.734C353.341 323.652 352.597 326.602 350.887 328.995C349.178 331.388 346.629 333.049 343.749 333.645C330.973 336.248 306.265 340.48 280.722 340.48ZM276.362 281.238C275.685 281.239 275.015 281.375 274.391 281.638C273.767 281.902 273.203 282.288 272.731 282.773C272.258 283.258 271.888 283.832 271.641 284.463C271.393 285.093 271.275 285.766 271.292 286.443L272.367 328.93C272.394 330.239 272.927 331.487 273.855 332.411C274.783 333.335 276.033 333.863 277.343 333.883C303.456 334.277 329.343 329.873 342.443 327.2C343.698 326.939 344.809 326.215 345.554 325.172C346.299 324.129 346.623 322.843 346.461 321.572L341.72 285.002C341.559 283.7 340.897 282.512 339.875 281.69C338.853 280.868 337.551 280.476 336.245 280.597C320.205 282.075 291.925 281.635 276.486 281.242H276.352L276.362 281.238Z" fill="#02004E"/>
<path d="M276.252 340.364H276.043L260.439 339.382C257.848 339.23 255.408 338.111 253.602 336.247C251.796 334.382 250.756 331.908 250.687 329.313L249.401 287.165C249.332 284.545 250.249 281.995 251.971 280.02C253.694 278.045 256.095 276.789 258.699 276.5L275.589 274.7C276.021 274.649 276.458 274.684 276.875 274.804C277.293 274.923 277.683 275.124 278.022 275.395C278.362 275.666 278.644 276.002 278.853 276.383C279.062 276.764 279.193 277.182 279.239 277.614C279.285 278.046 279.245 278.483 279.121 278.899C278.997 279.315 278.792 279.703 278.517 280.039C278.242 280.376 277.904 280.655 277.521 280.859C277.137 281.064 276.717 281.191 276.285 281.232L259.395 283.035C258.435 283.141 257.55 283.604 256.915 284.332C256.281 285.06 255.943 286 255.969 286.966L257.256 329.114C257.281 330.07 257.665 330.982 258.33 331.669C258.996 332.356 259.895 332.768 260.85 332.824L276.454 333.807C277.307 333.858 278.106 334.239 278.682 334.87C279.258 335.5 279.566 336.33 279.541 337.184C279.515 338.038 279.158 338.848 278.545 339.443C277.932 340.038 277.112 340.37 276.258 340.37L276.252 340.364Z" fill="#02004E"/>
<path d="M311.872 338.922C311.034 338.921 310.228 338.6 309.619 338.025C309.01 337.45 308.643 336.664 308.595 335.828L307.338 314.302L296.436 306.948C296.022 306.669 295.677 306.299 295.428 305.866C295.178 305.434 295.03 304.95 294.995 304.452L293.212 278.525C293.152 277.656 293.44 276.798 294.013 276.141C294.585 275.484 295.395 275.081 296.264 275.021C297.134 274.961 297.991 275.249 298.648 275.821C299.305 276.394 299.708 277.204 299.768 278.073L301.441 302.399L312.359 309.771C312.778 310.054 313.126 310.429 313.376 310.869C313.627 311.308 313.772 311.799 313.802 312.303L315.152 335.452C315.178 335.883 315.118 336.314 314.976 336.722C314.835 337.129 314.614 337.505 314.328 337.828C314.041 338.15 313.693 338.413 313.305 338.601C312.917 338.789 312.495 338.899 312.064 338.924L311.872 338.922Z" fill="#02004E"/>
<path d="M342.522 304.231C342.658 305.535 341.918 316.248 341.918 316.248L334.492 317.021C329.381 317.554 324.68 312.696 324 306.158C323.32 299.62 326.916 293.897 332.031 293.367L339.457 292.594C339.457 292.594 342.3 302.105 342.522 304.231Z" fill="#22A7F0"/>
<path d="M342.52 304.232C342.658 305.533 341.93 316.25 341.93 316.25L341.685 316.274C341.881 313.18 342.078 309.51 341.993 308.78C341.777 306.657 338.934 297.145 338.934 297.145L331.508 297.917C327.934 298.285 325.097 301.202 323.941 305.15C323.702 299.044 327.187 293.87 332.04 293.369L339.467 292.596C339.467 292.596 342.302 302.105 342.52 304.232Z" fill="white"/>
<path d="M333.737 319.852C327.517 319.852 322.017 314.074 321.225 306.445C320.385 298.385 325.105 291.281 331.742 290.591L336.927 290.05C338.209 289.915 339.497 290.234 340.566 290.953C341.635 291.672 342.418 292.744 342.776 293.982C345.095 301.989 345.247 303.455 345.298 303.937C345.337 304.33 345.431 305.228 344.855 314.147C344.774 315.443 344.236 316.668 343.336 317.604C342.436 318.54 341.233 319.126 339.941 319.258L334.783 319.795C334.435 319.831 334.086 319.85 333.737 319.852ZM337.435 295.617L332.324 296.148C328.809 296.514 326.271 300.968 326.78 305.875C327.289 310.782 330.696 314.603 334.207 314.251L339.292 313.722C339.685 307.774 339.778 305.047 339.746 304.507C339.66 303.773 339.013 301.065 337.435 295.617Z" fill="#02004E"/>
<path d="M341.927 316.236C347.041 315.704 350.636 309.977 349.956 303.445C349.277 296.913 344.58 292.049 339.466 292.581C334.352 293.113 330.757 298.84 331.436 305.372C332.116 311.904 336.813 316.768 341.927 316.236Z" fill="#22A7F0"/>
<path d="M349.947 303.459C350.028 304.231 350.047 305.009 350.006 305.785C348.594 300.457 344.437 296.769 339.945 297.233C335.453 297.697 332.123 302.183 331.852 307.699C331.649 306.939 331.508 306.164 331.427 305.382C330.747 298.851 334.346 293.123 339.459 292.604C344.572 292.085 349.266 296.929 349.947 303.459Z" fill="white"/>
<path d="M341.134 319.081C338.168 319.081 335.313 317.799 333.002 315.405C330.59 312.906 329.045 309.451 328.651 305.672C328.258 301.894 329.058 298.202 330.906 295.254C332.89 292.095 335.821 290.162 339.162 289.814C342.504 289.467 345.775 290.754 348.366 293.435C350.78 295.936 352.323 299.392 352.716 303.168C353.11 306.944 352.31 310.638 350.462 313.587C348.48 316.744 345.547 318.676 342.205 319.024C341.85 319.061 341.492 319.08 341.134 319.081ZM340.218 295.346C340.061 295.346 339.904 295.354 339.746 295.37C338.146 295.537 336.686 296.549 335.634 298.224C334.454 300.113 333.939 302.549 334.205 305.104C334.47 307.66 335.469 309.93 337.018 311.536C338.394 312.958 340.031 313.653 341.629 313.482C343.228 313.311 344.692 312.303 345.742 310.63C346.921 308.739 347.436 306.305 347.171 303.75C346.908 301.21 345.909 298.926 344.358 297.32C343.12 296.034 341.665 295.346 340.218 295.346Z" fill="#02004E"/>
<path d="M184.259 292.812C184.259 292.812 206.472 302.869 259.322 301.053C259.322 301.053 269.004 310.331 259.322 317.996C249.641 325.66 195.153 330.072 180.597 314.365C171.381 304.422 184.259 292.812 184.259 292.812Z" fill="white"/>
<g opacity="0.25">
<path d="M259.322 318C249.645 325.666 195.155 330.07 180.593 314.363C176.211 309.645 176.824 304.534 178.686 300.479C179.215 301.418 179.855 302.29 180.593 303.076C195.155 318.782 249.645 314.371 259.322 306.714C260.245 305.996 261.071 305.161 261.777 304.23C263.804 307.609 265.471 313.125 259.322 318Z" fill="#02004E"/>
</g>
<path d="M220.96 328.234C208.619 328.234 187.505 326.661 178.187 316.598C175.238 313.408 173.823 309.753 174.004 305.731C174.379 297.389 181.745 290.654 182.064 290.371L183.66 288.932L185.612 289.816C185.948 289.964 208.146 299.527 259.215 297.77L260.591 297.723L261.593 298.682C262.167 299.232 267.203 304.253 266.901 310.762C266.779 313.335 265.721 317.125 261.365 320.573C254.878 325.713 236.309 328.147 221.81 328.24L220.96 328.234ZM185.103 296.669C183.412 298.594 180.731 302.222 180.568 306.048C180.473 308.269 181.271 310.259 183.007 312.142C196.339 326.529 249.112 321.9 257.284 315.431C259.25 313.872 260.25 312.246 260.335 310.463C260.445 308.149 258.994 305.775 257.903 304.397C214.493 305.712 191.883 299.111 185.103 296.669Z" fill="#02004E"/>
<g opacity="0.25">
<path d="M374.497 370.842C366.542 380.455 341.028 389.731 327.293 381.125C315.821 373.942 315.457 363.651 307.325 357.732C306.851 357.388 305.418 356.765 303.23 355.806C328.982 347.683 352.555 343.618 373.762 342.242C382.899 353.498 381.085 362.879 374.497 370.842Z" fill="#02004E"/>
</g>
<path d="M263.625 249.225C292.402 285.126 339.878 307.139 368.242 332.727C383.788 346.753 381.34 353.504 373.587 362.882C365.637 372.499 346.963 381.776 333.23 373.169C321.757 365.981 321.042 359.151 312.911 353.229C309.705 350.893 258.113 337.202 229.472 292.563" fill="white"/>
<g opacity="0.25">
<path d="M373.585 362.879C365.637 372.489 346.963 381.766 333.23 373.16C321.757 365.977 321.042 359.147 312.907 353.219C309.707 350.883 258.111 337.198 229.472 292.553L230.062 291.808C262.006 325.389 295.302 327.398 317.417 344.42C325.386 350.553 326.078 352.588 337.55 359.771C351.285 368.377 369.96 359.1 377.906 349.488C378.417 348.874 378.901 348.27 379.359 347.673C380.666 353.099 377.977 357.565 373.585 362.879Z" fill="#02004E"/>
</g>
<path d="M264.591 248.439C270.7 252.75 275.741 257.65 281.131 262.349C286.425 267.104 291.864 271.741 297.352 276.353C302.941 280.874 308.726 285.144 314.651 289.278C320.549 293.445 326.56 297.499 332.563 301.588C338.567 305.676 344.618 309.753 350.564 314.053C352.062 315.101 353.545 316.183 355.013 317.298C356.483 318.403 357.961 319.484 359.428 320.61C362.317 322.914 365.246 325.155 368.03 327.634C370.948 330.058 373.701 332.675 376.269 335.468C376.907 336.221 377.554 336.956 378.179 337.728C378.769 338.554 379.392 339.342 379.962 340.207L380.776 341.562L381.179 342.24C381.305 342.478 381.417 342.735 381.533 342.983L382.217 344.487C382.414 345.012 382.577 345.578 382.75 346.122C383.379 348.326 383.626 350.879 383.107 353.225C382.645 355.424 381.811 357.529 380.642 359.448C379.605 361.15 378.452 362.777 377.191 364.319C376.622 365.061 375.94 365.823 375.248 366.582C374.556 367.341 373.831 368.017 373.112 368.723C370.188 371.399 366.927 373.683 363.412 375.515C359.886 377.382 356.114 378.745 352.207 379.562C348.258 380.366 344.059 380.545 339.919 379.715L338.376 379.358C337.857 379.256 337.347 379.107 336.855 378.913C335.872 378.52 334.84 378.223 333.894 377.734C332.949 377.244 331.999 376.739 331.107 376.218C330.293 375.67 329.463 375.159 328.667 374.575C327.05 373.421 325.514 372.159 324.067 370.797C322.641 369.439 321.299 367.994 320.049 366.472C317.598 363.478 315.642 360.61 313.344 358.45C313.069 358.159 312.754 357.915 312.465 357.648C312.175 357.379 311.871 357.126 311.555 356.889L311.085 356.523L310.851 356.34L310.735 356.25C310.753 356.27 310.776 356.285 310.802 356.293L310.606 356.205C310.448 356.136 310.33 356.073 310.12 355.99C308.593 355.363 306.837 354.709 305.145 354.052C301.724 352.729 298.296 351.341 294.911 349.857C281.369 343.926 268.353 336.543 256.623 327.347C253.675 325.071 250.85 322.629 248.072 320.146C245.342 317.605 242.529 315.136 239.942 312.423C238.622 311.091 237.381 309.684 236.225 308.208C235.635 307.483 235.045 306.754 234.52 305.971C233.995 305.189 233.439 304.438 232.926 303.652C231.909 302.063 231.007 300.404 230.229 298.686C229.454 296.925 228.848 295.095 228.42 293.219C228.367 292.962 228.391 292.695 228.489 292.452C228.588 292.209 228.756 292 228.973 291.853C229.19 291.706 229.446 291.626 229.709 291.624C229.971 291.622 230.228 291.699 230.447 291.843L230.51 291.884C232.136 292.975 233.459 294.222 234.813 295.442C236.168 296.663 237.382 297.951 238.633 299.213C239.25 299.848 239.844 300.5 240.431 301.157C241.019 301.814 241.638 302.443 242.226 303.097C242.814 303.752 243.406 304.395 243.995 305.063C244.585 305.731 245.187 306.358 245.764 307.029C248.076 309.697 250.525 312.243 253.101 314.658C255.725 317.017 258.408 319.331 261.215 321.497C272.369 330.247 284.836 337.333 297.901 343.054C301.17 344.487 304.478 345.827 307.834 347.125C309.528 347.783 311.176 348.393 313.014 349.146C313.226 349.228 313.517 349.366 313.774 349.482C313.918 349.551 314.01 349.586 314.197 349.678C314.419 349.798 314.639 349.926 314.854 350.06C314.946 350.119 315.103 350.215 315.137 350.246L315.288 350.362L315.593 350.598L316.2 351.07C317.01 351.693 317.773 352.391 318.514 353.089C321.504 355.943 323.645 359.142 325.809 361.738C327.892 364.316 330.315 366.6 333.012 368.528C333.678 369.02 334.401 369.458 335.089 369.93L337.091 371.011C337.757 371.363 338.498 371.55 339.192 371.842C339.542 371.988 339.908 372.094 340.281 372.159L341.394 372.416C344.386 373.006 347.584 372.91 350.741 372.267C357.053 370.962 363.245 367.665 368.067 363.256C368.641 362.686 369.276 362.153 369.78 361.542C370.283 360.93 370.845 360.372 371.386 359.67C372.428 358.402 373.382 357.064 374.24 355.664C374.974 354.482 375.506 353.185 375.812 351.827C376.098 350.608 375.946 349.431 375.616 348.161C374.883 345.623 372.999 342.91 370.745 340.429C368.388 337.876 365.864 335.483 363.188 333.266C360.544 330.907 357.7 328.733 354.908 326.506C353.493 325.413 352.038 324.355 350.605 323.278C349.172 322.201 347.725 321.135 346.247 320.099C340.419 315.885 334.399 311.843 328.41 307.746C322.42 303.65 316.361 299.588 310.389 295.362C304.392 291.189 298.532 286.769 292.621 282.388C286.8 277.882 280.981 273.3 275.829 267.943C270.531 262.781 265.89 256.805 262.676 249.978C262.557 249.723 262.525 249.437 262.585 249.162C262.646 248.888 262.795 248.641 263.01 248.46C263.225 248.279 263.494 248.174 263.775 248.162C264.056 248.15 264.333 248.23 264.563 248.392L264.591 248.439Z" fill="#02004E"/>
<path d="M265.861 332.836C265.596 332.835 265.332 332.804 265.074 332.741C264.228 332.535 263.498 332 263.045 331.256C262.592 330.511 262.454 329.617 262.66 328.77C263.108 326.938 273.906 284.1 303.745 284.1H304.231C305.091 284.13 305.906 284.496 306.499 285.12C307.092 285.743 307.417 286.575 307.404 287.436C307.39 288.297 307.04 289.118 306.427 289.723C305.815 290.328 304.989 290.669 304.128 290.672H303.765C278.996 290.672 269.145 329.932 269.047 330.329C268.873 331.043 268.464 331.678 267.886 332.132C267.309 332.587 266.595 332.834 265.861 332.836Z" fill="#02004E"/>
<path d="M387.53 264.932C386.967 264.932 386.414 264.786 385.924 264.509C369.359 255.205 368.148 210.421 368.065 205.339C368.05 204.468 368.382 203.626 368.988 202.999C369.594 202.373 370.424 202.012 371.295 201.997H371.352C372.214 201.998 373.041 202.337 373.655 202.941C374.269 203.546 374.621 204.367 374.635 205.229C374.849 217.975 377.87 252.441 389.144 258.773C389.777 259.129 390.275 259.686 390.558 260.355C390.842 261.024 390.895 261.768 390.711 262.471C390.527 263.174 390.114 263.796 389.539 264.24C388.963 264.684 388.257 264.924 387.53 264.924V264.932Z" fill="#02004E"/>
<path d="M414.733 180.891C414.766 181.087 414.782 181.48 414.804 181.793L414.865 182.801C414.924 183.478 414.947 184.164 415.016 184.85C415.106 186.226 415.279 187.602 415.476 188.99C415.673 190.378 415.956 191.761 416.229 193.206C416.443 194.692 416.819 196.139 416.998 197.905C415.455 197.172 414.096 196.101 413.023 194.773C412.485 194.127 412.002 193.437 411.578 192.711C411.169 191.98 410.799 191.227 410.471 190.456C409.806 188.911 409.321 187.294 409.026 185.638C408.884 184.807 408.791 183.968 408.747 183.126C408.731 182.699 408.716 182.277 408.747 181.842C408.758 181.378 408.796 180.914 408.861 180.454C408.953 179.757 409.293 179.116 409.818 178.648C410.344 178.18 411.02 177.917 411.723 177.906C412.427 177.896 413.111 178.139 413.65 178.591C414.189 179.043 414.548 179.673 414.66 180.368L414.733 180.891Z" fill="#02004E"/>
</svg>
