<svg width="466" height="611" viewBox="0 0 466 611" fill="none" xmlns="http://www.w3.org/2000/svg">
<path d="M382.397 462.321C381.805 468.803 380.811 475.241 379.423 481.6C377.491 490.508 374.798 499.234 371.374 507.682C356.548 544.289 328.184 575.477 289.358 593.038C250.45 610.641 208.189 611.305 170.854 598.178C156.179 593.009 142.334 585.734 129.753 576.581C168.831 566.754 213.998 550.912 260.742 529.762C307.486 508.612 349.211 485.173 382.397 462.321Z" fill="#FFB200"/>
<path d="M260.742 529.762C307.479 508.623 349.211 485.175 382.397 462.321C381.805 468.803 380.811 475.241 379.423 481.6C353.882 500.154 313.077 523.061 265.561 544.55C220.048 565.13 177.623 580.237 147.064 587.557C141.064 584.274 135.281 580.608 129.753 576.581C168.831 566.754 213.998 550.894 260.742 529.762Z" fill="#D66B09"/>
<path d="M375.935 400.798C350.018 421.758 298.822 451.096 237.677 478.756C176.532 506.416 120.68 525.482 87.824 531.103C84.3685 525.442 81.2646 519.575 78.5301 513.533C78.3973 513.241 78.2734 512.966 78.1406 512.666C76.9369 509.966 75.8127 507.257 74.7771 504.513C72.3623 498.195 70.3519 491.729 68.7582 485.156C68.6963 484.89 68.6343 484.633 68.5723 484.368C63.0827 460.946 62.958 436.586 68.2077 413.109C73.4573 389.632 83.9455 367.645 98.8882 348.792C100.419 346.845 102.013 344.933 103.65 343.056C118.662 325.847 137.212 312.082 158.033 302.703C161.016 301.357 164.019 300.104 167.043 298.941C207.556 283.487 250.928 285.699 288.174 302.172C288.395 302.278 288.643 302.375 288.873 302.49C292.37 304.048 295.807 305.745 299.185 307.58C311.52 314.195 322.928 322.409 333.112 332.01C339.579 338.107 345.516 344.743 350.859 351.846C351.443 352.616 352.019 353.394 352.603 354.191C353.081 354.837 353.541 355.492 354.002 356.147C357.888 361.684 361.415 367.464 364.561 373.452C365.756 375.7 366.889 377.984 367.978 380.311C368.27 380.949 368.571 381.586 368.863 382.232C371.601 388.269 373.963 394.469 375.935 400.798Z" fill="#FFB200"/>
<path d="M367.987 380.307C368.282 380.938 368.577 381.575 368.872 382.217C371.607 388.261 373.963 394.468 375.928 400.804C350.018 421.753 298.824 451.096 237.671 478.756C176.517 506.416 120.678 525.48 87.8262 531.098C84.3668 525.441 81.2628 519.574 78.5323 513.531C78.4017 513.243 78.2734 512.962 78.1495 512.672C109.3 509.229 166.147 490.781 228.485 462.587C293.288 433.276 346.27 401.471 367.987 380.307Z" fill="#D66B09"/>
<path d="M66.6516 458.962C65.8402 458.962 65.062 458.943 64.3171 458.905L64.6954 451.602C86.6733 452.729 143.78 434.634 203.611 407.567C266.652 379.059 319.815 346.464 330.023 330.067L336.219 333.93C325.155 351.702 271.861 384.722 206.613 414.23C146.84 441.275 91.3336 458.962 66.6516 458.962Z" fill="#D66B09"/>
<path d="M71.9314 404.726L70.856 397.492C95.4184 393.843 137.945 379.249 181.825 359.402C227.808 338.602 267.63 315.635 285.753 299.45L290.621 304.905C271.983 321.55 231.448 344.986 184.835 366.065C140.385 386.171 97.1223 400.984 71.9314 404.726Z" fill="#D66B09"/>
<path d="M68.8224 488.019H68.5635L68.6011 480.717H68.8423C94.1217 480.717 152.93 461.797 215.359 433.557C281.08 403.832 336.317 370.309 349.664 352.038L355.568 356.351C341.331 375.841 286.196 409.545 218.372 440.217C155.074 468.838 95.0578 488.019 68.8224 488.019Z" fill="#D66B09"/>
<path d="M170.987 600.002L170.856 598.189L170.17 596.483L170.434 596.379L170.723 596.355C192.369 594.795 233.568 581.48 275.683 562.434C318.027 543.285 354.207 521.802 370.102 506.37L372.647 508.994C356.471 524.706 319.893 546.453 277.187 565.765C234.061 585.271 193.367 598.389 170.987 600.002Z" fill="#D66B09"/>
<path d="M223.796 610.688C189.256 610.704 155.601 599.764 127.673 579.44L121.563 574.99L128.894 573.147C169.168 563.019 214.257 546.898 259.286 526.533C304.315 506.169 346.188 482.958 380.394 459.403L386.619 455.116L385.926 462.64C380.571 520.95 344.13 572.149 290.823 596.26C269.76 605.778 246.91 610.697 223.796 610.688ZM138.131 578.073C182.555 607.207 239.237 611.818 287.9 589.801C336.562 567.783 370.531 522.185 377.984 469.586C344.681 491.872 304.826 513.701 262.2 532.979C219.574 552.258 176.855 567.781 138.131 578.073Z" fill="#02004E"/>
<path d="M460.541 365.534C470.16 386.802 438.45 423.718 382.397 462.321C349.204 485.175 307.479 508.623 260.742 529.762C214.004 550.901 168.831 566.754 129.753 576.581C63.7484 593.177 15.0925 592.611 5.47334 571.343C-3.26072 552.03 22.0696 519.822 68.7604 485.156C70.3563 491.73 72.3689 498.197 74.786 504.516C61.8785 515.071 55.521 523.446 57.7294 528.328C59.9799 533.3 70.825 533.997 87.824 531.094C120.678 525.476 176.523 506.417 237.671 478.756C298.818 451.096 350.018 421.758 375.933 400.8C389.334 389.957 395.975 381.347 393.724 376.375C391.511 371.507 381.031 370.734 364.586 373.456C361.436 367.469 357.906 361.689 354.019 356.152C410.885 343.979 451.807 346.221 460.541 365.534Z" fill="#FFC943"/>
<path d="M65.1911 547.821C53.0914 547.821 43.886 545.32 40.8632 538.635C36.5305 529.058 46.5414 514.516 70.617 495.428L74.0248 499.723C53.4056 516.076 42.8769 529.78 45.8598 536.376C49.4291 544.267 75.6291 546.821 137.728 528.045C169.593 518.401 205.633 504.622 241.952 488.214C278.272 471.806 312.398 453.831 340.691 436.267C395.802 402.035 411.188 380.672 407.618 372.779C404.636 366.18 387.393 365.034 361.496 369.725L360.521 364.328C390.755 358.86 408.285 360.94 412.615 370.524C421.073 389.223 372.994 422.663 343.575 440.93C315.08 458.619 280.73 476.698 244.203 493.213C207.676 509.727 171.401 523.597 139.314 533.309C118.023 539.733 86.9367 547.821 65.1911 547.821Z" fill="#FFEC90"/>
<path d="M56.862 569.303C37.1678 569.303 24.5967 564.776 20.5029 555.725C12.0145 536.954 41.9918 508.939 68.6321 488.734L71.9513 493.104C37.5661 519.18 20.202 541.744 25.5017 553.464C32.18 568.23 73.206 567.267 132.572 550.948C168.862 540.974 209.694 525.916 250.633 507.401C291.573 488.886 329.831 468.179 361.295 447.504C412.75 413.699 440.568 383.527 433.891 368.763C428.592 357.035 400.181 355.182 357.892 363.782L356.799 358.409C389.562 351.744 430.402 347.738 438.895 366.501C447.003 384.425 419.816 415.626 364.309 452.089C332.601 472.916 294.078 493.772 252.888 512.391C211.699 531.01 170.588 546.181 134.019 556.23C102.318 564.95 76.1668 569.303 56.862 569.303Z" fill="#FFEC90"/>
<path d="M51.7946 591.819C25.1809 591.819 7.95836 585.441 2.24924 572.802C-7.069 552.204 15.8073 520.067 66.6605 482.312L70.9533 479.123L72.2125 484.321C73.7735 490.75 75.7418 497.073 78.1052 503.252L79.0169 505.64L77.0386 507.257C59.0372 521.977 60.8849 526.677 60.9668 526.87C61.0487 527.062 63.4319 531.672 87.242 527.604C120.8 521.864 177.886 501.909 236.223 475.525C294.56 449.142 347.248 419.45 373.716 398.041C392.487 382.852 390.6 378.028 390.511 377.829C390.423 377.629 388.11 373.151 365.174 376.944L362.654 377.362L361.463 375.1C358.382 369.248 354.932 363.597 351.134 358.183L348.06 353.806L353.289 352.686C415.224 339.429 454.462 343.477 463.778 364.076C473.97 386.614 445.044 423.484 384.417 465.238C349.87 489.028 307.612 512.453 262.211 532.988C216.81 553.523 171.292 569.785 130.616 580.015C99.2577 587.902 72.6417 591.819 51.7946 591.819ZM66.6715 491.159C22.9769 524.391 1.35969 553.654 8.69523 569.885C17.0841 588.433 63.131 589.686 128.885 573.149C169.159 563.021 214.248 546.9 259.277 526.536C304.306 506.171 346.179 482.96 380.385 459.405C436.224 420.95 465.699 385.54 457.31 366.992C449.97 350.761 413.717 347.67 359.91 358.537C362.253 362.12 364.462 365.809 366.513 369.561C384.393 366.88 394.091 368.597 396.946 374.912C399.98 381.617 394.007 390.716 378.155 403.546C350.842 425.639 298.869 454.957 239.127 481.978C179.385 508.999 123.046 528.669 88.4193 534.584C68.3068 538.016 57.5325 536.493 54.4987 529.786C51.6442 523.471 56.7602 515.058 70.586 503.398C69.1278 499.377 67.8155 495.284 66.6715 491.159Z" fill="#02004E"/>
<g opacity="0.35">
<path d="M382.397 462.321C381.805 468.803 380.811 475.241 379.423 481.6C377.491 490.508 374.798 499.234 371.374 507.682C356.548 544.289 328.184 575.477 289.358 593.038C250.45 610.641 208.189 611.305 170.854 598.178C156.179 593.009 142.334 585.734 129.753 576.581C168.831 566.754 213.998 550.912 260.742 529.762C307.486 508.612 349.211 485.173 382.397 462.321Z" fill="#02004E"/>
</g>
<g opacity="0.41">
<path d="M375.931 400.793C372.914 403.233 369.564 405.78 365.882 408.434C364.397 404.243 362.723 400.084 360.861 395.956C360.567 395.314 360.271 394.682 359.976 394.051C358.895 391.719 357.76 389.432 356.571 387.191C353.417 381.206 349.889 375.425 346.007 369.885C345.544 369.221 345.073 368.577 344.601 367.928C338.813 359.938 332.286 352.51 325.106 345.743C311.934 333.318 296.738 323.233 280.172 315.92C240.149 298.217 193.044 296.985 150.031 316.442C122.368 328.903 98.8588 349.037 82.2941 374.456C98.7346 342.679 125.433 317.391 158.055 302.698C201.066 283.252 248.173 284.476 288.187 302.176C304.756 309.492 319.955 319.581 333.13 332.01C340.305 338.775 346.829 346.198 352.616 354.182C353.096 354.833 353.559 355.49 354.019 356.15C357.906 361.683 361.435 367.46 364.583 373.445C365.772 375.698 366.908 377.984 367.991 380.305C368.294 380.938 368.591 381.571 368.876 382.221C371.609 388.26 373.965 394.463 375.931 400.793Z" fill="white"/>
</g>
<path d="M86.0582 534.989L84.8057 532.942C81.2745 527.158 78.1034 521.161 75.3104 514.987C73.934 511.944 72.6439 508.844 71.4778 505.775C69.0106 499.316 66.9566 492.707 65.3283 485.988C46.9861 410.127 85.37 331.689 156.592 299.477C227.815 267.264 312.064 290.242 356.918 354.114C360.889 359.775 364.496 365.683 367.719 371.801C369.252 374.704 370.728 377.72 372.102 380.758C374.896 386.933 377.305 393.274 379.314 399.747L380.024 402.039L378.159 403.548C350.846 425.639 298.873 454.957 239.131 481.978C179.389 508.999 123.05 528.669 88.4237 534.584L86.0582 534.989ZM223.646 292.079C201.525 292.079 179.659 296.802 159.511 305.934C91.3822 336.741 54.6691 411.767 72.2124 484.324C73.7738 490.752 75.7421 497.074 78.1052 503.252C79.2227 506.193 80.4575 509.158 81.7719 512.068C84.1126 517.244 86.7313 522.289 89.6164 527.182C123.453 520.935 179.236 501.292 236.223 475.525C293.211 449.759 344.796 420.826 371.83 399.548C370.061 394.15 368.002 388.852 365.661 383.677C364.347 380.77 362.935 377.886 361.457 375.105C358.375 369.251 354.924 363.599 351.125 358.183C321.256 315.652 273.12 292.079 223.646 292.079Z" fill="#02004E"/>
<g opacity="0.35">
<path d="M459.244 386.822C450.455 407.649 422.732 434.557 382.397 462.324C349.204 485.178 307.479 508.625 260.744 529.762C214.009 550.899 168.831 566.752 129.753 576.586C63.7484 593.182 15.0925 592.606 5.47113 571.346C-0.370756 558.44 9.01166 539.764 29.83 518.459C26.3957 526.575 25.8469 533.78 28.5377 539.746C38.1591 561.016 86.815 561.591 152.819 544.986C191.898 535.161 237.066 519.317 283.819 498.172C330.572 477.026 372.288 453.578 405.472 430.724C427.512 415.544 445.772 400.63 459.244 386.822Z" fill="#02004E"/>
</g>
<path d="M215.049 295.783C249.773 298.428 310.687 298.518 315.954 264.288C316.661 259.475 317.058 254.622 317.142 249.759C317.939 215.555 306.877 170.021 293.29 158.871C285.53 152.509 271.098 150.599 255.258 152.113C223.783 155.124 186.716 171.621 185.288 193.493C183.899 214.521 180.325 293.141 215.049 295.783Z" fill="white"/>
<g opacity="0.35">
<path d="M215.049 295.783C249.773 298.428 310.687 298.518 315.954 264.288C316.661 259.475 317.058 254.622 317.142 249.759C307.207 256.886 294.129 249.579 292.914 240.277C285.457 182.851 265.196 160.05 255.258 152.113C223.783 155.124 186.716 171.621 185.288 193.493C183.899 214.521 180.325 293.141 215.049 295.783Z" fill="#02004E"/>
</g>
<path d="M240.946 300.371C232.141 300.371 223.289 299.963 214.781 299.315C180.157 296.677 179.232 231.728 181.75 193.249C182.62 180.001 194.562 167.738 215.385 158.711C241.596 147.349 279.692 143.133 295.541 156.134C313.431 170.811 324.529 231.746 319.457 264.826C315.133 292.924 278.517 300.371 240.946 300.371ZM265.041 155.116C250.742 155.116 233.533 158.559 218.193 165.208C200.201 173.011 189.493 183.4 188.816 193.712C187.337 216.243 184.877 289.935 215.319 292.254C249.558 294.861 307.707 294.622 312.449 263.753C317.514 230.757 305.509 173.469 291.04 161.608C285.718 157.242 276.278 155.116 265.041 155.116Z" fill="#02004E"/>
<path d="M287.335 216.436L303.047 210.963C303.883 210.67 304.772 210.559 305.655 210.636C306.538 210.713 307.394 210.978 308.167 211.411C308.939 211.845 309.611 212.438 310.137 213.151C310.663 213.865 311.031 214.682 311.216 215.548C313.909 228.197 317.762 254.337 304.945 259.09C289.413 264.844 284.78 247.021 283.162 222.733C283.073 221.372 283.433 220.018 284.187 218.881C284.941 217.743 286.047 216.884 287.335 216.436Z" fill="white"/>
<g opacity="0.35">
<path d="M283.184 222.696C284.746 246.986 289.34 264.832 304.885 259.101C311.269 256.758 313.535 249.093 313.867 240.431C312.487 242.866 310.579 244.693 307.979 245.647C294.062 250.77 288.915 237.004 286.884 216.617C285.717 217.127 284.736 217.984 284.074 219.072C283.412 220.16 283.102 221.425 283.184 222.696Z" fill="#02004E"/>
</g>
<path d="M299.44 263.726C296.817 263.749 294.246 262.995 292.051 261.56C284.795 256.84 281.086 245.284 279.659 222.926C279.528 220.79 280.1 218.67 281.287 216.89C282.473 215.11 284.21 213.767 286.231 213.065L301.942 207.626C303.254 207.171 304.648 207.001 306.031 207.126C307.413 207.251 308.754 207.669 309.963 208.352C311.171 209.035 312.221 209.967 313.042 211.087C313.863 212.207 314.436 213.488 314.724 214.847C318.682 233.656 320.402 257.165 306.114 262.423C303.758 263.29 301.533 263.725 299.44 263.726ZM305.144 214.159C304.843 214.161 304.544 214.213 304.259 214.313L288.548 219.753C287.99 219.945 287.511 220.313 287.182 220.803C286.853 221.293 286.693 221.877 286.727 222.465C287.169 229.48 288.553 250.823 295.926 255.62C297.917 256.913 300.449 256.966 303.671 255.778C312.183 252.644 311.385 233.331 307.8 216.301C307.723 215.927 307.566 215.574 307.34 215.266C307.115 214.958 306.825 214.703 306.492 214.517C306.08 214.284 305.615 214.162 305.142 214.163L305.144 214.159Z" fill="#02004E"/>
<path d="M297.815 165.686C296.056 166.596 294.211 167.329 292.308 167.875C290.42 168.457 288.466 168.864 286.514 169.278C284.563 169.692 282.591 170.054 280.602 170.384C278.612 170.714 276.599 170.993 274.523 171.154C274.416 171.165 274.309 171.14 274.217 171.085C274.125 171.029 274.054 170.945 274.013 170.846C273.973 170.746 273.966 170.636 273.993 170.532C274.02 170.428 274.081 170.336 274.165 170.269C275.768 168.971 277.449 167.772 279.199 166.68C280.929 165.602 282.689 164.582 284.479 163.644C286.248 162.679 288.07 161.815 289.936 161.055C291.798 160.287 293.739 159.726 295.724 159.38C296.508 159.257 297.311 159.415 297.989 159.826C298.668 160.238 299.18 160.875 299.434 161.627C299.688 162.379 299.668 163.196 299.378 163.935C299.088 164.674 298.546 165.286 297.849 165.664L297.815 165.686Z" fill="#02004E"/>
<path d="M234.398 281.095L221.594 277.207C207.145 272.816 191.453 273.547 177.747 279.813C173 281.984 168.411 284.843 164.616 288.607C150.746 302.362 150.359 329.987 159.774 341.177C163.487 345.603 167.482 350.494 167.482 350.494C164.844 354.273 146.681 384.941 161.286 397.133C174.094 407.81 197.731 406.058 210.189 389.267C218.419 378.167 220.09 365.368 219.623 355.579C219.074 344.136 213.263 328.69 222.721 324.663C236.836 318.662 249.657 321.988 270.075 306.383C293.974 288.12 297.705 248.785 287.092 215.53C279.473 191.614 233.004 146.328 233.004 146.328L247.662 280.816L234.398 281.095Z" fill="white"/>
<path d="M162.281 222.187L115.538 264.744L115.051 263.965L95.0201 231.711C118.671 221.638 133.373 191.703 133.373 191.703L135.249 193.694L162.281 222.187Z" fill="white"/>
<g opacity="0.35">
<path d="M162.281 222.187L115.538 264.744L115.051 263.965C128.549 243.253 133.736 207.015 135.249 193.685L162.281 222.187Z" fill="#02004E"/>
</g>
<path d="M114.77 270.23L89.8333 230.071L93.6327 228.453C115.816 219.005 130.058 190.424 130.2 190.143L132.444 185.575L167.333 222.377L114.77 270.23ZM100.121 233.207L116.297 259.263L157.223 222.005L134.161 197.677C129.31 206.066 117.352 224.185 100.121 233.207Z" fill="#02004E"/>
<path d="M109.393 227.212C109.393 227.212 81.3802 202.01 63.5359 195.254L58.5482 206.958L95.9628 243.797L109.393 227.212Z" fill="white"/>
<path d="M95.9628 247.338C95.0329 247.338 94.1403 246.972 93.4778 246.32L56.0632 209.481C55.5568 208.982 55.2123 208.342 55.0746 207.645C54.9369 206.947 55.0122 206.224 55.2909 205.571L60.2786 193.867C60.637 193.026 61.3067 192.356 62.1477 191.998C62.9887 191.639 63.9357 191.62 64.7906 191.944C83.0443 198.855 110.596 223.532 111.76 224.579C112.437 225.186 112.855 226.03 112.926 226.936C112.998 227.842 112.718 228.741 112.145 229.447L98.7134 246.043C98.4028 246.427 98.0154 246.742 97.576 246.967C97.1366 247.192 96.6549 247.323 96.162 247.351L95.9628 247.338ZM62.7504 206.135L95.6663 238.544L104.498 227.637C97.8105 221.846 79.2227 206.33 65.408 199.892L62.7504 206.135Z" fill="#02004E"/>
<path d="M136.832 158.607C150.905 214.721 134.249 266.054 134.249 266.054C79.7582 285.626 109.49 339.347 109.49 339.347C109.49 339.347 71.9093 361.086 89.6319 382.808C105.055 401.723 156.858 379.991 159.365 352.397C159.365 352.397 150.454 324.384 164.269 314.778" fill="white"/>
<g opacity="0.35">
<path d="M375.935 400.798C316.906 449.392 148.252 522.424 87.824 531.098C56.1805 480.825 56.7138 411.827 89.8421 361.432C90.4455 360.495 91.0621 359.564 91.692 358.639C93.958 355.275 96.3596 351.992 98.897 348.787C102.464 346.575 104.996 345.327 104.996 345.327C104.996 345.327 104.473 344.512 103.668 343.052C118.679 325.843 137.23 312.078 158.051 302.698C161.033 301.353 164.037 300.099 167.061 298.937C207.574 283.482 250.945 285.695 288.192 302.167C288.413 302.274 288.661 302.371 288.891 302.486C292.387 304.044 295.825 305.74 299.203 307.576C297.234 309.323 295.14 310.924 292.936 312.364C269.055 327.969 254.052 324.641 237.536 330.642C231.871 332.705 230.871 337.741 231.34 343.698C230.676 350.372 233.482 359.312 233.889 366.649C233.889 366.791 233.889 366.933 233.907 367.074C233.482 375.864 230.764 386.131 222.842 395.239C208.778 411.446 182.516 413.641 167.229 404.161C166.681 403.825 166.15 403.471 165.627 403.099C161.644 400.276 159.741 396.443 159.21 392.194C160.396 381.245 167.486 369.234 171.115 363.888C171.894 362.737 172.514 361.896 172.885 361.436C172.885 361.436 172.089 360.577 170.841 359.259C169.902 358.249 168.699 356.975 167.389 355.585C166.256 354.39 165.043 353.125 163.866 351.894C162.646 350.615 161.588 349.191 160.715 347.654C161.28 351.298 162.175 354.883 163.388 358.365C160.511 385.414 106.031 417.943 82.9204 395.098C82.0706 452.817 142.127 500.278 202.334 476.087C266.55 450.268 338.158 414.703 372.182 390.079C373.566 393.631 374.817 397.204 375.935 400.798Z" fill="#02004E"/>
</g>
<path d="M292.715 252.538C292.414 274.365 285.368 294.688 270.082 306.381C249.671 321.986 236.854 318.657 222.727 324.659C217.886 326.721 217.036 331.757 217.443 337.714C216.868 344.388 219.275 353.328 219.62 360.666C219.62 360.807 219.62 360.949 219.638 361.091C219.275 369.88 216.947 380.148 210.185 389.256C198.165 405.463 175.718 407.658 162.662 398.178C162.193 397.841 161.733 397.487 161.29 397.116C157.891 394.292 156.263 390.46 155.802 386.211C156.811 375.262 162.883 363.25 165.981 357.904C166.645 356.754 167.176 355.913 167.486 355.452C167.486 355.452 166.805 354.594 165.742 353.275C164.937 352.266 163.91 350.991 162.786 349.602C161.821 348.407 160.794 347.141 159.777 345.911C158.72 344.605 157.817 343.182 157.086 341.671C157.562 345.296 158.326 348.877 159.369 352.381C156.864 379.98 105.058 401.71 89.6297 382.794C86.8238 379.36 85.4076 375.934 85.0093 372.58C82.8584 354.753 109.492 339.347 109.492 339.347C109.492 339.347 94.6661 312.572 105.128 289.948C109.483 280.521 118.228 271.803 134.249 266.049C134.249 266.049 138.188 253.914 140.613 234.99C141.233 230.14 141.755 224.846 142.092 219.199C142.795 207.55 142.544 195.863 141.339 184.254L233.004 146.322L233.136 146.455L233.305 146.623L233.526 146.844C233.606 146.933 233.694 147.021 233.8 147.118C234.269 147.596 234.933 148.269 235.774 149.137C239.686 153.164 247.316 161.183 255.575 170.707C268.586 185.71 283.129 204.44 287.112 217.221C288.254 220.877 289.227 224.612 290.024 228.383C291.728 236.324 292.629 244.416 292.715 252.538Z" fill="white"/>
<path d="M157.719 319.684C157.154 319.684 156.604 319.504 156.149 319.17C155.694 318.836 155.357 318.366 155.187 317.828C145.614 287.567 105.766 292.816 105.367 292.878C105.019 292.933 104.663 292.919 104.321 292.835C103.978 292.752 103.656 292.601 103.372 292.391C103.089 292.182 102.85 291.918 102.669 291.615C102.489 291.312 102.37 290.976 102.321 290.627C102.271 290.278 102.292 289.923 102.382 289.582C102.471 289.241 102.628 288.921 102.842 288.641C103.056 288.361 103.324 288.127 103.63 287.951C103.936 287.776 104.274 287.663 104.624 287.62C105.066 287.56 149.339 281.73 160.25 316.239C160.376 316.637 160.406 317.059 160.339 317.47C160.271 317.882 160.107 318.272 159.861 318.609C159.614 318.945 159.292 319.219 158.919 319.408C158.547 319.597 158.136 319.695 157.719 319.695V319.684Z" fill="#02004E"/>
<path d="M141.337 184.263L136.832 158.594C138.933 167.034 140.438 175.612 141.337 184.263Z" fill="white"/>
<path d="M107.768 393.473C98.782 393.473 91.4176 390.597 86.8858 385.045C82.2499 379.358 80.5062 373.144 81.7077 366.581C84.1706 353.129 98.6603 342.204 104.896 338.06C101.404 330.518 93.6106 310.178 100.749 291.247C105.471 278.709 115.768 269.34 131.362 263.35C133.953 254.277 145.676 208.425 133.397 159.468C133.22 158.577 133.392 157.651 133.878 156.883C134.363 156.115 135.126 155.563 136.008 155.342C136.889 155.121 137.822 155.247 138.613 155.695C139.404 156.142 139.993 156.877 140.257 157.747C154.419 214.196 138.301 265.012 137.602 267.147L137.066 268.8L135.431 269.386C120.946 274.589 111.506 282.772 107.372 293.708C99.7335 313.924 112.444 337.405 112.572 337.639L114.245 340.675L111.247 342.414C111.048 342.529 91.1432 354.224 88.656 367.862C87.8373 372.35 89.0477 376.505 92.3581 380.566C97.3879 386.733 108.569 388.09 121.543 384.131C137.349 379.305 154.005 367.021 155.776 352.733C154.373 347.918 147.663 322.017 162.257 311.882C163.028 311.346 163.981 311.138 164.905 311.305C165.829 311.471 166.649 311.998 167.185 312.769C167.721 313.54 167.928 314.493 167.762 315.417C167.596 316.341 167.069 317.161 166.298 317.697C156.754 324.325 160.5 344.22 162.757 351.332L162.979 352.011L162.914 352.722C161.21 371.212 141.361 385.483 123.628 390.906C117.996 392.628 112.643 393.473 107.768 393.473Z" fill="#02004E"/>
<path d="M237.084 269.621L226.498 278.614L113.803 227.214C113.803 227.214 121.459 222.718 142.233 216.593C156.103 212.503 175.824 207.688 203.024 202.997L208.963 214.61L237.084 269.621Z" fill="white"/>
<path d="M227.073 282.772L106.137 227.599L112.015 224.154C112.9 223.629 134.648 211.202 202.425 199.516L204.994 199.074L241.505 270.499L227.073 282.772ZM122.302 227.194L225.923 274.46L232.658 268.736L201.061 206.947C156.572 214.765 132.773 222.904 122.302 227.194Z" fill="#02004E"/>
<path d="M150.905 297.782L228.737 278.047L196.503 214.721L118.671 231.711L150.905 297.782Z" fill="#73BEFD"/>
<path d="M150.905 297.782L228.737 278.047L196.503 214.721L118.671 231.711L150.905 297.782Z" fill="#73BEFD"/>
<g opacity="0.35">
<path d="M225.197 286.903L165.468 302.043C164.76 315.834 163.53 339.343 162.786 349.619C161.821 348.425 160.794 347.159 159.777 345.928C158.72 344.623 157.817 343.2 157.086 341.689C157.562 345.313 158.326 348.895 159.369 352.399C156.864 379.997 105.058 401.727 89.6297 382.812C86.8238 379.378 85.4076 375.952 85.0093 372.598C97.4012 390.433 132.807 373.624 139.002 367.977C145.747 361.834 146.65 358.55 142.428 335.351C140.144 322.818 143.287 313.355 147.96 306.487L147.367 306.637H135.595L110.262 297.565L105.128 289.961C109.483 280.535 118.228 271.816 134.249 266.063C134.249 266.063 138.188 253.928 140.613 235.003L192.951 223.567L225.197 286.903Z" fill="#02004E"/>
</g>
<path d="M228.737 278.048L150.908 297.777L148.765 293.396L118.671 231.711L196.501 214.716L203.909 229.268L228.737 278.048Z" fill="#1F9FFF"/>
<g opacity="0.7">
<path d="M129.983 242.494L152.873 297.281L150.908 297.777L148.765 293.396L118.671 231.711L196.492 214.716L197.82 217.301L133.92 234.475C133.102 234.694 132.341 235.085 131.688 235.623C131.034 236.16 130.503 236.831 130.131 237.59C129.758 238.35 129.552 239.18 129.526 240.026C129.501 240.872 129.656 241.713 129.983 242.494Z" fill="white"/>
</g>
<g opacity="0.35">
<path d="M228.737 278.052L150.908 297.777L148.765 293.396C150.093 275.604 186.888 266.479 186.888 266.479C180.559 244.023 197.696 232.596 203.909 229.268L228.737 278.052Z" fill="#02004E"/>
</g>
<path d="M150.908 301.101C150.286 301.1 149.677 300.926 149.15 300.596C148.623 300.267 148.199 299.796 147.927 299.238L115.688 233.165C115.468 232.713 115.353 232.217 115.352 231.714C115.351 231.212 115.465 230.715 115.684 230.263C115.903 229.81 116.222 229.414 116.617 229.103C117.011 228.791 117.472 228.574 117.963 228.467L195.795 211.477C196.512 211.32 197.261 211.406 197.925 211.721C198.588 212.035 199.129 212.561 199.462 213.216L231.694 276.543C231.919 276.987 232.042 277.476 232.054 277.973C232.065 278.471 231.964 278.965 231.758 279.419C231.552 279.872 231.247 280.274 230.865 280.593C230.483 280.913 230.034 281.142 229.552 281.265L151.72 300.999C151.454 301.067 151.181 301.101 150.908 301.101ZM123.51 234.052L152.72 293.9L223.909 275.85L194.706 218.509L123.51 234.052Z" fill="#02004E"/>
<path d="M118.671 231.711L103.829 231.826L139.133 297.782H150.905L118.671 231.711Z" fill="#1F9FFF"/>
<g opacity="0.7">
<path d="M121.787 238.093L107.244 238.208L103.827 231.826L118.671 231.711L121.787 238.093Z" fill="white"/>
</g>
<path d="M150.908 301.101H139.135C138.535 301.101 137.945 300.938 137.43 300.629C136.915 300.32 136.493 299.878 136.21 299.348L100.897 233.39C100.628 232.886 100.494 232.322 100.506 231.751C100.519 231.18 100.679 230.622 100.971 230.13C101.263 229.639 101.676 229.232 102.172 228.947C102.667 228.663 103.227 228.511 103.798 228.507L118.64 228.391C119.265 228.393 119.877 228.569 120.408 228.897C120.939 229.226 121.369 229.696 121.649 230.255L153.884 296.328C154.13 296.833 154.244 297.393 154.215 297.954C154.185 298.516 154.014 299.061 153.716 299.538C153.419 300.015 153.005 300.409 152.514 300.682C152.022 300.955 151.47 301.099 150.908 301.101ZM141.125 294.462H145.597L116.609 235.045L109.353 235.101L141.125 294.462Z" fill="#02004E"/>
<path d="M139.135 297.777L113.803 288.696L103.553 273.524L97.2684 264.231L81.1147 240.35L58.5438 206.954L103.827 231.826L138.905 297.343L139.135 297.777Z" fill="#1F9FFF"/>
<g opacity="0.7">
<path d="M139.135 297.777L134.462 296.104L100.012 236.225L64.2883 215.451L58.5438 206.954L103.827 231.826L138.905 297.343L139.135 297.777Z" fill="white"/>
</g>
<path d="M139.133 301.101C138.751 301.1 138.371 301.035 138.011 300.906L112.685 291.82C112.022 291.582 111.451 291.139 111.057 290.554L55.7977 208.817C55.3813 208.2 55.1845 207.461 55.2388 206.718C55.2931 205.976 55.5953 205.273 56.097 204.723C56.5987 204.173 57.2707 203.808 58.005 203.686C58.7393 203.564 59.4933 203.692 60.1459 204.05L105.427 228.927C105.99 229.237 106.452 229.703 106.755 230.27L142.056 296.215C142.327 296.721 142.462 297.288 142.448 297.862C142.434 298.435 142.272 298.995 141.977 299.488C141.682 299.98 141.265 300.387 140.766 300.67C140.266 300.953 139.702 301.101 139.129 301.101H139.133ZM115.945 285.938L132.132 291.745L101.373 234.26L68.9994 216.482L115.945 285.938Z" fill="#02004E"/>
<path d="M103.829 231.826C103.829 231.826 104.088 223.601 110.784 222.645C116.316 221.852 120.215 231.372 120.215 231.372L103.829 231.826Z" fill="#02004E"/>
<path d="M292.715 251.901C292.715 252.122 292.715 252.325 292.715 252.538C292.414 274.365 285.368 294.688 270.082 306.381C249.671 321.986 236.854 318.657 222.727 324.659C217.886 326.721 217.036 331.757 217.443 337.714C217.824 343.423 219.346 349.973 219.62 355.568C219.7 357.32 219.718 359.17 219.638 361.1C219.275 369.889 216.947 380.157 210.185 389.265C197.731 406.056 174.098 407.808 161.281 397.125C157.882 394.301 156.254 390.468 155.793 386.22C155.776 386.078 155.767 385.928 155.758 385.777C154.705 374.2 162.016 359.613 165.716 353.275C166.495 351.947 167.114 350.974 167.46 350.478C167.46 350.478 163.476 345.583 159.75 341.166C150.332 329.969 150.722 302.353 164.592 288.589C168.389 284.828 172.974 281.969 177.727 279.8C185.024 276.489 192.908 274.669 200.918 274.445C207.914 274.224 214.899 275.154 221.594 277.198L234.402 281.092L247.662 280.809L241.112 220.7C244.271 217.584 246.768 212.61 246.36 204.873L244.679 196.739L236.65 157.979L236.066 155.182C236.066 155.182 246.652 163.272 258.522 175.54C270.144 187.534 282.996 203.528 288.395 219.85C288.397 219.881 288.406 219.911 288.422 219.938C289.272 222.966 289.989 226.037 290.582 229.126C292.047 236.628 292.762 244.257 292.715 251.901Z" fill="white"/>
<g opacity="0.35">
<path d="M292.715 251.901C292.715 252.122 292.715 252.325 292.715 252.538C292.414 274.365 285.368 294.688 270.082 306.381C249.671 321.986 236.854 318.657 222.727 324.659C217.886 326.721 217.036 331.757 217.443 337.714C217.824 343.423 219.346 349.973 219.62 355.568C219.7 357.32 219.718 359.17 219.638 361.1C219.275 369.889 216.947 380.157 210.185 389.265C197.731 406.056 174.098 407.808 161.281 397.125C157.882 394.301 156.254 390.468 155.793 386.22C155.776 386.078 155.767 385.928 155.758 385.777C169.256 397.063 192.314 400.975 205.104 377.174C219.709 349.938 203.139 338.794 202.803 325.747C202.467 312.7 226.586 315.967 261.319 300.034C281.907 290.616 289.741 268.426 292.715 251.901Z" fill="#02004E"/>
</g>
<path d="M234.055 282.225C231.056 281.842 228.102 281.318 225.166 280.736C223.696 280.453 222.229 280.152 220.776 279.822C219.366 279.552 217.97 279.271 216.571 279.048C211.003 278.118 205.345 277.835 199.712 278.205C194.133 278.612 188.635 279.768 183.365 281.643C178.125 283.522 173.082 286.096 168.951 289.561C167.923 290.41 166.971 291.346 166.105 292.36C165.678 292.86 165.191 293.305 164.804 293.847L163.642 295.474L163.058 296.286L162.56 297.171L161.556 298.926C160.96 300.143 160.396 301.388 159.883 302.652C157.965 307.856 156.963 313.353 156.92 318.899C156.829 324.431 157.84 330.009 159.931 334.791C160.56 335.898 161.089 337.097 161.865 338.022L162.397 338.77C162.567 339.02 162.855 339.336 163.078 339.615L164.51 341.343L170.232 348.261L171.912 350.292L170.38 352.52C169.896 353.231 169.338 354.147 168.831 355.014C168.325 355.882 167.809 356.8 167.32 357.712C166.342 359.531 165.425 361.383 164.57 363.268C162.875 367.03 161.41 370.887 160.425 374.775C159.44 378.663 158.898 382.619 159.38 386.206C159.58 387.916 160.09 389.575 160.885 391.101C161.674 392.566 162.781 393.836 164.125 394.817C169.991 399.399 178.178 401.013 185.826 399.906C193.547 398.862 200.741 394.863 205.79 389.026C206.394 388.264 207.054 387.567 207.622 386.76C208.191 385.952 208.773 385.146 209.271 384.29C210.321 382.608 211.252 380.854 212.057 379.041C213.658 375.376 214.791 371.523 215.429 367.574C216.073 363.584 216.29 359.537 216.075 355.501C215.854 351.567 215.058 347.376 214.462 343.019C214.131 340.766 213.922 338.496 213.836 336.221C213.801 333.853 213.869 331.341 214.763 328.635C215.232 327.206 215.956 325.873 216.901 324.703C217.894 323.499 219.123 322.512 220.512 321.802C220.831 321.649 221.218 321.448 221.486 321.344L222.296 321.03L223.913 320.401C224.998 320.021 226.093 319.675 227.184 319.337C231.563 318.073 235.88 317.321 239.979 316.422C244.077 315.524 248.002 314.466 251.766 312.957C255.543 311.439 259.159 309.549 262.561 307.314C264.306 306.248 265.948 304.989 267.621 303.789C268.44 303.179 269.17 302.539 269.956 301.917C270.679 301.236 271.438 300.59 272.138 299.886C277.787 294.265 281.974 287.153 284.658 279.455C287.342 271.756 288.741 263.522 289.084 255.24C289.397 246.918 288.766 238.587 287.203 230.407C286.432 226.311 285.442 222.26 284.235 218.27L283.793 216.776C283.636 216.292 283.465 215.858 283.304 215.395C283.009 214.484 282.571 213.572 282.197 212.658C281.823 211.744 281.312 210.841 280.87 209.932L279.394 207.232C275.267 200.072 270.201 193.241 264.902 186.635C254.198 173.411 241.716 161.792 232.189 147.167C232.04 146.937 231.973 146.662 232 146.389C232.027 146.116 232.146 145.86 232.338 145.663C232.53 145.466 232.783 145.341 233.055 145.307C233.328 145.273 233.604 145.333 233.838 145.477C237.626 147.789 241.014 150.506 244.294 153.348C247.573 156.189 250.633 159.245 253.63 162.367C259.62 168.618 265.012 175.423 270.447 182.196C275.846 189.01 281.093 195.989 285.545 203.723L287.158 206.677C287.652 207.701 288.176 208.697 288.641 209.751C289.106 210.804 289.579 211.846 289.955 212.977C290.148 213.528 290.365 214.097 290.537 214.634L291.02 216.221C292.299 220.454 293.35 224.752 294.169 229.097C295.83 237.806 296.498 246.675 296.16 255.534C295.791 264.401 294.332 273.305 291.336 281.816C288.34 290.327 283.669 298.412 277.121 304.92C276.309 305.737 275.433 306.491 274.589 307.277C273.704 307.994 272.802 308.759 271.899 309.434C270.086 310.738 268.314 312.09 266.393 313.271C262.608 315.75 258.588 317.848 254.391 319.536C250.186 321.227 245.778 322.426 241.492 323.34C237.206 324.254 233.046 325.013 229.169 326.135C228.211 326.436 227.255 326.734 226.316 327.064L224.931 327.602L224.241 327.869C224.02 327.96 223.924 328.024 223.758 328.091C222.628 328.688 221.968 329.483 221.479 330.886C220.99 332.288 220.873 334.123 220.917 336.03C220.998 338.047 221.185 340.057 221.479 342.054C222.037 346.205 222.876 350.463 223.148 355.109C223.39 359.657 223.145 364.218 222.417 368.714C220.955 377.729 217.279 386.536 211.15 393.648C204.983 400.787 196.184 405.635 186.848 406.903C182.162 407.589 177.389 407.418 172.764 406.399C168.132 405.361 163.62 403.393 159.765 400.382L159.031 399.835L158.301 399.171C157.801 398.732 157.337 398.253 156.913 397.74C156.466 397.244 156.057 396.715 155.689 396.158C155.304 395.615 154.957 395.046 154.649 394.456C153.447 392.17 152.672 389.684 152.361 387.12C151.724 382.155 152.481 377.47 153.563 373.038C154.687 368.599 156.294 364.408 158.124 360.336C159.044 358.305 160.032 356.31 161.087 354.35C161.613 353.371 162.159 352.397 162.724 351.427C163.306 350.447 163.857 349.522 164.581 348.46L164.74 352.724L159.068 345.864L157.652 344.152C157.409 343.851 157.192 343.616 156.931 343.266L156.154 342.202C155.048 340.806 154.331 339.274 153.512 337.776C152.912 336.227 152.184 334.705 151.786 333.129C151.565 332.344 151.308 331.56 151.122 330.77L150.644 328.394C150.474 327.608 150.351 326.812 150.277 326.011L149.996 323.623C149.934 322.032 149.799 320.434 149.836 318.846C149.885 312.451 151.046 306.113 153.266 300.116C153.875 298.627 154.514 297.138 155.22 295.69L156.404 293.551L157.002 292.484L157.703 291.468L159.122 289.448C159.597 288.784 160.197 288.184 160.732 287.552C161.268 286.919 161.819 286.279 162.412 285.715C163.005 285.151 163.6 284.591 164.213 284.053C169.15 279.765 174.822 276.684 180.756 274.494C183.731 273.394 186.787 272.532 189.898 271.916C193.004 271.327 196.148 270.963 199.307 270.825C205.609 270.641 211.946 271.267 217.939 273.091C219.448 273.491 220.911 274.053 222.364 274.584C223.761 275.12 225.144 275.691 226.524 276.268C229.288 277.419 232.034 278.625 234.739 279.975C234.992 280.101 235.193 280.313 235.305 280.573C235.417 280.833 235.433 281.124 235.351 281.395C235.269 281.666 235.093 281.898 234.856 282.052C234.618 282.206 234.333 282.27 234.053 282.234L234.055 282.225Z" fill="#02004E"/>
<g opacity="0.35">
<path d="M290.9 237.225C290.715 240.322 290.11 243.38 289.103 246.315C280.863 270.161 251.972 284.261 229.622 284.261C216.177 284.261 207.53 281.995 200.918 274.445C199.688 273.024 198.572 271.509 197.581 269.913C189.809 257.539 193.73 241.102 210.194 233.401C211.521 232.773 214.434 232.437 214.434 232.437L209.849 223.479L208.317 220.478C208.317 220.478 210.495 220.974 213.584 221.638C220.523 223.143 232.048 225.506 233.721 225.028C236.509 224.223 239.055 222.739 241.129 220.709C244.289 217.593 246.785 212.618 246.378 204.882L250.821 196.447L239.472 158.608L236.084 155.182C236.084 155.182 246.67 163.272 258.54 175.54C270.162 187.534 283.014 203.528 288.413 219.85C288.415 219.881 288.424 219.911 288.44 219.938C289.436 222.929 290.159 226.005 290.599 229.126C290.973 231.809 291.074 234.522 290.9 237.225Z" fill="#02004E"/>
</g>
<path d="M290.015 228.374C289.829 231.471 289.225 234.529 288.218 237.464C279.978 261.31 251.087 275.41 228.737 275.41C212.902 275.41 203.732 272.268 196.695 261.062C188.924 248.688 192.845 232.251 209.309 224.55C210.636 223.922 213.548 223.585 213.548 223.585L208.963 214.628L207.432 211.627C207.432 211.627 209.61 212.123 212.699 212.787C219.638 214.291 231.163 216.655 232.836 216.177C237.872 214.725 246.219 209.697 245.493 196.04L243.811 187.905L235.783 149.145L235.199 146.348C235.199 146.348 245.785 154.439 257.655 166.706C273.392 182.958 291.423 206.577 290.015 228.374Z" fill="white"/>
<g opacity="0.35">
<path d="M290.015 228.374C289.829 231.471 289.225 234.529 288.218 237.464C279.978 261.31 251.087 275.41 228.737 275.41C212.902 275.41 203.732 272.268 196.695 261.062C194.74 257.98 193.489 254.504 193.031 250.883C199.723 259.123 208.503 261.566 222.462 261.566C244.811 261.566 273.702 247.466 281.943 223.621C282.949 220.686 283.554 217.628 283.74 214.53C284.111 208.777 283.129 202.9 281.19 197.067C286.961 207.254 290.679 218.018 290.015 228.374Z" fill="#02004E"/>
</g>
<path d="M235.902 145.39C238.653 146.543 241.136 148.012 243.548 149.595C245.95 151.176 248.255 152.899 250.452 154.755C254.846 158.464 258.996 162.453 262.877 166.695C266.745 170.957 270.433 175.383 273.941 179.972C277.444 184.571 280.785 189.328 283.713 194.391C286.641 199.454 289.203 204.792 291.015 210.498C292.828 216.205 293.892 222.284 293.503 228.478C293.487 230.027 293.199 231.562 292.949 233.1C292.775 234.649 292.224 236.13 291.843 237.639C291.73 238.011 291.644 238.398 291.507 238.745L291.077 239.81L290.21 241.934C289.688 243.381 288.882 244.682 288.181 246.032C285.222 251.361 281.321 256.063 276.895 260.093C272.48 264.097 267.556 267.502 262.251 270.221C256.996 272.958 251.451 275.1 245.721 276.607C239.955 278.148 234.013 278.925 228.045 278.919C225.087 278.92 222.133 278.757 219.193 278.43C216.129 278.109 213.109 277.461 210.183 276.496C207.132 275.473 204.272 273.953 201.716 271.998C199.214 270.04 197.01 267.73 195.173 265.138C193.302 262.566 191.82 259.733 190.774 256.729C189.715 253.652 189.236 250.406 189.36 247.154C189.484 243.915 190.103 240.653 191.4 237.672C192.667 234.702 194.403 231.956 196.543 229.538C197.078 228.945 197.662 228.403 198.222 227.838C198.508 227.562 198.784 227.272 199.079 227.008L199.999 226.261C200.619 225.774 201.219 225.249 201.86 224.8L203.827 223.512C204.477 223.082 205.154 222.694 205.854 222.35L206.886 221.808L207.401 221.538L207.66 221.403L207.788 221.337L208.01 221.242C208.893 220.886 209.81 220.618 210.747 220.443C211.564 220.279 212.296 220.162 213.132 220.056L210.389 225.187L204.274 213.238L200.836 206.515L208.213 208.175C212.376 209.111 216.58 210.021 220.76 210.855C222.851 211.277 224.94 211.671 227.011 212.028C228.049 212.207 229.069 212.346 230.076 212.47C230.543 212.506 231.072 212.567 231.488 212.585L232.061 212.601H232.132C232.145 212.601 232.107 212.601 232.099 212.601C232.065 212.597 232.031 212.597 231.997 212.601C231.932 212.608 231.87 212.63 231.815 212.667C233.425 212.117 234.929 211.298 236.265 210.246C237.592 209.226 238.757 208.011 239.722 206.644C240.715 205.154 241.553 203.566 242.222 201.906C242.995 200.136 243.499 198.195 244.298 196.088L244.342 195.976C244.431 195.741 244.588 195.539 244.794 195.396C245 195.252 245.245 195.175 245.496 195.174C245.747 195.173 245.992 195.248 246.199 195.389C246.407 195.53 246.566 195.731 246.657 195.965C247.123 197.061 247.458 198.209 247.657 199.383C247.739 199.974 247.847 200.574 247.898 201.178C247.949 201.782 247.923 202.397 247.916 203.012C247.81 205.563 247.137 208.058 245.944 210.315C244.715 212.661 242.976 214.702 240.855 216.289C238.75 217.851 236.365 218.993 233.829 219.653C233.504 219.719 233.176 219.768 232.847 219.799L232.34 219.854H232.103H231.972L230.935 219.781C230.271 219.719 229.735 219.629 229.133 219.56C228.007 219.392 226.896 219.21 225.814 219.018C223.637 218.644 221.495 218.237 219.364 217.81C215.093 216.956 210.875 216.039 206.631 215.088L210.57 210.025L216.684 221.974L218.981 226.469L213.947 227.104C213.391 227.172 212.716 227.278 212.148 227.396C211.696 227.48 211.252 227.6 210.82 227.754L209.209 228.599C208.638 228.874 208.087 229.189 207.561 229.542L205.978 230.576C205.465 230.932 205.005 231.352 204.511 231.733L203.781 232.317C203.549 232.523 203.338 232.76 203.117 232.965C202.688 233.408 202.232 233.822 201.814 234.275C200.206 236.1 198.896 238.168 197.935 240.403C196.961 242.616 196.532 245.01 196.432 247.395C196.335 249.806 196.692 252.214 197.483 254.494C198.302 256.827 199.459 259.027 200.918 261.024C203.887 265.2 207.715 268.245 212.466 269.816C232.665 275.478 256.267 269.017 272.129 254.866C276.054 251.29 279.447 247.176 281.974 242.62C282.573 241.467 283.279 240.358 283.704 239.13L284.439 237.331L284.811 236.431C284.928 236.132 284.988 235.824 285.078 235.519C285.381 234.291 285.859 233.109 285.983 231.837C286.183 230.582 286.426 229.339 286.426 228.051C286.738 222.948 285.871 217.717 284.255 212.654C282.64 207.591 280.301 202.667 277.568 197.952C272.085 188.498 265.054 179.822 257.312 171.882C253.466 167.88 249.579 163.897 245.652 159.933C243.692 157.941 241.769 155.921 239.899 153.819C238.029 151.717 236.164 149.57 234.453 147.253L234.433 147.229C234.274 147.014 234.189 146.753 234.193 146.485C234.196 146.218 234.288 145.959 234.453 145.749C234.619 145.538 234.849 145.388 235.108 145.321C235.367 145.255 235.641 145.275 235.887 145.379L235.902 145.39Z" fill="#02004E"/>
<path d="M87.689 175.739C186.089 268.384 319.594 136.351 234.984 37.4526C136.506 -59.7706 -1.36652 76.8344 87.689 175.739Z" fill="white"/>
<path d="M87.689 175.739C186.089 268.384 319.594 136.351 234.984 37.4526C136.506 -59.7706 -1.36652 76.8344 87.689 175.739Z" fill="white"/>
<g opacity="0.35">
<path d="M257.637 166.689C256.982 168.043 256.292 169.38 255.566 170.698C245.764 188.666 230.839 203.312 212.69 212.773C211.46 213.411 210.22 214.03 208.963 214.614L203.024 203.001C175.824 207.693 156.112 212.517 142.233 216.597C142.758 205.809 142.462 194.997 141.348 184.254L233.004 146.322L233.136 146.455L233.305 146.623L233.526 146.844C233.606 146.933 233.694 147.021 233.8 147.118C234.269 147.596 234.933 148.269 235.774 149.137L235.19 146.34C235.19 146.34 245.767 154.421 257.637 166.689Z" fill="#02004E"/>
</g>
<path d="M87.689 175.739C186.089 268.384 319.594 136.351 234.984 37.4526C136.506 -59.7706 -1.36652 76.8344 87.689 175.739Z" fill="white"/>
<path d="M160.761 209.708C134.13 209.708 108.333 198.644 85.9675 177.578L85.8214 177.43C64.576 153.843 54.5408 126.473 56.789 98.279C58.7961 73.1234 70.4577 49.185 89.6297 30.8782C108.764 12.6002 133.079 2.2065 158.097 1.60461C186.282 0.920846 213.506 12.702 236.766 35.6557L236.909 35.8106C257.108 59.4238 266.475 86.5708 263.983 114.302C261.771 139.099 250.164 162.648 231.329 180.612C212.535 198.536 188.597 208.848 163.926 209.66C162.877 209.691 161.817 209.708 160.761 209.708ZM89.4947 173.973C138.706 220.244 194.436 208.817 227.852 176.954C260.503 145.822 276.065 89.4365 233.134 39.1741C184.149 -9.121 126.226 2.90355 93.1171 34.5272C59.6812 66.4584 44.2976 123.704 89.4947 173.973Z" fill="#02004E"/>
<g opacity="0.35">
<path d="M87.6868 175.737C171.286 257.236 297.618 165.153 251.897 62.6767C255.353 99.1066 243.798 103.911 230.589 126.74C191.124 200.545 91.0946 183.19 59.9998 116.468C62.4026 138.748 72.1421 159.597 87.6868 175.737Z" fill="#02004E"/>
</g>
<path d="M160.761 210.724C133.864 210.724 107.828 199.565 85.2615 178.317L85.058 178.109C63.6289 154.312 53.5051 126.678 55.7755 98.1971C57.8025 72.7937 69.5748 48.6296 88.9282 30.1391C108.246 11.6907 132.802 1.19524 158.073 0.588927C186.574 -0.0749239 214.02 11.7792 237.471 34.9321L237.675 35.1534C258.062 58.9812 267.524 86.3828 265.006 114.388C262.762 139.431 251.065 163.21 232.034 181.342C213.064 199.434 188.889 209.85 163.963 210.671C162.899 210.706 161.826 210.724 160.761 210.724ZM90.2227 173.263C138.941 219.04 194.089 207.743 227.151 176.217C259.458 145.412 274.864 89.6201 232.391 39.8667C183.896 -7.90836 126.577 3.97456 93.8164 35.2596C60.7367 66.8589 45.5168 123.505 90.2227 173.263Z" fill="#293856"/>
<path d="M160.761 210.724C133.864 210.724 107.828 199.565 85.2615 178.317L85.058 178.109C63.6289 154.312 53.5051 126.678 55.7755 98.1971C57.8025 72.7937 69.5748 48.6296 88.9282 30.1391C108.246 11.6907 132.802 1.19524 158.073 0.588927C186.574 -0.0749239 214.02 11.7792 237.471 34.9321L237.675 35.1534C258.062 58.9812 267.524 86.3828 265.006 114.388C262.762 139.431 251.065 163.21 232.034 181.342C213.064 199.434 188.889 209.85 163.963 210.671C162.899 210.706 161.826 210.724 160.761 210.724ZM90.2227 173.263C138.941 219.04 194.089 207.743 227.151 176.217C259.458 145.412 274.864 89.6201 232.391 39.8667C183.896 -7.90836 126.577 3.97456 93.8164 35.2596C60.7367 66.8589 45.5168 123.505 90.2227 173.263Z" fill="#02004E"/>
<path d="M107.872 191.95C220.833 228.283 279.219 92.8641 188.384 42.4469C83.2103 -7.84639 7.73709 124.539 107.872 191.95Z" fill="#02004E"/>
<g opacity="0.35">
<path d="M209.298 57.8925C239.392 117.367 183.735 200.311 92.3825 170.929C84.2923 165.481 77.3551 159.605 71.48 153.447C79.0745 167.342 90.9685 180.574 107.872 191.95C210.694 225.021 268.294 115.791 209.298 57.8925Z" fill="#111A28"/>
</g>
<path d="M154.791 208.949C153.848 208.949 152.905 208.933 151.961 208.901C128.416 208.091 105.518 197.303 85.7417 177.7L85.7263 177.687C53.2374 144.999 43.3505 81.9925 80.4155 40.3027L80.7562 39.9796C102.106 22.912 131.01 15.572 160.049 19.814C188.99 24.0472 214.447 39.256 229.89 61.5393C244.289 83.4972 249.401 107.867 244.716 132.073C240.468 154.016 228.434 174.02 210.836 188.401C194.547 201.709 174.749 208.949 154.791 208.949ZM89.6452 173.783C133.125 216.867 180.214 206.281 207.335 184.121C238.5 158.654 254.689 109.434 225.31 64.6284C210.776 43.6595 186.685 29.2983 159.257 25.2864C131.828 21.2745 104.533 28.1542 84.3919 44.1552C49.5796 83.5238 58.9753 142.921 89.6452 173.783Z" fill="#02004E"/>
<path d="M144.8 201.592C132.565 201.592 119.795 199.505 106.788 195.321L106.312 195.166L105.896 194.887C81.6613 178.572 65.7333 157.284 59.8339 133.332C54.531 111.978 57.6815 89.4003 68.6277 70.3131C79.3356 51.5726 96.4718 37.8066 116.892 31.5421C139.573 24.5871 164.824 27.2514 189.915 39.2472L190.108 39.3467C211.495 51.223 226.27 68.4964 232.831 89.2816C238.775 108.108 237.551 128.851 229.388 147.7C220.583 168.051 204.469 184.362 184.226 193.413C172.078 198.863 158.785 201.592 144.8 201.592ZM109.435 188.733C166.774 206.954 207.718 179.882 222.889 144.872C236.657 113.107 230.813 70.1051 186.755 45.5936C134.736 20.77 93.0352 41.876 74.786 73.8205C56.0123 106.646 59.4887 154.852 109.435 188.733Z" fill="#02004E"/>
<path d="M276.767 100.702C280.861 148.181 233.617 156.28 225.144 111.346C219.027 61.7428 269.516 53.0796 276.767 100.702Z" fill="white"/>
<g opacity="0.35">
<path d="M255.203 140.922C241.061 143.454 226.879 128.809 224.825 108.967C238.361 127.077 251.718 88.7682 250.956 78.8724C288.946 79.4632 281.279 136.829 255.203 140.922Z" fill="#02004E"/>
</g>
<path d="M251.881 144.576C239.425 144.576 225.991 134.873 221.665 112.003L221.63 111.782C218.251 84.3669 231.572 67.9454 246.48 65.8941C259.952 64.0398 276.282 73.9732 280.268 100.173L280.294 100.394C282.666 127.9 268.909 142.46 255.125 144.35C254.05 144.499 252.967 144.574 251.881 144.576ZM228.647 110.801C232.497 131.02 244.225 138.701 254.165 137.338C264.72 135.893 275.187 123.943 273.253 101.122C269.962 79.7509 257.584 71.5103 247.449 72.9066C235.995 74.4821 225.872 88.0048 228.644 110.801H228.647Z" fill="#02004E"/>
<path d="M279.175 102.835C282.452 141.314 247.166 147.977 240.306 111.647C235.101 71.0124 273.459 63.8118 279.175 102.835Z" fill="white"/>
<path d="M260.664 139.13C250.965 139.13 240.37 131.122 236.814 112.293L236.781 112.087C233.829 89.0293 244.276 75.3186 256.121 73.6944C266.679 72.2383 279.484 80.5873 282.675 102.322L282.7 102.543C284.651 125.464 273.877 137.506 263.041 138.977C262.253 139.083 261.459 139.134 260.664 139.13ZM243.791 111.082C246.794 126.813 255.13 132.901 262.076 131.954C269.927 130.881 277.099 120.668 275.647 103.24C273.14 86.354 264.271 79.7243 257.084 80.7091C248.715 81.8575 241.474 92.6584 243.8 111.082H243.791Z" fill="#02004E"/>
<g opacity="0.7">
<path d="M211.46 93.4727C210.623 113.517 187.826 112.921 185.629 95.4642C184.1 73.3071 210.977 73.5859 211.46 93.4727Z" fill="white"/>
</g>
<g opacity="0.7">
<path d="M207.067 125.676C206.304 133.324 196.33 133.255 196.388 124.871C197.156 117.223 207.125 117.292 207.067 125.676Z" fill="white"/>
</g>
<g opacity="0.7">
<path d="M77.7512 134.384C47.2959 64.0376 121.034 35.804 147.938 45.7042C99.9924 61.0502 85.8015 96.4733 77.7512 134.384Z" fill="white"/>
</g>
<g opacity="0.35">
<path d="M240.494 120.498C238.54 115.428 237.972 109.806 238.596 104.384C251.355 127.84 273.859 110.58 275.298 91.1669C289.958 126.88 256.517 153.447 240.494 120.498Z" fill="#02004E"/>
</g>
<path d="M219.782 84.0482C219.347 84.0481 218.913 84.0006 218.487 83.9066C213.697 82.8555 211.738 76.3542 211.252 74.3914C211.025 73.48 211.17 72.516 211.655 71.7116C212.139 70.9071 212.924 70.3281 213.835 70.1018C214.746 69.8756 215.71 70.0207 216.515 70.5052C217.319 70.9897 217.898 71.7739 218.125 72.6853C218.501 74.1723 219.266 75.9006 219.866 76.6972C220.073 76.4979 220.266 76.2849 220.444 76.0599C221.031 75.3263 221.885 74.8559 222.819 74.7521C223.752 74.6484 224.689 74.9198 225.423 75.5067C226.156 76.0936 226.627 76.9478 226.73 77.8815C226.834 78.8153 226.563 79.752 225.976 80.4856C223.73 83.2848 221.519 84.0482 219.782 84.0482Z" fill="#02004E"/>
<g opacity="0.35">
<path d="M139.135 297.777L113.803 288.704L103.553 273.524L97.2684 264.231L81.1147 240.35C80.9908 239.084 80.8934 237.783 80.8137 236.428C80.8137 236.428 95.4893 239.712 104.934 253.653C109.324 260.141 110.147 267.399 108.288 271.117C115.352 279.163 120.215 289.811 138.905 297.343L139.135 297.777Z" fill="#02004E"/>
</g>
<path d="M73.5689 227.573C73.5689 227.573 88.2467 230.861 97.6888 244.804C103.829 253.877 103 264.47 97.6158 264.746C92.232 265.023 75.1445 257.324 73.5689 227.573Z" fill="white"/>
<g opacity="0.35">
<path d="M97.6136 264.744C92.4887 265.009 76.6713 258.008 73.8743 231.489C79.4241 247.501 90.6741 252.104 94.852 251.892C97.0914 251.777 98.5518 249.865 99.0298 247.006C103.668 255.503 102.561 264.487 97.6136 264.744Z" fill="#02004E"/>
</g>
<path d="M97.2994 268.296C89.0676 268.296 71.6592 258.431 70.0328 227.761L69.785 223.098L74.3434 224.118C75.0073 224.265 90.4971 227.88 100.621 242.819C105.394 249.869 106.874 258.515 104.219 263.841C102.891 266.519 100.546 268.136 97.8017 268.267C97.6357 268.291 97.4675 268.296 97.2994 268.296ZM77.5852 232.735C80.6256 256.145 94.3718 261.212 97.3193 261.212H97.4343C97.6025 261.212 97.7862 260.883 97.8769 260.69C98.9523 258.532 98.7023 252.624 94.7524 246.793C89.4637 238.971 82.2764 234.784 77.5852 232.735Z" fill="#02004E"/>
<path d="M279.936 254.558C279.487 254.558 279.046 254.444 278.653 254.227C278.26 254.009 277.929 253.696 277.69 253.316C277.451 252.937 277.312 252.502 277.287 252.054C277.261 251.606 277.35 251.159 277.544 250.754C283.204 238.949 275.125 229.162 269.799 224.377C259.6 215.205 245.938 211.64 240.988 214.692C240.691 214.884 240.359 215.015 240.011 215.077C239.663 215.139 239.306 215.13 238.961 215.053C238.616 214.975 238.29 214.829 238.003 214.624C237.715 214.418 237.471 214.158 237.285 213.857C237.1 213.556 236.976 213.221 236.922 212.872C236.867 212.522 236.883 212.166 236.968 211.823C237.053 211.48 237.206 211.157 237.417 210.874C237.629 210.591 237.895 210.352 238.199 210.173C246.621 204.975 263.176 211.28 273.35 220.427C284.282 230.259 287.552 242.149 282.326 253.049C282.11 253.5 281.771 253.881 281.348 254.148C280.925 254.415 280.436 254.557 279.936 254.558Z" fill="#02004E"/>
<path d="M217.483 335.544C217.335 335.543 217.187 335.531 217.04 335.508C216.696 335.451 216.366 335.327 216.07 335.143C215.774 334.958 215.517 334.717 215.314 334.433C215.111 334.15 214.966 333.829 214.887 333.489C214.808 333.149 214.797 332.796 214.854 332.452C219.089 306.925 207.173 295.312 199.694 290.665C189.362 284.248 175.545 283.723 167.559 289.457C166.987 289.868 166.275 290.034 165.58 289.92C164.885 289.806 164.263 289.421 163.853 288.848C163.442 288.276 163.275 287.564 163.389 286.869C163.503 286.174 163.889 285.553 164.461 285.142C174.253 278.116 190.247 278.539 202.498 286.155C217.142 295.259 223.557 312.45 220.101 333.324C219.997 333.944 219.678 334.507 219.199 334.914C218.719 335.32 218.111 335.543 217.483 335.544Z" fill="#02004E"/>
<path d="M166.807 345.543C167.692 346.083 168.772 346.778 169.779 347.369C170.785 347.96 171.843 348.566 172.899 349.117C175.012 350.201 177.167 351.188 179.435 351.861C181.713 352.544 184.086 352.855 186.463 352.784L188.289 352.682L190.103 352.343C190.411 352.284 190.727 352.244 191.031 352.169L191.929 351.883L193.783 351.321L193.834 351.306C193.919 351.28 194.011 351.285 194.092 351.319C194.174 351.353 194.242 351.415 194.282 351.494C194.323 351.573 194.336 351.664 194.317 351.75C194.298 351.837 194.249 351.915 194.179 351.969C193.657 352.379 193.126 352.797 192.575 353.2L191.745 353.811C191.453 353.988 191.146 354.134 190.843 354.297C190.234 354.618 189.614 354.937 188.979 355.236L186.988 355.899C184.241 356.675 181.367 356.901 178.533 356.563C175.713 356.237 172.963 355.471 170.38 354.293C169.736 354.01 169.108 353.693 168.497 353.344C167.878 353.015 167.277 352.651 166.698 352.255C165.485 351.477 164.358 350.572 163.337 349.555C162.876 349.096 162.599 348.484 162.56 347.835C162.52 347.185 162.721 346.544 163.123 346.032C163.525 345.521 164.101 345.175 164.741 345.06C165.381 344.945 166.042 345.069 166.597 345.408L166.807 345.543Z" fill="#02004E"/>
<path d="M110.517 335.435C110.517 335.398 110.618 335.533 110.678 335.599L110.915 335.862C111.059 336.048 111.262 336.227 111.431 336.418C111.793 336.783 112.165 337.159 112.579 337.5C113.404 338.209 114.282 338.855 115.206 339.432C117.177 340.63 119.306 341.549 121.53 342.162C123.82 342.868 126.288 343.149 128.795 343.423L132.623 343.605C133.906 343.581 135.21 343.581 136.535 343.605H136.564C136.652 343.608 136.737 343.642 136.804 343.7C136.87 343.758 136.915 343.838 136.93 343.925C136.945 344.013 136.929 344.102 136.885 344.18C136.841 344.257 136.773 344.316 136.69 344.348C135.449 344.815 134.186 345.253 132.899 345.665C131.605 346.015 130.282 346.289 128.95 346.575C126.259 346.942 123.479 347.214 120.656 346.86C117.848 346.561 114.951 345.875 112.325 344.413C110.991 343.689 109.758 342.791 108.66 341.744C108.096 341.213 107.578 340.635 107.111 340.016C106.874 339.695 106.644 339.385 106.43 339.027C106.321 338.847 106.219 338.688 106.115 338.484C106.011 338.281 105.929 338.135 105.779 337.807C105.475 337.179 105.431 336.457 105.655 335.796C105.88 335.136 106.355 334.59 106.979 334.278C107.602 333.965 108.324 333.91 108.988 334.125C109.651 334.34 110.204 334.807 110.525 335.426L110.517 335.435Z" fill="#02004E"/>
<path d="M322.624 115.329C322.119 115.327 321.623 115.193 321.187 114.94C320.751 114.686 320.388 114.322 320.137 113.885C319.886 113.447 319.754 112.951 319.755 112.446C319.756 111.942 319.89 111.446 320.143 111.009L327.142 99.018C327.883 97.7699 328.205 96.3178 328.062 94.8736C327.919 93.4295 327.318 92.0687 326.348 90.9899C319.3 83.19 315.363 73.0734 315.284 62.5616C315.102 39.1343 334 19.7078 357.409 19.2564C357.693 19.2564 357.974 19.2564 358.255 19.2564C363.956 19.2562 369.601 20.3908 374.86 22.594C380.119 24.7973 384.887 28.0251 388.886 32.0893C392.885 36.1536 396.035 40.9732 398.153 46.2671C400.271 51.561 401.314 57.2234 401.221 62.9245C400.852 86.2367 381.576 105.201 358.25 105.201H357.881C354.24 105.17 350.618 104.678 347.102 103.736C346.557 103.589 345.995 103.515 345.431 103.515C344.258 103.516 343.105 103.83 342.092 104.422L324.071 114.944C323.631 115.198 323.131 115.331 322.624 115.329Z" fill="#F9195A"/>
<path d="M358.261 22.122C363.582 22.1219 368.849 23.1807 373.757 25.2367C378.664 27.2926 383.113 30.3047 386.845 34.0973C390.577 37.89 393.516 42.3873 395.492 47.3274C397.469 52.2675 398.442 57.5514 398.356 62.8714C398.01 84.6656 380.016 102.32 358.257 102.32H357.912C354.515 102.291 351.136 101.833 347.854 100.954C347.066 100.742 346.254 100.635 345.438 100.636C343.756 100.638 342.104 101.086 340.651 101.935L322.624 112.457L329.625 100.465C330.668 98.6893 331.119 96.6276 330.914 94.5782C330.708 92.5289 329.856 90.598 328.481 89.0647C321.898 81.7916 318.223 72.3492 318.158 62.5395C317.988 40.6921 335.624 22.5491 357.467 22.1287C357.731 22.1287 357.994 22.1287 358.257 22.1287M358.257 16.3753C357.956 16.3753 357.657 16.3753 357.354 16.3753C332.38 16.8555 312.212 37.5809 312.414 62.5727C312.498 73.7873 316.698 84.5803 324.217 92.9018C324.775 93.5288 325.118 94.3173 325.198 95.1529C325.278 95.9884 325.089 96.8276 324.659 97.5487L317.656 109.54C317.024 110.637 316.771 111.911 316.936 113.166C317.102 114.421 317.677 115.586 318.572 116.482C319.467 117.377 320.632 117.952 321.887 118.117C323.142 118.283 324.417 118.03 325.514 117.398L343.537 106.876C344.11 106.539 344.762 106.361 345.427 106.36C345.74 106.36 346.052 106.401 346.354 106.482C350.108 107.487 353.975 108.012 357.861 108.044H358.25C383.136 108.044 403.7 87.8122 404.093 62.9422C404.189 56.8625 403.074 50.8244 400.814 45.1797C398.554 39.5349 395.193 34.3962 390.928 30.0627C386.663 25.7292 381.578 22.2875 375.97 19.938C370.361 17.5885 364.342 16.3782 358.261 16.3775L358.257 16.3753Z" fill="#02004E"/>
<g opacity="0.5">
<path d="M355.373 25.2864C360.76 25.1801 366.112 26.1603 371.111 28.1684C376.111 30.1765 380.654 33.1713 384.47 36.974C388.286 40.7767 391.297 45.3094 393.323 50.3014C395.348 55.2934 396.347 60.6425 396.26 66.0291C396.145 73.0344 394.178 79.8844 390.558 85.8827C394.993 79.863 397.654 72.7211 398.238 65.2664C398.822 57.8117 397.306 50.3425 393.862 43.7055C390.417 37.0685 385.183 31.5292 378.751 27.7156C372.319 23.9019 364.947 21.9665 357.471 22.1287C343.221 22.4031 330.767 30.221 323.874 41.6879C331.032 31.9669 342.466 25.5342 355.373 25.2864Z" fill="white"/>
</g>
<g opacity="0.3">
<path d="M364.225 93.8975C360.827 93.8693 357.447 93.4105 354.165 92.5322C353.68 92.4218 353.185 92.3559 352.687 92.3353C346.712 91.9392 341.371 88.7306 337.728 83.9796C336.843 82.809 335.808 81.7668 334.799 80.6427C329.172 74.4271 325.645 66.5975 324.719 58.2648C323.793 49.932 325.514 41.5191 329.638 34.2196C322.503 41.469 318.401 51.1659 318.166 61.3348C317.932 71.5036 321.584 81.3793 328.377 88.9496C331.22 92.1251 331.811 96.7167 329.663 100.397L322.624 112.457L340.647 101.935C341.732 101.303 342.931 100.892 344.175 100.726C345.419 100.559 346.684 100.641 347.896 100.965C351.163 101.838 354.526 102.293 357.907 102.32C372.99 102.448 386.307 94.0901 393.255 81.7225C389.491 85.6091 384.977 88.6919 379.987 90.7845C374.998 92.8772 369.635 93.9362 364.225 93.8975Z" fill="#102770"/>
</g>
<path d="M343.645 48.8199C347.744 44.7217 354.384 45.4564 358.471 49.5523L359.109 50.1896L359.746 49.5523C363.842 45.4564 370.485 44.7217 374.572 48.8199C376.537 50.7863 377.641 53.4527 377.641 56.2329C377.641 59.013 376.537 61.6794 374.572 63.6459L373.935 64.2832L361.056 77.1641C360.537 77.6824 359.833 77.9736 359.1 77.9736C358.366 77.9736 357.663 77.6824 357.144 77.1641L344.276 64.292L343.639 63.6547C341.673 61.6865 340.569 59.0179 340.57 56.2359C340.572 53.4539 341.678 50.7864 343.645 48.8199Z" fill="white"/>
<g opacity="0.5">
<path d="M344.973 54.4626C346.234 52.7256 348.682 52.6437 349.421 53.1814C350.16 53.7191 348.912 54.6706 347.651 56.4077C346.389 58.1448 345.593 60.0058 344.854 59.4681C344.115 58.9303 343.718 56.1997 344.973 54.4626Z" fill="#FCE5E5"/>
</g>
<g opacity="0.5">
<path d="M352.811 50.8845C352.826 51.1343 352.761 51.3824 352.626 51.5931C352.491 51.8037 352.292 51.966 352.059 52.0566C351.826 52.1472 351.57 52.1613 351.328 52.097C351.086 52.0327 350.871 51.8933 350.713 51.6988C350.415 51.2783 350.68 50.5924 351.377 50.3113C352.074 50.0303 352.747 50.3733 352.811 50.8845Z" fill="#FCE5E5"/>
</g>
</svg>
