<svg width="164" height="132" viewBox="0 0 164 132" fill="none" xmlns="http://www.w3.org/2000/svg">
<path d="M160.115 91.4679C159.179 91.2734 157.192 90.9024 154.994 90.7929C152.639 90.6787 150.038 90.8562 148.221 91.8628C146.381 92.882 145.491 94.4912 143.69 95.8573C142.856 96.4913 141.827 97.071 140.418 97.5195C139.16 97.919 138.029 98.0537 136.925 98.1193C133.975 98.2973 131.233 97.9949 126.867 101.015C126.376 101.345 125.857 101.632 125.316 101.871C125.153 101.949 124.982 102.022 124.809 102.095C124.801 102.1 124.792 102.104 124.782 102.107C120.702 103.831 114.385 104.853 114.385 104.853L81.8853 54.1146L153.543 80.4957L160.366 91.1022C160.392 91.1419 160.406 91.1886 160.405 91.2362C160.405 91.2838 160.39 91.3301 160.363 91.3693C160.336 91.4086 160.298 91.4389 160.254 91.4565C160.21 91.474 160.162 91.478 160.115 91.4679Z" fill="#F91C1C"/>
<g opacity="0.2">
<path d="M160.115 91.4679C159.179 91.2734 157.192 90.9024 154.994 90.7929C152.639 90.6787 150.038 90.8562 148.221 91.8628C146.381 92.882 145.491 94.4912 143.69 95.8573C142.856 96.4913 141.827 97.071 140.418 97.5195C139.16 97.919 138.029 98.0537 136.925 98.1193C133.975 98.2973 131.233 97.9949 126.867 101.015C126.376 101.345 125.857 101.632 125.316 101.871C125.153 101.949 124.982 102.022 124.809 102.095C124.801 102.1 124.792 102.104 124.782 102.107C120.702 103.831 114.385 104.853 114.385 104.853L81.8853 54.1146L153.543 80.4957L160.366 91.1022C160.392 91.1419 160.406 91.1886 160.405 91.2362C160.405 91.2838 160.39 91.3301 160.363 91.3693C160.336 91.4086 160.298 91.4389 160.254 91.4565C160.21 91.474 160.162 91.478 160.115 91.4679Z" fill="#02004E"/>
</g>
<g opacity="0.35">
<path d="M154.994 90.793C152.639 90.6788 150.038 90.8563 148.221 91.8629C146.381 92.8821 145.491 94.4913 143.69 95.8574C144.243 94.5968 144.774 92.4335 143.114 90.6212C139.984 87.2059 133.519 84.9069 133.563 84.3122C133.702 82.4434 147.297 88.075 154.994 90.793Z" fill="#02004E"/>
</g>
<g opacity="0.35">
<path d="M136.925 98.1182C133.975 98.2962 131.233 97.9938 126.867 101.014C126.376 101.344 125.857 101.63 125.316 101.87C125.143 101.935 124.974 102.01 124.809 102.094C124.8 102.099 124.791 102.103 124.782 102.106C125.535 100.954 127.737 99.9197 126.547 96.356C125.082 91.9621 118.534 87.2121 118.676 86.6341C119.056 85.0723 129.463 93.2649 136.925 98.1182Z" fill="#02004E"/>
</g>
<path d="M113.909 105.919L79.4995 52.1968L154.187 79.6929L161.186 90.575C161.316 90.7765 161.384 91.012 161.38 91.2518C161.377 91.4917 161.303 91.7251 161.167 91.9228C161.031 92.1205 160.84 92.2735 160.617 92.3627C160.394 92.4518 160.15 92.4731 159.915 92.4238C156.168 91.6346 151.253 91.2974 148.694 92.716C147.774 93.2256 147.119 93.9092 146.361 94.7007C145.099 96.0177 143.67 97.5099 140.712 98.4486C138.906 99.0192 137.354 99.0843 135.853 99.1436C133.359 99.2435 131.003 99.3371 127.419 101.817C123.845 104.291 114.917 105.754 114.539 105.817L113.909 105.919ZM84.2723 56.0315L114.858 103.782C116.935 103.406 123.604 102.088 126.313 100.214C130.364 97.4112 133.116 97.3033 135.779 97.1955C137.214 97.1384 138.569 97.0814 140.125 96.59C142.607 95.8014 143.748 94.6116 144.954 93.3517C145.75 92.5214 146.572 91.6632 147.751 91.0121C150.794 89.3253 155.6 89.7144 158.63 90.204L152.902 81.2993L84.2723 56.0315Z" fill="#02004E"/>
<path d="M91.2151 59.1466C91.2151 59.1466 130.028 72.2199 160.683 91.5964C160.683 91.5964 165.607 83.2486 158.247 76.1521C158.247 76.1521 144.185 74.7067 124.274 66.7166C104.942 58.956 89.9141 50.1025 89.9141 50.1025L91.2151 59.1466Z" fill="#F91C1C"/>
<g opacity="0.35">
<path d="M161.159 90.62C161.185 90.5097 161.211 90.3975 161.237 90.2834C162.521 84.4446 158.616 78.7171 152.734 77.6312C147.001 76.5715 136.509 74.144 123.532 68.9358C107.355 62.442 94.1911 55.1835 90.325 52.986L89.9108 50.102C89.9108 50.102 104.939 58.9582 124.273 66.7178C144.182 74.7067 158.246 76.1515 158.246 76.1515C164.094 81.7877 162.19 88.2137 161.159 90.62Z" fill="white"/>
</g>
<path d="M160.597 92.4718C160.367 92.472 160.141 92.4069 159.947 92.284C129.779 73.2693 91.2911 60.2006 90.9036 60.0705L90.333 59.8787L88.6576 48.232L90.4066 49.2626C90.5567 49.3505 105.6 58.1725 124.635 65.8111C144.169 73.6499 158.205 75.1695 158.345 75.1815L158.679 75.2163L158.922 75.4497C166.05 82.3236 162.463 90.2897 161.671 91.8167C161.569 92.0141 161.414 92.1796 161.225 92.2951C161.035 92.4106 160.817 92.4715 160.595 92.4712L160.597 92.4718ZM92.0957 58.4179C96.9718 60.1087 132.045 72.5531 160.282 90.1921C161.228 87.9666 162.896 82.2077 157.801 77.0811C155.502 76.7958 142.013 74.8853 123.911 67.6217C108.5 61.4371 95.685 54.4805 91.1633 51.9389L92.0957 58.4179Z" fill="#02004E"/>
<path d="M66.297 93.4606C68.3513 101.213 70.4626 104.868 70.4626 104.868C70.4626 104.868 73.8711 112.326 81.1592 116.021C85.8476 118.397 91.8239 117.91 91.8239 117.91C91.8239 117.91 94.8791 127.622 98.9517 129.589C103.024 131.556 109.859 128.836 108.763 121.714C108.033 116.978 105.051 109.918 103.066 107.63C100.582 104.767 90.3408 92.9567 89.1111 88.3762" fill="white"/>
<g opacity="0.35">
<path d="M66.297 93.4606C68.3513 101.213 70.4626 104.868 70.4626 104.868C70.4626 104.868 73.8711 112.326 81.1592 116.021C85.8476 118.397 91.8239 117.91 91.8239 117.91C91.8239 117.91 94.8791 127.622 98.9517 129.589C103.024 131.556 109.859 128.836 108.763 121.714C108.033 116.978 105.051 109.918 103.066 107.63C100.582 104.767 90.3408 92.9567 89.1111 88.3762" fill="#02004E"/>
</g>
<path d="M101.803 131.191C100.67 131.199 99.5493 130.951 98.525 130.466C94.7275 128.633 91.9673 121.371 91.1279 118.92C89.3058 118.969 84.6323 118.876 80.716 116.89C73.4119 113.188 69.9076 105.991 69.592 105.314C69.3415 104.868 67.33 101.157 65.3545 93.7112C65.315 93.5855 65.3013 93.4531 65.3144 93.322C65.3274 93.1909 65.3669 93.0638 65.4304 92.9484C65.494 92.8329 65.5802 92.7316 65.684 92.6504C65.7878 92.5692 65.907 92.5099 66.0343 92.4761C66.1616 92.4423 66.2945 92.4346 66.4249 92.4535C66.5553 92.4724 66.6805 92.5176 66.793 92.5863C66.9054 92.6549 67.0028 92.7456 67.0792 92.853C67.1556 92.9603 67.2095 93.082 67.2376 93.2107C69.2291 100.715 71.2828 104.346 71.3034 104.382L71.345 104.463C71.3776 104.533 74.7118 111.662 81.596 115.151C85.9899 117.377 91.6831 116.942 91.7402 116.938L92.5162 116.875L92.7496 117.617C93.5656 120.207 96.3446 127.249 99.369 128.71C101.252 129.619 103.815 129.327 105.608 128.001C107.42 126.661 108.196 124.482 107.792 121.864C107.07 117.175 104.132 110.356 102.323 108.27C93.7819 98.4247 89.0177 91.8167 88.1623 88.6302C88.1027 88.383 88.142 88.1223 88.2719 87.9037C88.4017 87.685 88.6119 87.5258 88.8575 87.4598C89.1031 87.3939 89.3647 87.4265 89.5866 87.5507C89.8085 87.6749 89.9731 87.8808 90.0454 88.1247C90.4831 89.7561 92.8518 94.3771 103.798 106.992C106.014 109.547 109.004 116.902 109.722 121.567C110.422 126.113 108.173 128.532 106.77 129.569C105.328 130.623 103.589 131.19 101.803 131.191Z" fill="#02004E"/>
<path d="M67.2935 56.7282L21.1506 12.0959C21.1506 12.0959 14.4964 2.96567 6.00365 9.65239C-2.33165 16.2147 2.23003 22.8158 5.15682 25.9195L48.3837 61.0525C48.3837 61.0525 51.8429 91.4977 70.081 102.343C82.4747 109.712 94.4632 103.802 94.4632 103.802C94.4632 103.802 97.8716 111.261 105.16 114.955C109.848 117.332 115.824 116.844 115.824 116.844C115.824 116.844 118.88 126.556 122.952 128.523C127.025 130.49 133.859 127.771 132.763 120.648C132.034 115.912 129.051 108.852 127.067 106.564C124.583 103.701 114.341 91.8914 113.112 87.3104C106.459 62.5247 87.9773 51.5012 87.9773 51.5012L67.2935 56.7282Z" fill="white"/>
<path d="M132.881 122.074C132.919 128.127 126.74 130.353 122.952 128.522C118.881 126.558 115.824 116.846 115.824 116.846C115.824 116.846 109.849 117.333 105.161 114.957C97.8721 111.261 94.4637 103.803 94.4637 103.803C94.4637 103.803 82.4752 109.713 70.0815 102.344C69.8966 102.234 69.7112 102.12 69.528 102.005C57.6416 94.5574 52.196 78.7314 49.8924 69.0831C48.754 64.3148 48.383 61.053 48.383 61.053L41.9257 55.8032L35.6778 50.7245L5.1573 25.9195C5.11564 25.8756 5.07399 25.8316 5.0329 25.7854C2.10268 22.6309 -2.21419 16.1222 6.00298 9.65237C14.4958 2.96564 21.1511 12.0953 21.1511 12.0953L36.5891 27.0288L67.2928 56.7276L87.9772 51.5034C87.9772 51.5034 90.3294 52.9078 93.6574 55.8403C94.6908 56.7493 95.8195 57.8073 96.999 59.0164C103.06 65.2196 107.803 72.5858 110.941 80.671C111.781 82.8453 112.505 85.0629 113.109 87.3143C114.34 91.8948 124.579 103.705 127.065 106.568C129.049 108.856 132.033 115.914 132.763 120.653C132.837 121.123 132.877 121.598 132.881 122.074Z" fill="white"/>
<g opacity="0.35">
<path d="M132.881 122.074C132.92 128.127 126.74 130.353 122.952 128.522C118.881 126.558 115.824 116.846 115.824 116.846C115.824 116.846 109.849 117.333 105.161 114.957C97.8722 111.26 94.4638 103.803 94.4638 103.803C94.4638 103.803 82.4753 109.713 70.0816 102.344C69.8967 102.234 69.7113 102.119 69.5281 102.005C73.6971 102.987 79.8566 103.872 85.252 102.383C94.4472 99.8472 94.4472 96.8342 97.9332 97.39C101.419 97.9458 98.1501 104.889 105.979 110.349C114.421 116.239 122.734 110.771 124.09 112.212C125.445 113.653 119.919 116.107 120.523 121.406C121.055 126.05 130.543 128.527 132.881 122.074Z" fill="#02004E"/>
</g>
<g opacity="0.35">
<path d="M41.9258 55.8037L5.15736 25.9195C5.1157 25.8755 5.07404 25.8316 5.03296 25.7854L12.6384 15.0003C12.6384 15.0003 17.5847 34.317 26.5751 37.4834C33.7326 40.0062 34.7072 27.8151 34.7072 27.8151L41.9258 55.8037Z" fill="#02004E"/>
</g>
<path d="M125.806 130.125C124.673 130.133 123.553 129.886 122.528 129.401C118.731 127.567 115.97 120.305 115.131 117.854C113.31 117.905 108.636 117.81 104.719 115.825C98.6134 112.73 95.1639 107.193 94.0113 105.064C90.9446 106.305 80.4872 109.664 69.5823 103.181C59.9094 97.4288 54.3954 86.29 51.4726 77.953C48.6976 70.0389 47.6881 63.2614 47.4661 61.562L4.49146 26.6357L4.44752 26.5889C1.50475 23.4686 0.0701695 20.1909 0.297854 17.1146C0.517549 14.1473 2.2346 11.3785 5.40049 8.886C8.0568 6.79518 10.8295 5.93238 13.6405 6.31813C18.3066 6.96181 21.4257 10.8461 21.8845 11.4487L67.5811 55.6497L88.1297 50.4569L88.4766 50.6635C88.6701 50.7776 93.2797 53.5583 98.7629 59.4461C103.813 64.8672 110.565 74.0607 114.056 87.0575C114.494 88.6901 116.863 93.3123 127.808 105.925C130.024 108.48 133.014 115.835 133.732 120.5C134.432 125.045 132.183 127.465 130.78 128.503C129.336 129.558 127.594 130.126 125.806 130.125ZM116.521 115.81L116.755 116.552C117.571 119.142 120.35 126.184 123.374 127.645C125.257 128.554 127.82 128.263 129.613 126.937C131.424 125.597 132.201 123.417 131.797 120.799C131.075 116.11 128.137 109.292 126.328 107.206C117.787 97.3615 113.023 90.7535 112.167 87.5654C106.189 65.2912 90.3072 54.1831 87.8067 52.5511L67.0036 57.8073L20.4122 12.7378L20.3609 12.6699C20.3335 12.6328 17.4849 8.81067 13.3597 8.24916C11.0983 7.94045 8.82488 8.67087 6.6051 10.4176C3.88716 12.5575 2.41891 14.8583 2.24087 17.2572C2.00919 20.4129 4.04979 23.3123 5.82276 25.2045L49.3053 60.5469L49.3504 60.9423C49.3846 61.2419 52.9722 91.0354 70.578 101.504C82.3474 108.503 93.9171 102.983 94.0312 102.927L94.9305 102.486L95.3483 103.397C95.3808 103.467 98.715 110.596 105.599 114.086C109.977 116.304 115.687 115.877 115.745 115.872L116.521 115.81Z" fill="#02004E"/>
<path d="M89.4034 92.1653C89.4325 94.5249 88.205 96.7607 86.2221 97.5453C81.2575 99.5151 72.9068 101.794 63.9507 99.7885C61.869 99.3228 59.9847 98.0195 58.6169 96.0679C56.9621 93.7038 54.7509 89.8251 52.9808 84.1599C52.3371 82.0976 53.71 79.9303 55.5258 80.1255C60.0236 80.6128 68.3651 80.5569 79.7938 76.4226C82.0148 75.618 84.3818 76.9464 85.2959 79.5234L87.5967 86.0024L89.0302 90.042C89.272 90.724 89.3981 91.4417 89.4034 92.1653Z" fill="white"/>
<g opacity="0.35">
<path d="M89.4033 92.1653C89.4324 94.5249 88.205 96.7607 86.222 97.5453C81.2575 99.5151 72.9068 101.794 63.9506 99.7885C61.869 99.3228 59.9847 98.0195 58.6169 96.0679C58.517 95.927 58.4172 95.7826 58.3145 95.6268C59.0377 96.0508 59.8223 96.3602 60.6404 96.5438C69.5994 98.5496 77.9484 96.2705 82.914 94.3007C83.77 93.9617 84.4839 93.3528 85.0203 92.5825C84.0838 92.3411 83.2576 91.5314 82.9118 90.4346L82.8456 90.2274C82.2749 88.4334 83.2016 86.6324 84.7857 86.439C85.0444 86.4074 85.3029 86.3734 85.5612 86.3368L81.9947 76.2936C83.4282 76.636 84.6887 77.803 85.2982 79.524L87.599 86.003L89.0324 90.0426C89.0644 90.1304 89.0895 90.2138 89.118 90.3033C89.1397 90.3741 89.1619 90.4449 89.1791 90.5156C89.2201 90.6594 89.2521 90.8055 89.2812 90.9493C89.2932 91.0104 89.3057 91.0737 89.3154 91.137C89.3303 91.2129 89.34 91.2883 89.3497 91.3653C89.3617 91.4532 89.3714 91.5433 89.3788 91.6306C89.3862 91.718 89.3936 91.8087 89.3982 91.8988C89.4027 91.989 89.4033 92.0775 89.4033 92.1653Z" fill="#02004E"/>
</g>
<path d="M71.1631 101.548C68.6656 101.553 66.1753 101.282 63.7374 100.74C61.4132 100.219 59.311 98.7585 57.8187 96.6266C56.197 94.3127 53.8842 90.3222 52.0508 84.4509C51.6085 83.034 51.8933 81.4733 52.7926 80.3766C53.5253 79.4852 54.5616 79.0413 55.6281 79.156C60.4557 79.6787 68.5091 79.4687 79.4613 75.5039C80.0627 75.2851 80.7016 75.1884 81.3409 75.2193C81.9801 75.2503 82.6067 75.4083 83.1841 75.6842C84.5656 76.337 85.6413 77.5833 86.2136 79.1942L89.9484 89.715C91.197 93.2313 89.6546 97.232 86.5817 98.4509C82.6745 100.003 77.2501 101.548 71.1631 101.548ZM55.2994 81.0887C54.8115 81.0887 54.4691 81.4117 54.3019 81.6148C53.8209 82.2003 53.6679 83.0854 53.9127 83.87C55.672 89.5022 57.877 93.3078 59.4165 95.511C60.6297 97.2434 62.3154 98.4258 64.1642 98.8395C72.6998 100.752 80.6756 98.7003 85.8644 96.6431C87.9541 95.8146 89.0029 92.8838 88.1127 90.3718L84.3779 79.8516C83.9813 78.7337 83.2623 77.8812 82.3533 77.4549C82.0088 77.2877 81.6342 77.1918 81.2518 77.1729C80.8694 77.1539 80.4871 77.2124 80.1278 77.3448C68.8246 81.4351 60.4534 81.6445 55.4192 81.1007C55.3793 81.0945 55.3391 81.0905 55.2988 81.0887H55.2994Z" fill="#02004E"/>
<g opacity="0.35">
<path d="M109.152 78.2697C104.68 80.5277 94.3981 85.2668 84.7857 86.4389C83.2022 86.6318 82.2783 88.4322 82.8455 90.2274L82.9117 90.4357C83.3551 91.836 84.5769 92.7667 85.8169 92.6446C95.8435 91.6574 107.231 87.3131 112.032 85.3245C113.318 84.7921 113.871 83.099 113.258 81.5748L112.6 79.9365C111.979 78.3895 110.412 77.6317 109.152 78.2697Z" fill="#02004E"/>
</g>
<path d="M109.393 75.832C104.921 78.09 94.6389 82.8292 85.0266 84.0013C83.443 84.1941 82.5192 85.9945 83.0864 87.7897L83.1526 87.998C83.596 89.3983 84.8177 90.329 86.0577 90.2069C96.0844 89.2197 107.472 84.8755 112.273 82.8868C113.559 82.3544 114.111 80.6613 113.499 79.1377L112.841 77.4983C112.223 75.9519 110.656 75.194 109.393 75.832Z" fill="white"/>
<path d="M85.8443 91.193C84.2619 91.193 82.7726 90.018 82.2259 88.2924L82.1597 88.0841C81.7722 86.8601 81.9235 85.5334 82.5648 84.5359C83.1121 83.6845 83.9452 83.151 84.9102 83.0329C94.4969 81.8642 104.918 76.9989 108.953 74.9612C109.345 74.7652 109.774 74.6538 110.212 74.6341C110.65 74.6145 111.087 74.687 111.495 74.8471C112.494 75.2243 113.315 76.0591 113.748 77.1376L114.407 78.777C115.22 80.8034 114.431 83.0523 112.649 83.7907C108.096 85.6738 96.3999 90.1715 86.1564 91.1804C86.052 91.1878 85.9482 91.193 85.8443 91.193ZM109.833 76.7022C105.705 78.7862 95.039 83.7627 85.1464 84.969C84.6608 85.0261 84.3663 85.3399 84.2049 85.5904C83.8739 86.104 83.8054 86.8179 84.0188 87.4952L84.085 87.7035C84.3858 88.6531 85.1921 89.3133 85.9681 89.2368C95.9514 88.2536 107.433 83.8386 111.906 81.9857C112.692 81.6599 113.01 80.522 112.6 79.5006L111.942 77.8612C111.714 77.2905 111.299 76.8534 110.81 76.6691C110.654 76.6057 110.487 76.5759 110.319 76.5816C110.151 76.5873 109.986 76.6284 109.836 76.7022H109.833Z" fill="#02004E"/>
<g opacity="0.35">
<path d="M83.0893 87.7879L83.155 87.9968C83.6001 89.3966 84.8206 90.329 86.0606 90.2074C96.0873 89.218 107.477 84.8743 112.277 82.8879C113.562 82.3538 114.114 80.6624 113.501 79.1394L112.842 77.4971C112.826 77.4531 112.806 77.4098 112.785 77.371C112.728 78.3941 112.192 79.3009 111.314 79.6684C106.513 81.6553 95.1258 86.0024 85.098 86.9879C84.3196 87.0655 83.5476 86.7254 82.9729 86.1137C82.8733 86.6729 82.9133 87.248 83.0893 87.7879Z" fill="#02004E"/>
</g>
<path d="M3.11389 23.3596C3.11389 23.3596 5.195 25.9845 8.15832 25.528C13.0846 24.7719 19.946 19.5021 18.5348 15.793C17.3638 12.7115 14.0022 12.7081 15.1931 10.3034" fill="white"/>
<g opacity="0.35">
<path d="M8.15791 25.5292C5.19402 25.9857 3.11462 23.3607 3.11462 23.3607L3.11919 23.3562C3.91409 23.7459 4.89159 23.9999 5.9912 23.8315C10.9175 23.072 17.78 17.8045 16.3665 14.0942C15.8644 12.7726 14.9576 12.0171 14.1798 11.3956L15.1916 10.3034C13.9995 12.7092 17.36 12.7144 18.5338 15.793C19.9473 19.501 13.0848 24.7714 8.15791 25.5292Z" fill="#02004E"/>
</g>
<path d="M3.87799 22.7542L3.98013 22.8684C4.02008 22.9134 4.06287 22.9579 4.10738 23.0025C4.19298 23.0926 4.2877 23.1794 4.38072 23.2649C4.5691 23.4348 4.76787 23.5928 4.97589 23.738C5.37673 24.0242 5.81765 24.2495 6.28436 24.4068C6.7279 24.5527 7.19426 24.6169 7.66074 24.5962L8.00312 24.5649L8.39172 24.4952C8.65193 24.4382 8.91214 24.3811 9.17235 24.3035C10.2292 23.9919 11.2477 23.5625 12.2087 23.0236C13.1822 22.4888 14.0998 21.8579 14.9478 21.1405C15.7826 20.4289 16.5535 19.6306 17.0745 18.7472C17.326 18.3381 17.5107 17.8916 17.6218 17.4245C17.7128 17.0354 17.7012 16.6294 17.5881 16.2461C17.5704 16.1657 17.5173 16.043 17.4791 15.9363C17.4295 15.8313 17.3861 15.7223 17.3285 15.6207C17.2222 15.4088 17.099 15.206 16.9598 15.0141C16.6745 14.6209 16.3207 14.2512 15.9139 13.8483C15.7113 13.6452 15.4865 13.4489 15.2673 13.2023C15.0482 12.9558 14.8074 12.6996 14.6271 12.3321C14.5314 12.1452 14.4635 11.9452 14.4256 11.7387C14.3937 11.5315 14.3973 11.3203 14.4365 11.1144C14.5107 10.7184 14.7013 10.4159 14.9021 10.1597C14.948 10.101 15.0123 10.0595 15.0846 10.0418C15.157 10.0241 15.2332 10.0313 15.3009 10.0623C15.3687 10.0932 15.4241 10.146 15.4581 10.2122C15.4922 10.2785 15.503 10.3542 15.4887 10.4273L15.4847 10.4479C15.4317 10.7178 15.4094 10.978 15.4562 11.1714C15.4969 11.3459 15.5913 11.5031 15.7261 11.6211C16.0012 11.8904 16.4965 12.1718 16.9952 12.5079C17.5486 12.8596 18.0516 13.285 18.4903 13.7724C18.7234 14.035 18.9311 14.3191 19.1106 14.6209C19.203 14.7722 19.2818 14.9319 19.3599 15.0894C19.4399 15.2557 19.5081 15.4273 19.5642 15.603C19.8031 16.3477 19.8213 17.1456 19.6167 17.9004C19.4307 18.6108 19.1151 19.2288 18.7608 19.7898C18.0435 20.9076 17.163 21.8212 16.2134 22.631C15.2662 23.4322 14.2412 24.1366 13.1537 24.7338C12.0632 25.3444 10.9074 25.8304 9.70818 26.1826C9.4046 26.2711 9.09247 26.3441 8.77862 26.4109L8.29985 26.4965L7.76745 26.5467C7.05853 26.5807 6.34942 26.4839 5.67549 26.2614C5.02679 26.0449 4.41374 25.7336 3.8563 25.3375C3.58295 25.1463 3.32168 24.9384 3.07396 24.7149C2.95127 24.6008 2.82916 24.4901 2.71218 24.3674C2.65511 24.3104 2.59462 24.247 2.53642 24.182C2.47821 24.1169 2.42686 24.0604 2.34925 23.9657C2.1893 23.7681 2.11295 23.5157 2.13652 23.2626C2.16009 23.0094 2.2817 22.7755 2.47538 22.6108C2.66906 22.4461 2.91946 22.3637 3.17311 22.3811C3.42676 22.3985 3.66355 22.5144 3.83291 22.704L3.87799 22.7542Z" fill="#02004E"/>
<path d="M24.0009 16.8242C21.1477 12.0953 17.9002 11.8231 14.0843 13.9801C11.3008 15.5539 9.88217 18.317 10.7901 19.9324C11.8805 21.8726 17.2337 18.6525 17.4094 18.806C17.5852 18.9595 16.2351 21.5856 16.9478 23.8847" fill="white"/>
<path d="M23.8617 16.9086C23.6072 16.6803 23.3692 16.452 23.141 16.2209L22.7775 15.8962C22.6594 15.7878 22.5492 15.6731 22.4265 15.5721C21.9352 15.1727 21.4662 14.7784 20.9577 14.4965C20.7158 14.331 20.451 14.2323 20.2056 14.1033C19.9448 14.0183 19.6989 13.9019 19.4364 13.8574C18.9215 13.7271 18.3867 13.6946 17.8597 13.7615C17.5933 13.7758 17.3182 13.8454 17.0466 13.8939C16.7738 13.9783 16.4965 14.0314 16.2214 14.1421C15.6691 14.3241 15.1178 14.5906 14.574 14.868C13.5526 15.422 12.6293 16.2175 12.0575 17.1716C11.7688 17.6401 11.5844 18.152 11.5377 18.6033C11.5274 18.8242 11.5314 19.0353 11.5947 19.1957C11.609 19.2864 11.6655 19.3457 11.6906 19.4239C11.7071 19.4439 11.7071 19.4342 11.7168 19.441C11.8328 19.4821 11.9557 19.5001 12.0786 19.4941C12.3271 19.4901 12.5745 19.4595 12.8164 19.4028C13.3597 19.2887 13.9389 19.089 14.5198 18.8727C15.1007 18.6564 15.6839 18.4036 16.2996 18.1525C16.4571 18.0886 16.6083 18.0247 16.7995 17.9534C16.8497 17.9351 16.9005 17.9163 16.9735 17.8929L17.0335 17.8752L17.1213 17.853C17.1729 17.8414 17.2251 17.8328 17.2777 17.8273C17.3477 17.8207 17.4182 17.8207 17.4883 17.8273C17.5623 17.8341 17.6353 17.8496 17.7057 17.8735C17.8178 17.911 17.9226 17.9675 18.0155 18.0407C18.0701 18.0833 18.1194 18.1323 18.1622 18.1868C18.2027 18.2361 18.2386 18.289 18.2695 18.3448C18.3169 18.4301 18.3517 18.5218 18.3727 18.617C18.3899 18.7006 18.3987 18.7857 18.399 18.871L18.391 18.9805C18.3887 19.0106 18.3845 19.0406 18.3784 19.0701C18.3656 19.1406 18.349 19.2103 18.3288 19.279C18.2649 19.4856 18.2084 19.6339 18.1508 19.7926L17.9796 20.2382C17.5362 21.4046 17.1447 22.5134 17.1014 23.8389V23.8446C17.0996 23.8802 17.0868 23.9142 17.0648 23.9422C17.0427 23.9701 17.0125 23.9904 16.9784 24.0004C16.9443 24.0104 16.9079 24.0095 16.8743 23.9978C16.8407 23.9862 16.8116 23.9643 16.7909 23.9354C16.3824 23.3425 16.1838 22.6086 16.117 21.8879C16.0502 21.1672 16.1227 20.4397 16.2523 19.7555L16.4543 18.8156C16.4543 18.7939 16.4588 18.7717 16.4543 18.7831C16.4517 18.7924 16.45 18.802 16.4491 18.8116C16.448 18.8276 16.448 18.8436 16.4491 18.8596C16.447 18.9243 16.4537 18.989 16.4691 19.0519L16.4925 19.138C16.5104 19.1927 16.5333 19.2456 16.561 19.2961C16.5897 19.3474 16.6231 19.3959 16.6608 19.441C16.7024 19.49 16.7486 19.5347 16.7989 19.5746C16.8861 19.6447 16.985 19.6988 17.0911 19.7344C17.1571 19.7553 17.2249 19.7698 17.2937 19.7777C17.3855 19.7871 17.4783 19.7825 17.5687 19.764L17.5978 19.7577L17.5408 19.7846L17.1379 19.9843C16.5587 20.285 15.9395 20.584 15.3021 20.8494C14.6389 21.1327 13.9501 21.3517 13.245 21.5033C12.8434 21.5863 12.4339 21.6246 12.0238 21.6175C11.5844 21.5998 11.0412 21.5176 10.5122 21.1467C10.2529 20.9584 10.0385 20.715 9.88452 20.434C9.78351 20.2085 9.6671 19.9814 9.62031 19.7463C9.48564 19.275 9.49477 18.8145 9.53814 18.3831C9.65227 17.5271 9.98837 16.795 10.385 16.145C11.205 14.8577 12.3217 13.8659 13.5737 13.107C14.1871 12.7606 14.8063 12.4142 15.499 12.1637C15.8334 12.0228 16.1992 11.9275 16.5587 11.8299C16.7424 11.7882 16.933 11.7597 17.1202 11.7255C17.2143 11.7106 17.3068 11.6895 17.4027 11.681L17.6943 11.6644C18.0794 11.629 18.4755 11.6593 18.8669 11.6929C19.2561 11.7688 19.6475 11.835 20.0156 11.9811C20.2028 12.0389 20.3842 12.1144 20.5571 12.2065C20.7283 12.2967 20.9052 12.3806 21.0707 12.4798C21.3828 12.6995 21.7058 12.9055 21.966 13.1697C22.5253 13.6622 22.947 14.2494 23.3145 14.8451C23.4896 15.1481 23.6414 15.4614 23.7898 15.7718C23.9182 16.0931 24.0375 16.4161 24.1402 16.7419C24.1511 16.7768 24.1504 16.8143 24.138 16.8487C24.1256 16.8831 24.1022 16.9125 24.0716 16.9324C24.0409 16.9523 24.0045 16.9615 23.968 16.9588C23.9316 16.956 23.897 16.9414 23.8697 16.9171L23.8617 16.9086Z" fill="#02004E"/>
<path d="M91.7714 117.055C92.0191 116.988 92.3341 116.928 92.6194 116.865L93.4959 116.676C94.078 116.541 94.6634 116.41 95.2369 116.227C95.8141 116.045 96.3744 115.813 96.9117 115.535C97.4635 115.259 97.9611 114.895 98.4838 114.493L98.4913 114.487C98.5132 114.47 98.5403 114.46 98.5682 114.46C98.5961 114.46 98.6231 114.47 98.6451 114.487C98.667 114.504 98.6825 114.528 98.689 114.555C98.6956 114.583 98.6929 114.611 98.6813 114.636C98.4027 115.269 98.0135 115.847 97.532 116.344C97.0404 116.845 96.4838 117.278 95.8772 117.631C95.2754 117.988 94.6325 118.271 93.9627 118.473C93.6291 118.573 93.2887 118.65 92.9441 118.701C92.5889 118.759 92.2287 118.781 91.869 118.766C91.6626 118.761 91.4651 118.681 91.3128 118.542C91.1606 118.402 91.0639 118.212 91.0405 118.007C91.0172 117.802 91.0688 117.595 91.1858 117.425C91.3028 117.255 91.4774 117.133 91.6773 117.082L91.7714 117.055Z" fill="#02004E"/>
<path d="M115.775 115.99C116.023 115.923 116.337 115.862 116.623 115.799L117.499 115.61C118.081 115.475 118.667 115.344 119.24 115.162C119.817 114.98 120.378 114.748 120.915 114.469C121.467 114.194 121.965 113.829 122.487 113.427L122.495 113.422C122.517 113.404 122.544 113.395 122.572 113.395C122.599 113.395 122.627 113.404 122.648 113.422C122.67 113.439 122.686 113.463 122.692 113.49C122.699 113.517 122.696 113.546 122.685 113.571C122.406 114.204 122.017 114.782 121.535 115.278C121.044 115.779 120.487 116.212 119.881 116.565C119.279 116.922 118.636 117.205 117.966 117.407C117.633 117.508 117.292 117.584 116.948 117.635C116.593 117.693 116.232 117.715 115.872 117.7C115.666 117.694 115.469 117.614 115.317 117.475C115.166 117.336 115.069 117.146 115.046 116.941C115.023 116.737 115.074 116.53 115.191 116.36C115.307 116.19 115.481 116.068 115.681 116.016L115.775 115.99Z" fill="#02004E"/>
<path d="M129.851 87.9255C126.418 88.9252 122.181 88.1423 122.181 88.1423C122.181 88.1423 121.999 93.1913 119.157 92.2184C118.24 91.904 117.477 90.034 116.946 88.245C116.147 85.5705 114.53 83.2063 112.263 81.58C111.824 81.2658 111.383 80.9614 110.939 80.667C103.491 75.7395 95.6 73.7737 95.6 73.7737L94.3788 62.4991L93.6575 55.8391L93.6233 55.527C94.9226 55.7758 96.473 56.3339 98.1718 57.1065C106.719 60.9869 118.983 70.246 121.694 72.6598C124.947 75.5558 134.631 74.4077 135.708 80.3383C136.457 84.4549 134.397 86.605 129.851 87.9255Z" fill="white"/>
<g opacity="0.35">
<path d="M129.851 87.9255C126.418 88.9252 122.181 88.1423 122.181 88.1423C122.181 88.1423 121.999 93.1913 119.157 92.2184C118.24 91.904 117.477 90.034 116.946 88.245C116.147 85.5705 114.53 83.2063 112.263 81.58C111.824 81.2658 111.383 80.9614 110.939 80.667C103.491 75.7395 95.6 73.7737 95.6 73.7737C96.4148 73.2012 97.3483 72.8197 98.3309 72.6577C99.3135 72.4956 100.32 72.5572 101.276 72.8378C103.361 73.4513 106.183 74.5606 109.949 77.0526C110.393 77.3447 110.834 77.6491 111.273 77.9656C113.54 79.5919 115.159 81.9566 115.956 84.6306C116.488 86.4201 117.251 88.2895 118.167 88.604C119.807 89.1655 120.392 87.7018 120.592 86.3637C120.664 85.8761 120.918 85.434 121.304 85.1272C121.69 84.8203 122.178 84.6718 122.669 84.7117C124.364 84.8509 126.839 84.8994 128.859 84.3122C132.769 83.1766 134.839 81.4288 134.868 78.3422C135.296 78.9356 135.583 79.6186 135.707 80.3394C136.457 84.4549 134.397 86.605 129.851 87.9255Z" fill="#02004E"/>
</g>
<path d="M95.6781 73.4576C96.4976 73.477 97.2828 73.5968 98.0668 73.7429C98.8462 73.8978 99.6168 74.0936 100.376 74.3295C101.888 74.8103 103.367 75.3896 104.804 76.0637C105.527 76.3889 106.23 76.7633 106.935 77.1285L107.975 77.7094L108.495 78.001L109.009 78.308L110.036 78.9191L111.039 79.568L111.541 79.8915L112.032 80.2339L113.015 80.9186C114.386 81.9094 115.548 83.1614 116.434 84.6027C116.878 85.3218 117.247 86.0843 117.536 86.8784C117.608 87.077 117.679 87.2778 117.738 87.4787L117.91 88.0465C118.018 88.4048 118.134 88.7592 118.258 89.1061C118.508 89.7881 118.804 90.4757 119.15 90.9567C119.188 91.012 119.23 91.0646 119.276 91.1142L119.336 91.1821C119.354 91.197 119.372 91.2124 119.389 91.2289C119.427 91.2711 119.446 91.2654 119.468 91.2911C119.482 91.286 119.456 91.2951 119.538 91.3128C119.775 91.3813 119.938 91.3824 120.052 91.3311C120.172 91.2923 120.322 91.1644 120.469 90.9476C120.631 90.6941 120.758 90.42 120.847 90.1327C120.952 89.8073 121.033 89.4747 121.09 89.1375C121.149 88.7977 121.189 88.4547 121.209 88.1104L121.266 87.0016L122.362 87.1871C122.989 87.2932 123.698 87.3703 124.371 87.4154C125.05 87.4618 125.731 87.4738 126.411 87.4513C127.08 87.4292 127.747 87.3654 128.408 87.2601C129.06 87.1517 129.67 86.9748 130.328 86.762C131.599 86.33 132.813 85.7616 133.672 84.9405C134.084 84.5428 134.403 84.0592 134.607 83.5242C134.807 82.9946 134.889 82.4057 134.887 81.79C134.864 81.4779 134.859 81.1674 134.8 80.8479C134.766 80.5494 134.702 80.2549 134.611 79.9685C134.436 79.4255 134.14 78.9291 133.746 78.5163C132.948 77.6677 131.745 77.1 130.471 76.6725C129.188 76.2429 127.818 75.9381 126.419 75.5986C125.72 75.4274 125.012 75.2494 124.296 75.028C123.581 74.8066 122.856 74.5401 122.137 74.1452L121.869 73.994L121.604 73.8182C121.426 73.6967 121.254 73.565 121.091 73.4239L120.695 73.0815L120.296 72.7466C119.757 72.3015 119.204 71.8632 118.65 71.4272C117.53 70.5568 116.399 69.7032 115.258 68.8662C112.975 67.1908 110.648 65.5668 108.28 64.0158C105.913 62.4648 103.515 60.9601 101.027 59.6516C99.7764 59.0102 98.5022 58.4356 97.2674 57.8073C96.016 57.1978 94.8136 56.5793 93.5628 55.8454L93.5485 55.8374C93.488 55.8008 93.4404 55.7461 93.4124 55.681C93.3845 55.616 93.3776 55.5438 93.3927 55.4747C93.4078 55.4055 93.4441 55.3428 93.4966 55.2953C93.5491 55.2478 93.6151 55.2179 93.6855 55.2097C94.0642 55.1647 94.4465 55.1571 94.8267 55.1869C95.0139 55.204 95.2045 55.2149 95.3922 55.2389C95.58 55.2628 95.7603 55.3005 95.9446 55.3341C96.6702 55.4791 97.3812 55.6892 98.0691 55.9618C99.4466 56.4754 100.718 57.1876 101.972 57.902C103.227 58.6164 104.483 59.3286 105.708 60.0784C106.933 60.8282 108.148 61.5975 109.348 62.3838C111.747 63.9576 114.101 65.5934 116.409 67.2913C117.565 68.1396 118.71 69.0043 119.844 69.8854C120.41 70.3299 120.974 70.7761 121.534 71.2395L121.954 71.5916L122.367 71.9488C122.587 72.1343 122.825 72.2963 123.078 72.4321C124.153 73.0193 125.517 73.3617 126.877 73.6972C128.247 74.0322 129.666 74.3432 131.088 74.818C131.818 75.0559 132.526 75.3551 133.206 75.7122C133.899 76.0854 134.579 76.5561 135.16 77.1724C135.752 77.7956 136.197 78.5436 136.462 79.3614C136.587 79.7539 136.675 80.1571 136.726 80.566C136.794 80.9489 136.808 81.3523 136.831 81.7512C136.837 82.5587 136.73 83.4061 136.426 84.2089C136.12 85.01 135.643 85.7344 135.028 86.3311C133.807 87.4873 132.355 88.1167 130.943 88.6046C130.581 88.7124 130.244 88.8379 129.859 88.9292C129.483 89.0348 129.105 89.105 128.728 89.1763C127.982 89.2964 127.228 89.3692 126.472 89.3943C125.727 89.4186 124.982 89.4055 124.239 89.3549C123.49 89.3082 122.743 89.2229 122.003 89.0993L123.154 88.176C123.132 88.6094 123.083 89.041 123.008 89.4685C122.935 89.9002 122.83 90.3259 122.695 90.7422C122.551 91.1999 122.344 91.6355 122.082 92.0369C121.796 92.4586 121.368 92.9146 120.75 93.1474C120.454 93.2633 120.137 93.3197 119.819 93.3135C119.671 93.313 119.523 93.2996 119.378 93.2735C119.241 93.2522 119.106 93.2205 118.974 93.1788C118.81 93.1309 118.652 93.0661 118.502 92.9853C118.363 92.9023 118.232 92.8068 118.11 92.7L117.947 92.5511L117.811 92.4021C117.726 92.3069 117.646 92.2071 117.571 92.1031C117.309 91.7337 117.083 91.3398 116.896 90.927C116.715 90.5384 116.559 90.151 116.42 89.7641C116.28 89.3772 116.154 88.9897 116.037 88.6028L115.871 88.051C115.821 87.8798 115.761 87.7087 115.699 87.5432C115.455 86.8712 115.142 86.2261 114.767 85.6178C114.015 84.3943 113.029 83.3317 111.864 82.4913C109.397 80.7047 106.699 79.2341 103.915 77.9679C101.147 76.6509 98.2945 75.5638 95.5201 74.0841L95.5132 74.0801C95.4468 74.045 95.3942 73.9884 95.364 73.9196C95.3338 73.8509 95.3277 73.7739 95.3467 73.7012C95.3657 73.6285 95.4088 73.5644 95.4688 73.5192C95.5289 73.4741 95.6025 73.4505 95.6776 73.4524L95.6781 73.4576Z" fill="#02004E"/>
<g opacity="0.35">
<path d="M98.1718 57.1054C97.9697 57.4592 97.7598 57.8101 97.5441 58.1588C97.366 58.4441 97.1834 58.734 96.998 59.0147C96.1995 60.2305 95.3242 61.3941 94.3776 62.4985C87.4055 70.6358 77.1649 74.8653 66.8552 74.4339C66.1997 74.4043 65.5441 74.3571 64.8882 74.2924C63.0739 74.1111 61.277 73.7842 59.5151 73.3149C56.2631 72.4447 53.1555 71.1045 50.2908 69.3364C50.1567 69.2537 50.0254 69.1652 49.8913 69.0831C48.7529 64.3148 48.382 61.0531 48.382 61.0531L41.9247 55.8032L35.6768 50.7245C33.2145 43.1351 33.3999 34.7279 36.5898 27.0271L67.2935 56.7259L87.9779 51.5017C87.9779 51.5017 90.3301 52.9061 93.658 55.8386L93.6238 55.5264C94.9226 55.7747 96.473 56.3328 98.1718 57.1054Z" fill="#02004E"/>
</g>
<g opacity="0.7">
<path d="M36.8683 25.9612C36.3293 27.3156 35.872 28.7011 35.4988 30.1103C35.7975 28.6801 36.257 27.2882 36.8683 25.9612Z" fill="white"/>
</g>
<path d="M33.6625 46.2764C35.4286 51.8613 38.6023 56.8978 42.8782 60.9012C43.7774 61.7428 44.7206 62.536 45.704 63.2774C46.1862 63.6426 46.685 63.9964 47.194 64.3433C48.7081 65.3646 50.3012 66.2635 51.9582 67.0316C55.0081 68.4497 58.2509 69.4092 61.5814 69.8791C62.2346 69.9692 62.8884 70.0417 63.5427 70.0965C75.5204 71.0774 87.6618 65.7357 94.8541 55.0602C105.453 39.3363 101.295 17.9985 85.5739 7.4006C82.6273 5.41206 79.3895 3.8939 75.9763 2.90056C75.5883 2.78643 75.1951 2.67858 74.8002 2.58157C73.7468 2.31527 72.6875 2.09957 71.6224 1.93447C66.7275 1.18743 61.7293 1.50192 56.9667 2.85662C56.2154 3.07004 55.4709 3.30951 54.7332 3.57505C47.8765 6.04679 41.9852 10.6383 37.9137 16.6837C31.8164 25.726 30.6038 36.6292 33.6625 46.2764Z" fill="white"/>
<g opacity="0.35">
<path d="M94.854 55.0567C87.664 65.7339 75.5197 71.0757 63.542 70.093C62.8881 70.0386 62.2347 69.9663 61.5819 69.8762C56.4286 69.1437 51.5089 67.2511 47.1933 64.341C46.686 63.9923 46.1867 63.6397 45.7034 63.2756C44.7206 62.533 43.7776 61.7393 42.8781 60.8978C38.6023 56.8954 35.4286 51.8599 33.6624 46.2758C32.7077 43.2665 32.1701 40.1406 32.0646 36.9852C34.2842 43.4582 38.3916 49.1181 43.8574 53.2353C44.3384 53.6005 44.8371 53.9526 45.3467 54.3007C49.6592 57.2155 54.5795 59.1086 59.7336 59.8358C60.3879 59.926 61.0421 59.9983 61.696 60.0527C73.6731 61.0353 85.814 55.6936 93.0074 45.0164C97.053 39.0352 99.0993 31.9258 98.8525 24.7091C102.224 34.5412 101.11 45.7788 94.854 55.0567Z" fill="#02004E"/>
</g>
<path d="M66.3486 71.1864C65.3899 71.1864 64.4282 71.147 63.4634 71.0682C62.7924 71.0112 62.115 70.9364 61.448 70.8451C58.0211 70.3616 54.6845 69.3744 51.5463 67.9155C49.8432 67.1255 48.2057 66.2013 46.6491 65.1519C46.0727 64.7587 45.5728 64.4009 45.1152 64.054C44.1051 63.2924 43.1361 62.4777 42.2124 61.6134C37.8185 57.4923 34.5547 52.3134 32.7329 46.5714C29.4518 36.2212 31.045 25.1286 37.1052 16.1393C41.2926 9.92254 47.3508 5.20051 54.4017 2.65746C55.1464 2.38926 55.9196 2.14046 56.6997 1.91563C61.5969 0.521427 66.7367 0.197197 71.7702 0.964947C72.8613 1.13271 73.9615 1.35697 75.0405 1.63031C75.4702 1.73645 75.8697 1.84487 76.2566 1.96128C79.7639 2.98281 83.091 4.54392 86.1183 6.58857C102.263 17.4718 106.544 39.4573 95.6628 55.6023C89.0748 65.3853 78.0352 71.1864 66.3486 71.1864ZM34.5921 45.9836C36.3126 51.4074 39.395 56.2994 43.5448 60.1925C44.4186 61.0101 45.3352 61.7808 46.2907 62.5013C46.7244 62.8294 47.1986 63.1689 47.7435 63.5404C49.2128 64.531 50.7584 65.4034 52.3657 66.1494C55.3287 67.5275 58.4792 68.46 61.715 68.9164C62.3427 69.0031 62.9875 69.0739 63.6227 69.1275C75.6494 70.1147 87.3086 64.5145 94.0433 54.5192C104.323 39.2678 100.279 18.4949 85.0272 8.21318C82.165 6.27993 79.0193 4.80391 75.703 3.8381C75.339 3.72911 74.9698 3.62868 74.5658 3.52939C73.5386 3.26918 72.5018 3.05804 71.4723 2.90169C66.7171 2.17507 61.8611 2.47944 57.2338 3.79416C56.496 4.00416 55.7661 4.23869 55.0654 4.49205C48.4033 6.89359 42.6793 11.3548 38.7235 17.2287C32.9966 25.722 31.4912 36.2023 34.5921 45.9836Z" fill="#02004E"/>
<path d="M66.3486 71.1864C65.3899 71.1864 64.4282 71.147 63.4634 71.0682C62.7924 71.0112 62.115 70.9364 61.448 70.8451C58.0211 70.3616 54.6845 69.3744 51.5463 67.9155C49.8432 67.1255 48.2057 66.2013 46.6491 65.1519C46.0727 64.7587 45.5728 64.4009 45.1152 64.054C44.1051 63.2924 43.1361 62.4777 42.2124 61.6134C37.8185 57.4923 34.5547 52.3134 32.7329 46.5714C29.4518 36.2212 31.045 25.1286 37.1052 16.1393C41.2926 9.92254 47.3508 5.20051 54.4017 2.65746C55.1464 2.38926 55.9196 2.14046 56.6997 1.91563C61.5969 0.521427 66.7367 0.197197 71.7702 0.964947C72.8613 1.13271 73.9615 1.35697 75.0405 1.63031C75.4702 1.73645 75.8697 1.84487 76.2566 1.96128C79.7639 2.98281 83.091 4.54392 86.1183 6.58857C102.263 17.4718 106.544 39.4573 95.6628 55.6023C89.0748 65.3853 78.0352 71.1864 66.3486 71.1864ZM34.5921 45.9836C36.3126 51.4074 39.395 56.2994 43.5448 60.1925C44.4186 61.0101 45.3352 61.7808 46.2907 62.5013C46.7244 62.8294 47.1986 63.1689 47.7435 63.5404C49.2128 64.531 50.7584 65.4034 52.3657 66.1494C55.3287 67.5275 58.4792 68.46 61.715 68.9164C62.3427 69.0031 62.9875 69.0739 63.6227 69.1275C75.6494 70.1147 87.3086 64.5145 94.0433 54.5192C104.323 39.2678 100.279 18.4949 85.0272 8.21318C82.165 6.27993 79.0193 4.80391 75.703 3.8381C75.339 3.72911 74.9698 3.62868 74.5658 3.52939C73.5386 3.26918 72.5018 3.05804 71.4723 2.90169C66.7171 2.17507 61.8611 2.47944 57.2338 3.79416C56.496 4.00416 55.7661 4.23869 55.0654 4.49205C48.4033 6.89359 42.6793 11.3548 38.7235 17.2287C32.9966 25.722 31.4912 36.2023 34.5921 45.9836Z" fill="#02004E"/>
<path d="M37.375 54.2533C54.4849 71.8432 83.245 67.1543 89.2282 43.5955C93.2997 27.5698 80.7519 11.2102 65.1096 8.2851C53.7249 6.15663 41.6787 9.05889 33.5426 25.8248C33.5426 25.8248 31.0888 33.8028 32.2569 39.6519C33.425 45.5009 35.5506 50.9921 35.5506 50.9921L37.375 54.2533Z" fill="#02004E"/>
<g opacity="0.35">
<path d="M89.227 43.5955C83.245 67.1508 54.4849 71.842 37.3749 54.2538L37.0057 53.5925C57.9989 61.6385 82.1534 52.7748 88.6484 29.0711C90.1583 33.6733 90.483 38.6498 89.227 43.5955Z" fill="#111A28"/>
</g>
<path d="M61.8263 69.3849C58.3993 69.3816 54.9891 68.9054 51.6924 67.9697L51.5485 67.9161C49.8446 67.1261 48.2063 66.2018 46.6491 65.1519C46.0727 64.7587 45.5728 64.401 45.1152 64.054C44.1051 63.2924 43.1361 62.4777 42.2124 61.6134C37.8186 57.4922 34.5549 52.3133 32.7329 46.5714C29.4518 36.2212 31.045 25.1286 37.1052 16.1393C40.5997 10.9461 45.4148 6.77766 51.055 4.06295L51.1463 4.01901L51.2444 3.99505C55.6628 2.91084 60.5601 2.85834 65.8002 3.83812C75.1358 5.5837 83.9099 11.6353 89.2705 20.0254C94.2014 27.7381 95.7626 36.5111 93.6747 44.7282C91.4058 53.6553 86.2341 60.6639 78.7194 64.9967C73.687 67.8961 67.834 69.3849 61.8263 69.3849ZM52.2967 66.114C61.093 68.5837 70.3642 67.5611 77.7442 63.3065C84.7927 59.2424 89.6471 52.6515 91.7819 44.2472C93.7352 36.559 92.2589 28.3299 87.6242 21.0759C82.5513 13.1304 74.2576 7.40346 65.4413 5.75375C60.515 4.83388 55.9288 4.87097 51.8076 5.86788C46.5193 8.43311 42.0046 12.3529 38.7223 17.2287C32.9966 25.722 31.4912 36.2024 34.5921 45.9836C36.3126 51.4074 39.395 56.2994 43.5448 60.1925C44.4187 61.01 45.3353 61.7807 46.2907 62.5013C46.7244 62.8294 47.1986 63.169 47.7435 63.5404C49.1921 64.5159 50.7149 65.3764 52.2978 66.114H52.2967Z" fill="#02004E"/>
<path d="M61.7475 65.8709C52.6612 65.8709 43.5499 61.9997 36.676 54.9329L36.5864 54.8411L34.6428 51.3442C34.5549 51.116 32.4744 45.7069 31.3029 39.843C30.0994 33.8217 32.5092 25.8733 32.6153 25.5383L32.6724 25.3991C39.8019 10.6938 50.7759 4.61248 65.2889 7.327C73.6236 8.88541 81.4561 14.2888 86.2409 21.7755C90.6411 28.662 92.0375 36.498 90.1732 43.8358C87.4815 54.4291 80.0638 62.0756 69.822 64.8147C67.1882 65.5178 64.4736 65.8729 61.7475 65.8709ZM38.1648 53.6644C46.5948 62.2696 58.5211 65.819 69.3216 62.9327C78.8615 60.3814 85.7742 53.2456 88.2867 43.3553C90.0168 36.5442 88.7078 29.2531 84.6009 22.8255C80.1009 15.7821 72.7482 10.7052 64.9339 9.24434C51.4127 6.71642 41.1601 12.4148 34.4556 26.1826C34.2274 26.9638 32.164 34.208 33.2145 39.4636C34.2867 44.8275 36.2024 49.9604 36.4375 50.5807L38.1648 53.6644Z" fill="#02004E"/>
<path d="M104.335 45.8558C105.553 39.1849 102.612 33.0595 97.7643 32.1743C92.9171 31.289 87.9999 35.9791 86.7816 42.6499C85.5633 49.3208 88.5052 55.4462 93.3524 56.3315C98.1997 57.2167 103.117 52.5266 104.335 45.8558Z" fill="white"/>
<path d="M94.5202 57.4089C94.3159 57.4089 94.1114 57.4005 93.9067 57.3838C91.7337 57.2063 89.789 56.1284 88.2825 54.2681C86.0844 51.5524 85.1332 47.5916 85.6736 43.3963C86.6037 36.1806 91.7731 30.6711 97.2005 31.1151C99.3734 31.2925 101.318 32.3705 102.825 34.2308C105.023 36.9458 105.974 40.9072 105.434 45.1025C104.538 52.0455 99.717 57.4089 94.5202 57.4089ZM96.571 33.0393C92.3409 33.0393 88.3784 37.6688 87.608 43.6457C87.1424 47.259 87.9613 50.7712 89.7981 53.0407C90.9611 54.477 92.4368 55.3067 94.0654 55.4402C98.4695 55.798 102.7 51.0503 103.499 44.8532C103.965 41.2393 103.146 37.727 101.309 35.4576C100.146 34.0213 98.6704 33.1916 97.0418 33.061C96.8832 33.0455 96.7274 33.0393 96.571 33.0393Z" fill="#02004E"/>
<path d="M105.53 46.4848C106.593 41.6122 104.275 36.9683 100.353 36.1123C96.4302 35.2564 92.3885 38.5125 91.3252 43.3852C90.2619 48.2578 92.5797 52.9018 96.5021 53.7577C100.425 54.6137 104.466 51.3575 105.53 46.4848Z" fill="white"/>
<g opacity="0.35">
<path d="M90.9368 48.8482C90.7193 47.0148 91.0035 45.1151 91.6643 43.3821C92.5123 47.5209 95.9087 49.602 99.5596 48.0647C101.919 47.0718 103.839 44.7944 104.861 42.1118C104.918 42.3726 104.958 42.6442 104.992 42.9227C105.544 47.5911 102.845 52.7029 98.9628 54.3389C95.0807 55.9749 91.4886 53.516 90.9368 48.8482Z" fill="#02004E"/>
</g>
<path d="M97.3826 56.2842C97.2411 56.2842 97.099 56.2791 96.9564 56.2688C95.3323 56.149 93.8715 55.3444 92.7337 53.9418C90.9533 51.7516 90.1726 48.3193 90.6451 44.7596C91.4514 38.6909 95.4487 34.1857 99.7359 34.5013C101.36 34.6211 102.821 35.4263 103.959 36.8289C105.739 39.019 106.52 42.4514 106.047 46.0105C105.267 51.8778 101.509 56.2842 97.3826 56.2842ZM99.3228 36.4363C96.2573 36.4363 93.2067 40.2761 92.5767 45.017C92.1733 48.0533 92.797 50.9299 94.2447 52.7115C95.0379 53.6867 96.0257 54.2448 97.0979 54.3241C100.246 54.5569 103.463 50.6321 104.112 45.7537C104.515 42.7168 103.891 39.8402 102.443 38.0592C101.65 37.0834 100.663 36.5259 99.5899 36.4466C99.5008 36.4397 99.4112 36.4363 99.3222 36.4363H99.3228Z" fill="#02004E"/>
<g opacity="0.7">
<path d="M72.0348 15.7251C72.0348 15.7251 56.5517 13.842 46.488 21.0754L46.4566 21.0982C44.3414 22.6267 42.6714 24.6908 41.6182 27.0785C40.2224 30.2329 39.7225 32.6136 39.363 34.725C38.2731 41.1452 38.9636 44.3573 38.9636 44.3573C35.8878 40.3452 34.4841 36.1447 35.3395 30.7882C35.425 30.2609 35.5329 29.7194 35.6607 29.1676C35.6898 29.0403 35.7218 28.9148 35.7554 28.7887C35.7554 28.7887 35.7554 28.7847 35.7589 28.7818C36.1881 27.3883 36.7007 26.0218 37.2939 24.6898C39.395 19.9717 43.2856 14.0132 49.982 12.0787C62.4978 8.45687 72.6774 15.1447 72.0348 15.7251Z" fill="white"/>
</g>
<g opacity="0.7">
<path d="M81.2681 38.7969C83.7915 38.561 85.6144 35.9858 85.3395 33.045C85.0646 30.1042 82.7961 27.9114 80.2726 28.1473C77.7492 28.3831 75.9263 30.9583 76.2012 33.8991C76.4761 36.8399 78.7446 39.0327 81.2681 38.7969Z" fill="white"/>
</g>
<g opacity="0.7">
<path d="M82.0644 45.323C83.0946 45.1381 83.7549 44.015 83.5394 42.8145C83.3238 41.6141 82.314 40.7909 81.2838 40.9759C80.2537 41.1608 79.5933 42.2839 79.8089 43.4844C80.0244 44.6848 81.0343 45.508 82.0644 45.323Z" fill="white"/>
</g>
<path d="M72.0001 89.1991C72.088 89.5917 73.3468 92.636 73.3468 92.636L75.582 92.1367C77.1227 91.7943 78.014 89.9209 77.5752 87.9545C77.1364 85.9881 75.5323 84.6734 73.9928 85.0169L71.7576 85.5156C71.7576 85.5156 71.8574 88.56 72.0001 89.1991Z" fill="#22A7F0"/>
<g opacity="0.35">
<path d="M72.0001 89.1991C72.088 89.5917 73.3468 92.636 73.3468 92.636L75.582 92.1367C77.1227 91.7943 78.014 89.9209 77.5752 87.9545C77.1364 85.9881 75.5323 84.6734 73.9928 85.0169L71.7576 85.5156C71.7576 85.5156 71.8574 88.56 72.0001 89.1991Z" fill="#02004E"/>
</g>
<path d="M73.3463 93.2067C73.2334 93.2066 73.1232 93.173 73.0294 93.1102C72.9357 93.0475 72.8627 92.9583 72.8196 92.854C72.5194 92.1293 71.5345 89.7321 71.4432 89.3235C71.2931 88.6513 71.1972 85.8518 71.187 85.5345C71.1826 85.4015 71.2248 85.2713 71.3063 85.1661C71.3877 85.061 71.5034 84.9876 71.6332 84.9587L73.8684 84.46C75.7133 84.0485 77.6249 85.5602 78.1322 87.8307C78.3718 88.9052 78.2663 89.9951 77.8354 90.8996C77.3824 91.8514 76.6263 92.4888 75.7064 92.6937L73.4706 93.193C73.4298 93.202 73.3881 93.2066 73.3463 93.2067ZM72.5571 89.0741C72.6096 89.2904 73.146 90.6451 73.6915 91.9741L75.4605 91.5798C76.0311 91.4531 76.5081 91.0371 76.8077 90.4089C77.1296 89.7338 77.2072 88.9064 77.02 88.0789C76.6508 86.4241 75.3492 85.2988 74.1195 85.5739L72.3471 85.9693C72.3899 87.13 72.4737 88.6987 72.5571 89.0741Z" fill="#02004E"/>
<path d="M73.3434 92.6398C74.8829 92.2963 75.7752 90.4239 75.3364 88.4578C74.8977 86.4917 73.294 85.1764 71.7545 85.5199C70.215 85.8635 69.3227 87.7358 69.7615 89.7019C70.2002 91.668 71.8039 92.9834 73.3434 92.6398Z" fill="#22A7F0"/>
<g opacity="0.35">
<path d="M75.3394 88.4545C75.7788 90.4192 74.8863 92.2932 73.3473 92.6367C71.8083 92.9802 70.2025 91.6666 69.7649 89.6973C69.7063 89.4374 69.6709 89.1727 69.6593 88.9064C70.3566 90.1687 71.5915 90.9037 72.7864 90.6349C74.116 90.3382 74.9645 88.9007 74.884 87.2453C75.0923 87.6248 75.2457 88.0319 75.3394 88.4545Z" fill="#02004E"/>
</g>
<path d="M75.3394 88.4544C75.3695 88.5863 75.3927 88.7196 75.4091 88.8539C74.7591 87.3816 73.4118 86.4869 72.1108 86.7779C70.6768 87.0992 69.802 88.7477 70.0502 90.5624C69.927 90.2839 69.8314 89.9939 69.7649 89.6967C69.3255 87.7314 70.2174 85.858 71.7564 85.5145C73.2954 85.171 74.8995 86.4875 75.3394 88.4544Z" fill="white"/>
<path d="M72.8452 93.2621C72.1279 93.2621 71.4123 92.9922 70.7812 92.4746C70.0063 91.8389 69.4476 90.8973 69.2074 89.8223C68.7012 87.5523 69.7889 85.3713 71.6332 84.9587C73.4775 84.5462 75.3897 86.0595 75.8964 88.3295C76.1361 89.4046 76.0311 90.4945 75.6002 91.3989C75.1437 92.3508 74.3905 92.9876 73.4706 93.193C73.2653 93.2389 73.0556 93.262 72.8452 93.2621ZM72.2569 86.0315C72.1306 86.0316 72.0047 86.0454 71.8814 86.0726C70.6517 86.3477 69.9521 87.9181 70.3218 89.574C70.5062 90.4009 70.9261 91.1148 71.5048 91.5918C72.0429 92.0329 72.6529 92.2064 73.2224 92.0791C73.7919 91.9519 74.2701 91.5359 74.5697 90.9082C74.8915 90.2326 74.9691 89.4051 74.7825 88.5783C74.4504 87.0901 73.3656 86.0315 72.2569 86.0315Z" fill="#02004E"/>
<path d="M68.8513 100.822C68.6932 100.822 68.5394 100.77 68.4134 100.674C68.2874 100.579 68.1961 100.445 68.1534 100.292L66.2623 93.5543C66.2139 93.3753 66.1226 93.2109 65.9963 93.0752C65.87 92.9395 65.7126 92.8366 65.5376 92.7754L62.8944 91.9194C62.594 91.8208 62.3235 91.6476 62.1081 91.4161C61.8928 91.1846 61.7396 90.9023 61.663 90.5955L59.2024 81.0996C59.1541 80.9133 59.1818 80.7156 59.2794 80.5497C59.3769 80.3839 59.5363 80.2636 59.7225 80.2154C59.9088 80.1671 60.1066 80.1948 60.2724 80.2923C60.4382 80.3898 60.5585 80.5493 60.6067 80.7355L63.0668 90.2315C63.0832 90.3016 63.1169 90.3664 63.1649 90.4201C63.2128 90.4739 63.2735 90.5147 63.3412 90.539L65.9844 91.395C66.3879 91.5285 66.7521 91.76 67.0442 92.0687C67.3364 92.3774 67.5475 92.7537 67.6587 93.164L69.5498 99.8998C69.5756 99.9914 69.583 100.087 69.5718 100.182C69.5605 100.276 69.5307 100.368 69.484 100.451C69.4374 100.534 69.3749 100.607 69.3 100.666C69.2251 100.725 69.1393 100.768 69.0476 100.794C68.9837 100.812 68.9177 100.822 68.8513 100.822Z" fill="#02004E"/>
</svg>
